<svg width="27" height="25" viewBox="0 0 27 25" fill="none" xmlns="http://www.w3.org/2000/svg">
<path d="M18.0011 17.7673L20.3261 15.6137C20.6393 15.3273 21.0354 15.1312 21.4666 15.0492C21.8977 14.9673 22.3453 15.0031 22.7549 15.1522L25.5884 16.2002C26.0023 16.3558 26.3573 16.6215 26.6085 16.9637C26.8597 17.3059 26.9959 17.7093 27 18.1231V22.9302C26.9976 23.2117 26.9337 23.4898 26.8122 23.7479C26.6907 24.0059 26.5141 24.2384 26.293 24.4316C26.0719 24.6247 25.8109 24.7744 25.5257 24.8716C25.2405 24.9688 24.937 25.0116 24.6335 24.9973C4.77792 23.8532 0.771511 8.27798 0.0138226 2.31709C-0.0213498 2.02437 0.0107863 1.72807 0.108117 1.44768C0.205447 1.16729 0.365766 0.909164 0.578526 0.690287C0.791286 0.471411 1.05167 0.296742 1.34254 0.177774C1.63341 0.0588048 1.94817 -0.00176823 2.26613 3.92929e-05H7.27933C7.72669 0.00126588 8.16342 0.126436 8.53335 0.359451C8.90329 0.592466 9.1895 0.922669 9.35519 1.30759L10.4865 3.9323C10.6529 4.31021 10.6953 4.72514 10.6085 5.12526C10.5218 5.52538 10.3097 5.89295 9.99871 6.18206L7.67375 8.33567C7.67375 8.33567 9.01267 16.729 18.0011 17.7673Z" fill="#827C85"/>
</svg>
