<svg width="21" height="38" viewBox="0 0 21 38" fill="none" xmlns="http://www.w3.org/2000/svg">
<path d="M2.4364 17.0781C2.82589 17.0781 3.21443 17.2316 3.49866 17.5323L19.6269 34.6796C20.16 35.2466 20.1169 36.1244 19.5293 36.6397C18.9436 37.154 18.0364 37.1133 17.5014 36.5462L1.37317 19.3989C0.840126 18.8319 0.883192 17.9541 1.47079 17.4388C1.7464 17.1974 2.09188 17.0781 2.4364 17.0781Z" fill="#827C85" stroke="#827C85"/>
<path d="M18.5472 0.999933C18.907 0.999933 19.2668 1.12943 19.5463 1.39028C20.1157 1.924 20.1301 2.8018 19.5779 3.35217L3.46684 19.4303C2.91561 19.9806 2.00742 19.9945 1.43705 19.4617C0.867638 18.928 0.853283 18.0502 1.40547 17.4998L17.5165 1.42173C17.7979 1.14146 18.173 0.999933 18.5472 0.999933Z" fill="#827C85" stroke="#827C85"/>
</svg>
