<svg width="21" height="38" viewBox="0 0 21 38" fill="none" xmlns="http://www.w3.org/2000/svg">
<path d="M18.5636 20.9219C18.1741 20.9219 17.7856 20.7684 17.5013 20.4677L1.37309 3.32038C0.840041 2.75336 0.883107 1.87555 1.4707 1.36034C2.05638 0.846045 2.96362 0.886746 3.49858 1.45376L19.6268 18.6011C20.1599 19.1681 20.1168 20.0459 19.5292 20.5612C19.2536 20.8026 18.9081 20.9219 18.5636 20.9219Z" fill="#827C85" stroke="#827C85"/>
<path d="M2.45276 37.0001C2.09293 37.0001 1.7331 36.8706 1.45366 36.6097C0.884244 36.076 0.869888 35.1982 1.42208 34.6478L17.5331 18.5697C18.0843 18.0194 18.9925 18.0055 19.5629 18.5383C20.1323 19.072 20.1467 19.9498 19.5945 20.5002L3.48344 36.5783C3.20209 36.8585 2.82694 37.0001 2.45276 37.0001Z" fill="#827C85" stroke="#827C85"/>
</svg>
