<svg width="24" height="25" viewBox="0 0 24 25" fill="none" xmlns="http://www.w3.org/2000/svg">
<path d="M15.84 12.5C15.84 13.2911 15.6148 14.0645 15.1928 14.7223C14.7709 15.3801 14.1712 15.8928 13.4695 16.1955C12.7678 16.4983 11.9957 16.5775 11.2509 16.4231C10.506 16.2688 9.82174 15.8878 9.28471 15.3284C8.74768 14.769 8.38195 14.0563 8.23378 13.2804C8.08562 12.5044 8.16166 11.7002 8.4523 10.9693C8.74294 10.2384 9.23513 9.61365 9.86661 9.17412C10.4981 8.7346 11.2405 8.5 12 8.5C13.0181 8.50122 13.9941 8.92304 14.714 9.67292C15.4339 10.4228 15.8388 11.4395 15.84 12.5ZM24 7V18C23.998 19.8559 23.2893 21.6351 22.0295 22.9474C20.7697 24.2597 19.0616 24.9979 17.28 25H6.72C4.93837 24.9979 3.23029 24.2597 1.97049 22.9474C0.710684 21.6351 0.00203267 19.8559 0 18V7C0.00203267 5.14413 0.710684 3.36489 1.97049 2.05259C3.23029 0.740295 4.93837 0.00211736 6.72 0H17.28C19.0616 0.00211736 20.7697 0.740295 22.0295 2.05259C23.2893 3.36489 23.998 5.14413 24 7ZM17.76 12.5C17.76 11.3133 17.4222 10.1533 16.7893 9.16658C16.1563 8.17988 15.2568 7.41085 14.2043 6.95672C13.1518 6.5026 11.9936 6.38378 10.8763 6.61529C9.75895 6.8468 8.73262 7.41824 7.92706 8.25736C7.12151 9.09647 6.57293 10.1656 6.35068 11.3295C6.12843 12.4933 6.24249 13.6997 6.67845 14.7961C7.11441 15.8925 7.85269 16.8295 8.79992 17.4888C9.74714 18.1481 10.8608 18.5 12 18.5C13.5271 18.4982 14.9912 17.8655 16.071 16.7407C17.1509 15.6158 17.7583 14.0908 17.76 12.5ZM19.68 6C19.68 5.70333 19.5955 5.41332 19.4373 5.16665C19.2791 4.91997 19.0542 4.72771 18.7911 4.61418C18.5279 4.50065 18.2384 4.47094 17.9591 4.52882C17.6797 4.5867 17.4232 4.72956 17.2218 4.93934C17.0204 5.14912 16.8832 5.41639 16.8277 5.70736C16.7721 5.99834 16.8006 6.29994 16.9096 6.57403C17.0186 6.84811 17.2032 7.08238 17.44 7.2472C17.6768 7.41203 17.9552 7.5 18.24 7.5C18.6219 7.5 18.9882 7.34196 19.2582 7.06066C19.5283 6.77936 19.68 6.39782 19.68 6Z" fill="#827C85"/>
</svg>
