<svg width="26" height="25" viewBox="0 0 26 25" fill="none" xmlns="http://www.w3.org/2000/svg">
<path d="M24.96 0H1.04C0.46475 0 0 0.446875 0 1V24C0 24.5531 0.46475 25 1.04 25H24.96C25.5352 25 26 24.5531 26 24V1C26 0.446875 25.5352 0 24.96 0ZM7.71225 21.3031H3.8545V9.37187H7.71225V21.3031ZM5.785 7.74063C5.34276 7.74063 4.91045 7.61453 4.54274 7.37828C4.17504 7.14204 3.88844 6.80626 3.71921 6.41339C3.54997 6.02053 3.50569 5.58824 3.59196 5.17118C3.67824 4.75412 3.8912 4.37103 4.20391 4.07035C4.51662 3.76966 4.91504 3.56489 5.34878 3.48194C5.78252 3.39898 6.2321 3.44156 6.64068 3.60428C7.04926 3.76701 7.39847 4.04258 7.64417 4.39615C7.88986 4.74971 8.021 5.16539 8.021 5.59062C8.01775 6.77812 7.01675 7.74063 5.785 7.74063ZM22.1552 21.3031H18.3007V15.5C18.3007 14.1156 18.2747 12.3375 16.2955 12.3375C14.2902 12.3375 13.9815 13.8438 13.9815 15.4V21.3031H10.1302V9.37187H13.8287V11.0031H13.8807C14.3942 10.0656 15.652 9.075 17.5305 9.075C21.437 9.075 22.1552 11.5469 22.1552 14.7594V21.3031Z" fill="#827C85"/>
</svg>
