<svg width="30" height="25" viewBox="0 0 30 25" fill="none" xmlns="http://www.w3.org/2000/svg">
<path d="M27 0H3C1.35 0 0.015 1.40625 0.015 3.125L0 21.875C0 23.5938 1.35 25 3 25H27C28.65 25 30 23.5938 30 21.875V3.125C30 1.40625 28.65 0 27 0ZM26.4 6.64062L15.795 13.5469C15.315 13.8594 14.685 13.8594 14.205 13.5469L3.6 6.64062C3.44959 6.55267 3.31788 6.43385 3.21283 6.29133C3.10779 6.14882 3.03159 5.98559 2.98886 5.81152C2.94613 5.63744 2.93775 5.45615 2.96423 5.2786C2.99072 5.10106 3.0515 4.93096 3.14292 4.7786C3.23434 4.62623 3.35449 4.49477 3.49609 4.39218C3.63769 4.28959 3.79781 4.21799 3.96674 4.18172C4.13568 4.14545 4.30992 4.14526 4.47893 4.18117C4.64794 4.21708 4.8082 4.28833 4.95 4.39062L15 10.9375L25.05 4.39062C25.1918 4.28833 25.3521 4.21708 25.5211 4.18117C25.6901 4.14526 25.8643 4.14545 26.0333 4.18172C26.2022 4.21799 26.3623 4.28959 26.5039 4.39218C26.6455 4.49477 26.7657 4.62623 26.8571 4.7786C26.9485 4.93096 27.0093 5.10106 27.0358 5.2786C27.0622 5.45615 27.0539 5.63744 27.0111 5.81152C26.9684 5.98559 26.8922 6.14882 26.7872 6.29133C26.6821 6.43385 26.5504 6.55267 26.4 6.64062V6.64062Z" fill="#827C85"/>
</svg>
