<svg width="88" height="88" viewBox="0 0 88 88" fill="none" xmlns="http://www.w3.org/2000/svg">
<circle cx="44" cy="44" r="44" fill="white"/>
<path d="M27.3906 51.293C26.3457 51.293 25.3887 51.1025 24.5195 50.7217C23.6602 50.3311 22.9375 49.7354 22.3516 48.9346H22.1758C22.293 49.8721 22.3516 50.7607 22.3516 51.6006V58.207H19.9199V34.9453H21.8975L22.2344 37.1426H22.3516C22.9766 36.2637 23.7041 35.6289 24.5342 35.2383C25.3643 34.8477 26.3164 34.6523 27.3906 34.6523C29.5195 34.6523 31.1602 35.3799 32.3125 36.835C33.4746 38.29 34.0557 40.3311 34.0557 42.958C34.0557 45.5947 33.4648 47.6455 32.2832 49.1104C31.1113 50.5654 29.4805 51.293 27.3906 51.293ZM27.0391 36.7178C25.3984 36.7178 24.2119 37.1719 23.4795 38.0801C22.7471 38.9883 22.3711 40.4336 22.3516 42.416V42.958C22.3516 45.2139 22.7275 46.8301 23.4795 47.8066C24.2314 48.7734 25.4375 49.2568 27.0977 49.2568C28.4844 49.2568 29.5684 48.6953 30.3496 47.5723C31.1406 46.4492 31.5361 44.9014 31.5361 42.9287C31.5361 40.9268 31.1406 39.3936 30.3496 38.3291C29.5684 37.2549 28.4648 36.7178 27.0391 36.7178ZM58.7822 51V40.5557C58.7822 39.2764 58.5088 38.3193 57.9619 37.6846C57.415 37.04 56.5654 36.7178 55.4131 36.7178C53.8994 36.7178 52.7812 37.1523 52.0586 38.0215C51.3359 38.8906 50.9746 40.2285 50.9746 42.0352V51H48.543V40.5557C48.543 39.2764 48.2695 38.3193 47.7227 37.6846C47.1758 37.04 46.3213 36.7178 45.1592 36.7178C43.6357 36.7178 42.5176 37.1768 41.8047 38.0947C41.1016 39.0029 40.75 40.4971 40.75 42.5771V51H38.3184V34.9453H40.2959L40.6914 37.1426H40.8086C41.2676 36.3613 41.9121 35.751 42.7422 35.3115C43.582 34.8721 44.5195 34.6523 45.5547 34.6523C48.0645 34.6523 49.7051 35.5605 50.4766 37.377H50.5938C51.0723 36.5371 51.7656 35.873 52.6738 35.3848C53.582 34.8965 54.6172 34.6523 55.7793 34.6523C57.5957 34.6523 58.9531 35.1211 59.8516 36.0586C60.7598 36.9863 61.2139 38.4756 61.2139 40.5264V51H58.7822ZM65.8867 49.4473C65.8867 48.793 66.0332 48.2998 66.3262 47.9678C66.6289 47.626 67.0586 47.4551 67.6152 47.4551C68.1816 47.4551 68.6211 47.626 68.9336 47.9678C69.2559 48.2998 69.417 48.793 69.417 49.4473C69.417 50.082 69.2559 50.5703 68.9336 50.9121C68.6113 51.2539 68.1719 51.4248 67.6152 51.4248C67.1172 51.4248 66.7021 51.2734 66.3701 50.9707C66.0479 50.6582 65.8867 50.1504 65.8867 49.4473Z" fill="#1C1026"/>
</svg>
