<svg width="379" height="228" viewBox="0 0 379 228" fill="none" xmlns="http://www.w3.org/2000/svg">
<rect width="379" height="228" rx="6" fill="white"/>
<path d="M24.1226 39.4545C25.7218 39.4545 27.2851 39.9397 28.6148 40.8487C29.9445 41.7578 30.9808 43.0498 31.5928 44.5614C32.2048 46.0731 32.3649 47.7364 32.0529 49.3412C31.7409 50.946 30.9709 52.42 29.8401 53.577C28.7093 54.7339 27.2685 55.5218 25.7001 55.841C24.1316 56.1602 22.5058 55.9964 21.0284 55.3703C19.5509 54.7441 18.2881 53.6838 17.3996 52.3234C16.5112 50.9629 16.037 49.3635 16.037 47.7273L16 46.5455C16 42.1573 17.7038 37.9489 20.7365 34.8461C23.7692 31.7432 27.8824 30 32.1713 30V34.7273C30.6538 34.7231 29.1505 35.0268 27.7483 35.6207C26.3462 36.2147 25.073 37.0871 24.0025 38.1876C23.5864 38.6125 23.2026 39.0693 22.8543 39.5538C23.2679 39.4876 23.6906 39.4522 24.1203 39.4522L24.1226 39.4545ZM44.9143 39.4545C46.5135 39.4545 48.0768 39.9397 49.4065 40.8487C50.7362 41.7578 51.7725 43.0498 52.3845 44.5614C52.9965 46.0731 53.1566 47.7364 52.8446 49.3412C52.5326 50.946 51.7626 52.42 50.6318 53.577C49.501 54.7339 48.0602 55.5218 46.4918 55.841C44.9233 56.1602 43.2975 55.9964 41.8201 55.3703C40.3426 54.7441 39.0798 53.6838 38.1913 52.3234C37.3029 50.9629 36.8287 49.3635 36.8287 47.7273L36.7917 46.5455C36.7917 42.1573 38.4955 37.9489 41.5282 34.8461C44.5609 31.7432 48.6741 30 52.963 30V34.7273C51.4455 34.7231 49.9422 35.0268 48.54 35.6207C47.1379 36.2147 45.8647 37.0871 44.7942 38.1876C44.3781 38.6125 43.9943 39.0693 43.646 39.5538C44.0596 39.4876 44.4823 39.4522 44.9143 39.4522V39.4545Z" fill="#1C1026" fill-opacity="0.15"/>
<path d="M77.8438 48L76.2441 43.9131H71.0938L69.5117 48H68L73.0801 35.0977H74.3369L79.3906 48H77.8438ZM75.7783 42.5684L74.2842 38.5869C74.0908 38.083 73.8916 37.4648 73.6865 36.7324C73.5576 37.2949 73.373 37.9131 73.1328 38.5869L71.6211 42.5684H75.7783ZM90.0957 48.1758C89.4688 48.1758 88.8945 48.0615 88.373 47.833C87.8574 47.5986 87.4238 47.2412 87.0723 46.7607H86.9668C87.0371 47.3232 87.0723 47.8564 87.0723 48.3604V52.3242H85.6133V38.3672H86.7998L87.002 39.6855H87.0723C87.4473 39.1582 87.8838 38.7773 88.3818 38.543C88.8799 38.3086 89.4512 38.1914 90.0957 38.1914C91.373 38.1914 92.3574 38.6279 93.0488 39.501C93.7461 40.374 94.0947 41.5986 94.0947 43.1748C94.0947 44.7568 93.7402 45.9873 93.0312 46.8662C92.3281 47.7393 91.3496 48.1758 90.0957 48.1758ZM89.8848 39.4307C88.9004 39.4307 88.1885 39.7031 87.749 40.248C87.3096 40.793 87.084 41.6602 87.0723 42.8496V43.1748C87.0723 44.5283 87.2979 45.498 87.749 46.084C88.2002 46.6641 88.9238 46.9541 89.9199 46.9541C90.752 46.9541 91.4023 46.6172 91.8711 45.9434C92.3457 45.2695 92.583 44.3408 92.583 43.1572C92.583 41.9561 92.3457 41.0361 91.8711 40.3975C91.4023 39.7529 90.7402 39.4307 89.8848 39.4307ZM101.047 38.1914C101.475 38.1914 101.858 38.2266 102.198 38.2969L101.996 39.6504C101.598 39.5625 101.246 39.5186 100.941 39.5186C100.162 39.5186 99.4941 39.835 98.9375 40.4678C98.3867 41.1006 98.1113 41.8887 98.1113 42.832V48H96.6523V38.3672H97.8564L98.0234 40.1514H98.0938C98.4512 39.5244 98.8818 39.041 99.3857 38.7012C99.8896 38.3613 100.443 38.1914 101.047 38.1914ZM112.314 43.1748C112.314 44.7451 111.919 45.9727 111.128 46.8574C110.337 47.7363 109.244 48.1758 107.85 48.1758C106.988 48.1758 106.224 47.9736 105.556 47.5693C104.888 47.165 104.372 46.585 104.009 45.8291C103.646 45.0732 103.464 44.1885 103.464 43.1748C103.464 41.6045 103.856 40.3828 104.642 39.5098C105.427 38.6309 106.517 38.1914 107.911 38.1914C109.259 38.1914 110.328 38.6396 111.119 39.5361C111.916 40.4326 112.314 41.6455 112.314 43.1748ZM104.976 43.1748C104.976 44.4053 105.222 45.3428 105.714 45.9873C106.206 46.6318 106.93 46.9541 107.885 46.9541C108.84 46.9541 109.563 46.6348 110.056 45.9961C110.554 45.3516 110.803 44.4111 110.803 43.1748C110.803 41.9502 110.554 41.0215 110.056 40.3887C109.563 39.75 108.834 39.4307 107.867 39.4307C106.912 39.4307 106.191 39.7441 105.705 40.3711C105.219 40.998 104.976 41.9326 104.976 43.1748ZM122.765 38.3672V39.29L120.98 39.501C121.145 39.7061 121.291 39.9756 121.42 40.3096C121.549 40.6377 121.613 41.0098 121.613 41.4258C121.613 42.3691 121.291 43.1221 120.646 43.6846C120.002 44.2471 119.117 44.5283 117.992 44.5283C117.705 44.5283 117.436 44.5049 117.184 44.458C116.562 44.7861 116.252 45.1992 116.252 45.6973C116.252 45.9609 116.36 46.1572 116.577 46.2861C116.794 46.4092 117.166 46.4707 117.693 46.4707H119.398C120.441 46.4707 121.241 46.6904 121.798 47.1299C122.36 47.5693 122.642 48.208 122.642 49.0459C122.642 50.1123 122.214 50.9238 121.358 51.4805C120.503 52.043 119.255 52.3242 117.614 52.3242C116.354 52.3242 115.382 52.0898 114.696 51.6211C114.017 51.1523 113.677 50.4902 113.677 49.6348C113.677 49.0488 113.864 48.542 114.239 48.1143C114.614 47.6865 115.142 47.3965 115.821 47.2441C115.575 47.1328 115.367 46.96 115.197 46.7256C115.033 46.4912 114.951 46.2188 114.951 45.9082C114.951 45.5566 115.045 45.249 115.232 44.9854C115.42 44.7217 115.716 44.4668 116.12 44.2207C115.622 44.0156 115.215 43.667 114.898 43.1748C114.588 42.6826 114.433 42.1201 114.433 41.4873C114.433 40.4326 114.749 39.6211 115.382 39.0527C116.015 38.4785 116.911 38.1914 118.071 38.1914C118.575 38.1914 119.029 38.25 119.434 38.3672H122.765ZM115.083 49.6172C115.083 50.1387 115.303 50.5342 115.742 50.8037C116.182 51.0732 116.812 51.208 117.632 51.208C118.856 51.208 119.762 51.0234 120.348 50.6543C120.939 50.291 121.235 49.7959 121.235 49.1689C121.235 48.6475 121.074 48.2842 120.752 48.0791C120.43 47.8799 119.823 47.7803 118.933 47.7803H117.184C116.521 47.7803 116.006 47.9385 115.637 48.2549C115.268 48.5713 115.083 49.0254 115.083 49.6172ZM115.874 41.4521C115.874 42.126 116.064 42.6357 116.445 42.9814C116.826 43.3271 117.356 43.5 118.036 43.5C119.46 43.5 120.172 42.8086 120.172 41.4258C120.172 39.9785 119.451 39.2549 118.01 39.2549C117.324 39.2549 116.797 39.4395 116.428 39.8086C116.059 40.1777 115.874 40.7256 115.874 41.4521ZM129.137 38.1914C129.564 38.1914 129.948 38.2266 130.288 38.2969L130.086 39.6504C129.688 39.5625 129.336 39.5186 129.031 39.5186C128.252 39.5186 127.584 39.835 127.027 40.4678C126.477 41.1006 126.201 41.8887 126.201 42.832V48H124.742V38.3672H125.946L126.113 40.1514H126.184C126.541 39.5244 126.972 39.041 127.476 38.7012C127.979 38.3613 128.533 38.1914 129.137 38.1914ZM136.159 48.1758C134.735 48.1758 133.61 47.7422 132.784 46.875C131.964 46.0078 131.554 44.8037 131.554 43.2627C131.554 41.71 131.935 40.4766 132.696 39.5625C133.464 38.6484 134.492 38.1914 135.781 38.1914C136.988 38.1914 137.943 38.5898 138.646 39.3867C139.35 40.1777 139.701 41.2236 139.701 42.5244V43.4473H133.065C133.095 44.5781 133.379 45.4365 133.918 46.0225C134.463 46.6084 135.228 46.9014 136.212 46.9014C137.249 46.9014 138.274 46.6846 139.288 46.251V47.5518C138.772 47.7744 138.283 47.9326 137.82 48.0264C137.363 48.126 136.81 48.1758 136.159 48.1758ZM135.764 39.4131C134.99 39.4131 134.372 39.665 133.909 40.1689C133.452 40.6729 133.183 41.3701 133.101 42.2607H138.137C138.137 41.3408 137.932 40.6377 137.521 40.1514C137.111 39.6592 136.525 39.4131 135.764 39.4131ZM148.411 45.3721C148.411 46.2686 148.077 46.96 147.409 47.4463C146.741 47.9326 145.804 48.1758 144.597 48.1758C143.319 48.1758 142.323 47.9736 141.608 47.5693V46.2158C142.071 46.4502 142.566 46.6348 143.094 46.7695C143.627 46.9043 144.14 46.9717 144.632 46.9717C145.394 46.9717 145.979 46.8516 146.39 46.6113C146.8 46.3652 147.005 45.9932 147.005 45.4951C147.005 45.1201 146.841 44.8008 146.513 44.5371C146.19 44.2676 145.558 43.9512 144.614 43.5879C143.718 43.2539 143.079 42.9639 142.698 42.7178C142.323 42.4658 142.042 42.1816 141.854 41.8652C141.673 41.5488 141.582 41.1709 141.582 40.7314C141.582 39.9463 141.901 39.3281 142.54 38.877C143.179 38.4199 144.055 38.1914 145.168 38.1914C146.205 38.1914 147.219 38.4023 148.209 38.8242L147.69 40.0107C146.724 39.6123 145.848 39.4131 145.062 39.4131C144.371 39.4131 143.85 39.5215 143.498 39.7383C143.146 39.9551 142.971 40.2539 142.971 40.6348C142.971 40.8926 143.035 41.1123 143.164 41.2939C143.299 41.4756 143.513 41.6484 143.806 41.8125C144.099 41.9766 144.661 42.2139 145.493 42.5244C146.636 42.9404 147.406 43.3594 147.805 43.7812C148.209 44.2031 148.411 44.7334 148.411 45.3721ZM157.007 45.3721C157.007 46.2686 156.673 46.96 156.005 47.4463C155.337 47.9326 154.399 48.1758 153.192 48.1758C151.915 48.1758 150.919 47.9736 150.204 47.5693V46.2158C150.667 46.4502 151.162 46.6348 151.689 46.7695C152.223 46.9043 152.735 46.9717 153.228 46.9717C153.989 46.9717 154.575 46.8516 154.985 46.6113C155.396 46.3652 155.601 45.9932 155.601 45.4951C155.601 45.1201 155.437 44.8008 155.108 44.5371C154.786 44.2676 154.153 43.9512 153.21 43.5879C152.313 43.2539 151.675 42.9639 151.294 42.7178C150.919 42.4658 150.638 42.1816 150.45 41.8652C150.269 41.5488 150.178 41.1709 150.178 40.7314C150.178 39.9463 150.497 39.3281 151.136 38.877C151.774 38.4199 152.65 38.1914 153.764 38.1914C154.801 38.1914 155.814 38.4023 156.805 38.8242L156.286 40.0107C155.319 39.6123 154.443 39.4131 153.658 39.4131C152.967 39.4131 152.445 39.5215 152.094 39.7383C151.742 39.9551 151.566 40.2539 151.566 40.6348C151.566 40.8926 151.631 41.1123 151.76 41.2939C151.895 41.4756 152.108 41.6484 152.401 41.8125C152.694 41.9766 153.257 42.2139 154.089 42.5244C155.231 42.9404 156.002 43.3594 156.4 43.7812C156.805 44.2031 157.007 44.7334 157.007 45.3721ZM167.176 46.9717C167.434 46.9717 167.683 46.9541 167.923 46.9189C168.163 46.8779 168.354 46.8369 168.494 46.7959V47.9121C168.336 47.9883 168.102 48.0498 167.791 48.0967C167.486 48.1494 167.211 48.1758 166.965 48.1758C165.102 48.1758 164.17 47.1943 164.17 45.2314V39.501H162.79V38.7979L164.17 38.1914L164.785 36.1348H165.629V38.3672H168.424V39.501H165.629V45.1699C165.629 45.75 165.767 46.1953 166.042 46.5059C166.317 46.8164 166.695 46.9717 167.176 46.9717ZM174.822 38.1914C175.25 38.1914 175.634 38.2266 175.974 38.2969L175.771 39.6504C175.373 39.5625 175.021 39.5186 174.717 39.5186C173.938 39.5186 173.27 39.835 172.713 40.4678C172.162 41.1006 171.887 41.8887 171.887 42.832V48H170.428V38.3672H171.632L171.799 40.1514H171.869C172.227 39.5244 172.657 39.041 173.161 38.7012C173.665 38.3613 174.219 38.1914 174.822 38.1914ZM183.699 48L183.409 46.6289H183.339C182.858 47.2324 182.378 47.6426 181.897 47.8594C181.423 48.0703 180.828 48.1758 180.113 48.1758C179.158 48.1758 178.408 47.9297 177.863 47.4375C177.324 46.9453 177.055 46.2451 177.055 45.3369C177.055 43.3916 178.61 42.3721 181.722 42.2783L183.356 42.2256V41.6279C183.356 40.8721 183.192 40.3154 182.864 39.958C182.542 39.5947 182.023 39.4131 181.309 39.4131C180.506 39.4131 179.598 39.6592 178.584 40.1514L178.136 39.0352C178.61 38.7773 179.129 38.5752 179.691 38.4287C180.26 38.2822 180.828 38.209 181.396 38.209C182.545 38.209 183.395 38.4639 183.945 38.9736C184.502 39.4834 184.78 40.3008 184.78 41.4258V48H183.699ZM180.403 46.9717C181.312 46.9717 182.023 46.7227 182.539 46.2246C183.061 45.7266 183.321 45.0293 183.321 44.1328V43.2627L181.862 43.3242C180.702 43.3652 179.864 43.5469 179.349 43.8691C178.839 44.1855 178.584 44.6807 178.584 45.3545C178.584 45.8818 178.742 46.2832 179.059 46.5586C179.381 46.834 179.829 46.9717 180.403 46.9717ZM191.645 48.1758C190.25 48.1758 189.169 47.748 188.401 46.8926C187.64 46.0312 187.259 44.8154 187.259 43.2451C187.259 41.6338 187.646 40.3887 188.419 39.5098C189.198 38.6309 190.306 38.1914 191.741 38.1914C192.204 38.1914 192.667 38.2412 193.13 38.3408C193.593 38.4404 193.956 38.5576 194.22 38.6924L193.771 39.9316C193.449 39.8027 193.098 39.6973 192.717 39.6152C192.336 39.5273 191.999 39.4834 191.706 39.4834C189.749 39.4834 188.771 40.7314 188.771 43.2275C188.771 44.4111 189.008 45.3193 189.482 45.9521C189.963 46.585 190.672 46.9014 191.609 46.9014C192.412 46.9014 193.235 46.7285 194.079 46.3828V47.6748C193.435 48.0088 192.623 48.1758 191.645 48.1758ZM197.814 43.0693C198.066 42.7119 198.45 42.2432 198.966 41.6631L202.077 38.3672H203.809L199.906 42.4717L204.081 48H202.314L198.913 43.4473L197.814 44.3965V48H196.373V34.3242H197.814V41.5752C197.814 41.8975 197.791 42.3955 197.744 43.0693H197.814ZM209.899 48.1758C208.476 48.1758 207.351 47.7422 206.524 46.875C205.704 46.0078 205.294 44.8037 205.294 43.2627C205.294 41.71 205.675 40.4766 206.437 39.5625C207.204 38.6484 208.232 38.1914 209.521 38.1914C210.729 38.1914 211.684 38.5898 212.387 39.3867C213.09 40.1777 213.441 41.2236 213.441 42.5244V43.4473H206.806C206.835 44.5781 207.119 45.4365 207.658 46.0225C208.203 46.6084 208.968 46.9014 209.952 46.9014C210.989 46.9014 212.015 46.6846 213.028 46.251V47.5518C212.513 47.7744 212.023 47.9326 211.561 48.0264C211.104 48.126 210.55 48.1758 209.899 48.1758ZM209.504 39.4131C208.73 39.4131 208.112 39.665 207.649 40.1689C207.192 40.6729 206.923 41.3701 206.841 42.2607H211.877C211.877 41.3408 211.672 40.6377 211.262 40.1514C210.852 39.6592 210.266 39.4131 209.504 39.4131ZM220.332 38.1914C220.76 38.1914 221.144 38.2266 221.483 38.2969L221.281 39.6504C220.883 39.5625 220.531 39.5186 220.227 39.5186C219.447 39.5186 218.779 39.835 218.223 40.4678C217.672 41.1006 217.396 41.8887 217.396 42.832V48H215.938V38.3672H217.142L217.309 40.1514H217.379C217.736 39.5244 218.167 39.041 218.671 38.7012C219.175 38.3613 219.729 38.1914 220.332 38.1914ZM232.303 39.501H229.851V48H228.392V39.501H226.669V38.8418L228.392 38.3145V37.7783C228.392 35.4111 229.426 34.2275 231.494 34.2275C232.004 34.2275 232.602 34.3301 233.287 34.5352L232.909 35.7041C232.347 35.5225 231.866 35.4316 231.468 35.4316C230.917 35.4316 230.51 35.6162 230.246 35.9854C229.982 36.3486 229.851 36.9346 229.851 37.7432V38.3672H232.303V39.501ZM242.375 43.1748C242.375 44.7451 241.979 45.9727 241.188 46.8574C240.397 47.7363 239.305 48.1758 237.91 48.1758C237.049 48.1758 236.284 47.9736 235.616 47.5693C234.948 47.165 234.433 46.585 234.069 45.8291C233.706 45.0732 233.524 44.1885 233.524 43.1748C233.524 41.6045 233.917 40.3828 234.702 39.5098C235.487 38.6309 236.577 38.1914 237.972 38.1914C239.319 38.1914 240.389 38.6396 241.18 39.5361C241.977 40.4326 242.375 41.6455 242.375 43.1748ZM235.036 43.1748C235.036 44.4053 235.282 45.3428 235.774 45.9873C236.267 46.6318 236.99 46.9541 237.945 46.9541C238.9 46.9541 239.624 46.6348 240.116 45.9961C240.614 45.3516 240.863 44.4111 240.863 43.1748C240.863 41.9502 240.614 41.0215 240.116 40.3887C239.624 39.75 238.895 39.4307 237.928 39.4307C236.973 39.4307 236.252 39.7441 235.766 40.3711C235.279 40.998 235.036 41.9326 235.036 43.1748ZM249.336 38.1914C249.764 38.1914 250.147 38.2266 250.487 38.2969L250.285 39.6504C249.887 39.5625 249.535 39.5186 249.23 39.5186C248.451 39.5186 247.783 39.835 247.227 40.4678C246.676 41.1006 246.4 41.8887 246.4 42.832V48H244.941V38.3672H246.146L246.312 40.1514H246.383C246.74 39.5244 247.171 39.041 247.675 38.7012C248.179 38.3613 248.732 38.1914 249.336 38.1914ZM269.243 48V41.7334C269.243 40.9658 269.079 40.3916 268.751 40.0107C268.423 39.624 267.913 39.4307 267.222 39.4307C266.313 39.4307 265.643 39.6914 265.209 40.2129C264.775 40.7344 264.559 41.5371 264.559 42.6211V48H263.1V41.7334C263.1 40.9658 262.936 40.3916 262.607 40.0107C262.279 39.624 261.767 39.4307 261.069 39.4307C260.155 39.4307 259.484 39.7061 259.057 40.2568C258.635 40.8018 258.424 41.6982 258.424 42.9463V48H256.965V38.3672H258.151L258.389 39.6855H258.459C258.734 39.2168 259.121 38.8506 259.619 38.5869C260.123 38.3232 260.686 38.1914 261.307 38.1914C262.812 38.1914 263.797 38.7363 264.26 39.8262H264.33C264.617 39.3223 265.033 38.9238 265.578 38.6309C266.123 38.3379 266.744 38.1914 267.441 38.1914C268.531 38.1914 269.346 38.4727 269.885 39.0352C270.43 39.5918 270.702 40.4854 270.702 41.7158V48H269.243ZM282.031 43.1748C282.031 44.7451 281.636 45.9727 280.845 46.8574C280.054 47.7363 278.961 48.1758 277.566 48.1758C276.705 48.1758 275.94 47.9736 275.272 47.5693C274.604 47.165 274.089 46.585 273.726 45.8291C273.362 45.0732 273.181 44.1885 273.181 43.1748C273.181 41.6045 273.573 40.3828 274.358 39.5098C275.144 38.6309 276.233 38.1914 277.628 38.1914C278.976 38.1914 280.045 38.6396 280.836 39.5361C281.633 40.4326 282.031 41.6455 282.031 43.1748ZM274.692 43.1748C274.692 44.4053 274.938 45.3428 275.431 45.9873C275.923 46.6318 276.646 46.9541 277.602 46.9541C278.557 46.9541 279.28 46.6348 279.772 45.9961C280.271 45.3516 280.52 44.4111 280.52 43.1748C280.52 41.9502 280.271 41.0215 279.772 40.3887C279.28 39.75 278.551 39.4307 277.584 39.4307C276.629 39.4307 275.908 39.7441 275.422 40.3711C274.936 40.998 274.692 41.9326 274.692 43.1748ZM291.154 46.708H291.075C290.401 47.6865 289.394 48.1758 288.052 48.1758C286.792 48.1758 285.811 47.7451 285.107 46.8838C284.41 46.0225 284.062 44.7979 284.062 43.21C284.062 41.6221 284.413 40.3887 285.116 39.5098C285.819 38.6309 286.798 38.1914 288.052 38.1914C289.358 38.1914 290.36 38.666 291.058 39.6152H291.172L291.11 38.9209L291.075 38.2441V34.3242H292.534V48H291.348L291.154 46.708ZM288.236 46.9541C289.232 46.9541 289.953 46.6846 290.398 46.1455C290.85 45.6006 291.075 44.7246 291.075 43.5176V43.21C291.075 41.8447 290.847 40.8721 290.39 40.292C289.938 39.7061 289.215 39.4131 288.219 39.4131C287.363 39.4131 286.707 39.7471 286.25 40.415C285.799 41.0771 285.573 42.0146 285.573 43.2275C285.573 44.458 285.799 45.3867 286.25 46.0137C286.701 46.6406 287.363 46.9541 288.236 46.9541ZM297.008 38.3672V44.6162C297.008 45.4014 297.187 45.9873 297.544 46.374C297.901 46.7607 298.461 46.9541 299.223 46.9541C300.23 46.9541 300.966 46.6787 301.429 46.1279C301.897 45.5771 302.132 44.6777 302.132 43.4297V38.3672H303.591V48H302.387L302.176 46.708H302.097C301.798 47.1826 301.382 47.5459 300.849 47.7979C300.321 48.0498 299.718 48.1758 299.038 48.1758C297.866 48.1758 296.987 47.8975 296.401 47.3408C295.821 46.7842 295.531 45.8936 295.531 44.6689V38.3672H297.008ZM308.152 48H306.693V34.3242H308.152V48ZM315.315 48.1758C313.892 48.1758 312.767 47.7422 311.94 46.875C311.12 46.0078 310.71 44.8037 310.71 43.2627C310.71 41.71 311.091 40.4766 311.853 39.5625C312.62 38.6484 313.648 38.1914 314.938 38.1914C316.145 38.1914 317.1 38.5898 317.803 39.3867C318.506 40.1777 318.857 41.2236 318.857 42.5244V43.4473H312.222C312.251 44.5781 312.535 45.4365 313.074 46.0225C313.619 46.6084 314.384 46.9014 315.368 46.9014C316.405 46.9014 317.431 46.6846 318.444 46.251V47.5518C317.929 47.7744 317.439 47.9326 316.977 48.0264C316.52 48.126 315.966 48.1758 315.315 48.1758ZM314.92 39.4131C314.146 39.4131 313.528 39.665 313.065 40.1689C312.608 40.6729 312.339 41.3701 312.257 42.2607H317.293C317.293 41.3408 317.088 40.6377 316.678 40.1514C316.268 39.6592 315.682 39.4131 314.92 39.4131ZM327.567 45.3721C327.567 46.2686 327.233 46.96 326.565 47.4463C325.897 47.9326 324.96 48.1758 323.753 48.1758C322.476 48.1758 321.479 47.9736 320.765 47.5693V46.2158C321.228 46.4502 321.723 46.6348 322.25 46.7695C322.783 46.9043 323.296 46.9717 323.788 46.9717C324.55 46.9717 325.136 46.8516 325.546 46.6113C325.956 46.3652 326.161 45.9932 326.161 45.4951C326.161 45.1201 325.997 44.8008 325.669 44.5371C325.347 44.2676 324.714 43.9512 323.771 43.5879C322.874 43.2539 322.235 42.9639 321.854 42.7178C321.479 42.4658 321.198 42.1816 321.011 41.8652C320.829 41.5488 320.738 41.1709 320.738 40.7314C320.738 39.9463 321.058 39.3281 321.696 38.877C322.335 38.4199 323.211 38.1914 324.324 38.1914C325.361 38.1914 326.375 38.4023 327.365 38.8242L326.847 40.0107C325.88 39.6123 325.004 39.4131 324.219 39.4131C323.527 39.4131 323.006 39.5215 322.654 39.7383C322.303 39.9551 322.127 40.2539 322.127 40.6348C322.127 40.8926 322.191 41.1123 322.32 41.2939C322.455 41.4756 322.669 41.6484 322.962 41.8125C323.255 41.9766 323.817 42.2139 324.649 42.5244C325.792 42.9404 326.562 43.3594 326.961 43.7812C327.365 44.2031 327.567 44.7334 327.567 45.3721ZM331.479 45.9082L331.61 46.1104C331.458 46.6963 331.238 47.376 330.951 48.1494C330.664 48.9287 330.365 49.6523 330.055 50.3203H328.956C329.114 49.7109 329.287 48.958 329.475 48.0615C329.668 47.165 329.803 46.4473 329.879 45.9082H331.479ZM77.4131 73L75.6465 67.3486C75.5352 67.0029 75.3271 66.2178 75.0225 64.9932H74.9521C74.7178 66.0186 74.5127 66.8096 74.3369 67.3662L72.5176 73H70.8301L68.2021 63.3672H69.7314C70.3525 65.7871 70.8242 67.6299 71.1465 68.8955C71.4746 70.1611 71.6621 71.0137 71.709 71.4531H71.7793C71.8438 71.1191 71.9463 70.6885 72.0869 70.1611C72.2334 69.6279 72.3594 69.2061 72.4648 68.8955L74.2314 63.3672H75.8135L77.5361 68.8955C77.8643 69.9033 78.0869 70.75 78.2041 71.4355H78.2744C78.2979 71.2246 78.3594 70.8994 78.459 70.46C78.5645 70.0205 79.1768 67.6562 80.2959 63.3672H81.8076L79.1445 73H77.4131ZM91.8711 68.1748C91.8711 69.7451 91.4756 70.9727 90.6846 71.8574C89.8936 72.7363 88.8008 73.1758 87.4062 73.1758C86.5449 73.1758 85.7803 72.9736 85.1123 72.5693C84.4443 72.165 83.9287 71.585 83.5654 70.8291C83.2021 70.0732 83.0205 69.1885 83.0205 68.1748C83.0205 66.6045 83.4131 65.3828 84.1982 64.5098C84.9834 63.6309 86.0732 63.1914 87.4678 63.1914C88.8154 63.1914 89.8848 63.6396 90.6758 64.5361C91.4727 65.4326 91.8711 66.6455 91.8711 68.1748ZM84.5322 68.1748C84.5322 69.4053 84.7783 70.3428 85.2705 70.9873C85.7627 71.6318 86.4863 71.9541 87.4414 71.9541C88.3965 71.9541 89.1201 71.6348 89.6123 70.9961C90.1104 70.3516 90.3594 69.4111 90.3594 68.1748C90.3594 66.9502 90.1104 66.0215 89.6123 65.3887C89.1201 64.75 88.3906 64.4307 87.4238 64.4307C86.4688 64.4307 85.748 64.7441 85.2617 65.3711C84.7754 65.998 84.5322 66.9326 84.5322 68.1748ZM95.8086 63.3672V69.6162C95.8086 70.4014 95.9873 70.9873 96.3447 71.374C96.7021 71.7607 97.2617 71.9541 98.0234 71.9541C99.0312 71.9541 99.7666 71.6787 100.229 71.1279C100.698 70.5771 100.933 69.6777 100.933 68.4297V63.3672H102.392V73H101.188L100.977 71.708H100.897C100.599 72.1826 100.183 72.5459 99.6494 72.7979C99.1221 73.0498 98.5186 73.1758 97.8389 73.1758C96.667 73.1758 95.7881 72.8975 95.2021 72.3408C94.6221 71.7842 94.332 70.8936 94.332 69.6689V63.3672H95.8086ZM106.953 73H105.494V59.3242H106.953V73ZM116.604 71.708H116.524C115.851 72.6865 114.843 73.1758 113.501 73.1758C112.241 73.1758 111.26 72.7451 110.557 71.8838C109.859 71.0225 109.511 69.7979 109.511 68.21C109.511 66.6221 109.862 65.3887 110.565 64.5098C111.269 63.6309 112.247 63.1914 113.501 63.1914C114.808 63.1914 115.81 63.666 116.507 64.6152H116.621L116.56 63.9209L116.524 63.2441V59.3242H117.983V73H116.797L116.604 71.708ZM113.686 71.9541C114.682 71.9541 115.402 71.6846 115.848 71.1455C116.299 70.6006 116.524 69.7246 116.524 68.5176V68.21C116.524 66.8447 116.296 65.8721 115.839 65.292C115.388 64.7061 114.664 64.4131 113.668 64.4131C112.812 64.4131 112.156 64.7471 111.699 65.415C111.248 66.0771 111.022 67.0146 111.022 68.2275C111.022 69.458 111.248 70.3867 111.699 71.0137C112.15 71.6406 112.812 71.9541 113.686 71.9541ZM130.244 63.209C131.51 63.209 132.491 63.6426 133.188 64.5098C133.892 65.3711 134.243 66.5928 134.243 68.1748C134.243 69.7568 133.889 70.9873 133.18 71.8662C132.477 72.7393 131.498 73.1758 130.244 73.1758C129.617 73.1758 129.043 73.0615 128.521 72.833C128.006 72.5986 127.572 72.2412 127.221 71.7607H127.115L126.808 73H125.762V59.3242H127.221V62.6465C127.221 63.3906 127.197 64.0586 127.15 64.6504H127.221C127.9 63.6895 128.908 63.209 130.244 63.209ZM130.033 64.4307C129.037 64.4307 128.319 64.7178 127.88 65.292C127.44 65.8604 127.221 66.8213 127.221 68.1748C127.221 69.5283 127.446 70.498 127.897 71.084C128.349 71.6641 129.072 71.9541 130.068 71.9541C130.965 71.9541 131.633 71.6289 132.072 70.9785C132.512 70.3223 132.731 69.3818 132.731 68.1572C132.731 66.9033 132.512 65.9688 132.072 65.3535C131.633 64.7383 130.953 64.4307 130.033 64.4307ZM140.87 73.1758C139.446 73.1758 138.321 72.7422 137.495 71.875C136.675 71.0078 136.265 69.8037 136.265 68.2627C136.265 66.71 136.646 65.4766 137.407 64.5625C138.175 63.6484 139.203 63.1914 140.492 63.1914C141.699 63.1914 142.654 63.5898 143.357 64.3867C144.061 65.1777 144.412 66.2236 144.412 67.5244V68.4473H137.776C137.806 69.5781 138.09 70.4365 138.629 71.0225C139.174 71.6084 139.938 71.9014 140.923 71.9014C141.96 71.9014 142.985 71.6846 143.999 71.251V72.5518C143.483 72.7744 142.994 72.9326 142.531 73.0264C142.074 73.126 141.521 73.1758 140.87 73.1758ZM140.475 64.4131C139.701 64.4131 139.083 64.665 138.62 65.1689C138.163 65.6729 137.894 66.3701 137.812 67.2607H142.848C142.848 66.3408 142.643 65.6377 142.232 65.1514C141.822 64.6592 141.236 64.4131 140.475 64.4131ZM155.979 63.1914C156.406 63.1914 156.79 63.2266 157.13 63.2969L156.928 64.6504C156.529 64.5625 156.178 64.5186 155.873 64.5186C155.094 64.5186 154.426 64.835 153.869 65.4678C153.318 66.1006 153.043 66.8887 153.043 67.832V73H151.584V63.3672H152.788L152.955 65.1514H153.025C153.383 64.5244 153.813 64.041 154.317 63.7012C154.821 63.3613 155.375 63.1914 155.979 63.1914ZM163.001 73.1758C161.577 73.1758 160.452 72.7422 159.626 71.875C158.806 71.0078 158.396 69.8037 158.396 68.2627C158.396 66.71 158.776 65.4766 159.538 64.5625C160.306 63.6484 161.334 63.1914 162.623 63.1914C163.83 63.1914 164.785 63.5898 165.488 64.3867C166.191 65.1777 166.543 66.2236 166.543 67.5244V68.4473H159.907C159.937 69.5781 160.221 70.4365 160.76 71.0225C161.305 71.6084 162.069 71.9014 163.054 71.9014C164.091 71.9014 165.116 71.6846 166.13 71.251V72.5518C165.614 72.7744 165.125 72.9326 164.662 73.0264C164.205 73.126 163.651 73.1758 163.001 73.1758ZM162.605 64.4131C161.832 64.4131 161.214 64.665 160.751 65.1689C160.294 65.6729 160.024 66.3701 159.942 67.2607H164.979C164.979 66.3408 164.773 65.6377 164.363 65.1514C163.953 64.6592 163.367 64.4131 162.605 64.4131ZM174.963 73L174.673 71.6289H174.603C174.122 72.2324 173.642 72.6426 173.161 72.8594C172.687 73.0703 172.092 73.1758 171.377 73.1758C170.422 73.1758 169.672 72.9297 169.127 72.4375C168.588 71.9453 168.318 71.2451 168.318 70.3369C168.318 68.3916 169.874 67.3721 172.985 67.2783L174.62 67.2256V66.6279C174.62 65.8721 174.456 65.3154 174.128 64.958C173.806 64.5947 173.287 64.4131 172.572 64.4131C171.77 64.4131 170.861 64.6592 169.848 65.1514L169.399 64.0352C169.874 63.7773 170.393 63.5752 170.955 63.4287C171.523 63.2822 172.092 63.209 172.66 63.209C173.809 63.209 174.658 63.4639 175.209 63.9736C175.766 64.4834 176.044 65.3008 176.044 66.4258V73H174.963ZM171.667 71.9717C172.575 71.9717 173.287 71.7227 173.803 71.2246C174.324 70.7266 174.585 70.0293 174.585 69.1328V68.2627L173.126 68.3242C171.966 68.3652 171.128 68.5469 170.612 68.8691C170.103 69.1855 169.848 69.6807 169.848 70.3545C169.848 70.8818 170.006 71.2832 170.322 71.5586C170.645 71.834 171.093 71.9717 171.667 71.9717ZM180.518 73H179.059V59.3242H180.518V73ZM185.07 73H183.611V59.3242H185.07V73ZM186.635 63.3672H188.199L190.309 68.8604C190.771 70.1143 191.059 71.0195 191.17 71.5762H191.24C191.316 71.2773 191.475 70.7676 191.715 70.0469C191.961 69.3203 192.758 67.0938 194.105 63.3672H195.67L191.53 74.3359C191.12 75.4199 190.64 76.1875 190.089 76.6387C189.544 77.0957 188.873 77.3242 188.076 77.3242C187.631 77.3242 187.191 77.2744 186.758 77.1748V76.0059C187.08 76.0762 187.44 76.1113 187.839 76.1113C188.841 76.1113 189.556 75.5488 189.983 74.4238L190.52 73.0527L186.635 63.3672ZM208.502 73V66.7686C208.502 65.9834 208.323 65.3975 207.966 65.0107C207.608 64.624 207.049 64.4307 206.287 64.4307C205.273 64.4307 204.532 64.7061 204.063 65.2568C203.601 65.8076 203.369 66.71 203.369 67.9639V73H201.91V59.3242H203.369V63.4639C203.369 63.9619 203.346 64.375 203.299 64.7031H203.387C203.674 64.2402 204.081 63.877 204.608 63.6133C205.142 63.3438 205.748 63.209 206.428 63.209C207.605 63.209 208.487 63.4902 209.073 64.0527C209.665 64.6094 209.961 65.4971 209.961 66.7158V73H208.502ZM217.036 73.1758C215.612 73.1758 214.487 72.7422 213.661 71.875C212.841 71.0078 212.431 69.8037 212.431 68.2627C212.431 66.71 212.812 65.4766 213.573 64.5625C214.341 63.6484 215.369 63.1914 216.658 63.1914C217.865 63.1914 218.82 63.5898 219.523 64.3867C220.227 65.1777 220.578 66.2236 220.578 67.5244V68.4473H213.942C213.972 69.5781 214.256 70.4365 214.795 71.0225C215.34 71.6084 216.104 71.9014 217.089 71.9014C218.126 71.9014 219.151 71.6846 220.165 71.251V72.5518C219.649 72.7744 219.16 72.9326 218.697 73.0264C218.24 73.126 217.687 73.1758 217.036 73.1758ZM216.641 64.4131C215.867 64.4131 215.249 64.665 214.786 65.1689C214.329 65.6729 214.06 66.3701 213.978 67.2607H219.014C219.014 66.3408 218.809 65.6377 218.398 65.1514C217.988 64.6592 217.402 64.4131 216.641 64.4131ZM224.533 73H223.074V59.3242H224.533V73ZM232.109 73.1758C231.482 73.1758 230.908 73.0615 230.387 72.833C229.871 72.5986 229.438 72.2412 229.086 71.7607H228.98C229.051 72.3232 229.086 72.8564 229.086 73.3604V77.3242H227.627V63.3672H228.813L229.016 64.6855H229.086C229.461 64.1582 229.897 63.7773 230.396 63.543C230.894 63.3086 231.465 63.1914 232.109 63.1914C233.387 63.1914 234.371 63.6279 235.062 64.501C235.76 65.374 236.108 66.5986 236.108 68.1748C236.108 69.7568 235.754 70.9873 235.045 71.8662C234.342 72.7393 233.363 73.1758 232.109 73.1758ZM231.898 64.4307C230.914 64.4307 230.202 64.7031 229.763 65.248C229.323 65.793 229.098 66.6602 229.086 67.8496V68.1748C229.086 69.5283 229.312 70.498 229.763 71.084C230.214 71.6641 230.938 71.9541 231.934 71.9541C232.766 71.9541 233.416 71.6172 233.885 70.9434C234.359 70.2695 234.597 69.3408 234.597 68.1572C234.597 66.9561 234.359 66.0361 233.885 65.3975C233.416 64.7529 232.754 64.4307 231.898 64.4307ZM243.008 64.501H240.556V73H239.097V64.501H237.374V63.8418L239.097 63.3145V62.7783C239.097 60.4111 240.131 59.2275 242.199 59.2275C242.709 59.2275 243.307 59.3301 243.992 59.5352L243.614 60.7041C243.052 60.5225 242.571 60.4316 242.173 60.4316C241.622 60.4316 241.215 60.6162 240.951 60.9854C240.688 61.3486 240.556 61.9346 240.556 62.7432V63.3672H243.008V64.501ZM246.137 63.3672V69.6162C246.137 70.4014 246.315 70.9873 246.673 71.374C247.03 71.7607 247.59 71.9541 248.352 71.9541C249.359 71.9541 250.095 71.6787 250.558 71.1279C251.026 70.5771 251.261 69.6777 251.261 68.4297V63.3672H252.72V73H251.516L251.305 71.708H251.226C250.927 72.1826 250.511 72.5459 249.978 72.7979C249.45 73.0498 248.847 73.1758 248.167 73.1758C246.995 73.1758 246.116 72.8975 245.53 72.3408C244.95 71.7842 244.66 70.8936 244.66 69.6689V63.3672H246.137ZM257.281 73H255.822V59.3242H257.281V73ZM269.393 64.501H266.94V73H265.481V64.501H263.759V63.8418L265.481 63.3145V62.7783C265.481 60.4111 266.516 59.2275 268.584 59.2275C269.094 59.2275 269.691 59.3301 270.377 59.5352L269.999 60.7041C269.437 60.5225 268.956 60.4316 268.558 60.4316C268.007 60.4316 267.6 60.6162 267.336 60.9854C267.072 61.3486 266.94 61.9346 266.94 62.7432V63.3672H269.393V64.501ZM279.465 68.1748C279.465 69.7451 279.069 70.9727 278.278 71.8574C277.487 72.7363 276.395 73.1758 275 73.1758C274.139 73.1758 273.374 72.9736 272.706 72.5693C272.038 72.165 271.522 71.585 271.159 70.8291C270.796 70.0732 270.614 69.1885 270.614 68.1748C270.614 66.6045 271.007 65.3828 271.792 64.5098C272.577 63.6309 273.667 63.1914 275.062 63.1914C276.409 63.1914 277.479 63.6396 278.27 64.5361C279.066 65.4326 279.465 66.6455 279.465 68.1748ZM272.126 68.1748C272.126 69.4053 272.372 70.3428 272.864 70.9873C273.356 71.6318 274.08 71.9541 275.035 71.9541C275.99 71.9541 276.714 71.6348 277.206 70.9961C277.704 70.3516 277.953 69.4111 277.953 68.1748C277.953 66.9502 277.704 66.0215 277.206 65.3887C276.714 64.75 275.984 64.4307 275.018 64.4307C274.062 64.4307 273.342 64.7441 272.855 65.3711C272.369 65.998 272.126 66.9326 272.126 68.1748ZM286.426 63.1914C286.854 63.1914 287.237 63.2266 287.577 63.2969L287.375 64.6504C286.977 64.5625 286.625 64.5186 286.32 64.5186C285.541 64.5186 284.873 64.835 284.316 65.4678C283.766 66.1006 283.49 66.8887 283.49 67.832V73H282.031V63.3672H283.235L283.402 65.1514H283.473C283.83 64.5244 284.261 64.041 284.765 63.7012C285.269 63.3613 285.822 63.1914 286.426 63.1914ZM71.6562 98L68 88.3672H69.5645L71.6387 94.0801C72.1074 95.416 72.3828 96.2832 72.4648 96.6816H72.5352C72.5996 96.3711 72.8018 95.7295 73.1416 94.7568C73.4873 93.7783 74.2578 91.6484 75.4531 88.3672H77.0176L73.3613 98H71.6562ZM80.0234 98H78.5645V88.3672H80.0234V98ZM78.4414 85.7568C78.4414 85.4229 78.5234 85.1797 78.6875 85.0273C78.8516 84.8691 79.0566 84.79 79.3027 84.79C79.5371 84.79 79.7393 84.8691 79.9092 85.0273C80.0791 85.1855 80.1641 85.4287 80.1641 85.7568C80.1641 86.085 80.0791 86.3311 79.9092 86.4951C79.7393 86.6533 79.5371 86.7324 79.3027 86.7324C79.0566 86.7324 78.8516 86.6533 78.6875 86.4951C78.5234 86.3311 78.4414 86.085 78.4414 85.7568ZM87.1865 98.1758C85.7627 98.1758 84.6377 97.7422 83.8115 96.875C82.9912 96.0078 82.5811 94.8037 82.5811 93.2627C82.5811 91.71 82.9619 90.4766 83.7236 89.5625C84.4912 88.6484 85.5195 88.1914 86.8086 88.1914C88.0156 88.1914 88.9707 88.5898 89.6738 89.3867C90.377 90.1777 90.7285 91.2236 90.7285 92.5244V93.4473H84.0928C84.1221 94.5781 84.4062 95.4365 84.9453 96.0225C85.4902 96.6084 86.2549 96.9014 87.2393 96.9014C88.2764 96.9014 89.3018 96.6846 90.3154 96.251V97.5518C89.7998 97.7744 89.3105 97.9326 88.8477 98.0264C88.3906 98.126 87.8369 98.1758 87.1865 98.1758ZM86.791 89.4131C86.0176 89.4131 85.3994 89.665 84.9365 90.1689C84.4795 90.6729 84.21 91.3701 84.1279 92.2607H89.1641C89.1641 91.3408 88.959 90.6377 88.5488 90.1514C88.1387 89.6592 87.5527 89.4131 86.791 89.4131ZM101.091 98L99.3242 92.3486C99.2129 92.0029 99.0049 91.2178 98.7002 89.9932H98.6299C98.3955 91.0186 98.1904 91.8096 98.0146 92.3662L96.1953 98H94.5078L91.8799 88.3672H93.4092C94.0303 90.7871 94.502 92.6299 94.8242 93.8955C95.1523 95.1611 95.3398 96.0137 95.3867 96.4531H95.457C95.5215 96.1191 95.624 95.6885 95.7646 95.1611C95.9111 94.6279 96.0371 94.2061 96.1426 93.8955L97.9092 88.3672H99.4912L101.214 93.8955C101.542 94.9033 101.765 95.75 101.882 96.4355H101.952C101.976 96.2246 102.037 95.8994 102.137 95.46C102.242 95.0205 102.854 92.6562 103.974 88.3672H105.485L102.822 98H101.091ZM111.304 98.1758C109.88 98.1758 108.755 97.7422 107.929 96.875C107.108 96.0078 106.698 94.8037 106.698 93.2627C106.698 91.71 107.079 90.4766 107.841 89.5625C108.608 88.6484 109.637 88.1914 110.926 88.1914C112.133 88.1914 113.088 88.5898 113.791 89.3867C114.494 90.1777 114.846 91.2236 114.846 92.5244V93.4473H108.21C108.239 94.5781 108.523 95.4365 109.062 96.0225C109.607 96.6084 110.372 96.9014 111.356 96.9014C112.394 96.9014 113.419 96.6846 114.433 96.251V97.5518C113.917 97.7744 113.428 97.9326 112.965 98.0264C112.508 98.126 111.954 98.1758 111.304 98.1758ZM110.908 89.4131C110.135 89.4131 109.517 89.665 109.054 90.1689C108.597 90.6729 108.327 91.3701 108.245 92.2607H113.281C113.281 91.3408 113.076 90.6377 112.666 90.1514C112.256 89.6592 111.67 89.4131 110.908 89.4131ZM121.736 88.1914C122.164 88.1914 122.548 88.2266 122.888 88.2969L122.686 89.6504C122.287 89.5625 121.936 89.5186 121.631 89.5186C120.852 89.5186 120.184 89.835 119.627 90.4678C119.076 91.1006 118.801 91.8887 118.801 92.832V98H117.342V88.3672H118.546L118.713 90.1514H118.783C119.141 89.5244 119.571 89.041 120.075 88.7012C120.579 88.3613 121.133 88.1914 121.736 88.1914ZM130.903 95.3721C130.903 96.2686 130.569 96.96 129.901 97.4463C129.233 97.9326 128.296 98.1758 127.089 98.1758C125.812 98.1758 124.815 97.9736 124.101 97.5693V96.2158C124.563 96.4502 125.059 96.6348 125.586 96.7695C126.119 96.9043 126.632 96.9717 127.124 96.9717C127.886 96.9717 128.472 96.8516 128.882 96.6113C129.292 96.3652 129.497 95.9932 129.497 95.4951C129.497 95.1201 129.333 94.8008 129.005 94.5371C128.683 94.2676 128.05 93.9512 127.106 93.5879C126.21 93.2539 125.571 92.9639 125.19 92.7178C124.815 92.4658 124.534 92.1816 124.347 91.8652C124.165 91.5488 124.074 91.1709 124.074 90.7314C124.074 89.9463 124.394 89.3281 125.032 88.877C125.671 88.4199 126.547 88.1914 127.66 88.1914C128.697 88.1914 129.711 88.4023 130.701 88.8242L130.183 90.0107C129.216 89.6123 128.34 89.4131 127.555 89.4131C126.863 89.4131 126.342 89.5215 125.99 89.7383C125.639 89.9551 125.463 90.2539 125.463 90.6348C125.463 90.8926 125.527 91.1123 125.656 91.2939C125.791 91.4756 126.005 91.6484 126.298 91.8125C126.591 91.9766 127.153 92.2139 127.985 92.5244C129.128 92.9404 129.898 93.3594 130.297 93.7812C130.701 94.2031 130.903 94.7334 130.903 95.3721ZM141.072 96.9717C141.33 96.9717 141.579 96.9541 141.819 96.9189C142.06 96.8779 142.25 96.8369 142.391 96.7959V97.9121C142.232 97.9883 141.998 98.0498 141.688 98.0967C141.383 98.1494 141.107 98.1758 140.861 98.1758C138.998 98.1758 138.066 97.1943 138.066 95.2314V89.501H136.687V88.7979L138.066 88.1914L138.682 86.1348H139.525V88.3672H142.32V89.501H139.525V95.1699C139.525 95.75 139.663 96.1953 139.938 96.5059C140.214 96.8164 140.592 96.9717 141.072 96.9717ZM152.639 93.1748C152.639 94.7451 152.243 95.9727 151.452 96.8574C150.661 97.7363 149.568 98.1758 148.174 98.1758C147.312 98.1758 146.548 97.9736 145.88 97.5693C145.212 97.165 144.696 96.585 144.333 95.8291C143.97 95.0732 143.788 94.1885 143.788 93.1748C143.788 91.6045 144.181 90.3828 144.966 89.5098C145.751 88.6309 146.841 88.1914 148.235 88.1914C149.583 88.1914 150.652 88.6396 151.443 89.5361C152.24 90.4326 152.639 91.6455 152.639 93.1748ZM145.3 93.1748C145.3 94.4053 145.546 95.3428 146.038 95.9873C146.53 96.6318 147.254 96.9541 148.209 96.9541C149.164 96.9541 149.888 96.6348 150.38 95.9961C150.878 95.3516 151.127 94.4111 151.127 93.1748C151.127 91.9502 150.878 91.0215 150.38 90.3887C149.888 89.75 149.158 89.4307 148.191 89.4307C147.236 89.4307 146.516 89.7441 146.029 90.3711C145.543 90.998 145.3 91.9326 145.3 93.1748ZM162.992 96.9717C163.25 96.9717 163.499 96.9541 163.739 96.9189C163.979 96.8779 164.17 96.8369 164.311 96.7959V97.9121C164.152 97.9883 163.918 98.0498 163.607 98.0967C163.303 98.1494 163.027 98.1758 162.781 98.1758C160.918 98.1758 159.986 97.1943 159.986 95.2314V89.501H158.606V88.7979L159.986 88.1914L160.602 86.1348H161.445V88.3672H164.24V89.501H161.445V95.1699C161.445 95.75 161.583 96.1953 161.858 96.5059C162.134 96.8164 162.512 96.9717 162.992 96.9717ZM170.639 88.1914C171.066 88.1914 171.45 88.2266 171.79 88.2969L171.588 89.6504C171.189 89.5625 170.838 89.5186 170.533 89.5186C169.754 89.5186 169.086 89.835 168.529 90.4678C167.979 91.1006 167.703 91.8887 167.703 92.832V98H166.244V88.3672H167.448L167.615 90.1514H167.686C168.043 89.5244 168.474 89.041 168.978 88.7012C169.481 88.3613 170.035 88.1914 170.639 88.1914ZM179.516 98L179.226 96.6289H179.155C178.675 97.2324 178.194 97.6426 177.714 97.8594C177.239 98.0703 176.645 98.1758 175.93 98.1758C174.975 98.1758 174.225 97.9297 173.68 97.4375C173.141 96.9453 172.871 96.2451 172.871 95.3369C172.871 93.3916 174.427 92.3721 177.538 92.2783L179.173 92.2256V91.6279C179.173 90.8721 179.009 90.3154 178.681 89.958C178.358 89.5947 177.84 89.4131 177.125 89.4131C176.322 89.4131 175.414 89.6592 174.4 90.1514L173.952 89.0352C174.427 88.7773 174.945 88.5752 175.508 88.4287C176.076 88.2822 176.645 88.209 177.213 88.209C178.361 88.209 179.211 88.4639 179.762 88.9736C180.318 89.4834 180.597 90.3008 180.597 91.4258V98H179.516ZM176.22 96.9717C177.128 96.9717 177.84 96.7227 178.355 96.2246C178.877 95.7266 179.138 95.0293 179.138 94.1328V93.2627L177.679 93.3242C176.519 93.3652 175.681 93.5469 175.165 93.8691C174.655 94.1855 174.4 94.6807 174.4 95.3545C174.4 95.8818 174.559 96.2832 174.875 96.5586C175.197 96.834 175.646 96.9717 176.22 96.9717ZM187.461 98.1758C186.066 98.1758 184.985 97.748 184.218 96.8926C183.456 96.0312 183.075 94.8154 183.075 93.2451C183.075 91.6338 183.462 90.3887 184.235 89.5098C185.015 88.6309 186.122 88.1914 187.558 88.1914C188.021 88.1914 188.483 88.2412 188.946 88.3408C189.409 88.4404 189.772 88.5576 190.036 88.6924L189.588 89.9316C189.266 89.8027 188.914 89.6973 188.533 89.6152C188.152 89.5273 187.815 89.4834 187.522 89.4834C185.565 89.4834 184.587 90.7314 184.587 93.2275C184.587 94.4111 184.824 95.3193 185.299 95.9521C185.779 96.585 186.488 96.9014 187.426 96.9014C188.229 96.9014 189.052 96.7285 189.896 96.3828V97.6748C189.251 98.0088 188.439 98.1758 187.461 98.1758ZM193.631 93.0693C193.883 92.7119 194.267 92.2432 194.782 91.6631L197.894 88.3672H199.625L195.723 92.4717L199.897 98H198.131L194.729 93.4473L193.631 94.3965V98H192.189V84.3242H193.631V91.5752C193.631 91.8975 193.607 92.3955 193.561 93.0693H193.631ZM209.434 96.9717C209.691 96.9717 209.94 96.9541 210.181 96.9189C210.421 96.8779 210.611 96.8369 210.752 96.7959V97.9121C210.594 97.9883 210.359 98.0498 210.049 98.0967C209.744 98.1494 209.469 98.1758 209.223 98.1758C207.359 98.1758 206.428 97.1943 206.428 95.2314V89.501H205.048V88.7979L206.428 88.1914L207.043 86.1348H207.887V88.3672H210.682V89.501H207.887V95.1699C207.887 95.75 208.024 96.1953 208.3 96.5059C208.575 96.8164 208.953 96.9717 209.434 96.9717ZM219.277 98V91.7686C219.277 90.9834 219.099 90.3975 218.741 90.0107C218.384 89.624 217.824 89.4307 217.062 89.4307C216.049 89.4307 215.308 89.7061 214.839 90.2568C214.376 90.8076 214.145 91.71 214.145 92.9639V98H212.686V84.3242H214.145V88.4639C214.145 88.9619 214.121 89.375 214.074 89.7031H214.162C214.449 89.2402 214.856 88.877 215.384 88.6133C215.917 88.3438 216.523 88.209 217.203 88.209C218.381 88.209 219.263 88.4902 219.849 89.0527C220.44 89.6094 220.736 90.4971 220.736 91.7158V98H219.277ZM227.812 98.1758C226.388 98.1758 225.263 97.7422 224.437 96.875C223.616 96.0078 223.206 94.8037 223.206 93.2627C223.206 91.71 223.587 90.4766 224.349 89.5625C225.116 88.6484 226.145 88.1914 227.434 88.1914C228.641 88.1914 229.596 88.5898 230.299 89.3867C231.002 90.1777 231.354 91.2236 231.354 92.5244V93.4473H224.718C224.747 94.5781 225.031 95.4365 225.57 96.0225C226.115 96.6084 226.88 96.9014 227.864 96.9014C228.901 96.9014 229.927 96.6846 230.94 96.251V97.5518C230.425 97.7744 229.936 97.9326 229.473 98.0264C229.016 98.126 228.462 98.1758 227.812 98.1758ZM227.416 89.4131C226.643 89.4131 226.024 89.665 225.562 90.1689C225.104 90.6729 224.835 91.3701 224.753 92.2607H229.789C229.789 91.3408 229.584 90.6377 229.174 90.1514C228.764 89.6592 228.178 89.4131 227.416 89.4131ZM242.92 88.1914C243.348 88.1914 243.731 88.2266 244.071 88.2969L243.869 89.6504C243.471 89.5625 243.119 89.5186 242.814 89.5186C242.035 89.5186 241.367 89.835 240.811 90.4678C240.26 91.1006 239.984 91.8887 239.984 92.832V98H238.525V88.3672H239.729L239.896 90.1514H239.967C240.324 89.5244 240.755 89.041 241.259 88.7012C241.763 88.3613 242.316 88.1914 242.92 88.1914ZM249.942 98.1758C248.519 98.1758 247.394 97.7422 246.567 96.875C245.747 96.0078 245.337 94.8037 245.337 93.2627C245.337 91.71 245.718 90.4766 246.479 89.5625C247.247 88.6484 248.275 88.1914 249.564 88.1914C250.771 88.1914 251.727 88.5898 252.43 89.3867C253.133 90.1777 253.484 91.2236 253.484 92.5244V93.4473H246.849C246.878 94.5781 247.162 95.4365 247.701 96.0225C248.246 96.6084 249.011 96.9014 249.995 96.9014C251.032 96.9014 252.058 96.6846 253.071 96.251V97.5518C252.556 97.7744 252.066 97.9326 251.604 98.0264C251.146 98.126 250.593 98.1758 249.942 98.1758ZM249.547 89.4131C248.773 89.4131 248.155 89.665 247.692 90.1689C247.235 90.6729 246.966 91.3701 246.884 92.2607H251.92C251.92 91.3408 251.715 90.6377 251.305 90.1514C250.895 89.6592 250.309 89.4131 249.547 89.4131ZM268.259 98V91.7334C268.259 90.9658 268.095 90.3916 267.767 90.0107C267.438 89.624 266.929 89.4307 266.237 89.4307C265.329 89.4307 264.658 89.6914 264.225 90.2129C263.791 90.7344 263.574 91.5371 263.574 92.6211V98H262.115V91.7334C262.115 90.9658 261.951 90.3916 261.623 90.0107C261.295 89.624 260.782 89.4307 260.085 89.4307C259.171 89.4307 258.5 89.7061 258.072 90.2568C257.65 90.8018 257.439 91.6982 257.439 92.9463V98H255.98V88.3672H257.167L257.404 89.6855H257.475C257.75 89.2168 258.137 88.8506 258.635 88.5869C259.139 88.3232 259.701 88.1914 260.322 88.1914C261.828 88.1914 262.812 88.7363 263.275 89.8262H263.346C263.633 89.3223 264.049 88.9238 264.594 88.6309C265.139 88.3379 265.76 88.1914 266.457 88.1914C267.547 88.1914 268.361 88.4727 268.9 89.0352C269.445 89.5918 269.718 90.4854 269.718 91.7158V98H268.259ZM278.656 98L278.366 96.6289H278.296C277.815 97.2324 277.335 97.6426 276.854 97.8594C276.38 98.0703 275.785 98.1758 275.07 98.1758C274.115 98.1758 273.365 97.9297 272.82 97.4375C272.281 96.9453 272.012 96.2451 272.012 95.3369C272.012 93.3916 273.567 92.3721 276.679 92.2783L278.313 92.2256V91.6279C278.313 90.8721 278.149 90.3154 277.821 89.958C277.499 89.5947 276.98 89.4131 276.266 89.4131C275.463 89.4131 274.555 89.6592 273.541 90.1514L273.093 89.0352C273.567 88.7773 274.086 88.5752 274.648 88.4287C275.217 88.2822 275.785 88.209 276.354 88.209C277.502 88.209 278.352 88.4639 278.902 88.9736C279.459 89.4834 279.737 90.3008 279.737 91.4258V98H278.656ZM275.36 96.9717C276.269 96.9717 276.98 96.7227 277.496 96.2246C278.018 95.7266 278.278 95.0293 278.278 94.1328V93.2627L276.819 93.3242C275.659 93.3652 274.821 93.5469 274.306 93.8691C273.796 94.1855 273.541 94.6807 273.541 95.3545C273.541 95.8818 273.699 96.2832 274.016 96.5586C274.338 96.834 274.786 96.9717 275.36 96.9717ZM284.211 98H282.752V88.3672H284.211V98ZM282.629 85.7568C282.629 85.4229 282.711 85.1797 282.875 85.0273C283.039 84.8691 283.244 84.79 283.49 84.79C283.725 84.79 283.927 84.8691 284.097 85.0273C284.267 85.1855 284.352 85.4287 284.352 85.7568C284.352 86.085 284.267 86.3311 284.097 86.4951C283.927 86.6533 283.725 86.7324 283.49 86.7324C283.244 86.7324 283.039 86.6533 282.875 86.4951C282.711 86.3311 282.629 86.085 282.629 85.7568ZM293.896 98V91.7686C293.896 90.9834 293.718 90.3975 293.36 90.0107C293.003 89.624 292.443 89.4307 291.682 89.4307C290.674 89.4307 289.936 89.7031 289.467 90.248C288.998 90.793 288.764 91.6924 288.764 92.9463V98H287.305V88.3672H288.491L288.729 89.6855H288.799C289.098 89.2109 289.517 88.8447 290.056 88.5869C290.595 88.3232 291.195 88.1914 291.857 88.1914C293.018 88.1914 293.891 88.4727 294.477 89.0352C295.062 89.5918 295.355 90.4854 295.355 91.7158V98H293.896ZM299.82 98H298.361V88.3672H299.82V98ZM298.238 85.7568C298.238 85.4229 298.32 85.1797 298.484 85.0273C298.648 84.8691 298.854 84.79 299.1 84.79C299.334 84.79 299.536 84.8691 299.706 85.0273C299.876 85.1855 299.961 85.4287 299.961 85.7568C299.961 86.085 299.876 86.3311 299.706 86.4951C299.536 86.6533 299.334 86.7324 299.1 86.7324C298.854 86.7324 298.648 86.6533 298.484 86.4951C298.32 86.3311 298.238 86.085 298.238 85.7568ZM309.506 98V91.7686C309.506 90.9834 309.327 90.3975 308.97 90.0107C308.612 89.624 308.053 89.4307 307.291 89.4307C306.283 89.4307 305.545 89.7031 305.076 90.248C304.607 90.793 304.373 91.6924 304.373 92.9463V98H302.914V88.3672H304.101L304.338 89.6855H304.408C304.707 89.2109 305.126 88.8447 305.665 88.5869C306.204 88.3232 306.805 88.1914 307.467 88.1914C308.627 88.1914 309.5 88.4727 310.086 89.0352C310.672 89.5918 310.965 90.4854 310.965 91.7158V98H309.506ZM321.854 88.3672V89.29L320.07 89.501C320.234 89.7061 320.381 89.9756 320.51 90.3096C320.639 90.6377 320.703 91.0098 320.703 91.4258C320.703 92.3691 320.381 93.1221 319.736 93.6846C319.092 94.2471 318.207 94.5283 317.082 94.5283C316.795 94.5283 316.525 94.5049 316.273 94.458C315.652 94.7861 315.342 95.1992 315.342 95.6973C315.342 95.9609 315.45 96.1572 315.667 96.2861C315.884 96.4092 316.256 96.4707 316.783 96.4707H318.488C319.531 96.4707 320.331 96.6904 320.888 97.1299C321.45 97.5693 321.731 98.208 321.731 99.0459C321.731 100.112 321.304 100.924 320.448 101.48C319.593 102.043 318.345 102.324 316.704 102.324C315.444 102.324 314.472 102.09 313.786 101.621C313.106 101.152 312.767 100.49 312.767 99.6348C312.767 99.0488 312.954 98.542 313.329 98.1143C313.704 97.6865 314.231 97.3965 314.911 97.2441C314.665 97.1328 314.457 96.96 314.287 96.7256C314.123 96.4912 314.041 96.2188 314.041 95.9082C314.041 95.5566 314.135 95.249 314.322 94.9854C314.51 94.7217 314.806 94.4668 315.21 94.2207C314.712 94.0156 314.305 93.667 313.988 93.1748C313.678 92.6826 313.522 92.1201 313.522 91.4873C313.522 90.4326 313.839 89.6211 314.472 89.0527C315.104 88.4785 316.001 88.1914 317.161 88.1914C317.665 88.1914 318.119 88.25 318.523 88.3672H321.854ZM314.173 99.6172C314.173 100.139 314.393 100.534 314.832 100.804C315.271 101.073 315.901 101.208 316.722 101.208C317.946 101.208 318.852 101.023 319.438 100.654C320.029 100.291 320.325 99.7959 320.325 99.1689C320.325 98.6475 320.164 98.2842 319.842 98.0791C319.52 97.8799 318.913 97.7803 318.022 97.7803H316.273C315.611 97.7803 315.096 97.9385 314.727 98.2549C314.357 98.5713 314.173 99.0254 314.173 99.6172ZM314.964 91.4521C314.964 92.126 315.154 92.6357 315.535 92.9814C315.916 93.3271 316.446 93.5 317.126 93.5C318.55 93.5 319.262 92.8086 319.262 91.4258C319.262 89.9785 318.541 89.2549 317.1 89.2549C316.414 89.2549 315.887 89.4395 315.518 89.8086C315.148 90.1777 314.964 90.7256 314.964 91.4521ZM72.6582 121.972C72.916 121.972 73.165 121.954 73.4053 121.919C73.6455 121.878 73.8359 121.837 73.9766 121.796V122.912C73.8184 122.988 73.584 123.05 73.2734 123.097C72.9688 123.149 72.6934 123.176 72.4473 123.176C70.584 123.176 69.6523 122.194 69.6523 120.231V114.501H68.2725V113.798L69.6523 113.191L70.2676 111.135H71.1113V113.367H73.9062V114.501H71.1113V120.17C71.1113 120.75 71.249 121.195 71.5244 121.506C71.7998 121.816 72.1777 121.972 72.6582 121.972ZM77.3691 123H75.9102V113.367H77.3691V123ZM75.7871 110.757C75.7871 110.423 75.8691 110.18 76.0332 110.027C76.1973 109.869 76.4023 109.79 76.6484 109.79C76.8828 109.79 77.085 109.869 77.2549 110.027C77.4248 110.186 77.5098 110.429 77.5098 110.757C77.5098 111.085 77.4248 111.331 77.2549 111.495C77.085 111.653 76.8828 111.732 76.6484 111.732C76.4023 111.732 76.1973 111.653 76.0332 111.495C75.8691 111.331 75.7871 111.085 75.7871 110.757ZM92.7412 123V116.733C92.7412 115.966 92.5771 115.392 92.249 115.011C91.9209 114.624 91.4111 114.431 90.7197 114.431C89.8115 114.431 89.1406 114.691 88.707 115.213C88.2734 115.734 88.0566 116.537 88.0566 117.621V123H86.5977V116.733C86.5977 115.966 86.4336 115.392 86.1055 115.011C85.7773 114.624 85.2646 114.431 84.5674 114.431C83.6533 114.431 82.9824 114.706 82.5547 115.257C82.1328 115.802 81.9219 116.698 81.9219 117.946V123H80.4629V113.367H81.6494L81.8867 114.686H81.957C82.2324 114.217 82.6191 113.851 83.1172 113.587C83.6211 113.323 84.1836 113.191 84.8047 113.191C86.3105 113.191 87.2949 113.736 87.7578 114.826H87.8281C88.1152 114.322 88.5312 113.924 89.0762 113.631C89.6211 113.338 90.2422 113.191 90.9395 113.191C92.0293 113.191 92.8438 113.473 93.3828 114.035C93.9277 114.592 94.2002 115.485 94.2002 116.716V123H92.7412ZM101.284 123.176C99.8604 123.176 98.7354 122.742 97.9092 121.875C97.0889 121.008 96.6787 119.804 96.6787 118.263C96.6787 116.71 97.0596 115.477 97.8213 114.562C98.5889 113.648 99.6172 113.191 100.906 113.191C102.113 113.191 103.068 113.59 103.771 114.387C104.475 115.178 104.826 116.224 104.826 117.524V118.447H98.1904C98.2197 119.578 98.5039 120.437 99.043 121.022C99.5879 121.608 100.353 121.901 101.337 121.901C102.374 121.901 103.399 121.685 104.413 121.251V122.552C103.897 122.774 103.408 122.933 102.945 123.026C102.488 123.126 101.935 123.176 101.284 123.176ZM100.889 114.413C100.115 114.413 99.4971 114.665 99.0342 115.169C98.5771 115.673 98.3076 116.37 98.2256 117.261H103.262C103.262 116.341 103.057 115.638 102.646 115.151C102.236 114.659 101.65 114.413 100.889 114.413ZM113.457 123H111.998V109.324H113.457V123ZM120.62 123.176C119.196 123.176 118.071 122.742 117.245 121.875C116.425 121.008 116.015 119.804 116.015 118.263C116.015 116.71 116.396 115.477 117.157 114.562C117.925 113.648 118.953 113.191 120.242 113.191C121.449 113.191 122.404 113.59 123.107 114.387C123.811 115.178 124.162 116.224 124.162 117.524V118.447H117.526C117.556 119.578 117.84 120.437 118.379 121.022C118.924 121.608 119.688 121.901 120.673 121.901C121.71 121.901 122.735 121.685 123.749 121.251V122.552C123.233 122.774 122.744 122.933 122.281 123.026C121.824 123.126 121.271 123.176 120.62 123.176ZM120.225 114.413C119.451 114.413 118.833 114.665 118.37 115.169C117.913 115.673 117.644 116.37 117.562 117.261H122.598C122.598 116.341 122.393 115.638 121.982 115.151C121.572 114.659 120.986 114.413 120.225 114.413ZM131 114.501H128.548V123H127.089V114.501H125.366V113.842L127.089 113.314V112.778C127.089 110.411 128.123 109.228 130.191 109.228C130.701 109.228 131.299 109.33 131.984 109.535L131.606 110.704C131.044 110.522 130.563 110.432 130.165 110.432C129.614 110.432 129.207 110.616 128.943 110.985C128.68 111.349 128.548 111.935 128.548 112.743V113.367H131V114.501ZM135.869 121.972C136.127 121.972 136.376 121.954 136.616 121.919C136.856 121.878 137.047 121.837 137.188 121.796V122.912C137.029 122.988 136.795 123.05 136.484 123.097C136.18 123.149 135.904 123.176 135.658 123.176C133.795 123.176 132.863 122.194 132.863 120.231V114.501H131.483V113.798L132.863 113.191L133.479 111.135H134.322V113.367H137.117V114.501H134.322V120.17C134.322 120.75 134.46 121.195 134.735 121.506C135.011 121.816 135.389 121.972 135.869 121.972ZM146.908 121.972C147.166 121.972 147.415 121.954 147.655 121.919C147.896 121.878 148.086 121.837 148.227 121.796V122.912C148.068 122.988 147.834 123.05 147.523 123.097C147.219 123.149 146.943 123.176 146.697 123.176C144.834 123.176 143.902 122.194 143.902 120.231V114.501H142.522V113.798L143.902 113.191L144.518 111.135H145.361V113.367H148.156V114.501H145.361V120.17C145.361 120.75 145.499 121.195 145.774 121.506C146.05 121.816 146.428 121.972 146.908 121.972ZM158.475 118.175C158.475 119.745 158.079 120.973 157.288 121.857C156.497 122.736 155.404 123.176 154.01 123.176C153.148 123.176 152.384 122.974 151.716 122.569C151.048 122.165 150.532 121.585 150.169 120.829C149.806 120.073 149.624 119.188 149.624 118.175C149.624 116.604 150.017 115.383 150.802 114.51C151.587 113.631 152.677 113.191 154.071 113.191C155.419 113.191 156.488 113.64 157.279 114.536C158.076 115.433 158.475 116.646 158.475 118.175ZM151.136 118.175C151.136 119.405 151.382 120.343 151.874 120.987C152.366 121.632 153.09 121.954 154.045 121.954C155 121.954 155.724 121.635 156.216 120.996C156.714 120.352 156.963 119.411 156.963 118.175C156.963 116.95 156.714 116.021 156.216 115.389C155.724 114.75 154.994 114.431 154.027 114.431C153.072 114.431 152.352 114.744 151.865 115.371C151.379 115.998 151.136 116.933 151.136 118.175ZM170.059 114.501H167.606V123H166.147V114.501H164.425V113.842L166.147 113.314V112.778C166.147 110.411 167.182 109.228 169.25 109.228C169.76 109.228 170.357 109.33 171.043 109.535L170.665 110.704C170.103 110.522 169.622 110.432 169.224 110.432C168.673 110.432 168.266 110.616 168.002 110.985C167.738 111.349 167.606 111.935 167.606 112.743V113.367H170.059V114.501ZM173.275 123H171.816V113.367H173.275V123ZM171.693 110.757C171.693 110.423 171.775 110.18 171.939 110.027C172.104 109.869 172.309 109.79 172.555 109.79C172.789 109.79 172.991 109.869 173.161 110.027C173.331 110.186 173.416 110.429 173.416 110.757C173.416 111.085 173.331 111.331 173.161 111.495C172.991 111.653 172.789 111.732 172.555 111.732C172.309 111.732 172.104 111.653 171.939 111.495C171.775 111.331 171.693 111.085 171.693 110.757ZM182.961 123V116.769C182.961 115.983 182.782 115.397 182.425 115.011C182.067 114.624 181.508 114.431 180.746 114.431C179.738 114.431 179 114.703 178.531 115.248C178.062 115.793 177.828 116.692 177.828 117.946V123H176.369V113.367H177.556L177.793 114.686H177.863C178.162 114.211 178.581 113.845 179.12 113.587C179.659 113.323 180.26 113.191 180.922 113.191C182.082 113.191 182.955 113.473 183.541 114.035C184.127 114.592 184.42 115.485 184.42 116.716V123H182.961ZM188.885 123H187.426V113.367H188.885V123ZM187.303 110.757C187.303 110.423 187.385 110.18 187.549 110.027C187.713 109.869 187.918 109.79 188.164 109.79C188.398 109.79 188.601 109.869 188.771 110.027C188.94 110.186 189.025 110.429 189.025 110.757C189.025 111.085 188.94 111.331 188.771 111.495C188.601 111.653 188.398 111.732 188.164 111.732C187.918 111.732 187.713 111.653 187.549 111.495C187.385 111.331 187.303 111.085 187.303 110.757ZM198.192 120.372C198.192 121.269 197.858 121.96 197.19 122.446C196.522 122.933 195.585 123.176 194.378 123.176C193.101 123.176 192.104 122.974 191.39 122.569V121.216C191.853 121.45 192.348 121.635 192.875 121.77C193.408 121.904 193.921 121.972 194.413 121.972C195.175 121.972 195.761 121.852 196.171 121.611C196.581 121.365 196.786 120.993 196.786 120.495C196.786 120.12 196.622 119.801 196.294 119.537C195.972 119.268 195.339 118.951 194.396 118.588C193.499 118.254 192.86 117.964 192.479 117.718C192.104 117.466 191.823 117.182 191.636 116.865C191.454 116.549 191.363 116.171 191.363 115.731C191.363 114.946 191.683 114.328 192.321 113.877C192.96 113.42 193.836 113.191 194.949 113.191C195.986 113.191 197 113.402 197.99 113.824L197.472 115.011C196.505 114.612 195.629 114.413 194.844 114.413C194.152 114.413 193.631 114.521 193.279 114.738C192.928 114.955 192.752 115.254 192.752 115.635C192.752 115.893 192.816 116.112 192.945 116.294C193.08 116.476 193.294 116.648 193.587 116.812C193.88 116.977 194.442 117.214 195.274 117.524C196.417 117.94 197.188 118.359 197.586 118.781C197.99 119.203 198.192 119.733 198.192 120.372ZM207.166 123V116.769C207.166 115.983 206.987 115.397 206.63 115.011C206.272 114.624 205.713 114.431 204.951 114.431C203.938 114.431 203.196 114.706 202.728 115.257C202.265 115.808 202.033 116.71 202.033 117.964V123H200.574V109.324H202.033V113.464C202.033 113.962 202.01 114.375 201.963 114.703H202.051C202.338 114.24 202.745 113.877 203.272 113.613C203.806 113.344 204.412 113.209 205.092 113.209C206.27 113.209 207.151 113.49 207.737 114.053C208.329 114.609 208.625 115.497 208.625 116.716V123H207.166ZM220.376 123.176C218.952 123.176 217.827 122.742 217.001 121.875C216.181 121.008 215.771 119.804 215.771 118.263C215.771 116.71 216.151 115.477 216.913 114.562C217.681 113.648 218.709 113.191 219.998 113.191C221.205 113.191 222.16 113.59 222.863 114.387C223.566 115.178 223.918 116.224 223.918 117.524V118.447H217.282C217.312 119.578 217.596 120.437 218.135 121.022C218.68 121.608 219.444 121.901 220.429 121.901C221.466 121.901 222.491 121.685 223.505 121.251V122.552C222.989 122.774 222.5 122.933 222.037 123.026C221.58 123.126 221.026 123.176 220.376 123.176ZM219.98 114.413C219.207 114.413 218.589 114.665 218.126 115.169C217.669 115.673 217.399 116.37 217.317 117.261H222.354C222.354 116.341 222.148 115.638 221.738 115.151C221.328 114.659 220.742 114.413 219.98 114.413ZM232.338 123L232.048 121.629H231.978C231.497 122.232 231.017 122.643 230.536 122.859C230.062 123.07 229.467 123.176 228.752 123.176C227.797 123.176 227.047 122.93 226.502 122.438C225.963 121.945 225.693 121.245 225.693 120.337C225.693 118.392 227.249 117.372 230.36 117.278L231.995 117.226V116.628C231.995 115.872 231.831 115.315 231.503 114.958C231.181 114.595 230.662 114.413 229.947 114.413C229.145 114.413 228.236 114.659 227.223 115.151L226.774 114.035C227.249 113.777 227.768 113.575 228.33 113.429C228.898 113.282 229.467 113.209 230.035 113.209C231.184 113.209 232.033 113.464 232.584 113.974C233.141 114.483 233.419 115.301 233.419 116.426V123H232.338ZM229.042 121.972C229.95 121.972 230.662 121.723 231.178 121.225C231.699 120.727 231.96 120.029 231.96 119.133V118.263L230.501 118.324C229.341 118.365 228.503 118.547 227.987 118.869C227.478 119.186 227.223 119.681 227.223 120.354C227.223 120.882 227.381 121.283 227.697 121.559C228.02 121.834 228.468 121.972 229.042 121.972ZM240.283 123.176C238.889 123.176 237.808 122.748 237.04 121.893C236.278 121.031 235.897 119.815 235.897 118.245C235.897 116.634 236.284 115.389 237.058 114.51C237.837 113.631 238.944 113.191 240.38 113.191C240.843 113.191 241.306 113.241 241.769 113.341C242.231 113.44 242.595 113.558 242.858 113.692L242.41 114.932C242.088 114.803 241.736 114.697 241.355 114.615C240.975 114.527 240.638 114.483 240.345 114.483C238.388 114.483 237.409 115.731 237.409 118.228C237.409 119.411 237.646 120.319 238.121 120.952C238.602 121.585 239.311 121.901 240.248 121.901C241.051 121.901 241.874 121.729 242.718 121.383V122.675C242.073 123.009 241.262 123.176 240.283 123.176ZM251.604 123V116.769C251.604 115.983 251.425 115.397 251.067 115.011C250.71 114.624 250.15 114.431 249.389 114.431C248.375 114.431 247.634 114.706 247.165 115.257C246.702 115.808 246.471 116.71 246.471 117.964V123H245.012V109.324H246.471V113.464C246.471 113.962 246.447 114.375 246.4 114.703H246.488C246.775 114.24 247.183 113.877 247.71 113.613C248.243 113.344 248.85 113.209 249.529 113.209C250.707 113.209 251.589 113.49 252.175 114.053C252.767 114.609 253.062 115.497 253.062 116.716V123H251.604ZM263.855 121.972C264.113 121.972 264.362 121.954 264.603 121.919C264.843 121.878 265.033 121.837 265.174 121.796V122.912C265.016 122.988 264.781 123.05 264.471 123.097C264.166 123.149 263.891 123.176 263.645 123.176C261.781 123.176 260.85 122.194 260.85 120.231V114.501H259.47V113.798L260.85 113.191L261.465 111.135H262.309V113.367H265.104V114.501H262.309V120.17C262.309 120.75 262.446 121.195 262.722 121.506C262.997 121.816 263.375 121.972 263.855 121.972ZM275.422 118.175C275.422 119.745 275.026 120.973 274.235 121.857C273.444 122.736 272.352 123.176 270.957 123.176C270.096 123.176 269.331 122.974 268.663 122.569C267.995 122.165 267.479 121.585 267.116 120.829C266.753 120.073 266.571 119.188 266.571 118.175C266.571 116.604 266.964 115.383 267.749 114.51C268.534 113.631 269.624 113.191 271.019 113.191C272.366 113.191 273.436 113.64 274.227 114.536C275.023 115.433 275.422 116.646 275.422 118.175ZM268.083 118.175C268.083 119.405 268.329 120.343 268.821 120.987C269.313 121.632 270.037 121.954 270.992 121.954C271.947 121.954 272.671 121.635 273.163 120.996C273.661 120.352 273.91 119.411 273.91 118.175C273.91 116.95 273.661 116.021 273.163 115.389C272.671 114.75 271.941 114.431 270.975 114.431C270.02 114.431 269.299 114.744 268.812 115.371C268.326 115.998 268.083 116.933 268.083 118.175ZM282.471 123.176C281.844 123.176 281.27 123.062 280.748 122.833C280.232 122.599 279.799 122.241 279.447 121.761H279.342C279.412 122.323 279.447 122.856 279.447 123.36V127.324H277.988V113.367H279.175L279.377 114.686H279.447C279.822 114.158 280.259 113.777 280.757 113.543C281.255 113.309 281.826 113.191 282.471 113.191C283.748 113.191 284.732 113.628 285.424 114.501C286.121 115.374 286.47 116.599 286.47 118.175C286.47 119.757 286.115 120.987 285.406 121.866C284.703 122.739 283.725 123.176 282.471 123.176ZM282.26 114.431C281.275 114.431 280.563 114.703 280.124 115.248C279.685 115.793 279.459 116.66 279.447 117.85V118.175C279.447 119.528 279.673 120.498 280.124 121.084C280.575 121.664 281.299 121.954 282.295 121.954C283.127 121.954 283.777 121.617 284.246 120.943C284.721 120.27 284.958 119.341 284.958 118.157C284.958 116.956 284.721 116.036 284.246 115.397C283.777 114.753 283.115 114.431 282.26 114.431ZM290.486 123H289.027V113.367H290.486V123ZM288.904 110.757C288.904 110.423 288.986 110.18 289.15 110.027C289.314 109.869 289.52 109.79 289.766 109.79C290 109.79 290.202 109.869 290.372 110.027C290.542 110.186 290.627 110.429 290.627 110.757C290.627 111.085 290.542 111.331 290.372 111.495C290.202 111.653 290 111.732 289.766 111.732C289.52 111.732 289.314 111.653 289.15 111.495C288.986 111.331 288.904 111.085 288.904 110.757ZM297.43 123.176C296.035 123.176 294.954 122.748 294.187 121.893C293.425 121.031 293.044 119.815 293.044 118.245C293.044 116.634 293.431 115.389 294.204 114.51C294.983 113.631 296.091 113.191 297.526 113.191C297.989 113.191 298.452 113.241 298.915 113.341C299.378 113.44 299.741 113.558 300.005 113.692L299.557 114.932C299.234 114.803 298.883 114.697 298.502 114.615C298.121 114.527 297.784 114.483 297.491 114.483C295.534 114.483 294.556 115.731 294.556 118.228C294.556 119.411 294.793 120.319 295.268 120.952C295.748 121.585 296.457 121.901 297.395 121.901C298.197 121.901 299.021 121.729 299.864 121.383V122.675C299.22 123.009 298.408 123.176 297.43 123.176ZM307.036 110.15L302.246 123H300.787L305.577 110.15H307.036ZM74.0293 148.176C73.4023 148.176 72.8281 148.062 72.3066 147.833C71.791 147.599 71.3574 147.241 71.0059 146.761H70.9004C70.9707 147.323 71.0059 147.856 71.0059 148.36V152.324H69.5469V138.367H70.7334L70.9355 139.686H71.0059C71.3809 139.158 71.8174 138.777 72.3154 138.543C72.8135 138.309 73.3848 138.191 74.0293 138.191C75.3066 138.191 76.291 138.628 76.9824 139.501C77.6797 140.374 78.0283 141.599 78.0283 143.175C78.0283 144.757 77.6738 145.987 76.9648 146.866C76.2617 147.739 75.2832 148.176 74.0293 148.176ZM73.8184 139.431C72.834 139.431 72.1221 139.703 71.6826 140.248C71.2432 140.793 71.0176 141.66 71.0059 142.85V143.175C71.0059 144.528 71.2314 145.498 71.6826 146.084C72.1338 146.664 72.8574 146.954 73.8535 146.954C74.6855 146.954 75.3359 146.617 75.8047 145.943C76.2793 145.27 76.5166 144.341 76.5166 143.157C76.5166 141.956 76.2793 141.036 75.8047 140.397C75.3359 139.753 74.6738 139.431 73.8184 139.431ZM87.1777 148V141.769C87.1777 140.983 86.999 140.397 86.6416 140.011C86.2842 139.624 85.7246 139.431 84.9629 139.431C83.9492 139.431 83.208 139.706 82.7393 140.257C82.2764 140.808 82.0449 141.71 82.0449 142.964V148H80.5859V134.324H82.0449V138.464C82.0449 138.962 82.0215 139.375 81.9746 139.703H82.0625C82.3496 139.24 82.7568 138.877 83.2842 138.613C83.8174 138.344 84.4238 138.209 85.1035 138.209C86.2812 138.209 87.1631 138.49 87.749 139.053C88.3408 139.609 88.6367 140.497 88.6367 141.716V148H87.1777ZM97.5664 148L97.2764 146.629H97.2061C96.7256 147.232 96.2451 147.643 95.7646 147.859C95.29 148.07 94.6953 148.176 93.9805 148.176C93.0254 148.176 92.2754 147.93 91.7305 147.438C91.1914 146.945 90.9219 146.245 90.9219 145.337C90.9219 143.392 92.4775 142.372 95.5889 142.278L97.2236 142.226V141.628C97.2236 140.872 97.0596 140.315 96.7314 139.958C96.4092 139.595 95.8906 139.413 95.1758 139.413C94.373 139.413 93.4648 139.659 92.4512 140.151L92.0029 139.035C92.4775 138.777 92.9961 138.575 93.5586 138.429C94.127 138.282 94.6953 138.209 95.2637 138.209C96.4121 138.209 97.2617 138.464 97.8125 138.974C98.3691 139.483 98.6475 140.301 98.6475 141.426V148H97.5664ZM94.2705 146.972C95.1787 146.972 95.8906 146.723 96.4062 146.225C96.9277 145.727 97.1885 145.029 97.1885 144.133V143.263L95.7295 143.324C94.5693 143.365 93.7314 143.547 93.2158 143.869C92.7061 144.186 92.4512 144.681 92.4512 145.354C92.4512 145.882 92.6094 146.283 92.9258 146.559C93.248 146.834 93.6963 146.972 94.2705 146.972ZM107.876 145.372C107.876 146.269 107.542 146.96 106.874 147.446C106.206 147.933 105.269 148.176 104.062 148.176C102.784 148.176 101.788 147.974 101.073 147.569V146.216C101.536 146.45 102.031 146.635 102.559 146.77C103.092 146.904 103.604 146.972 104.097 146.972C104.858 146.972 105.444 146.852 105.854 146.611C106.265 146.365 106.47 145.993 106.47 145.495C106.47 145.12 106.306 144.801 105.978 144.537C105.655 144.268 105.022 143.951 104.079 143.588C103.183 143.254 102.544 142.964 102.163 142.718C101.788 142.466 101.507 142.182 101.319 141.865C101.138 141.549 101.047 141.171 101.047 140.731C101.047 139.946 101.366 139.328 102.005 138.877C102.644 138.42 103.52 138.191 104.633 138.191C105.67 138.191 106.684 138.402 107.674 138.824L107.155 140.011C106.188 139.612 105.312 139.413 104.527 139.413C103.836 139.413 103.314 139.521 102.963 139.738C102.611 139.955 102.436 140.254 102.436 140.635C102.436 140.893 102.5 141.112 102.629 141.294C102.764 141.476 102.978 141.648 103.271 141.812C103.563 141.977 104.126 142.214 104.958 142.524C106.101 142.94 106.871 143.359 107.27 143.781C107.674 144.203 107.876 144.733 107.876 145.372ZM114.327 148.176C112.903 148.176 111.778 147.742 110.952 146.875C110.132 146.008 109.722 144.804 109.722 143.263C109.722 141.71 110.103 140.477 110.864 139.562C111.632 138.648 112.66 138.191 113.949 138.191C115.156 138.191 116.111 138.59 116.814 139.387C117.518 140.178 117.869 141.224 117.869 142.524V143.447H111.233C111.263 144.578 111.547 145.437 112.086 146.022C112.631 146.608 113.396 146.901 114.38 146.901C115.417 146.901 116.442 146.685 117.456 146.251V147.552C116.94 147.774 116.451 147.933 115.988 148.026C115.531 148.126 114.978 148.176 114.327 148.176ZM113.932 139.413C113.158 139.413 112.54 139.665 112.077 140.169C111.62 140.673 111.351 141.37 111.269 142.261H116.305C116.305 141.341 116.1 140.638 115.689 140.151C115.279 139.659 114.693 139.413 113.932 139.413ZM120.154 147.068C120.154 146.676 120.242 146.38 120.418 146.181C120.6 145.976 120.857 145.873 121.191 145.873C121.531 145.873 121.795 145.976 121.982 146.181C122.176 146.38 122.272 146.676 122.272 147.068C122.272 147.449 122.176 147.742 121.982 147.947C121.789 148.152 121.525 148.255 121.191 148.255C120.893 148.255 120.644 148.164 120.444 147.982C120.251 147.795 120.154 147.49 120.154 147.068ZM171.359 173L169.76 168.913H164.609L163.027 173H161.516L166.596 160.098H167.853L172.906 173H171.359ZM169.294 167.568L167.8 163.587C167.606 163.083 167.407 162.465 167.202 161.732C167.073 162.295 166.889 162.913 166.648 163.587L165.137 167.568H169.294ZM175.912 173H174.453V159.324H175.912V173ZM183.075 173.176C181.651 173.176 180.526 172.742 179.7 171.875C178.88 171.008 178.47 169.804 178.47 168.263C178.47 166.71 178.851 165.477 179.612 164.562C180.38 163.648 181.408 163.191 182.697 163.191C183.904 163.191 184.859 163.59 185.562 164.387C186.266 165.178 186.617 166.224 186.617 167.524V168.447H179.981C180.011 169.578 180.295 170.437 180.834 171.022C181.379 171.608 182.144 171.901 183.128 171.901C184.165 171.901 185.19 171.685 186.204 171.251V172.552C185.688 172.774 185.199 172.933 184.736 173.026C184.279 173.126 183.726 173.176 183.075 173.176ZM182.68 164.413C181.906 164.413 181.288 164.665 180.825 165.169C180.368 165.673 180.099 166.37 180.017 167.261H185.053C185.053 166.341 184.848 165.638 184.438 165.151C184.027 164.659 183.441 164.413 182.68 164.413ZM195.705 173V166.769C195.705 165.983 195.526 165.397 195.169 165.011C194.812 164.624 194.252 164.431 193.49 164.431C192.482 164.431 191.744 164.703 191.275 165.248C190.807 165.793 190.572 166.692 190.572 167.946V173H189.113V163.367H190.3L190.537 164.686H190.607C190.906 164.211 191.325 163.845 191.864 163.587C192.403 163.323 193.004 163.191 193.666 163.191C194.826 163.191 195.699 163.473 196.285 164.035C196.871 164.592 197.164 165.485 197.164 166.716V173H195.705ZM201.611 168.069C201.863 167.712 202.247 167.243 202.763 166.663L205.874 163.367H207.605L203.703 167.472L207.878 173H206.111L202.71 168.447L201.611 169.396V173H200.17V159.324H201.611V166.575C201.611 166.897 201.588 167.396 201.541 168.069H201.611ZM215.551 173L215.261 171.629H215.19C214.71 172.232 214.229 172.643 213.749 172.859C213.274 173.07 212.68 173.176 211.965 173.176C211.01 173.176 210.26 172.93 209.715 172.438C209.176 171.945 208.906 171.245 208.906 170.337C208.906 168.392 210.462 167.372 213.573 167.278L215.208 167.226V166.628C215.208 165.872 215.044 165.315 214.716 164.958C214.394 164.595 213.875 164.413 213.16 164.413C212.357 164.413 211.449 164.659 210.436 165.151L209.987 164.035C210.462 163.777 210.98 163.575 211.543 163.429C212.111 163.282 212.68 163.209 213.248 163.209C214.396 163.209 215.246 163.464 215.797 163.974C216.354 164.483 216.632 165.301 216.632 166.426V173H215.551ZM212.255 171.972C213.163 171.972 213.875 171.723 214.391 171.225C214.912 170.727 215.173 170.029 215.173 169.133V168.263L213.714 168.324C212.554 168.365 211.716 168.547 211.2 168.869C210.69 169.186 210.436 169.681 210.436 170.354C210.436 170.882 210.594 171.283 210.91 171.559C211.232 171.834 211.681 171.972 212.255 171.972ZM224.542 160.15H228.172C229.877 160.15 231.11 160.405 231.872 160.915C232.634 161.425 233.015 162.23 233.015 163.332C233.015 164.094 232.801 164.724 232.373 165.222C231.951 165.714 231.333 166.033 230.519 166.18V166.268C232.47 166.602 233.445 167.627 233.445 169.344C233.445 170.492 233.056 171.389 232.276 172.033C231.503 172.678 230.419 173 229.024 173H224.542V160.15ZM226.036 165.652H228.497C229.552 165.652 230.311 165.488 230.773 165.16C231.236 164.826 231.468 164.267 231.468 163.481C231.468 162.761 231.21 162.242 230.694 161.926C230.179 161.604 229.358 161.442 228.233 161.442H226.036V165.652ZM226.036 166.918V171.726H228.717C229.754 171.726 230.533 171.526 231.055 171.128C231.582 170.724 231.846 170.094 231.846 169.238C231.846 168.441 231.576 167.855 231.037 167.48C230.504 167.105 229.689 166.918 228.594 166.918H226.036ZM242.586 173V166.769C242.586 165.983 242.407 165.397 242.05 165.011C241.692 164.624 241.133 164.431 240.371 164.431C239.357 164.431 238.616 164.706 238.147 165.257C237.685 165.808 237.453 166.71 237.453 167.964V173H235.994V159.324H237.453V163.464C237.453 163.962 237.43 164.375 237.383 164.703H237.471C237.758 164.24 238.165 163.877 238.692 163.613C239.226 163.344 239.832 163.209 240.512 163.209C241.689 163.209 242.571 163.49 243.157 164.053C243.749 164.609 244.045 165.497 244.045 166.716V173H242.586ZM252.975 173L252.685 171.629H252.614C252.134 172.232 251.653 172.643 251.173 172.859C250.698 173.07 250.104 173.176 249.389 173.176C248.434 173.176 247.684 172.93 247.139 172.438C246.6 171.945 246.33 171.245 246.33 170.337C246.33 168.392 247.886 167.372 250.997 167.278L252.632 167.226V166.628C252.632 165.872 252.468 165.315 252.14 164.958C251.817 164.595 251.299 164.413 250.584 164.413C249.781 164.413 248.873 164.659 247.859 165.151L247.411 164.035C247.886 163.777 248.404 163.575 248.967 163.429C249.535 163.282 250.104 163.209 250.672 163.209C251.82 163.209 252.67 163.464 253.221 163.974C253.777 164.483 254.056 165.301 254.056 166.426V173H252.975ZM249.679 171.972C250.587 171.972 251.299 171.723 251.814 171.225C252.336 170.727 252.597 170.029 252.597 169.133V168.263L251.138 168.324C249.978 168.365 249.14 168.547 248.624 168.869C248.114 169.186 247.859 169.681 247.859 170.354C247.859 170.882 248.018 171.283 248.334 171.559C248.656 171.834 249.104 171.972 249.679 171.972ZM260.182 171.972C260.439 171.972 260.688 171.954 260.929 171.919C261.169 171.878 261.359 171.837 261.5 171.796V172.912C261.342 172.988 261.107 173.05 260.797 173.097C260.492 173.149 260.217 173.176 259.971 173.176C258.107 173.176 257.176 172.194 257.176 170.231V164.501H255.796V163.798L257.176 163.191L257.791 161.135H258.635V163.367H261.43V164.501H258.635V170.17C258.635 170.75 258.772 171.195 259.048 171.506C259.323 171.816 259.701 171.972 260.182 171.972ZM266.545 171.972C266.803 171.972 267.052 171.954 267.292 171.919C267.532 171.878 267.723 171.837 267.863 171.796V172.912C267.705 172.988 267.471 173.05 267.16 173.097C266.855 173.149 266.58 173.176 266.334 173.176C264.471 173.176 263.539 172.194 263.539 170.231V164.501H262.159V163.798L263.539 163.191L264.154 161.135H264.998V163.367H267.793V164.501H264.998V170.17C264.998 170.75 265.136 171.195 265.411 171.506C265.687 171.816 266.064 171.972 266.545 171.972ZM275.721 173L275.431 171.629H275.36C274.88 172.232 274.399 172.643 273.919 172.859C273.444 173.07 272.85 173.176 272.135 173.176C271.18 173.176 270.43 172.93 269.885 172.438C269.346 171.945 269.076 171.245 269.076 170.337C269.076 168.392 270.632 167.372 273.743 167.278L275.378 167.226V166.628C275.378 165.872 275.214 165.315 274.886 164.958C274.563 164.595 274.045 164.413 273.33 164.413C272.527 164.413 271.619 164.659 270.605 165.151L270.157 164.035C270.632 163.777 271.15 163.575 271.713 163.429C272.281 163.282 272.85 163.209 273.418 163.209C274.566 163.209 275.416 163.464 275.967 163.974C276.523 164.483 276.802 165.301 276.802 166.426V173H275.721ZM272.425 171.972C273.333 171.972 274.045 171.723 274.561 171.225C275.082 170.727 275.343 170.029 275.343 169.133V168.263L273.884 168.324C272.724 168.365 271.886 168.547 271.37 168.869C270.86 169.186 270.605 169.681 270.605 170.354C270.605 170.882 270.764 171.283 271.08 171.559C271.402 171.834 271.851 171.972 272.425 171.972ZM283.666 173.176C282.271 173.176 281.19 172.748 280.423 171.893C279.661 171.031 279.28 169.815 279.28 168.245C279.28 166.634 279.667 165.389 280.44 164.51C281.22 163.631 282.327 163.191 283.763 163.191C284.226 163.191 284.688 163.241 285.151 163.341C285.614 163.44 285.978 163.558 286.241 163.692L285.793 164.932C285.471 164.803 285.119 164.697 284.738 164.615C284.357 164.527 284.021 164.483 283.728 164.483C281.771 164.483 280.792 165.731 280.792 168.228C280.792 169.411 281.029 170.319 281.504 170.952C281.984 171.585 282.693 171.901 283.631 171.901C284.434 171.901 285.257 171.729 286.101 171.383V172.675C285.456 173.009 284.645 173.176 283.666 173.176ZM294.986 173V166.769C294.986 165.983 294.808 165.397 294.45 165.011C294.093 164.624 293.533 164.431 292.771 164.431C291.758 164.431 291.017 164.706 290.548 165.257C290.085 165.808 289.854 166.71 289.854 167.964V173H288.395V159.324H289.854V163.464C289.854 163.962 289.83 164.375 289.783 164.703H289.871C290.158 164.24 290.565 163.877 291.093 163.613C291.626 163.344 292.232 163.209 292.912 163.209C294.09 163.209 294.972 163.49 295.558 164.053C296.149 164.609 296.445 165.497 296.445 166.716V173H294.986ZM305.375 173L305.085 171.629H305.015C304.534 172.232 304.054 172.643 303.573 172.859C303.099 173.07 302.504 173.176 301.789 173.176C300.834 173.176 300.084 172.93 299.539 172.438C299 171.945 298.73 171.245 298.73 170.337C298.73 168.392 300.286 167.372 303.397 167.278L305.032 167.226V166.628C305.032 165.872 304.868 165.315 304.54 164.958C304.218 164.595 303.699 164.413 302.984 164.413C302.182 164.413 301.273 164.659 300.26 165.151L299.812 164.035C300.286 163.777 300.805 163.575 301.367 163.429C301.936 163.282 302.504 163.209 303.072 163.209C304.221 163.209 305.07 163.464 305.621 163.974C306.178 164.483 306.456 165.301 306.456 166.426V173H305.375ZM302.079 171.972C302.987 171.972 303.699 171.723 304.215 171.225C304.736 170.727 304.997 170.029 304.997 169.133V168.263L303.538 168.324C302.378 168.365 301.54 168.547 301.024 168.869C300.515 169.186 300.26 169.681 300.26 170.354C300.26 170.882 300.418 171.283 300.734 171.559C301.057 171.834 301.505 171.972 302.079 171.972ZM313.865 163.191C314.293 163.191 314.677 163.227 315.017 163.297L314.814 164.65C314.416 164.562 314.064 164.519 313.76 164.519C312.98 164.519 312.312 164.835 311.756 165.468C311.205 166.101 310.93 166.889 310.93 167.832V173H309.471V163.367H310.675L310.842 165.151H310.912C311.27 164.524 311.7 164.041 312.204 163.701C312.708 163.361 313.262 163.191 313.865 163.191ZM315.289 163.367H316.854L318.963 168.86C319.426 170.114 319.713 171.02 319.824 171.576H319.895C319.971 171.277 320.129 170.768 320.369 170.047C320.615 169.32 321.412 167.094 322.76 163.367H324.324L320.185 174.336C319.774 175.42 319.294 176.188 318.743 176.639C318.198 177.096 317.527 177.324 316.73 177.324C316.285 177.324 315.846 177.274 315.412 177.175V176.006C315.734 176.076 316.095 176.111 316.493 176.111C317.495 176.111 318.21 175.549 318.638 174.424L319.174 173.053L315.289 163.367ZM331.812 173L331.522 171.629H331.452C330.972 172.232 330.491 172.643 330.011 172.859C329.536 173.07 328.941 173.176 328.227 173.176C327.271 173.176 326.521 172.93 325.977 172.438C325.438 171.945 325.168 171.245 325.168 170.337C325.168 168.392 326.724 167.372 329.835 167.278L331.47 167.226V166.628C331.47 165.872 331.306 165.315 330.978 164.958C330.655 164.595 330.137 164.413 329.422 164.413C328.619 164.413 327.711 164.659 326.697 165.151L326.249 164.035C326.724 163.777 327.242 163.575 327.805 163.429C328.373 163.282 328.941 163.209 329.51 163.209C330.658 163.209 331.508 163.464 332.059 163.974C332.615 164.483 332.894 165.301 332.894 166.426V173H331.812ZM328.517 171.972C329.425 171.972 330.137 171.723 330.652 171.225C331.174 170.727 331.435 170.029 331.435 169.133V168.263L329.976 168.324C328.815 168.365 327.978 168.547 327.462 168.869C326.952 169.186 326.697 169.681 326.697 170.354C326.697 170.882 326.855 171.283 327.172 171.559C327.494 171.834 327.942 171.972 328.517 171.972Z" fill="#1C1026"/>
</svg>
