<svg width="379" height="228" viewBox="0 0 379 228" fill="none" xmlns="http://www.w3.org/2000/svg">
<rect width="379" height="228" rx="6" fill="white"/>
<path d="M24.1226 39.4545C25.7218 39.4545 27.2851 39.9397 28.6148 40.8487C29.9445 41.7578 30.9808 43.0498 31.5928 44.5614C32.2048 46.0731 32.3649 47.7364 32.0529 49.3412C31.7409 50.946 30.9709 52.42 29.8401 53.577C28.7093 54.7339 27.2685 55.5218 25.7001 55.841C24.1316 56.1602 22.5058 55.9964 21.0284 55.3703C19.5509 54.7441 18.2881 53.6838 17.3996 52.3234C16.5112 50.9629 16.037 49.3635 16.037 47.7273L16 46.5455C16 42.1573 17.7038 37.9489 20.7365 34.8461C23.7692 31.7432 27.8824 30 32.1713 30V34.7273C30.6538 34.7231 29.1505 35.0268 27.7483 35.6207C26.3462 36.2147 25.073 37.0871 24.0025 38.1876C23.5864 38.6125 23.2026 39.0693 22.8543 39.5538C23.2679 39.4876 23.6906 39.4522 24.1203 39.4522L24.1226 39.4545ZM44.9143 39.4545C46.5135 39.4545 48.0768 39.9397 49.4065 40.8487C50.7362 41.7578 51.7725 43.0498 52.3845 44.5614C52.9965 46.0731 53.1566 47.7364 52.8446 49.3412C52.5326 50.946 51.7626 52.42 50.6318 53.577C49.501 54.7339 48.0602 55.5218 46.4918 55.841C44.9233 56.1602 43.2975 55.9964 41.8201 55.3703C40.3426 54.7441 39.0798 53.6838 38.1913 52.3234C37.3029 50.9629 36.8287 49.3635 36.8287 47.7273L36.7917 46.5455C36.7917 42.1573 38.4955 37.9489 41.5282 34.8461C44.5609 31.7432 48.6741 30 52.963 30V34.7273C51.4455 34.7231 49.9422 35.0268 48.54 35.6207C47.1379 36.2147 45.8647 37.0871 44.7942 38.1876C44.3781 38.6125 43.9943 39.0693 43.646 39.5538C44.0596 39.4876 44.4823 39.4522 44.9143 39.4522V39.4545Z" fill="#1C1026" fill-opacity="0.15"/>
<path d="M73.7217 48H72.2275V36.4775H68.1582V35.1504H77.791V36.4775H73.7217V48ZM86.1055 48V41.7686C86.1055 40.9834 85.9268 40.3975 85.5693 40.0107C85.2119 39.624 84.6523 39.4307 83.8906 39.4307C82.877 39.4307 82.1357 39.7061 81.667 40.2568C81.2041 40.8076 80.9727 41.71 80.9727 42.9639V48H79.5137V34.3242H80.9727V38.4639C80.9727 38.9619 80.9492 39.375 80.9023 39.7031H80.9902C81.2773 39.2402 81.6846 38.877 82.2119 38.6133C82.7451 38.3438 83.3516 38.209 84.0312 38.209C85.209 38.209 86.0908 38.4902 86.6768 39.0527C87.2686 39.6094 87.5645 40.4971 87.5645 41.7158V48H86.1055ZM94.6396 48.1758C93.2158 48.1758 92.0908 47.7422 91.2646 46.875C90.4443 46.0078 90.0342 44.8037 90.0342 43.2627C90.0342 41.71 90.415 40.4766 91.1768 39.5625C91.9443 38.6484 92.9727 38.1914 94.2617 38.1914C95.4688 38.1914 96.4238 38.5898 97.127 39.3867C97.8301 40.1777 98.1816 41.2236 98.1816 42.5244V43.4473H91.5459C91.5752 44.5781 91.8594 45.4365 92.3984 46.0225C92.9434 46.6084 93.708 46.9014 94.6924 46.9014C95.7295 46.9014 96.7549 46.6846 97.7686 46.251V47.5518C97.2529 47.7744 96.7637 47.9326 96.3008 48.0264C95.8438 48.126 95.29 48.1758 94.6396 48.1758ZM94.2441 39.4131C93.4707 39.4131 92.8525 39.665 92.3896 40.1689C91.9326 40.6729 91.6631 41.3701 91.5811 42.2607H96.6172C96.6172 41.3408 96.4121 40.6377 96.002 40.1514C95.5918 39.6592 95.0059 39.4131 94.2441 39.4131ZM105.072 38.1914C105.5 38.1914 105.884 38.2266 106.224 38.2969L106.021 39.6504C105.623 39.5625 105.271 39.5186 104.967 39.5186C104.188 39.5186 103.52 39.835 102.963 40.4678C102.412 41.1006 102.137 41.8887 102.137 42.832V48H100.678V38.3672H101.882L102.049 40.1514H102.119C102.477 39.5244 102.907 39.041 103.411 38.7012C103.915 38.3613 104.469 38.1914 105.072 38.1914ZM112.095 48.1758C110.671 48.1758 109.546 47.7422 108.72 46.875C107.899 46.0078 107.489 44.8037 107.489 43.2627C107.489 41.71 107.87 40.4766 108.632 39.5625C109.399 38.6484 110.428 38.1914 111.717 38.1914C112.924 38.1914 113.879 38.5898 114.582 39.3867C115.285 40.1777 115.637 41.2236 115.637 42.5244V43.4473H109.001C109.03 44.5781 109.314 45.4365 109.854 46.0225C110.398 46.6084 111.163 46.9014 112.147 46.9014C113.185 46.9014 114.21 46.6846 115.224 46.251V47.5518C114.708 47.7744 114.219 47.9326 113.756 48.0264C113.299 48.126 112.745 48.1758 112.095 48.1758ZM111.699 39.4131C110.926 39.4131 110.308 39.665 109.845 40.1689C109.388 40.6729 109.118 41.3701 109.036 42.2607H114.072C114.072 41.3408 113.867 40.6377 113.457 40.1514C113.047 39.6592 112.461 39.4131 111.699 39.4131ZM124.268 48H122.809V38.3672H124.268V48ZM122.686 35.7568C122.686 35.4229 122.768 35.1797 122.932 35.0273C123.096 34.8691 123.301 34.79 123.547 34.79C123.781 34.79 123.983 34.8691 124.153 35.0273C124.323 35.1855 124.408 35.4287 124.408 35.7568C124.408 36.085 124.323 36.3311 124.153 36.4951C123.983 36.6533 123.781 36.7324 123.547 36.7324C123.301 36.7324 123.096 36.6533 122.932 36.4951C122.768 36.3311 122.686 36.085 122.686 35.7568ZM133.575 45.3721C133.575 46.2686 133.241 46.96 132.573 47.4463C131.905 47.9326 130.968 48.1758 129.761 48.1758C128.483 48.1758 127.487 47.9736 126.772 47.5693V46.2158C127.235 46.4502 127.73 46.6348 128.258 46.7695C128.791 46.9043 129.304 46.9717 129.796 46.9717C130.558 46.9717 131.144 46.8516 131.554 46.6113C131.964 46.3652 132.169 45.9932 132.169 45.4951C132.169 45.1201 132.005 44.8008 131.677 44.5371C131.354 44.2676 130.722 43.9512 129.778 43.5879C128.882 43.2539 128.243 42.9639 127.862 42.7178C127.487 42.4658 127.206 42.1816 127.019 41.8652C126.837 41.5488 126.746 41.1709 126.746 40.7314C126.746 39.9463 127.065 39.3281 127.704 38.877C128.343 38.4199 129.219 38.1914 130.332 38.1914C131.369 38.1914 132.383 38.4023 133.373 38.8242L132.854 40.0107C131.888 39.6123 131.012 39.4131 130.227 39.4131C129.535 39.4131 129.014 39.5215 128.662 39.7383C128.311 39.9551 128.135 40.2539 128.135 40.6348C128.135 40.8926 128.199 41.1123 128.328 41.2939C128.463 41.4756 128.677 41.6484 128.97 41.8125C129.263 41.9766 129.825 42.2139 130.657 42.5244C131.8 42.9404 132.57 43.3594 132.969 43.7812C133.373 44.2031 133.575 44.7334 133.575 45.3721ZM147.225 48V41.7686C147.225 40.9834 147.046 40.3975 146.688 40.0107C146.331 39.624 145.771 39.4307 145.01 39.4307C144.002 39.4307 143.264 39.7031 142.795 40.248C142.326 40.793 142.092 41.6924 142.092 42.9463V48H140.633V38.3672H141.819L142.057 39.6855H142.127C142.426 39.2109 142.845 38.8447 143.384 38.5869C143.923 38.3232 144.523 38.1914 145.186 38.1914C146.346 38.1914 147.219 38.4727 147.805 39.0352C148.391 39.5918 148.684 40.4854 148.684 41.7158V48H147.225ZM160.004 43.1748C160.004 44.7451 159.608 45.9727 158.817 46.8574C158.026 47.7363 156.934 48.1758 155.539 48.1758C154.678 48.1758 153.913 47.9736 153.245 47.5693C152.577 47.165 152.062 46.585 151.698 45.8291C151.335 45.0732 151.153 44.1885 151.153 43.1748C151.153 41.6045 151.546 40.3828 152.331 39.5098C153.116 38.6309 154.206 38.1914 155.601 38.1914C156.948 38.1914 158.018 38.6396 158.809 39.5361C159.605 40.4326 160.004 41.6455 160.004 43.1748ZM152.665 43.1748C152.665 44.4053 152.911 45.3428 153.403 45.9873C153.896 46.6318 154.619 46.9541 155.574 46.9541C156.529 46.9541 157.253 46.6348 157.745 45.9961C158.243 45.3516 158.492 44.4111 158.492 43.1748C158.492 41.9502 158.243 41.0215 157.745 40.3887C157.253 39.75 156.523 39.4307 155.557 39.4307C154.602 39.4307 153.881 39.7441 153.395 40.3711C152.908 40.998 152.665 41.9326 152.665 43.1748ZM175.112 48L173.346 42.3486C173.234 42.0029 173.026 41.2178 172.722 39.9932H172.651C172.417 41.0186 172.212 41.8096 172.036 42.3662L170.217 48H168.529L165.901 38.3672H167.431C168.052 40.7871 168.523 42.6299 168.846 43.8955C169.174 45.1611 169.361 46.0137 169.408 46.4531H169.479C169.543 46.1191 169.646 45.6885 169.786 45.1611C169.933 44.6279 170.059 44.2061 170.164 43.8955L171.931 38.3672H173.513L175.235 43.8955C175.563 44.9033 175.786 45.75 175.903 46.4355H175.974C175.997 46.2246 176.059 45.8994 176.158 45.46C176.264 45.0205 176.876 42.6562 177.995 38.3672H179.507L176.844 48H175.112ZM187.18 48L186.89 46.6289H186.819C186.339 47.2324 185.858 47.6426 185.378 47.8594C184.903 48.0703 184.309 48.1758 183.594 48.1758C182.639 48.1758 181.889 47.9297 181.344 47.4375C180.805 46.9453 180.535 46.2451 180.535 45.3369C180.535 43.3916 182.091 42.3721 185.202 42.2783L186.837 42.2256V41.6279C186.837 40.8721 186.673 40.3154 186.345 39.958C186.022 39.5947 185.504 39.4131 184.789 39.4131C183.986 39.4131 183.078 39.6592 182.064 40.1514L181.616 39.0352C182.091 38.7773 182.609 38.5752 183.172 38.4287C183.74 38.2822 184.309 38.209 184.877 38.209C186.025 38.209 186.875 38.4639 187.426 38.9736C187.982 39.4834 188.261 40.3008 188.261 41.4258V48H187.18ZM183.884 46.9717C184.792 46.9717 185.504 46.7227 186.02 46.2246C186.541 45.7266 186.802 45.0293 186.802 44.1328V43.2627L185.343 43.3242C184.183 43.3652 183.345 43.5469 182.829 43.8691C182.319 44.1855 182.064 44.6807 182.064 45.3545C182.064 45.8818 182.223 46.2832 182.539 46.5586C182.861 46.834 183.31 46.9717 183.884 46.9717ZM189.746 38.3672H191.311L193.42 43.8604C193.883 45.1143 194.17 46.0195 194.281 46.5762H194.352C194.428 46.2773 194.586 45.7676 194.826 45.0469C195.072 44.3203 195.869 42.0938 197.217 38.3672H198.781L194.642 49.3359C194.231 50.4199 193.751 51.1875 193.2 51.6387C192.655 52.0957 191.984 52.3242 191.188 52.3242C190.742 52.3242 190.303 52.2744 189.869 52.1748V51.0059C190.191 51.0762 190.552 51.1113 190.95 51.1113C191.952 51.1113 192.667 50.5488 193.095 49.4238L193.631 48.0527L189.746 38.3672ZM208.133 46.9717C208.391 46.9717 208.64 46.9541 208.88 46.9189C209.12 46.8779 209.311 46.8369 209.451 46.7959V47.9121C209.293 47.9883 209.059 48.0498 208.748 48.0967C208.443 48.1494 208.168 48.1758 207.922 48.1758C206.059 48.1758 205.127 47.1943 205.127 45.2314V39.501H203.747V38.7979L205.127 38.1914L205.742 36.1348H206.586V38.3672H209.381V39.501H206.586V45.1699C206.586 45.75 206.724 46.1953 206.999 46.5059C207.274 46.8164 207.652 46.9717 208.133 46.9717ZM219.699 43.1748C219.699 44.7451 219.304 45.9727 218.513 46.8574C217.722 47.7363 216.629 48.1758 215.234 48.1758C214.373 48.1758 213.608 47.9736 212.94 47.5693C212.272 47.165 211.757 46.585 211.394 45.8291C211.03 45.0732 210.849 44.1885 210.849 43.1748C210.849 41.6045 211.241 40.3828 212.026 39.5098C212.812 38.6309 213.901 38.1914 215.296 38.1914C216.644 38.1914 217.713 38.6396 218.504 39.5361C219.301 40.4326 219.699 41.6455 219.699 43.1748ZM212.36 43.1748C212.36 44.4053 212.606 45.3428 213.099 45.9873C213.591 46.6318 214.314 46.9541 215.27 46.9541C216.225 46.9541 216.948 46.6348 217.44 45.9961C217.938 45.3516 218.188 44.4111 218.188 43.1748C218.188 41.9502 217.938 41.0215 217.44 40.3887C216.948 39.75 216.219 39.4307 215.252 39.4307C214.297 39.4307 213.576 39.7441 213.09 40.3711C212.604 40.998 212.36 41.9326 212.36 43.1748ZM233.155 45.3721C233.155 46.2686 232.821 46.96 232.153 47.4463C231.485 47.9326 230.548 48.1758 229.341 48.1758C228.063 48.1758 227.067 47.9736 226.353 47.5693V46.2158C226.815 46.4502 227.311 46.6348 227.838 46.7695C228.371 46.9043 228.884 46.9717 229.376 46.9717C230.138 46.9717 230.724 46.8516 231.134 46.6113C231.544 46.3652 231.749 45.9932 231.749 45.4951C231.749 45.1201 231.585 44.8008 231.257 44.5371C230.935 44.2676 230.302 43.9512 229.358 43.5879C228.462 43.2539 227.823 42.9639 227.442 42.7178C227.067 42.4658 226.786 42.1816 226.599 41.8652C226.417 41.5488 226.326 41.1709 226.326 40.7314C226.326 39.9463 226.646 39.3281 227.284 38.877C227.923 38.4199 228.799 38.1914 229.912 38.1914C230.949 38.1914 231.963 38.4023 232.953 38.8242L232.435 40.0107C231.468 39.6123 230.592 39.4131 229.807 39.4131C229.115 39.4131 228.594 39.5215 228.242 39.7383C227.891 39.9551 227.715 40.2539 227.715 40.6348C227.715 40.8926 227.779 41.1123 227.908 41.2939C228.043 41.4756 228.257 41.6484 228.55 41.8125C228.843 41.9766 229.405 42.2139 230.237 42.5244C231.38 42.9404 232.15 43.3594 232.549 43.7812C232.953 44.2031 233.155 44.7334 233.155 45.3721ZM242.129 48V41.7686C242.129 40.9834 241.95 40.3975 241.593 40.0107C241.235 39.624 240.676 39.4307 239.914 39.4307C238.9 39.4307 238.159 39.7061 237.69 40.2568C237.228 40.8076 236.996 41.71 236.996 42.9639V48H235.537V34.3242H236.996V38.4639C236.996 38.9619 236.973 39.375 236.926 39.7031H237.014C237.301 39.2402 237.708 38.877 238.235 38.6133C238.769 38.3438 239.375 38.209 240.055 38.209C241.232 38.209 242.114 38.4902 242.7 39.0527C243.292 39.6094 243.588 40.4971 243.588 41.7158V48H242.129ZM252.518 48L252.228 46.6289H252.157C251.677 47.2324 251.196 47.6426 250.716 47.8594C250.241 48.0703 249.646 48.1758 248.932 48.1758C247.977 48.1758 247.227 47.9297 246.682 47.4375C246.143 46.9453 245.873 46.2451 245.873 45.3369C245.873 43.3916 247.429 42.3721 250.54 42.2783L252.175 42.2256V41.6279C252.175 40.8721 252.011 40.3154 251.683 39.958C251.36 39.5947 250.842 39.4131 250.127 39.4131C249.324 39.4131 248.416 39.6592 247.402 40.1514L246.954 39.0352C247.429 38.7773 247.947 38.5752 248.51 38.4287C249.078 38.2822 249.646 38.209 250.215 38.209C251.363 38.209 252.213 38.4639 252.764 38.9736C253.32 39.4834 253.599 40.3008 253.599 41.4258V48H252.518ZM249.222 46.9717C250.13 46.9717 250.842 46.7227 251.357 46.2246C251.879 45.7266 252.14 45.0293 252.14 44.1328V43.2627L250.681 43.3242C249.521 43.3652 248.683 43.5469 248.167 43.8691C247.657 44.1855 247.402 44.6807 247.402 45.3545C247.402 45.8818 247.561 46.2832 247.877 46.5586C248.199 46.834 248.647 46.9717 249.222 46.9717ZM261.008 38.1914C261.436 38.1914 261.819 38.2266 262.159 38.2969L261.957 39.6504C261.559 39.5625 261.207 39.5186 260.902 39.5186C260.123 39.5186 259.455 39.835 258.898 40.4678C258.348 41.1006 258.072 41.8887 258.072 42.832V48H256.613V38.3672H257.817L257.984 40.1514H258.055C258.412 39.5244 258.843 39.041 259.347 38.7012C259.851 38.3613 260.404 38.1914 261.008 38.1914ZM268.03 48.1758C266.606 48.1758 265.481 47.7422 264.655 46.875C263.835 46.0078 263.425 44.8037 263.425 43.2627C263.425 41.71 263.806 40.4766 264.567 39.5625C265.335 38.6484 266.363 38.1914 267.652 38.1914C268.859 38.1914 269.814 38.5898 270.518 39.3867C271.221 40.1777 271.572 41.2236 271.572 42.5244V43.4473H264.937C264.966 44.5781 265.25 45.4365 265.789 46.0225C266.334 46.6084 267.099 46.9014 268.083 46.9014C269.12 46.9014 270.146 46.6846 271.159 46.251V47.5518C270.644 47.7744 270.154 47.9326 269.691 48.0264C269.234 48.126 268.681 48.1758 268.03 48.1758ZM267.635 39.4131C266.861 39.4131 266.243 39.665 265.78 40.1689C265.323 40.6729 265.054 41.3701 264.972 42.2607H270.008C270.008 41.3408 269.803 40.6377 269.393 40.1514C268.982 39.6592 268.396 39.4131 267.635 39.4131ZM281.855 46.9717C282.113 46.9717 282.362 46.9541 282.603 46.9189C282.843 46.8779 283.033 46.8369 283.174 46.7959V47.9121C283.016 47.9883 282.781 48.0498 282.471 48.0967C282.166 48.1494 281.891 48.1758 281.645 48.1758C279.781 48.1758 278.85 47.1943 278.85 45.2314V39.501H277.47V38.7979L278.85 38.1914L279.465 36.1348H280.309V38.3672H283.104V39.501H280.309V45.1699C280.309 45.75 280.446 46.1953 280.722 46.5059C280.997 46.8164 281.375 46.9717 281.855 46.9717ZM291.699 48V41.7686C291.699 40.9834 291.521 40.3975 291.163 40.0107C290.806 39.624 290.246 39.4307 289.484 39.4307C288.471 39.4307 287.729 39.7061 287.261 40.2568C286.798 40.8076 286.566 41.71 286.566 42.9639V48H285.107V34.3242H286.566V38.4639C286.566 38.9619 286.543 39.375 286.496 39.7031H286.584C286.871 39.2402 287.278 38.877 287.806 38.6133C288.339 38.3438 288.945 38.209 289.625 38.209C290.803 38.209 291.685 38.4902 292.271 39.0527C292.862 39.6094 293.158 40.4971 293.158 41.7158V48H291.699ZM300.233 48.1758C298.81 48.1758 297.685 47.7422 296.858 46.875C296.038 46.0078 295.628 44.8037 295.628 43.2627C295.628 41.71 296.009 40.4766 296.771 39.5625C297.538 38.6484 298.566 38.1914 299.855 38.1914C301.062 38.1914 302.018 38.5898 302.721 39.3867C303.424 40.1777 303.775 41.2236 303.775 42.5244V43.4473H297.14C297.169 44.5781 297.453 45.4365 297.992 46.0225C298.537 46.6084 299.302 46.9014 300.286 46.9014C301.323 46.9014 302.349 46.6846 303.362 46.251V47.5518C302.847 47.7744 302.357 47.9326 301.895 48.0264C301.438 48.126 300.884 48.1758 300.233 48.1758ZM299.838 39.4131C299.064 39.4131 298.446 39.665 297.983 40.1689C297.526 40.6729 297.257 41.3701 297.175 42.2607H302.211C302.211 41.3408 302.006 40.6377 301.596 40.1514C301.186 39.6592 300.6 39.4131 299.838 39.4131ZM71.6562 73L68 63.3672H69.5645L71.6387 69.0801C72.1074 70.416 72.3828 71.2832 72.4648 71.6816H72.5352C72.5996 71.3711 72.8018 70.7295 73.1416 69.7568C73.4873 68.7783 74.2578 66.6484 75.4531 63.3672H77.0176L73.3613 73H71.6562ZM80.0234 73H78.5645V63.3672H80.0234V73ZM78.4414 60.7568C78.4414 60.4229 78.5234 60.1797 78.6875 60.0273C78.8516 59.8691 79.0566 59.79 79.3027 59.79C79.5371 59.79 79.7393 59.8691 79.9092 60.0273C80.0791 60.1855 80.1641 60.4287 80.1641 60.7568C80.1641 61.085 80.0791 61.3311 79.9092 61.4951C79.7393 61.6533 79.5371 61.7324 79.3027 61.7324C79.0566 61.7324 78.8516 61.6533 78.6875 61.4951C78.5234 61.3311 78.4414 61.085 78.4414 60.7568ZM89.6738 71.708H89.5947C88.9209 72.6865 87.9131 73.1758 86.5713 73.1758C85.3115 73.1758 84.3301 72.7451 83.627 71.8838C82.9297 71.0225 82.5811 69.7979 82.5811 68.21C82.5811 66.6221 82.9326 65.3887 83.6357 64.5098C84.3389 63.6309 85.3174 63.1914 86.5713 63.1914C87.8779 63.1914 88.8799 63.666 89.5771 64.6152H89.6914L89.6299 63.9209L89.5947 63.2441V59.3242H91.0537V73H89.8672L89.6738 71.708ZM86.7559 71.9541C87.752 71.9541 88.4727 71.6846 88.918 71.1455C89.3691 70.6006 89.5947 69.7246 89.5947 68.5176V68.21C89.5947 66.8447 89.3662 65.8721 88.9092 65.292C88.458 64.7061 87.7344 64.4131 86.7383 64.4131C85.8828 64.4131 85.2266 64.7471 84.7695 65.415C84.3184 66.0771 84.0928 67.0146 84.0928 68.2275C84.0928 69.458 84.3184 70.3867 84.7695 71.0137C85.2207 71.6406 85.8828 71.9541 86.7559 71.9541ZM98.2256 73.1758C96.8018 73.1758 95.6768 72.7422 94.8506 71.875C94.0303 71.0078 93.6201 69.8037 93.6201 68.2627C93.6201 66.71 94.001 65.4766 94.7627 64.5625C95.5303 63.6484 96.5586 63.1914 97.8477 63.1914C99.0547 63.1914 100.01 63.5898 100.713 64.3867C101.416 65.1777 101.768 66.2236 101.768 67.5244V68.4473H95.1318C95.1611 69.5781 95.4453 70.4365 95.9844 71.0225C96.5293 71.6084 97.2939 71.9014 98.2783 71.9014C99.3154 71.9014 100.341 71.6846 101.354 71.251V72.5518C100.839 72.7744 100.35 72.9326 99.8867 73.0264C99.4297 73.126 98.876 73.1758 98.2256 73.1758ZM97.8301 64.4131C97.0566 64.4131 96.4385 64.665 95.9756 65.1689C95.5186 65.6729 95.249 66.3701 95.167 67.2607H100.203C100.203 66.3408 99.998 65.6377 99.5879 65.1514C99.1777 64.6592 98.5918 64.4131 97.8301 64.4131ZM112.578 68.1748C112.578 69.7451 112.183 70.9727 111.392 71.8574C110.601 72.7363 109.508 73.1758 108.113 73.1758C107.252 73.1758 106.487 72.9736 105.819 72.5693C105.151 72.165 104.636 71.585 104.272 70.8291C103.909 70.0732 103.728 69.1885 103.728 68.1748C103.728 66.6045 104.12 65.3828 104.905 64.5098C105.69 63.6309 106.78 63.1914 108.175 63.1914C109.522 63.1914 110.592 63.6396 111.383 64.5361C112.18 65.4326 112.578 66.6455 112.578 68.1748ZM105.239 68.1748C105.239 69.4053 105.485 70.3428 105.978 70.9873C106.47 71.6318 107.193 71.9541 108.148 71.9541C109.104 71.9541 109.827 71.6348 110.319 70.9961C110.817 70.3516 111.066 69.4111 111.066 68.1748C111.066 66.9502 110.817 66.0215 110.319 65.3887C109.827 64.75 109.098 64.4307 108.131 64.4307C107.176 64.4307 106.455 64.7441 105.969 65.3711C105.482 65.998 105.239 66.9326 105.239 68.1748ZM128.135 68.1748C128.135 69.7451 127.739 70.9727 126.948 71.8574C126.157 72.7363 125.064 73.1758 123.67 73.1758C122.809 73.1758 122.044 72.9736 121.376 72.5693C120.708 72.165 120.192 71.585 119.829 70.8291C119.466 70.0732 119.284 69.1885 119.284 68.1748C119.284 66.6045 119.677 65.3828 120.462 64.5098C121.247 63.6309 122.337 63.1914 123.731 63.1914C125.079 63.1914 126.148 63.6396 126.939 64.5361C127.736 65.4326 128.135 66.6455 128.135 68.1748ZM120.796 68.1748C120.796 69.4053 121.042 70.3428 121.534 70.9873C122.026 71.6318 122.75 71.9541 123.705 71.9541C124.66 71.9541 125.384 71.6348 125.876 70.9961C126.374 70.3516 126.623 69.4111 126.623 68.1748C126.623 66.9502 126.374 66.0215 125.876 65.3887C125.384 64.75 124.654 64.4307 123.688 64.4307C122.732 64.4307 122.012 64.7441 121.525 65.3711C121.039 65.998 120.796 66.9326 120.796 68.1748ZM135.096 63.1914C135.523 63.1914 135.907 63.2266 136.247 63.2969L136.045 64.6504C135.646 64.5625 135.295 64.5186 134.99 64.5186C134.211 64.5186 133.543 64.835 132.986 65.4678C132.436 66.1006 132.16 66.8887 132.16 67.832V73H130.701V63.3672H131.905L132.072 65.1514H132.143C132.5 64.5244 132.931 64.041 133.435 63.7012C133.938 63.3613 134.492 63.1914 135.096 63.1914ZM146.574 73.1758C145.18 73.1758 144.099 72.748 143.331 71.8926C142.569 71.0312 142.188 69.8154 142.188 68.2451C142.188 66.6338 142.575 65.3887 143.349 64.5098C144.128 63.6309 145.235 63.1914 146.671 63.1914C147.134 63.1914 147.597 63.2412 148.06 63.3408C148.522 63.4404 148.886 63.5576 149.149 63.6924L148.701 64.9316C148.379 64.8027 148.027 64.6973 147.646 64.6152C147.266 64.5273 146.929 64.4834 146.636 64.4834C144.679 64.4834 143.7 65.7314 143.7 68.2275C143.7 69.4111 143.938 70.3193 144.412 70.9521C144.893 71.585 145.602 71.9014 146.539 71.9014C147.342 71.9014 148.165 71.7285 149.009 71.3828V72.6748C148.364 73.0088 147.553 73.1758 146.574 73.1758ZM159.617 68.1748C159.617 69.7451 159.222 70.9727 158.431 71.8574C157.64 72.7363 156.547 73.1758 155.152 73.1758C154.291 73.1758 153.526 72.9736 152.858 72.5693C152.19 72.165 151.675 71.585 151.312 70.8291C150.948 70.0732 150.767 69.1885 150.767 68.1748C150.767 66.6045 151.159 65.3828 151.944 64.5098C152.729 63.6309 153.819 63.1914 155.214 63.1914C156.562 63.1914 157.631 63.6396 158.422 64.5361C159.219 65.4326 159.617 66.6455 159.617 68.1748ZM152.278 68.1748C152.278 69.4053 152.524 70.3428 153.017 70.9873C153.509 71.6318 154.232 71.9541 155.188 71.9541C156.143 71.9541 156.866 71.6348 157.358 70.9961C157.856 70.3516 158.105 69.4111 158.105 68.1748C158.105 66.9502 157.856 66.0215 157.358 65.3887C156.866 64.75 156.137 64.4307 155.17 64.4307C154.215 64.4307 153.494 64.7441 153.008 65.3711C152.521 65.998 152.278 66.9326 152.278 68.1748ZM163.555 63.3672V69.6162C163.555 70.4014 163.733 70.9873 164.091 71.374C164.448 71.7607 165.008 71.9541 165.77 71.9541C166.777 71.9541 167.513 71.6787 167.976 71.1279C168.444 70.5771 168.679 69.6777 168.679 68.4297V63.3672H170.138V73H168.934L168.723 71.708H168.644C168.345 72.1826 167.929 72.5459 167.396 72.7979C166.868 73.0498 166.265 73.1758 165.585 73.1758C164.413 73.1758 163.534 72.8975 162.948 72.3408C162.368 71.7842 162.078 70.8936 162.078 69.6689V63.3672H163.555ZM177.635 63.1914C178.062 63.1914 178.446 63.2266 178.786 63.2969L178.584 64.6504C178.186 64.5625 177.834 64.5186 177.529 64.5186C176.75 64.5186 176.082 64.835 175.525 65.4678C174.975 66.1006 174.699 66.8887 174.699 67.832V73H173.24V63.3672H174.444L174.611 65.1514H174.682C175.039 64.5244 175.47 64.041 175.974 63.7012C176.478 63.3613 177.031 63.1914 177.635 63.1914ZM186.802 70.3721C186.802 71.2686 186.468 71.96 185.8 72.4463C185.132 72.9326 184.194 73.1758 182.987 73.1758C181.71 73.1758 180.714 72.9736 179.999 72.5693V71.2158C180.462 71.4502 180.957 71.6348 181.484 71.7695C182.018 71.9043 182.53 71.9717 183.022 71.9717C183.784 71.9717 184.37 71.8516 184.78 71.6113C185.19 71.3652 185.396 70.9932 185.396 70.4951C185.396 70.1201 185.231 69.8008 184.903 69.5371C184.581 69.2676 183.948 68.9512 183.005 68.5879C182.108 68.2539 181.47 67.9639 181.089 67.7178C180.714 67.4658 180.433 67.1816 180.245 66.8652C180.063 66.5488 179.973 66.1709 179.973 65.7314C179.973 64.9463 180.292 64.3281 180.931 63.877C181.569 63.4199 182.445 63.1914 183.559 63.1914C184.596 63.1914 185.609 63.4023 186.6 63.8242L186.081 65.0107C185.114 64.6123 184.238 64.4131 183.453 64.4131C182.762 64.4131 182.24 64.5215 181.889 64.7383C181.537 64.9551 181.361 65.2539 181.361 65.6348C181.361 65.8926 181.426 66.1123 181.555 66.2939C181.689 66.4756 181.903 66.6484 182.196 66.8125C182.489 66.9766 183.052 67.2139 183.884 67.5244C185.026 67.9404 185.797 68.3594 186.195 68.7812C186.6 69.2031 186.802 69.7334 186.802 70.3721ZM193.253 73.1758C191.829 73.1758 190.704 72.7422 189.878 71.875C189.058 71.0078 188.647 69.8037 188.647 68.2627C188.647 66.71 189.028 65.4766 189.79 64.5625C190.558 63.6484 191.586 63.1914 192.875 63.1914C194.082 63.1914 195.037 63.5898 195.74 64.3867C196.443 65.1777 196.795 66.2236 196.795 67.5244V68.4473H190.159C190.188 69.5781 190.473 70.4365 191.012 71.0225C191.557 71.6084 192.321 71.9014 193.306 71.9014C194.343 71.9014 195.368 71.6846 196.382 71.251V72.5518C195.866 72.7744 195.377 72.9326 194.914 73.0264C194.457 73.126 193.903 73.1758 193.253 73.1758ZM192.857 64.4131C192.084 64.4131 191.466 64.665 191.003 65.1689C190.546 65.6729 190.276 66.3701 190.194 67.2607H195.23C195.23 66.3408 195.025 65.6377 194.615 65.1514C194.205 64.6592 193.619 64.4131 192.857 64.4131ZM212.281 68.1748C212.281 69.7451 211.886 70.9727 211.095 71.8574C210.304 72.7363 209.211 73.1758 207.816 73.1758C206.955 73.1758 206.19 72.9736 205.522 72.5693C204.854 72.165 204.339 71.585 203.976 70.8291C203.612 70.0732 203.431 69.1885 203.431 68.1748C203.431 66.6045 203.823 65.3828 204.608 64.5098C205.394 63.6309 206.483 63.1914 207.878 63.1914C209.226 63.1914 210.295 63.6396 211.086 64.5361C211.883 65.4326 212.281 66.6455 212.281 68.1748ZM204.942 68.1748C204.942 69.4053 205.188 70.3428 205.681 70.9873C206.173 71.6318 206.896 71.9541 207.852 71.9541C208.807 71.9541 209.53 71.6348 210.022 70.9961C210.521 70.3516 210.77 69.4111 210.77 68.1748C210.77 66.9502 210.521 66.0215 210.022 65.3887C209.53 64.75 208.801 64.4307 207.834 64.4307C206.879 64.4307 206.158 64.7441 205.672 65.3711C205.186 65.998 204.942 66.9326 204.942 68.1748ZM221.439 73V66.7686C221.439 65.9834 221.261 65.3975 220.903 65.0107C220.546 64.624 219.986 64.4307 219.225 64.4307C218.217 64.4307 217.479 64.7031 217.01 65.248C216.541 65.793 216.307 66.6924 216.307 67.9463V73H214.848V63.3672H216.034L216.271 64.6855H216.342C216.641 64.2109 217.06 63.8447 217.599 63.5869C218.138 63.3232 218.738 63.1914 219.4 63.1914C220.561 63.1914 221.434 63.4727 222.02 64.0352C222.605 64.5918 222.898 65.4854 222.898 66.7158V73H221.439ZM236.794 70.3721C236.794 71.2686 236.46 71.96 235.792 72.4463C235.124 72.9326 234.187 73.1758 232.979 73.1758C231.702 73.1758 230.706 72.9736 229.991 72.5693V71.2158C230.454 71.4502 230.949 71.6348 231.477 71.7695C232.01 71.9043 232.522 71.9717 233.015 71.9717C233.776 71.9717 234.362 71.8516 234.772 71.6113C235.183 71.3652 235.388 70.9932 235.388 70.4951C235.388 70.1201 235.224 69.8008 234.896 69.5371C234.573 69.2676 233.94 68.9512 232.997 68.5879C232.101 68.2539 231.462 67.9639 231.081 67.7178C230.706 67.4658 230.425 67.1816 230.237 66.8652C230.056 66.5488 229.965 66.1709 229.965 65.7314C229.965 64.9463 230.284 64.3281 230.923 63.877C231.562 63.4199 232.438 63.1914 233.551 63.1914C234.588 63.1914 235.602 63.4023 236.592 63.8242L236.073 65.0107C235.106 64.6123 234.23 64.4131 233.445 64.4131C232.754 64.4131 232.232 64.5215 231.881 64.7383C231.529 64.9551 231.354 65.2539 231.354 65.6348C231.354 65.8926 231.418 66.1123 231.547 66.2939C231.682 66.4756 231.896 66.6484 232.188 66.8125C232.481 66.9766 233.044 67.2139 233.876 67.5244C235.019 67.9404 235.789 68.3594 236.188 68.7812C236.592 69.2031 236.794 69.7334 236.794 70.3721ZM247.49 68.1748C247.49 69.7451 247.095 70.9727 246.304 71.8574C245.513 72.7363 244.42 73.1758 243.025 73.1758C242.164 73.1758 241.399 72.9736 240.731 72.5693C240.063 72.165 239.548 71.585 239.185 70.8291C238.821 70.0732 238.64 69.1885 238.64 68.1748C238.64 66.6045 239.032 65.3828 239.817 64.5098C240.603 63.6309 241.692 63.1914 243.087 63.1914C244.435 63.1914 245.504 63.6396 246.295 64.5361C247.092 65.4326 247.49 66.6455 247.49 68.1748ZM240.151 68.1748C240.151 69.4053 240.397 70.3428 240.89 70.9873C241.382 71.6318 242.105 71.9541 243.061 71.9541C244.016 71.9541 244.739 71.6348 245.231 70.9961C245.729 70.3516 245.979 69.4111 245.979 68.1748C245.979 66.9502 245.729 66.0215 245.231 65.3887C244.739 64.75 244.01 64.4307 243.043 64.4307C242.088 64.4307 241.367 64.7441 240.881 65.3711C240.395 65.998 240.151 66.9326 240.151 68.1748ZM253.906 73.1758C252.512 73.1758 251.431 72.748 250.663 71.8926C249.901 71.0312 249.521 69.8154 249.521 68.2451C249.521 66.6338 249.907 65.3887 250.681 64.5098C251.46 63.6309 252.567 63.1914 254.003 63.1914C254.466 63.1914 254.929 63.2412 255.392 63.3408C255.854 63.4404 256.218 63.5576 256.481 63.6924L256.033 64.9316C255.711 64.8027 255.359 64.6973 254.979 64.6152C254.598 64.5273 254.261 64.4834 253.968 64.4834C252.011 64.4834 251.032 65.7314 251.032 68.2275C251.032 69.4111 251.27 70.3193 251.744 70.9521C252.225 71.585 252.934 71.9014 253.871 71.9014C254.674 71.9014 255.497 71.7285 256.341 71.3828V72.6748C255.696 73.0088 254.885 73.1758 253.906 73.1758ZM260.094 73H258.635V63.3672H260.094V73ZM258.512 60.7568C258.512 60.4229 258.594 60.1797 258.758 60.0273C258.922 59.8691 259.127 59.79 259.373 59.79C259.607 59.79 259.81 59.8691 259.979 60.0273C260.149 60.1855 260.234 60.4287 260.234 60.7568C260.234 61.085 260.149 61.3311 259.979 61.4951C259.81 61.6533 259.607 61.7324 259.373 61.7324C259.127 61.7324 258.922 61.6533 258.758 61.4951C258.594 61.3311 258.512 61.085 258.512 60.7568ZM269.111 73L268.821 71.6289H268.751C268.271 72.2324 267.79 72.6426 267.31 72.8594C266.835 73.0703 266.24 73.1758 265.525 73.1758C264.57 73.1758 263.82 72.9297 263.275 72.4375C262.736 71.9453 262.467 71.2451 262.467 70.3369C262.467 68.3916 264.022 67.3721 267.134 67.2783L268.769 67.2256V66.6279C268.769 65.8721 268.604 65.3154 268.276 64.958C267.954 64.5947 267.436 64.4131 266.721 64.4131C265.918 64.4131 265.01 64.6592 263.996 65.1514L263.548 64.0352C264.022 63.7773 264.541 63.5752 265.104 63.4287C265.672 63.2822 266.24 63.209 266.809 63.209C267.957 63.209 268.807 63.4639 269.357 63.9736C269.914 64.4834 270.192 65.3008 270.192 66.4258V73H269.111ZM265.815 71.9717C266.724 71.9717 267.436 71.7227 267.951 71.2246C268.473 70.7266 268.733 70.0293 268.733 69.1328V68.2627L267.274 68.3242C266.114 68.3652 265.276 68.5469 264.761 68.8691C264.251 69.1855 263.996 69.6807 263.996 70.3545C263.996 70.8818 264.154 71.2832 264.471 71.5586C264.793 71.834 265.241 71.9717 265.815 71.9717ZM274.666 73H273.207V59.3242H274.666V73ZM294.714 73V66.7334C294.714 65.9658 294.55 65.3916 294.222 65.0107C293.894 64.624 293.384 64.4307 292.692 64.4307C291.784 64.4307 291.113 64.6914 290.68 65.2129C290.246 65.7344 290.029 66.5371 290.029 67.6211V73H288.57V66.7334C288.57 65.9658 288.406 65.3916 288.078 65.0107C287.75 64.624 287.237 64.4307 286.54 64.4307C285.626 64.4307 284.955 64.7061 284.527 65.2568C284.105 65.8018 283.895 66.6982 283.895 67.9463V73H282.436V63.3672H283.622L283.859 64.6855H283.93C284.205 64.2168 284.592 63.8506 285.09 63.5869C285.594 63.3232 286.156 63.1914 286.777 63.1914C288.283 63.1914 289.268 63.7363 289.73 64.8262H289.801C290.088 64.3223 290.504 63.9238 291.049 63.6309C291.594 63.3379 292.215 63.1914 292.912 63.1914C294.002 63.1914 294.816 63.4727 295.355 64.0352C295.9 64.5918 296.173 65.4854 296.173 66.7158V73H294.714ZM303.257 73.1758C301.833 73.1758 300.708 72.7422 299.882 71.875C299.062 71.0078 298.651 69.8037 298.651 68.2627C298.651 66.71 299.032 65.4766 299.794 64.5625C300.562 63.6484 301.59 63.1914 302.879 63.1914C304.086 63.1914 305.041 63.5898 305.744 64.3867C306.447 65.1777 306.799 66.2236 306.799 67.5244V68.4473H300.163C300.192 69.5781 300.477 70.4365 301.016 71.0225C301.561 71.6084 302.325 71.9014 303.31 71.9014C304.347 71.9014 305.372 71.6846 306.386 71.251V72.5518C305.87 72.7744 305.381 72.9326 304.918 73.0264C304.461 73.126 303.907 73.1758 303.257 73.1758ZM302.861 64.4131C302.088 64.4131 301.47 64.665 301.007 65.1689C300.55 65.6729 300.28 66.3701 300.198 67.2607H305.234C305.234 66.3408 305.029 65.6377 304.619 65.1514C304.209 64.6592 303.623 64.4131 302.861 64.4131ZM315.852 71.708H315.772C315.099 72.6865 314.091 73.1758 312.749 73.1758C311.489 73.1758 310.508 72.7451 309.805 71.8838C309.107 71.0225 308.759 69.7979 308.759 68.21C308.759 66.6221 309.11 65.3887 309.813 64.5098C310.517 63.6309 311.495 63.1914 312.749 63.1914C314.056 63.1914 315.058 63.666 315.755 64.6152H315.869L315.808 63.9209L315.772 63.2441V59.3242H317.231V73H316.045L315.852 71.708ZM312.934 71.9541C313.93 71.9541 314.65 71.6846 315.096 71.1455C315.547 70.6006 315.772 69.7246 315.772 68.5176V68.21C315.772 66.8447 315.544 65.8721 315.087 65.292C314.636 64.7061 313.912 64.4131 312.916 64.4131C312.061 64.4131 311.404 64.7471 310.947 65.415C310.496 66.0771 310.271 67.0146 310.271 68.2275C310.271 69.458 310.496 70.3867 310.947 71.0137C311.398 71.6406 312.061 71.9541 312.934 71.9541ZM321.793 73H320.334V63.3672H321.793V73ZM320.211 60.7568C320.211 60.4229 320.293 60.1797 320.457 60.0273C320.621 59.8691 320.826 59.79 321.072 59.79C321.307 59.79 321.509 59.8691 321.679 60.0273C321.849 60.1855 321.934 60.4287 321.934 60.7568C321.934 61.085 321.849 61.3311 321.679 61.4951C321.509 61.6533 321.307 61.7324 321.072 61.7324C320.826 61.7324 320.621 61.6533 320.457 61.4951C320.293 61.3311 320.211 61.085 320.211 60.7568ZM330.811 73L330.521 71.6289H330.45C329.97 72.2324 329.489 72.6426 329.009 72.8594C328.534 73.0703 327.939 73.1758 327.225 73.1758C326.27 73.1758 325.52 72.9297 324.975 72.4375C324.436 71.9453 324.166 71.2451 324.166 70.3369C324.166 68.3916 325.722 67.3721 328.833 67.2783L330.468 67.2256V66.6279C330.468 65.8721 330.304 65.3154 329.976 64.958C329.653 64.5947 329.135 64.4131 328.42 64.4131C327.617 64.4131 326.709 64.6592 325.695 65.1514L325.247 64.0352C325.722 63.7773 326.24 63.5752 326.803 63.4287C327.371 63.2822 327.939 63.209 328.508 63.209C329.656 63.209 330.506 63.4639 331.057 63.9736C331.613 64.4834 331.892 65.3008 331.892 66.4258V73H330.811ZM327.515 71.9717C328.423 71.9717 329.135 71.7227 329.65 71.2246C330.172 70.7266 330.433 70.0293 330.433 69.1328V68.2627L328.974 68.3242C327.813 68.3652 326.976 68.5469 326.46 68.8691C325.95 69.1855 325.695 69.6807 325.695 70.3545C325.695 70.8818 325.854 71.2832 326.17 71.5586C326.492 71.834 326.94 71.9717 327.515 71.9717ZM72.6582 96.9717C72.916 96.9717 73.165 96.9541 73.4053 96.9189C73.6455 96.8779 73.8359 96.8369 73.9766 96.7959V97.9121C73.8184 97.9883 73.584 98.0498 73.2734 98.0967C72.9688 98.1494 72.6934 98.1758 72.4473 98.1758C70.584 98.1758 69.6523 97.1943 69.6523 95.2314V89.501H68.2725V88.7979L69.6523 88.1914L70.2676 86.1348H71.1113V88.3672H73.9062V89.501H71.1113V95.1699C71.1113 95.75 71.249 96.1953 71.5244 96.5059C71.7998 96.8164 72.1777 96.9717 72.6582 96.9717ZM84.2246 93.1748C84.2246 94.7451 83.8291 95.9727 83.0381 96.8574C82.2471 97.7363 81.1543 98.1758 79.7598 98.1758C78.8984 98.1758 78.1338 97.9736 77.4658 97.5693C76.7979 97.165 76.2822 96.585 75.9189 95.8291C75.5557 95.0732 75.374 94.1885 75.374 93.1748C75.374 91.6045 75.7666 90.3828 76.5518 89.5098C77.3369 88.6309 78.4268 88.1914 79.8213 88.1914C81.1689 88.1914 82.2383 88.6396 83.0293 89.5361C83.8262 90.4326 84.2246 91.6455 84.2246 93.1748ZM76.8857 93.1748C76.8857 94.4053 77.1318 95.3428 77.624 95.9873C78.1162 96.6318 78.8398 96.9541 79.7949 96.9541C80.75 96.9541 81.4736 96.6348 81.9658 95.9961C82.4639 95.3516 82.7129 94.4111 82.7129 93.1748C82.7129 91.9502 82.4639 91.0215 81.9658 90.3887C81.4736 89.75 80.7441 89.4307 79.7773 89.4307C78.8223 89.4307 78.1016 89.7441 77.6152 90.3711C77.1289 90.998 76.8857 91.9326 76.8857 93.1748ZM95.8086 89.501H93.3564V98H91.8975V89.501H90.1748V88.8418L91.8975 88.3145V87.7783C91.8975 85.4111 92.9316 84.2275 95 84.2275C95.5098 84.2275 96.1074 84.3301 96.793 84.5352L96.415 85.7041C95.8525 85.5225 95.3721 85.4316 94.9736 85.4316C94.4229 85.4316 94.0156 85.6162 93.752 85.9854C93.4883 86.3486 93.3564 86.9346 93.3564 87.7432V88.3672H95.8086V89.501ZM101.961 88.1914C102.389 88.1914 102.772 88.2266 103.112 88.2969L102.91 89.6504C102.512 89.5625 102.16 89.5186 101.855 89.5186C101.076 89.5186 100.408 89.835 99.8516 90.4678C99.3008 91.1006 99.0254 91.8887 99.0254 92.832V98H97.5664V88.3672H98.7705L98.9375 90.1514H99.0078C99.3652 89.5244 99.7959 89.041 100.3 88.7012C100.804 88.3613 101.357 88.1914 101.961 88.1914ZM106.373 98H104.914V88.3672H106.373V98ZM104.791 85.7568C104.791 85.4229 104.873 85.1797 105.037 85.0273C105.201 84.8691 105.406 84.79 105.652 84.79C105.887 84.79 106.089 84.8691 106.259 85.0273C106.429 85.1855 106.514 85.4287 106.514 85.7568C106.514 86.085 106.429 86.3311 106.259 86.4951C106.089 86.6533 105.887 86.7324 105.652 86.7324C105.406 86.7324 105.201 86.6533 105.037 86.4951C104.873 86.3311 104.791 86.085 104.791 85.7568ZM113.536 98.1758C112.112 98.1758 110.987 97.7422 110.161 96.875C109.341 96.0078 108.931 94.8037 108.931 93.2627C108.931 91.71 109.312 90.4766 110.073 89.5625C110.841 88.6484 111.869 88.1914 113.158 88.1914C114.365 88.1914 115.32 88.5898 116.023 89.3867C116.727 90.1777 117.078 91.2236 117.078 92.5244V93.4473H110.442C110.472 94.5781 110.756 95.4365 111.295 96.0225C111.84 96.6084 112.604 96.9014 113.589 96.9014C114.626 96.9014 115.651 96.6846 116.665 96.251V97.5518C116.149 97.7744 115.66 97.9326 115.197 98.0264C114.74 98.126 114.187 98.1758 113.536 98.1758ZM113.141 89.4131C112.367 89.4131 111.749 89.665 111.286 90.1689C110.829 90.6729 110.56 91.3701 110.478 92.2607H115.514C115.514 91.3408 115.309 90.6377 114.898 90.1514C114.488 89.6592 113.902 89.4131 113.141 89.4131ZM126.166 98V91.7686C126.166 90.9834 125.987 90.3975 125.63 90.0107C125.272 89.624 124.713 89.4307 123.951 89.4307C122.943 89.4307 122.205 89.7031 121.736 90.248C121.268 90.793 121.033 91.6924 121.033 92.9463V98H119.574V88.3672H120.761L120.998 89.6855H121.068C121.367 89.2109 121.786 88.8447 122.325 88.5869C122.864 88.3232 123.465 88.1914 124.127 88.1914C125.287 88.1914 126.16 88.4727 126.746 89.0352C127.332 89.5918 127.625 90.4854 127.625 91.7158V98H126.166ZM137.188 96.708H137.108C136.435 97.6865 135.427 98.1758 134.085 98.1758C132.825 98.1758 131.844 97.7451 131.141 96.8838C130.443 96.0225 130.095 94.7979 130.095 93.21C130.095 91.6221 130.446 90.3887 131.149 89.5098C131.853 88.6309 132.831 88.1914 134.085 88.1914C135.392 88.1914 136.394 88.666 137.091 89.6152H137.205L137.144 88.9209L137.108 88.2441V84.3242H138.567V98H137.381L137.188 96.708ZM134.27 96.9541C135.266 96.9541 135.986 96.6846 136.432 96.1455C136.883 95.6006 137.108 94.7246 137.108 93.5176V93.21C137.108 91.8447 136.88 90.8721 136.423 90.292C135.972 89.7061 135.248 89.4131 134.252 89.4131C133.396 89.4131 132.74 89.7471 132.283 90.415C131.832 91.0771 131.606 92.0146 131.606 93.2275C131.606 94.458 131.832 95.3867 132.283 96.0137C132.734 96.6406 133.396 96.9541 134.27 96.9541ZM147.884 95.3721C147.884 96.2686 147.55 96.96 146.882 97.4463C146.214 97.9326 145.276 98.1758 144.069 98.1758C142.792 98.1758 141.796 97.9736 141.081 97.5693V96.2158C141.544 96.4502 142.039 96.6348 142.566 96.7695C143.1 96.9043 143.612 96.9717 144.104 96.9717C144.866 96.9717 145.452 96.8516 145.862 96.6113C146.272 96.3652 146.478 95.9932 146.478 95.4951C146.478 95.1201 146.313 94.8008 145.985 94.5371C145.663 94.2676 145.03 93.9512 144.087 93.5879C143.19 93.2539 142.552 92.9639 142.171 92.7178C141.796 92.4658 141.515 92.1816 141.327 91.8652C141.146 91.5488 141.055 91.1709 141.055 90.7314C141.055 89.9463 141.374 89.3281 142.013 88.877C142.651 88.4199 143.527 88.1914 144.641 88.1914C145.678 88.1914 146.691 88.4023 147.682 88.8242L147.163 90.0107C146.196 89.6123 145.32 89.4131 144.535 89.4131C143.844 89.4131 143.322 89.5215 142.971 89.7383C142.619 89.9551 142.443 90.2539 142.443 90.6348C142.443 90.8926 142.508 91.1123 142.637 91.2939C142.771 91.4756 142.985 91.6484 143.278 91.8125C143.571 91.9766 144.134 92.2139 144.966 92.5244C146.108 92.9404 146.879 93.3594 147.277 93.7812C147.682 94.2031 147.884 94.7334 147.884 95.3721ZM157.051 98L153.395 88.3672H154.959L157.033 94.0801C157.502 95.416 157.777 96.2832 157.859 96.6816H157.93C157.994 96.3711 158.196 95.7295 158.536 94.7568C158.882 93.7783 159.652 91.6484 160.848 88.3672H162.412L158.756 98H157.051ZM165.418 98H163.959V88.3672H165.418V98ZM163.836 85.7568C163.836 85.4229 163.918 85.1797 164.082 85.0273C164.246 84.8691 164.451 84.79 164.697 84.79C164.932 84.79 165.134 84.8691 165.304 85.0273C165.474 85.1855 165.559 85.4287 165.559 85.7568C165.559 86.085 165.474 86.3311 165.304 86.4951C165.134 86.6533 164.932 86.7324 164.697 86.7324C164.451 86.7324 164.246 86.6533 164.082 86.4951C163.918 86.3311 163.836 86.085 163.836 85.7568ZM174.436 98L174.146 96.6289H174.075C173.595 97.2324 173.114 97.6426 172.634 97.8594C172.159 98.0703 171.564 98.1758 170.85 98.1758C169.895 98.1758 169.145 97.9297 168.6 97.4375C168.061 96.9453 167.791 96.2451 167.791 95.3369C167.791 93.3916 169.347 92.3721 172.458 92.2783L174.093 92.2256V91.6279C174.093 90.8721 173.929 90.3154 173.601 89.958C173.278 89.5947 172.76 89.4131 172.045 89.4131C171.242 89.4131 170.334 89.6592 169.32 90.1514L168.872 89.0352C169.347 88.7773 169.865 88.5752 170.428 88.4287C170.996 88.2822 171.564 88.209 172.133 88.209C173.281 88.209 174.131 88.4639 174.682 88.9736C175.238 89.4834 175.517 90.3008 175.517 91.4258V98H174.436ZM171.14 96.9717C172.048 96.9717 172.76 96.7227 173.275 96.2246C173.797 95.7266 174.058 95.0293 174.058 94.1328V93.2627L172.599 93.3242C171.438 93.3652 170.601 93.5469 170.085 93.8691C169.575 94.1855 169.32 94.6807 169.32 95.3545C169.32 95.8818 169.479 96.2832 169.795 96.5586C170.117 96.834 170.565 96.9717 171.14 96.9717ZM189.421 95.3721C189.421 96.2686 189.087 96.96 188.419 97.4463C187.751 97.9326 186.813 98.1758 185.606 98.1758C184.329 98.1758 183.333 97.9736 182.618 97.5693V96.2158C183.081 96.4502 183.576 96.6348 184.104 96.7695C184.637 96.9043 185.149 96.9717 185.642 96.9717C186.403 96.9717 186.989 96.8516 187.399 96.6113C187.81 96.3652 188.015 95.9932 188.015 95.4951C188.015 95.1201 187.851 94.8008 187.522 94.5371C187.2 94.2676 186.567 93.9512 185.624 93.5879C184.728 93.2539 184.089 92.9639 183.708 92.7178C183.333 92.4658 183.052 92.1816 182.864 91.8652C182.683 91.5488 182.592 91.1709 182.592 90.7314C182.592 89.9463 182.911 89.3281 183.55 88.877C184.188 88.4199 185.064 88.1914 186.178 88.1914C187.215 88.1914 188.229 88.4023 189.219 88.8242L188.7 90.0107C187.733 89.6123 186.857 89.4131 186.072 89.4131C185.381 89.4131 184.859 89.5215 184.508 89.7383C184.156 89.9551 183.98 90.2539 183.98 90.6348C183.98 90.8926 184.045 91.1123 184.174 91.2939C184.309 91.4756 184.522 91.6484 184.815 91.8125C185.108 91.9766 185.671 92.2139 186.503 92.5244C187.646 92.9404 188.416 93.3594 188.814 93.7812C189.219 94.2031 189.421 94.7334 189.421 95.3721ZM200.117 93.1748C200.117 94.7451 199.722 95.9727 198.931 96.8574C198.14 97.7363 197.047 98.1758 195.652 98.1758C194.791 98.1758 194.026 97.9736 193.358 97.5693C192.69 97.165 192.175 96.585 191.812 95.8291C191.448 95.0732 191.267 94.1885 191.267 93.1748C191.267 91.6045 191.659 90.3828 192.444 89.5098C193.229 88.6309 194.319 88.1914 195.714 88.1914C197.062 88.1914 198.131 88.6396 198.922 89.5361C199.719 90.4326 200.117 91.6455 200.117 93.1748ZM192.778 93.1748C192.778 94.4053 193.024 95.3428 193.517 95.9873C194.009 96.6318 194.732 96.9541 195.688 96.9541C196.643 96.9541 197.366 96.6348 197.858 95.9961C198.356 95.3516 198.605 94.4111 198.605 93.1748C198.605 91.9502 198.356 91.0215 197.858 90.3887C197.366 89.75 196.637 89.4307 195.67 89.4307C194.715 89.4307 193.994 89.7441 193.508 90.3711C193.021 90.998 192.778 91.9326 192.778 93.1748ZM214.962 98V91.7334C214.962 90.9658 214.798 90.3916 214.47 90.0107C214.142 89.624 213.632 89.4307 212.94 89.4307C212.032 89.4307 211.361 89.6914 210.928 90.2129C210.494 90.7344 210.277 91.5371 210.277 92.6211V98H208.818V91.7334C208.818 90.9658 208.654 90.3916 208.326 90.0107C207.998 89.624 207.485 89.4307 206.788 89.4307C205.874 89.4307 205.203 89.7061 204.775 90.2568C204.354 90.8018 204.143 91.6982 204.143 92.9463V98H202.684V88.3672H203.87L204.107 89.6855H204.178C204.453 89.2168 204.84 88.8506 205.338 88.5869C205.842 88.3232 206.404 88.1914 207.025 88.1914C208.531 88.1914 209.516 88.7363 209.979 89.8262H210.049C210.336 89.3223 210.752 88.9238 211.297 88.6309C211.842 88.3379 212.463 88.1914 213.16 88.1914C214.25 88.1914 215.064 88.4727 215.604 89.0352C216.148 89.5918 216.421 90.4854 216.421 91.7158V98H214.962ZM223.505 98.1758C222.081 98.1758 220.956 97.7422 220.13 96.875C219.31 96.0078 218.899 94.8037 218.899 93.2627C218.899 91.71 219.28 90.4766 220.042 89.5625C220.81 88.6484 221.838 88.1914 223.127 88.1914C224.334 88.1914 225.289 88.5898 225.992 89.3867C226.695 90.1777 227.047 91.2236 227.047 92.5244V93.4473H220.411C220.44 94.5781 220.725 95.4365 221.264 96.0225C221.809 96.6084 222.573 96.9014 223.558 96.9014C224.595 96.9014 225.62 96.6846 226.634 96.251V97.5518C226.118 97.7744 225.629 97.9326 225.166 98.0264C224.709 98.126 224.155 98.1758 223.505 98.1758ZM223.109 89.4131C222.336 89.4131 221.718 89.665 221.255 90.1689C220.798 90.6729 220.528 91.3701 220.446 92.2607H225.482C225.482 91.3408 225.277 90.6377 224.867 90.1514C224.457 89.6592 223.871 89.4131 223.109 89.4131ZM246.497 98V91.7334C246.497 90.9658 246.333 90.3916 246.005 90.0107C245.677 89.624 245.167 89.4307 244.476 89.4307C243.567 89.4307 242.896 89.6914 242.463 90.2129C242.029 90.7344 241.812 91.5371 241.812 92.6211V98H240.354V91.7334C240.354 90.9658 240.189 90.3916 239.861 90.0107C239.533 89.624 239.021 89.4307 238.323 89.4307C237.409 89.4307 236.738 89.7061 236.311 90.2568C235.889 90.8018 235.678 91.6982 235.678 92.9463V98H234.219V88.3672H235.405L235.643 89.6855H235.713C235.988 89.2168 236.375 88.8506 236.873 88.5869C237.377 88.3232 237.939 88.1914 238.561 88.1914C240.066 88.1914 241.051 88.7363 241.514 89.8262H241.584C241.871 89.3223 242.287 88.9238 242.832 88.6309C243.377 88.3379 243.998 88.1914 244.695 88.1914C245.785 88.1914 246.6 88.4727 247.139 89.0352C247.684 89.5918 247.956 90.4854 247.956 91.7158V98H246.497ZM255.04 98.1758C253.616 98.1758 252.491 97.7422 251.665 96.875C250.845 96.0078 250.435 94.8037 250.435 93.2627C250.435 91.71 250.815 90.4766 251.577 89.5625C252.345 88.6484 253.373 88.1914 254.662 88.1914C255.869 88.1914 256.824 88.5898 257.527 89.3867C258.23 90.1777 258.582 91.2236 258.582 92.5244V93.4473H251.946C251.976 94.5781 252.26 95.4365 252.799 96.0225C253.344 96.6084 254.108 96.9014 255.093 96.9014C256.13 96.9014 257.155 96.6846 258.169 96.251V97.5518C257.653 97.7744 257.164 97.9326 256.701 98.0264C256.244 98.126 255.69 98.1758 255.04 98.1758ZM254.645 89.4131C253.871 89.4131 253.253 89.665 252.79 90.1689C252.333 90.6729 252.063 91.3701 251.981 92.2607H257.018C257.018 91.3408 256.812 90.6377 256.402 90.1514C255.992 89.6592 255.406 89.4131 254.645 89.4131ZM267.002 98L266.712 96.6289H266.642C266.161 97.2324 265.681 97.6426 265.2 97.8594C264.726 98.0703 264.131 98.1758 263.416 98.1758C262.461 98.1758 261.711 97.9297 261.166 97.4375C260.627 96.9453 260.357 96.2451 260.357 95.3369C260.357 93.3916 261.913 92.3721 265.024 92.2783L266.659 92.2256V91.6279C266.659 90.8721 266.495 90.3154 266.167 89.958C265.845 89.5947 265.326 89.4131 264.611 89.4131C263.809 89.4131 262.9 89.6592 261.887 90.1514L261.438 89.0352C261.913 88.7773 262.432 88.5752 262.994 88.4287C263.562 88.2822 264.131 88.209 264.699 88.209C265.848 88.209 266.697 88.4639 267.248 88.9736C267.805 89.4834 268.083 90.3008 268.083 91.4258V98H267.002ZM263.706 96.9717C264.614 96.9717 265.326 96.7227 265.842 96.2246C266.363 95.7266 266.624 95.0293 266.624 94.1328V93.2627L265.165 93.3242C264.005 93.3652 263.167 93.5469 262.651 93.8691C262.142 94.1855 261.887 94.6807 261.887 95.3545C261.887 95.8818 262.045 96.2832 262.361 96.5586C262.684 96.834 263.132 96.9717 263.706 96.9717ZM277.689 98V91.7686C277.689 90.9834 277.511 90.3975 277.153 90.0107C276.796 89.624 276.236 89.4307 275.475 89.4307C274.467 89.4307 273.729 89.7031 273.26 90.248C272.791 90.793 272.557 91.6924 272.557 92.9463V98H271.098V88.3672H272.284L272.521 89.6855H272.592C272.891 89.2109 273.31 88.8447 273.849 88.5869C274.388 88.3232 274.988 88.1914 275.65 88.1914C276.811 88.1914 277.684 88.4727 278.27 89.0352C278.855 89.5918 279.148 90.4854 279.148 91.7158V98H277.689ZM288.368 95.3721C288.368 96.2686 288.034 96.96 287.366 97.4463C286.698 97.9326 285.761 98.1758 284.554 98.1758C283.276 98.1758 282.28 97.9736 281.565 97.5693V96.2158C282.028 96.4502 282.523 96.6348 283.051 96.7695C283.584 96.9043 284.097 96.9717 284.589 96.9717C285.351 96.9717 285.937 96.8516 286.347 96.6113C286.757 96.3652 286.962 95.9932 286.962 95.4951C286.962 95.1201 286.798 94.8008 286.47 94.5371C286.147 94.2676 285.515 93.9512 284.571 93.5879C283.675 93.2539 283.036 92.9639 282.655 92.7178C282.28 92.4658 281.999 92.1816 281.812 91.8652C281.63 91.5488 281.539 91.1709 281.539 90.7314C281.539 89.9463 281.858 89.3281 282.497 88.877C283.136 88.4199 284.012 88.1914 285.125 88.1914C286.162 88.1914 287.176 88.4023 288.166 88.8242L287.647 90.0107C286.681 89.6123 285.805 89.4131 285.02 89.4131C284.328 89.4131 283.807 89.5215 283.455 89.7383C283.104 89.9551 282.928 90.2539 282.928 90.6348C282.928 90.8926 282.992 91.1123 283.121 91.2939C283.256 91.4756 283.47 91.6484 283.763 91.8125C284.056 91.9766 284.618 92.2139 285.45 92.5244C286.593 92.9404 287.363 93.3594 287.762 93.7812C288.166 94.2031 288.368 94.7334 288.368 95.3721ZM290.539 97.0684C290.539 96.6758 290.627 96.3799 290.803 96.1807C290.984 95.9756 291.242 95.873 291.576 95.873C291.916 95.873 292.18 95.9756 292.367 96.1807C292.561 96.3799 292.657 96.6758 292.657 97.0684C292.657 97.4492 292.561 97.7422 292.367 97.9473C292.174 98.1523 291.91 98.2549 291.576 98.2549C291.277 98.2549 291.028 98.1641 290.829 97.9824C290.636 97.7949 290.539 97.4902 290.539 97.0684ZM239.589 117.656V123H238.095V110.15H241.619C243.195 110.15 244.358 110.452 245.108 111.056C245.864 111.659 246.242 112.567 246.242 113.78C246.242 115.479 245.381 116.628 243.658 117.226L247.147 123H245.381L242.27 117.656H239.589ZM239.589 116.373H241.637C242.691 116.373 243.465 116.165 243.957 115.749C244.449 115.327 244.695 114.697 244.695 113.859C244.695 113.01 244.443 112.397 243.939 112.022C243.441 111.647 242.639 111.46 241.531 111.46H239.589V116.373ZM254.926 123L254.636 121.629H254.565C254.085 122.232 253.604 122.643 253.124 122.859C252.649 123.07 252.055 123.176 251.34 123.176C250.385 123.176 249.635 122.93 249.09 122.438C248.551 121.945 248.281 121.245 248.281 120.337C248.281 118.392 249.837 117.372 252.948 117.278L254.583 117.226V116.628C254.583 115.872 254.419 115.315 254.091 114.958C253.769 114.595 253.25 114.413 252.535 114.413C251.732 114.413 250.824 114.659 249.811 115.151L249.362 114.035C249.837 113.777 250.355 113.575 250.918 113.429C251.486 113.282 252.055 113.209 252.623 113.209C253.771 113.209 254.621 113.464 255.172 113.974C255.729 114.483 256.007 115.301 256.007 116.426V123H254.926ZM251.63 121.972C252.538 121.972 253.25 121.723 253.766 121.225C254.287 120.727 254.548 120.029 254.548 119.133V118.263L253.089 118.324C251.929 118.365 251.091 118.547 250.575 118.869C250.065 119.186 249.811 119.681 249.811 120.354C249.811 120.882 249.969 121.283 250.285 121.559C250.607 121.834 251.056 121.972 251.63 121.972ZM265.613 123V116.769C265.613 115.983 265.435 115.397 265.077 115.011C264.72 114.624 264.16 114.431 263.398 114.431C262.385 114.431 261.644 114.706 261.175 115.257C260.712 115.808 260.48 116.71 260.48 117.964V123H259.021V109.324H260.48V113.464C260.48 113.962 260.457 114.375 260.41 114.703H260.498C260.785 114.24 261.192 113.877 261.72 113.613C262.253 113.344 262.859 113.209 263.539 113.209C264.717 113.209 265.599 113.49 266.185 114.053C266.776 114.609 267.072 115.497 267.072 116.716V123H265.613ZM271.449 113.367V119.616C271.449 120.401 271.628 120.987 271.985 121.374C272.343 121.761 272.902 121.954 273.664 121.954C274.672 121.954 275.407 121.679 275.87 121.128C276.339 120.577 276.573 119.678 276.573 118.43V113.367H278.032V123H276.828L276.617 121.708H276.538C276.239 122.183 275.823 122.546 275.29 122.798C274.763 123.05 274.159 123.176 273.479 123.176C272.308 123.176 271.429 122.897 270.843 122.341C270.263 121.784 269.973 120.894 269.973 119.669V113.367H271.449ZM282.594 123H281.135V109.324H282.594V123ZM292.077 117.656V123H290.583V110.15H294.107C295.684 110.15 296.847 110.452 297.597 111.056C298.353 111.659 298.73 112.567 298.73 113.78C298.73 115.479 297.869 116.628 296.146 117.226L299.636 123H297.869L294.758 117.656H292.077ZM292.077 116.373H294.125C295.18 116.373 295.953 116.165 296.445 115.749C296.938 115.327 297.184 114.697 297.184 113.859C297.184 113.01 296.932 112.397 296.428 112.022C295.93 111.647 295.127 111.46 294.02 111.46H292.077V116.373ZM307.414 123L307.124 121.629H307.054C306.573 122.232 306.093 122.643 305.612 122.859C305.138 123.07 304.543 123.176 303.828 123.176C302.873 123.176 302.123 122.93 301.578 122.438C301.039 121.945 300.77 121.245 300.77 120.337C300.77 118.392 302.325 117.372 305.437 117.278L307.071 117.226V116.628C307.071 115.872 306.907 115.315 306.579 114.958C306.257 114.595 305.738 114.413 305.023 114.413C304.221 114.413 303.312 114.659 302.299 115.151L301.851 114.035C302.325 113.777 302.844 113.575 303.406 113.429C303.975 113.282 304.543 113.209 305.111 113.209C306.26 113.209 307.109 113.464 307.66 113.974C308.217 114.483 308.495 115.301 308.495 116.426V123H307.414ZM304.118 121.972C305.026 121.972 305.738 121.723 306.254 121.225C306.775 120.727 307.036 120.029 307.036 119.133V118.263L305.577 118.324C304.417 118.365 303.579 118.547 303.063 118.869C302.554 119.186 302.299 119.681 302.299 120.354C302.299 120.882 302.457 121.283 302.773 121.559C303.096 121.834 303.544 121.972 304.118 121.972ZM318.102 123V116.769C318.102 115.983 317.923 115.397 317.565 115.011C317.208 114.624 316.648 114.431 315.887 114.431C314.879 114.431 314.141 114.703 313.672 115.248C313.203 115.793 312.969 116.692 312.969 117.946V123H311.51V113.367H312.696L312.934 114.686H313.004C313.303 114.211 313.722 113.845 314.261 113.587C314.8 113.323 315.4 113.191 316.062 113.191C317.223 113.191 318.096 113.473 318.682 114.035C319.268 114.592 319.561 115.485 319.561 116.716V123H318.102ZM328.49 123L328.2 121.629H328.13C327.649 122.232 327.169 122.643 326.688 122.859C326.214 123.07 325.619 123.176 324.904 123.176C323.949 123.176 323.199 122.93 322.654 122.438C322.115 121.945 321.846 121.245 321.846 120.337C321.846 118.392 323.401 117.372 326.513 117.278L328.147 117.226V116.628C328.147 115.872 327.983 115.315 327.655 114.958C327.333 114.595 326.814 114.413 326.1 114.413C325.297 114.413 324.389 114.659 323.375 115.151L322.927 114.035C323.401 113.777 323.92 113.575 324.482 113.429C325.051 113.282 325.619 113.209 326.188 113.209C327.336 113.209 328.186 113.464 328.736 113.974C329.293 114.483 329.571 115.301 329.571 116.426V123H328.49ZM325.194 121.972C326.103 121.972 326.814 121.723 327.33 121.225C327.852 120.727 328.112 120.029 328.112 119.133V118.263L326.653 118.324C325.493 118.365 324.655 118.547 324.14 118.869C323.63 119.186 323.375 119.681 323.375 120.354C323.375 120.882 323.533 121.283 323.85 121.559C324.172 121.834 324.62 121.972 325.194 121.972Z" fill="#1C1026"/>
</svg>
