<svg width="379" height="228" viewBox="0 0 379 228" fill="none" xmlns="http://www.w3.org/2000/svg">
<rect width="379" height="228" rx="6" fill="white"/>
<path d="M24.1226 39.4545C25.7218 39.4545 27.2851 39.9397 28.6148 40.8487C29.9445 41.7578 30.9808 43.0498 31.5928 44.5614C32.2048 46.0731 32.3649 47.7364 32.0529 49.3412C31.7409 50.946 30.9709 52.42 29.8401 53.577C28.7093 54.7339 27.2685 55.5218 25.7001 55.841C24.1316 56.1602 22.5058 55.9964 21.0284 55.3703C19.5509 54.7441 18.2881 53.6838 17.3996 52.3234C16.5112 50.9629 16.037 49.3635 16.037 47.7273L16 46.5455C16 42.1573 17.7038 37.9489 20.7365 34.8461C23.7692 31.7432 27.8824 30 32.1713 30V34.7273C30.6538 34.7231 29.1505 35.0268 27.7483 35.6207C26.3462 36.2147 25.073 37.0871 24.0025 38.1876C23.5864 38.6125 23.2026 39.0693 22.8543 39.5538C23.2679 39.4876 23.6906 39.4522 24.1203 39.4522L24.1226 39.4545ZM44.9143 39.4545C46.5135 39.4545 48.0768 39.9397 49.4065 40.8487C50.7362 41.7578 51.7725 43.0498 52.3845 44.5614C52.9965 46.0731 53.1566 47.7364 52.8446 49.3412C52.5326 50.946 51.7626 52.42 50.6318 53.577C49.501 54.7339 48.0602 55.5218 46.4918 55.841C44.9233 56.1602 43.2975 55.9964 41.8201 55.3703C40.3426 54.7441 39.0798 53.6838 38.1913 52.3234C37.3029 50.9629 36.8287 49.3635 36.8287 47.7273L36.7917 46.5455C36.7917 42.1573 38.4955 37.9489 41.5282 34.8461C44.5609 31.7432 48.6741 30 52.963 30V34.7273C51.4455 34.7231 49.9422 35.0268 48.54 35.6207C47.1379 36.2147 45.8647 37.0871 44.7942 38.1876C44.3781 38.6125 43.9943 39.0693 43.646 39.5538C44.0596 39.4876 44.4823 39.4522 44.9143 39.4522V39.4545Z" fill="#FBC352"/>
<path d="M69.7666 48V35.1504H71.2607V48H69.7666ZM87.1162 48L85.3496 42.3486C85.2383 42.0029 85.0303 41.2178 84.7256 39.9932H84.6553C84.4209 41.0186 84.2158 41.8096 84.04 42.3662L82.2207 48H80.5332L77.9053 38.3672H79.4346C80.0557 40.7871 80.5273 42.6299 80.8496 43.8955C81.1777 45.1611 81.3652 46.0137 81.4121 46.4531H81.4824C81.5469 46.1191 81.6494 45.6885 81.79 45.1611C81.9365 44.6279 82.0625 44.2061 82.168 43.8955L83.9346 38.3672H85.5166L87.2393 43.8955C87.5674 44.9033 87.79 45.75 87.9072 46.4355H87.9775C88.001 46.2246 88.0625 45.8994 88.1621 45.46C88.2676 45.0205 88.8799 42.6562 89.999 38.3672H91.5107L88.8477 48H87.1162ZM99.1836 48L98.8936 46.6289H98.8232C98.3428 47.2324 97.8623 47.6426 97.3818 47.8594C96.9072 48.0703 96.3125 48.1758 95.5977 48.1758C94.6426 48.1758 93.8926 47.9297 93.3477 47.4375C92.8086 46.9453 92.5391 46.2451 92.5391 45.3369C92.5391 43.3916 94.0947 42.3721 97.2061 42.2783L98.8408 42.2256V41.6279C98.8408 40.8721 98.6768 40.3154 98.3486 39.958C98.0264 39.5947 97.5078 39.4131 96.793 39.4131C95.9902 39.4131 95.082 39.6592 94.0684 40.1514L93.6201 39.0352C94.0947 38.7773 94.6133 38.5752 95.1758 38.4287C95.7441 38.2822 96.3125 38.209 96.8809 38.209C98.0293 38.209 98.8789 38.4639 99.4297 38.9736C99.9863 39.4834 100.265 40.3008 100.265 41.4258V48H99.1836ZM95.8877 46.9717C96.7959 46.9717 97.5078 46.7227 98.0234 46.2246C98.5449 45.7266 98.8057 45.0293 98.8057 44.1328V43.2627L97.3467 43.3242C96.1865 43.3652 95.3486 43.5469 94.833 43.8691C94.3232 44.1855 94.0684 44.6807 94.0684 45.3545C94.0684 45.8818 94.2266 46.2832 94.543 46.5586C94.8652 46.834 95.3135 46.9717 95.8877 46.9717ZM109.871 48V41.7686C109.871 40.9834 109.692 40.3975 109.335 40.0107C108.978 39.624 108.418 39.4307 107.656 39.4307C106.648 39.4307 105.91 39.7031 105.441 40.248C104.973 40.793 104.738 41.6924 104.738 42.9463V48H103.279V38.3672H104.466L104.703 39.6855H104.773C105.072 39.2109 105.491 38.8447 106.03 38.5869C106.569 38.3232 107.17 38.1914 107.832 38.1914C108.992 38.1914 109.865 38.4727 110.451 39.0352C111.037 39.5918 111.33 40.4854 111.33 41.7158V48H109.871ZM117.447 46.9717C117.705 46.9717 117.954 46.9541 118.194 46.9189C118.435 46.8779 118.625 46.8369 118.766 46.7959V47.9121C118.607 47.9883 118.373 48.0498 118.062 48.0967C117.758 48.1494 117.482 48.1758 117.236 48.1758C115.373 48.1758 114.441 47.1943 114.441 45.2314V39.501H113.062V38.7979L114.441 38.1914L115.057 36.1348H115.9V38.3672H118.695V39.501H115.9V45.1699C115.9 45.75 116.038 46.1953 116.313 46.5059C116.589 46.8164 116.967 46.9717 117.447 46.9717ZM126.746 38.3672V44.6162C126.746 45.4014 126.925 45.9873 127.282 46.374C127.64 46.7607 128.199 46.9541 128.961 46.9541C129.969 46.9541 130.704 46.6787 131.167 46.1279C131.636 45.5771 131.87 44.6777 131.87 43.4297V38.3672H133.329V48H132.125L131.914 46.708H131.835C131.536 47.1826 131.12 47.5459 130.587 47.7979C130.06 48.0498 129.456 48.1758 128.776 48.1758C127.604 48.1758 126.726 47.8975 126.14 47.3408C125.56 46.7842 125.27 45.8936 125.27 44.6689V38.3672H126.746ZM142.646 45.3721C142.646 46.2686 142.312 46.96 141.644 47.4463C140.976 47.9326 140.038 48.1758 138.831 48.1758C137.554 48.1758 136.558 47.9736 135.843 47.5693V46.2158C136.306 46.4502 136.801 46.6348 137.328 46.7695C137.861 46.9043 138.374 46.9717 138.866 46.9717C139.628 46.9717 140.214 46.8516 140.624 46.6113C141.034 46.3652 141.239 45.9932 141.239 45.4951C141.239 45.1201 141.075 44.8008 140.747 44.5371C140.425 44.2676 139.792 43.9512 138.849 43.5879C137.952 43.2539 137.313 42.9639 136.933 42.7178C136.558 42.4658 136.276 42.1816 136.089 41.8652C135.907 41.5488 135.816 41.1709 135.816 40.7314C135.816 39.9463 136.136 39.3281 136.774 38.877C137.413 38.4199 138.289 38.1914 139.402 38.1914C140.439 38.1914 141.453 38.4023 142.443 38.8242L141.925 40.0107C140.958 39.6123 140.082 39.4131 139.297 39.4131C138.605 39.4131 138.084 39.5215 137.732 39.7383C137.381 39.9551 137.205 40.2539 137.205 40.6348C137.205 40.8926 137.27 41.1123 137.398 41.2939C137.533 41.4756 137.747 41.6484 138.04 41.8125C138.333 41.9766 138.896 42.2139 139.728 42.5244C140.87 42.9404 141.641 43.3594 142.039 43.7812C142.443 44.2031 142.646 44.7334 142.646 45.3721ZM149.097 48.1758C147.673 48.1758 146.548 47.7422 145.722 46.875C144.901 46.0078 144.491 44.8037 144.491 43.2627C144.491 41.71 144.872 40.4766 145.634 39.5625C146.401 38.6484 147.43 38.1914 148.719 38.1914C149.926 38.1914 150.881 38.5898 151.584 39.3867C152.287 40.1777 152.639 41.2236 152.639 42.5244V43.4473H146.003C146.032 44.5781 146.316 45.4365 146.855 46.0225C147.4 46.6084 148.165 46.9014 149.149 46.9014C150.187 46.9014 151.212 46.6846 152.226 46.251V47.5518C151.71 47.7744 151.221 47.9326 150.758 48.0264C150.301 48.126 149.747 48.1758 149.097 48.1758ZM148.701 39.4131C147.928 39.4131 147.31 39.665 146.847 40.1689C146.39 40.6729 146.12 41.3701 146.038 42.2607H151.074C151.074 41.3408 150.869 40.6377 150.459 40.1514C150.049 39.6592 149.463 39.4131 148.701 39.4131ZM159.529 38.1914C159.957 38.1914 160.341 38.2266 160.681 38.2969L160.479 39.6504C160.08 39.5625 159.729 39.5186 159.424 39.5186C158.645 39.5186 157.977 39.835 157.42 40.4678C156.869 41.1006 156.594 41.8887 156.594 42.832V48H155.135V38.3672H156.339L156.506 40.1514H156.576C156.934 39.5244 157.364 39.041 157.868 38.7012C158.372 38.3613 158.926 38.1914 159.529 38.1914ZM168.696 45.3721C168.696 46.2686 168.362 46.96 167.694 47.4463C167.026 47.9326 166.089 48.1758 164.882 48.1758C163.604 48.1758 162.608 47.9736 161.894 47.5693V46.2158C162.356 46.4502 162.852 46.6348 163.379 46.7695C163.912 46.9043 164.425 46.9717 164.917 46.9717C165.679 46.9717 166.265 46.8516 166.675 46.6113C167.085 46.3652 167.29 45.9932 167.29 45.4951C167.29 45.1201 167.126 44.8008 166.798 44.5371C166.476 44.2676 165.843 43.9512 164.899 43.5879C164.003 43.2539 163.364 42.9639 162.983 42.7178C162.608 42.4658 162.327 42.1816 162.14 41.8652C161.958 41.5488 161.867 41.1709 161.867 40.7314C161.867 39.9463 162.187 39.3281 162.825 38.877C163.464 38.4199 164.34 38.1914 165.453 38.1914C166.49 38.1914 167.504 38.4023 168.494 38.8242L167.976 40.0107C167.009 39.6123 166.133 39.4131 165.348 39.4131C164.656 39.4131 164.135 39.5215 163.783 39.7383C163.432 39.9551 163.256 40.2539 163.256 40.6348C163.256 40.8926 163.32 41.1123 163.449 41.2939C163.584 41.4756 163.798 41.6484 164.091 41.8125C164.384 41.9766 164.946 42.2139 165.778 42.5244C166.921 42.9404 167.691 43.3594 168.09 43.7812C168.494 44.2031 168.696 44.7334 168.696 45.3721ZM178.865 46.9717C179.123 46.9717 179.372 46.9541 179.612 46.9189C179.853 46.8779 180.043 46.8369 180.184 46.7959V47.9121C180.025 47.9883 179.791 48.0498 179.48 48.0967C179.176 48.1494 178.9 48.1758 178.654 48.1758C176.791 48.1758 175.859 47.1943 175.859 45.2314V39.501H174.479V38.7979L175.859 38.1914L176.475 36.1348H177.318V38.3672H180.113V39.501H177.318V45.1699C177.318 45.75 177.456 46.1953 177.731 46.5059C178.007 46.8164 178.385 46.9717 178.865 46.9717ZM190.432 43.1748C190.432 44.7451 190.036 45.9727 189.245 46.8574C188.454 47.7363 187.361 48.1758 185.967 48.1758C185.105 48.1758 184.341 47.9736 183.673 47.5693C183.005 47.165 182.489 46.585 182.126 45.8291C181.763 45.0732 181.581 44.1885 181.581 43.1748C181.581 41.6045 181.974 40.3828 182.759 39.5098C183.544 38.6309 184.634 38.1914 186.028 38.1914C187.376 38.1914 188.445 38.6396 189.236 39.5361C190.033 40.4326 190.432 41.6455 190.432 43.1748ZM183.093 43.1748C183.093 44.4053 183.339 45.3428 183.831 45.9873C184.323 46.6318 185.047 46.9541 186.002 46.9541C186.957 46.9541 187.681 46.6348 188.173 45.9961C188.671 45.3516 188.92 44.4111 188.92 43.1748C188.92 41.9502 188.671 41.0215 188.173 40.3887C187.681 39.75 186.951 39.4307 185.984 39.4307C185.029 39.4307 184.309 39.7441 183.822 40.3711C183.336 40.998 183.093 41.9326 183.093 43.1748ZM199.133 48H197.674V38.3672H199.133V48ZM197.551 35.7568C197.551 35.4229 197.633 35.1797 197.797 35.0273C197.961 34.8691 198.166 34.79 198.412 34.79C198.646 34.79 198.849 34.8691 199.019 35.0273C199.188 35.1855 199.273 35.4287 199.273 35.7568C199.273 36.085 199.188 36.3311 199.019 36.4951C198.849 36.6533 198.646 36.7324 198.412 36.7324C198.166 36.7324 197.961 36.6533 197.797 36.4951C197.633 36.3311 197.551 36.085 197.551 35.7568ZM208.818 48V41.7686C208.818 40.9834 208.64 40.3975 208.282 40.0107C207.925 39.624 207.365 39.4307 206.604 39.4307C205.596 39.4307 204.857 39.7031 204.389 40.248C203.92 40.793 203.686 41.6924 203.686 42.9463V48H202.227V38.3672H203.413L203.65 39.6855H203.721C204.02 39.2109 204.438 38.8447 204.978 38.5869C205.517 38.3232 206.117 38.1914 206.779 38.1914C207.939 38.1914 208.812 38.4727 209.398 39.0352C209.984 39.5918 210.277 40.4854 210.277 41.7158V48H208.818ZM215.393 48L211.736 38.3672H213.301L215.375 44.0801C215.844 45.416 216.119 46.2832 216.201 46.6816H216.271C216.336 46.3711 216.538 45.7295 216.878 44.7568C217.224 43.7783 217.994 41.6484 219.189 38.3672H220.754L217.098 48H215.393ZM226.37 48.1758C224.946 48.1758 223.821 47.7422 222.995 46.875C222.175 46.0078 221.765 44.8037 221.765 43.2627C221.765 41.71 222.146 40.4766 222.907 39.5625C223.675 38.6484 224.703 38.1914 225.992 38.1914C227.199 38.1914 228.154 38.5898 228.857 39.3867C229.561 40.1777 229.912 41.2236 229.912 42.5244V43.4473H223.276C223.306 44.5781 223.59 45.4365 224.129 46.0225C224.674 46.6084 225.438 46.9014 226.423 46.9014C227.46 46.9014 228.485 46.6846 229.499 46.251V47.5518C228.983 47.7744 228.494 47.9326 228.031 48.0264C227.574 48.126 227.021 48.1758 226.37 48.1758ZM225.975 39.4131C225.201 39.4131 224.583 39.665 224.12 40.1689C223.663 40.6729 223.394 41.3701 223.312 42.2607H228.348C228.348 41.3408 228.143 40.6377 227.732 40.1514C227.322 39.6592 226.736 39.4131 225.975 39.4131ZM238.622 45.3721C238.622 46.2686 238.288 46.96 237.62 47.4463C236.952 47.9326 236.015 48.1758 234.808 48.1758C233.53 48.1758 232.534 47.9736 231.819 47.5693V46.2158C232.282 46.4502 232.777 46.6348 233.305 46.7695C233.838 46.9043 234.351 46.9717 234.843 46.9717C235.604 46.9717 236.19 46.8516 236.601 46.6113C237.011 46.3652 237.216 45.9932 237.216 45.4951C237.216 45.1201 237.052 44.8008 236.724 44.5371C236.401 44.2676 235.769 43.9512 234.825 43.5879C233.929 43.2539 233.29 42.9639 232.909 42.7178C232.534 42.4658 232.253 42.1816 232.065 41.8652C231.884 41.5488 231.793 41.1709 231.793 40.7314C231.793 39.9463 232.112 39.3281 232.751 38.877C233.39 38.4199 234.266 38.1914 235.379 38.1914C236.416 38.1914 237.43 38.4023 238.42 38.8242L237.901 40.0107C236.935 39.6123 236.059 39.4131 235.273 39.4131C234.582 39.4131 234.061 39.5215 233.709 39.7383C233.357 39.9551 233.182 40.2539 233.182 40.6348C233.182 40.8926 233.246 41.1123 233.375 41.2939C233.51 41.4756 233.724 41.6484 234.017 41.8125C234.31 41.9766 234.872 42.2139 235.704 42.5244C236.847 42.9404 237.617 43.3594 238.016 43.7812C238.42 44.2031 238.622 44.7334 238.622 45.3721ZM244.115 46.9717C244.373 46.9717 244.622 46.9541 244.862 46.9189C245.103 46.8779 245.293 46.8369 245.434 46.7959V47.9121C245.275 47.9883 245.041 48.0498 244.73 48.0967C244.426 48.1494 244.15 48.1758 243.904 48.1758C242.041 48.1758 241.109 47.1943 241.109 45.2314V39.501H239.729V38.7979L241.109 38.1914L241.725 36.1348H242.568V38.3672H245.363V39.501H242.568V45.1699C242.568 45.75 242.706 46.1953 242.981 46.5059C243.257 46.8164 243.635 46.9717 244.115 46.9717ZM248.826 48H247.367V38.3672H248.826V48ZM247.244 35.7568C247.244 35.4229 247.326 35.1797 247.49 35.0273C247.654 34.8691 247.859 34.79 248.105 34.79C248.34 34.79 248.542 34.8691 248.712 35.0273C248.882 35.1855 248.967 35.4287 248.967 35.7568C248.967 36.085 248.882 36.3311 248.712 36.4951C248.542 36.6533 248.34 36.7324 248.105 36.7324C247.859 36.7324 247.654 36.6533 247.49 36.4951C247.326 36.3311 247.244 36.085 247.244 35.7568ZM259.804 38.3672V39.29L258.02 39.501C258.184 39.7061 258.33 39.9756 258.459 40.3096C258.588 40.6377 258.652 41.0098 258.652 41.4258C258.652 42.3691 258.33 43.1221 257.686 43.6846C257.041 44.2471 256.156 44.5283 255.031 44.5283C254.744 44.5283 254.475 44.5049 254.223 44.458C253.602 44.7861 253.291 45.1992 253.291 45.6973C253.291 45.9609 253.399 46.1572 253.616 46.2861C253.833 46.4092 254.205 46.4707 254.732 46.4707H256.438C257.48 46.4707 258.28 46.6904 258.837 47.1299C259.399 47.5693 259.681 48.208 259.681 49.0459C259.681 50.1123 259.253 50.9238 258.397 51.4805C257.542 52.043 256.294 52.3242 254.653 52.3242C253.394 52.3242 252.421 52.0898 251.735 51.6211C251.056 51.1523 250.716 50.4902 250.716 49.6348C250.716 49.0488 250.903 48.542 251.278 48.1143C251.653 47.6865 252.181 47.3965 252.86 47.2441C252.614 47.1328 252.406 46.96 252.236 46.7256C252.072 46.4912 251.99 46.2188 251.99 45.9082C251.99 45.5566 252.084 45.249 252.271 44.9854C252.459 44.7217 252.755 44.4668 253.159 44.2207C252.661 44.0156 252.254 43.667 251.938 43.1748C251.627 42.6826 251.472 42.1201 251.472 41.4873C251.472 40.4326 251.788 39.6211 252.421 39.0527C253.054 38.4785 253.95 38.1914 255.11 38.1914C255.614 38.1914 256.068 38.25 256.473 38.3672H259.804ZM252.122 49.6172C252.122 50.1387 252.342 50.5342 252.781 50.8037C253.221 51.0732 253.851 51.208 254.671 51.208C255.896 51.208 256.801 51.0234 257.387 50.6543C257.979 50.291 258.274 49.7959 258.274 49.1689C258.274 48.6475 258.113 48.2842 257.791 48.0791C257.469 47.8799 256.862 47.7803 255.972 47.7803H254.223C253.561 47.7803 253.045 47.9385 252.676 48.2549C252.307 48.5713 252.122 49.0254 252.122 49.6172ZM252.913 41.4521C252.913 42.126 253.104 42.6357 253.484 42.9814C253.865 43.3271 254.396 43.5 255.075 43.5C256.499 43.5 257.211 42.8086 257.211 41.4258C257.211 39.9785 256.49 39.2549 255.049 39.2549C254.363 39.2549 253.836 39.4395 253.467 39.8086C253.098 40.1777 252.913 40.7256 252.913 41.4521ZM267.705 48L267.415 46.6289H267.345C266.864 47.2324 266.384 47.6426 265.903 47.8594C265.429 48.0703 264.834 48.1758 264.119 48.1758C263.164 48.1758 262.414 47.9297 261.869 47.4375C261.33 46.9453 261.061 46.2451 261.061 45.3369C261.061 43.3916 262.616 42.3721 265.728 42.2783L267.362 42.2256V41.6279C267.362 40.8721 267.198 40.3154 266.87 39.958C266.548 39.5947 266.029 39.4131 265.314 39.4131C264.512 39.4131 263.604 39.6592 262.59 40.1514L262.142 39.0352C262.616 38.7773 263.135 38.5752 263.697 38.4287C264.266 38.2822 264.834 38.209 265.402 38.209C266.551 38.209 267.4 38.4639 267.951 38.9736C268.508 39.4834 268.786 40.3008 268.786 41.4258V48H267.705ZM264.409 46.9717C265.317 46.9717 266.029 46.7227 266.545 46.2246C267.066 45.7266 267.327 45.0293 267.327 44.1328V43.2627L265.868 43.3242C264.708 43.3652 263.87 43.5469 263.354 43.8691C262.845 44.1855 262.59 44.6807 262.59 45.3545C262.59 45.8818 262.748 46.2832 263.064 46.5586C263.387 46.834 263.835 46.9717 264.409 46.9717ZM274.912 46.9717C275.17 46.9717 275.419 46.9541 275.659 46.9189C275.899 46.8779 276.09 46.8369 276.23 46.7959V47.9121C276.072 47.9883 275.838 48.0498 275.527 48.0967C275.223 48.1494 274.947 48.1758 274.701 48.1758C272.838 48.1758 271.906 47.1943 271.906 45.2314V39.501H270.526V38.7979L271.906 38.1914L272.521 36.1348H273.365V38.3672H276.16V39.501H273.365V45.1699C273.365 45.75 273.503 46.1953 273.778 46.5059C274.054 46.8164 274.432 46.9717 274.912 46.9717ZM282.233 48.1758C280.81 48.1758 279.685 47.7422 278.858 46.875C278.038 46.0078 277.628 44.8037 277.628 43.2627C277.628 41.71 278.009 40.4766 278.771 39.5625C279.538 38.6484 280.566 38.1914 281.855 38.1914C283.062 38.1914 284.018 38.5898 284.721 39.3867C285.424 40.1777 285.775 41.2236 285.775 42.5244V43.4473H279.14C279.169 44.5781 279.453 45.4365 279.992 46.0225C280.537 46.6084 281.302 46.9014 282.286 46.9014C283.323 46.9014 284.349 46.6846 285.362 46.251V47.5518C284.847 47.7744 284.357 47.9326 283.895 48.0264C283.438 48.126 282.884 48.1758 282.233 48.1758ZM281.838 39.4131C281.064 39.4131 280.446 39.665 279.983 40.1689C279.526 40.6729 279.257 41.3701 279.175 42.2607H284.211C284.211 41.3408 284.006 40.6377 283.596 40.1514C283.186 39.6592 282.6 39.4131 281.838 39.4131ZM296.059 46.9717C296.316 46.9717 296.565 46.9541 296.806 46.9189C297.046 46.8779 297.236 46.8369 297.377 46.7959V47.9121C297.219 47.9883 296.984 48.0498 296.674 48.0967C296.369 48.1494 296.094 48.1758 295.848 48.1758C293.984 48.1758 293.053 47.1943 293.053 45.2314V39.501H291.673V38.7979L293.053 38.1914L293.668 36.1348H294.512V38.3672H297.307V39.501H294.512V45.1699C294.512 45.75 294.649 46.1953 294.925 46.5059C295.2 46.8164 295.578 46.9717 296.059 46.9717ZM305.902 48V41.7686C305.902 40.9834 305.724 40.3975 305.366 40.0107C305.009 39.624 304.449 39.4307 303.688 39.4307C302.674 39.4307 301.933 39.7061 301.464 40.2568C301.001 40.8076 300.77 41.71 300.77 42.9639V48H299.311V34.3242H300.77V38.4639C300.77 38.9619 300.746 39.375 300.699 39.7031H300.787C301.074 39.2402 301.481 38.877 302.009 38.6133C302.542 38.3438 303.148 38.209 303.828 38.209C305.006 38.209 305.888 38.4902 306.474 39.0527C307.065 39.6094 307.361 40.4971 307.361 41.7158V48H305.902ZM314.437 48.1758C313.013 48.1758 311.888 47.7422 311.062 46.875C310.241 46.0078 309.831 44.8037 309.831 43.2627C309.831 41.71 310.212 40.4766 310.974 39.5625C311.741 38.6484 312.77 38.1914 314.059 38.1914C315.266 38.1914 316.221 38.5898 316.924 39.3867C317.627 40.1777 317.979 41.2236 317.979 42.5244V43.4473H311.343C311.372 44.5781 311.656 45.4365 312.195 46.0225C312.74 46.6084 313.505 46.9014 314.489 46.9014C315.526 46.9014 316.552 46.6846 317.565 46.251V47.5518C317.05 47.7744 316.561 47.9326 316.098 48.0264C315.641 48.126 315.087 48.1758 314.437 48.1758ZM314.041 39.4131C313.268 39.4131 312.649 39.665 312.187 40.1689C311.729 40.6729 311.46 41.3701 311.378 42.2607H316.414C316.414 41.3408 316.209 40.6377 315.799 40.1514C315.389 39.6592 314.803 39.4131 314.041 39.4131ZM321.934 48H320.475V38.3672H321.934V48ZM320.352 35.7568C320.352 35.4229 320.434 35.1797 320.598 35.0273C320.762 34.8691 320.967 34.79 321.213 34.79C321.447 34.79 321.649 34.8691 321.819 35.0273C321.989 35.1855 322.074 35.4287 322.074 35.7568C322.074 36.085 321.989 36.3311 321.819 36.4951C321.649 36.6533 321.447 36.7324 321.213 36.7324C320.967 36.7324 320.762 36.6533 320.598 36.4951C320.434 36.3311 320.352 36.085 320.352 35.7568ZM329.422 38.1914C329.85 38.1914 330.233 38.2266 330.573 38.2969L330.371 39.6504C329.973 39.5625 329.621 39.5186 329.316 39.5186C328.537 39.5186 327.869 39.835 327.312 40.4678C326.762 41.1006 326.486 41.8887 326.486 42.832V48H325.027V38.3672H326.231L326.398 40.1514H326.469C326.826 39.5244 327.257 39.041 327.761 38.7012C328.265 38.3613 328.818 38.1914 329.422 38.1914ZM81.8252 73V66.7334C81.8252 65.9658 81.6611 65.3916 81.333 65.0107C81.0049 64.624 80.4951 64.4307 79.8037 64.4307C78.8955 64.4307 78.2246 64.6914 77.791 65.2129C77.3574 65.7344 77.1406 66.5371 77.1406 67.6211V73H75.6816V66.7334C75.6816 65.9658 75.5176 65.3916 75.1895 65.0107C74.8613 64.624 74.3486 64.4307 73.6514 64.4307C72.7373 64.4307 72.0664 64.7061 71.6387 65.2568C71.2168 65.8018 71.0059 66.6982 71.0059 67.9463V73H69.5469V63.3672H70.7334L70.9707 64.6855H71.041C71.3164 64.2168 71.7031 63.8506 72.2012 63.5869C72.7051 63.3232 73.2676 63.1914 73.8887 63.1914C75.3945 63.1914 76.3789 63.7363 76.8418 64.8262H76.9121C77.1992 64.3223 77.6152 63.9238 78.1602 63.6309C78.7051 63.3379 79.3262 63.1914 80.0234 63.1914C81.1133 63.1914 81.9277 63.4727 82.4668 64.0352C83.0117 64.5918 83.2842 65.4854 83.2842 66.7158V73H81.8252ZM87.7578 73H86.2988V63.3672H87.7578V73ZM86.1758 60.7568C86.1758 60.4229 86.2578 60.1797 86.4219 60.0273C86.5859 59.8691 86.791 59.79 87.0371 59.79C87.2715 59.79 87.4736 59.8691 87.6436 60.0273C87.8135 60.1855 87.8984 60.4287 87.8984 60.7568C87.8984 61.085 87.8135 61.3311 87.6436 61.4951C87.4736 61.6533 87.2715 61.7324 87.0371 61.7324C86.791 61.7324 86.5859 61.6533 86.4219 61.4951C86.2578 61.3311 86.1758 61.085 86.1758 60.7568ZM97.4434 73V66.7686C97.4434 65.9834 97.2646 65.3975 96.9072 65.0107C96.5498 64.624 95.9902 64.4307 95.2285 64.4307C94.2207 64.4307 93.4824 64.7031 93.0137 65.248C92.5449 65.793 92.3105 66.6924 92.3105 67.9463V73H90.8516V63.3672H92.0381L92.2754 64.6855H92.3457C92.6445 64.2109 93.0635 63.8447 93.6025 63.5869C94.1416 63.3232 94.7422 63.1914 95.4043 63.1914C96.5645 63.1914 97.4375 63.4727 98.0234 64.0352C98.6094 64.5918 98.9023 65.4854 98.9023 66.7158V73H97.4434ZM108.465 71.708H108.386C107.712 72.6865 106.704 73.1758 105.362 73.1758C104.103 73.1758 103.121 72.7451 102.418 71.8838C101.721 71.0225 101.372 69.7979 101.372 68.21C101.372 66.6221 101.724 65.3887 102.427 64.5098C103.13 63.6309 104.108 63.1914 105.362 63.1914C106.669 63.1914 107.671 63.666 108.368 64.6152H108.482L108.421 63.9209L108.386 63.2441V59.3242H109.845V73H108.658L108.465 71.708ZM105.547 71.9541C106.543 71.9541 107.264 71.6846 107.709 71.1455C108.16 70.6006 108.386 69.7246 108.386 68.5176V68.21C108.386 66.8447 108.157 65.8721 107.7 65.292C107.249 64.7061 106.525 64.4131 105.529 64.4131C104.674 64.4131 104.018 64.7471 103.561 65.415C103.109 66.0771 102.884 67.0146 102.884 68.2275C102.884 69.458 103.109 70.3867 103.561 71.0137C104.012 71.6406 104.674 71.9541 105.547 71.9541ZM119.161 70.3721C119.161 71.2686 118.827 71.96 118.159 72.4463C117.491 72.9326 116.554 73.1758 115.347 73.1758C114.069 73.1758 113.073 72.9736 112.358 72.5693V71.2158C112.821 71.4502 113.316 71.6348 113.844 71.7695C114.377 71.9043 114.89 71.9717 115.382 71.9717C116.144 71.9717 116.729 71.8516 117.14 71.6113C117.55 71.3652 117.755 70.9932 117.755 70.4951C117.755 70.1201 117.591 69.8008 117.263 69.5371C116.94 69.2676 116.308 68.9512 115.364 68.5879C114.468 68.2539 113.829 67.9639 113.448 67.7178C113.073 67.4658 112.792 67.1816 112.604 66.8652C112.423 66.5488 112.332 66.1709 112.332 65.7314C112.332 64.9463 112.651 64.3281 113.29 63.877C113.929 63.4199 114.805 63.1914 115.918 63.1914C116.955 63.1914 117.969 63.4023 118.959 63.8242L118.44 65.0107C117.474 64.6123 116.598 64.4131 115.812 64.4131C115.121 64.4131 114.6 64.5215 114.248 64.7383C113.896 64.9551 113.721 65.2539 113.721 65.6348C113.721 65.8926 113.785 66.1123 113.914 66.2939C114.049 66.4756 114.263 66.6484 114.556 66.8125C114.849 66.9766 115.411 67.2139 116.243 67.5244C117.386 67.9404 118.156 68.3594 118.555 68.7812C118.959 69.2031 119.161 69.7334 119.161 70.3721ZM132.143 73L131.853 71.6289H131.782C131.302 72.2324 130.821 72.6426 130.341 72.8594C129.866 73.0703 129.271 73.1758 128.557 73.1758C127.602 73.1758 126.852 72.9297 126.307 72.4375C125.768 71.9453 125.498 71.2451 125.498 70.3369C125.498 68.3916 127.054 67.3721 130.165 67.2783L131.8 67.2256V66.6279C131.8 65.8721 131.636 65.3154 131.308 64.958C130.985 64.5947 130.467 64.4131 129.752 64.4131C128.949 64.4131 128.041 64.6592 127.027 65.1514L126.579 64.0352C127.054 63.7773 127.572 63.5752 128.135 63.4287C128.703 63.2822 129.271 63.209 129.84 63.209C130.988 63.209 131.838 63.4639 132.389 63.9736C132.945 64.4834 133.224 65.3008 133.224 66.4258V73H132.143ZM128.847 71.9717C129.755 71.9717 130.467 71.7227 130.982 71.2246C131.504 70.7266 131.765 70.0293 131.765 69.1328V68.2627L130.306 68.3242C129.146 68.3652 128.308 68.5469 127.792 68.8691C127.282 69.1855 127.027 69.6807 127.027 70.3545C127.027 70.8818 127.186 71.2832 127.502 71.5586C127.824 71.834 128.272 71.9717 128.847 71.9717ZM142.83 73V66.7686C142.83 65.9834 142.651 65.3975 142.294 65.0107C141.937 64.624 141.377 64.4307 140.615 64.4307C139.607 64.4307 138.869 64.7031 138.4 65.248C137.932 65.793 137.697 66.6924 137.697 67.9463V73H136.238V63.3672H137.425L137.662 64.6855H137.732C138.031 64.2109 138.45 63.8447 138.989 63.5869C139.528 63.3232 140.129 63.1914 140.791 63.1914C141.951 63.1914 142.824 63.4727 143.41 64.0352C143.996 64.5918 144.289 65.4854 144.289 66.7158V73H142.83ZM153.852 71.708H153.772C153.099 72.6865 152.091 73.1758 150.749 73.1758C149.489 73.1758 148.508 72.7451 147.805 71.8838C147.107 71.0225 146.759 69.7979 146.759 68.21C146.759 66.6221 147.11 65.3887 147.813 64.5098C148.517 63.6309 149.495 63.1914 150.749 63.1914C152.056 63.1914 153.058 63.666 153.755 64.6152H153.869L153.808 63.9209L153.772 63.2441V59.3242H155.231V73H154.045L153.852 71.708ZM150.934 71.9541C151.93 71.9541 152.65 71.6846 153.096 71.1455C153.547 70.6006 153.772 69.7246 153.772 68.5176V68.21C153.772 66.8447 153.544 65.8721 153.087 65.292C152.636 64.7061 151.912 64.4131 150.916 64.4131C150.061 64.4131 149.404 64.7471 148.947 65.415C148.496 66.0771 148.271 67.0146 148.271 68.2275C148.271 69.458 148.496 70.3867 148.947 71.0137C149.398 71.6406 150.061 71.9541 150.934 71.9541ZM167.492 63.209C168.758 63.209 169.739 63.6426 170.437 64.5098C171.14 65.3711 171.491 66.5928 171.491 68.1748C171.491 69.7568 171.137 70.9873 170.428 71.8662C169.725 72.7393 168.746 73.1758 167.492 73.1758C166.865 73.1758 166.291 73.0615 165.77 72.833C165.254 72.5986 164.82 72.2412 164.469 71.7607H164.363L164.056 73H163.01V59.3242H164.469V62.6465C164.469 63.3906 164.445 64.0586 164.398 64.6504H164.469C165.148 63.6895 166.156 63.209 167.492 63.209ZM167.281 64.4307C166.285 64.4307 165.567 64.7178 165.128 65.292C164.688 65.8604 164.469 66.8213 164.469 68.1748C164.469 69.5283 164.694 70.498 165.146 71.084C165.597 71.6641 166.32 71.9541 167.316 71.9541C168.213 71.9541 168.881 71.6289 169.32 70.9785C169.76 70.3223 169.979 69.3818 169.979 68.1572C169.979 66.9033 169.76 65.9688 169.32 65.3535C168.881 64.7383 168.201 64.4307 167.281 64.4307ZM178.118 73.1758C176.694 73.1758 175.569 72.7422 174.743 71.875C173.923 71.0078 173.513 69.8037 173.513 68.2627C173.513 66.71 173.894 65.4766 174.655 64.5625C175.423 63.6484 176.451 63.1914 177.74 63.1914C178.947 63.1914 179.902 63.5898 180.605 64.3867C181.309 65.1777 181.66 66.2236 181.66 67.5244V68.4473H175.024C175.054 69.5781 175.338 70.4365 175.877 71.0225C176.422 71.6084 177.187 71.9014 178.171 71.9014C179.208 71.9014 180.233 71.6846 181.247 71.251V72.5518C180.731 72.7744 180.242 72.9326 179.779 73.0264C179.322 73.126 178.769 73.1758 178.118 73.1758ZM177.723 64.4131C176.949 64.4131 176.331 64.665 175.868 65.1689C175.411 65.6729 175.142 66.3701 175.06 67.2607H180.096C180.096 66.3408 179.891 65.6377 179.48 65.1514C179.07 64.6592 178.484 64.4131 177.723 64.4131ZM187.268 71.9717C187.525 71.9717 187.774 71.9541 188.015 71.9189C188.255 71.8779 188.445 71.8369 188.586 71.7959V72.9121C188.428 72.9883 188.193 73.0498 187.883 73.0967C187.578 73.1494 187.303 73.1758 187.057 73.1758C185.193 73.1758 184.262 72.1943 184.262 70.2314V64.501H182.882V63.7979L184.262 63.1914L184.877 61.1348H185.721V63.3672H188.516V64.501H185.721V70.1699C185.721 70.75 185.858 71.1953 186.134 71.5059C186.409 71.8164 186.787 71.9717 187.268 71.9717ZM193.631 71.9717C193.889 71.9717 194.138 71.9541 194.378 71.9189C194.618 71.8779 194.809 71.8369 194.949 71.7959V72.9121C194.791 72.9883 194.557 73.0498 194.246 73.0967C193.941 73.1494 193.666 73.1758 193.42 73.1758C191.557 73.1758 190.625 72.1943 190.625 70.2314V64.501H189.245V63.7979L190.625 63.1914L191.24 61.1348H192.084V63.3672H194.879V64.501H192.084V70.1699C192.084 70.75 192.222 71.1953 192.497 71.5059C192.772 71.8164 193.15 71.9717 193.631 71.9717ZM200.952 73.1758C199.528 73.1758 198.403 72.7422 197.577 71.875C196.757 71.0078 196.347 69.8037 196.347 68.2627C196.347 66.71 196.728 65.4766 197.489 64.5625C198.257 63.6484 199.285 63.1914 200.574 63.1914C201.781 63.1914 202.736 63.5898 203.439 64.3867C204.143 65.1777 204.494 66.2236 204.494 67.5244V68.4473H197.858C197.888 69.5781 198.172 70.4365 198.711 71.0225C199.256 71.6084 200.021 71.9014 201.005 71.9014C202.042 71.9014 203.067 71.6846 204.081 71.251V72.5518C203.565 72.7744 203.076 72.9326 202.613 73.0264C202.156 73.126 201.603 73.1758 200.952 73.1758ZM200.557 64.4131C199.783 64.4131 199.165 64.665 198.702 65.1689C198.245 65.6729 197.976 66.3701 197.894 67.2607H202.93C202.93 66.3408 202.725 65.6377 202.314 65.1514C201.904 64.6592 201.318 64.4131 200.557 64.4131ZM211.385 63.1914C211.812 63.1914 212.196 63.2266 212.536 63.2969L212.334 64.6504C211.936 64.5625 211.584 64.5186 211.279 64.5186C210.5 64.5186 209.832 64.835 209.275 65.4678C208.725 66.1006 208.449 66.8887 208.449 67.832V73H206.99V63.3672H208.194L208.361 65.1514H208.432C208.789 64.5244 209.22 64.041 209.724 63.7012C210.228 63.3613 210.781 63.1914 211.385 63.1914ZM220.385 63.3672V69.6162C220.385 70.4014 220.563 70.9873 220.921 71.374C221.278 71.7607 221.838 71.9541 222.6 71.9541C223.607 71.9541 224.343 71.6787 224.806 71.1279C225.274 70.5771 225.509 69.6777 225.509 68.4297V63.3672H226.968V73H225.764L225.553 71.708H225.474C225.175 72.1826 224.759 72.5459 224.226 72.7979C223.698 73.0498 223.095 73.1758 222.415 73.1758C221.243 73.1758 220.364 72.8975 219.778 72.3408C219.198 71.7842 218.908 70.8936 218.908 69.6689V63.3672H220.385ZM236.662 73V66.7686C236.662 65.9834 236.483 65.3975 236.126 65.0107C235.769 64.624 235.209 64.4307 234.447 64.4307C233.439 64.4307 232.701 64.7031 232.232 65.248C231.764 65.793 231.529 66.6924 231.529 67.9463V73H230.07V63.3672H231.257L231.494 64.6855H231.564C231.863 64.2109 232.282 63.8447 232.821 63.5869C233.36 63.3232 233.961 63.1914 234.623 63.1914C235.783 63.1914 236.656 63.4727 237.242 64.0352C237.828 64.5918 238.121 65.4854 238.121 66.7158V73H236.662ZM247.684 71.708H247.604C246.931 72.6865 245.923 73.1758 244.581 73.1758C243.321 73.1758 242.34 72.7451 241.637 71.8838C240.939 71.0225 240.591 69.7979 240.591 68.21C240.591 66.6221 240.942 65.3887 241.646 64.5098C242.349 63.6309 243.327 63.1914 244.581 63.1914C245.888 63.1914 246.89 63.666 247.587 64.6152H247.701L247.64 63.9209L247.604 63.2441V59.3242H249.063V73H247.877L247.684 71.708ZM244.766 71.9541C245.762 71.9541 246.482 71.6846 246.928 71.1455C247.379 70.6006 247.604 69.7246 247.604 68.5176V68.21C247.604 66.8447 247.376 65.8721 246.919 65.292C246.468 64.7061 245.744 64.4131 244.748 64.4131C243.893 64.4131 243.236 64.7471 242.779 65.415C242.328 66.0771 242.103 67.0146 242.103 68.2275C242.103 69.458 242.328 70.3867 242.779 71.0137C243.23 71.6406 243.893 71.9541 244.766 71.9541ZM256.235 73.1758C254.812 73.1758 253.687 72.7422 252.86 71.875C252.04 71.0078 251.63 69.8037 251.63 68.2627C251.63 66.71 252.011 65.4766 252.772 64.5625C253.54 63.6484 254.568 63.1914 255.857 63.1914C257.064 63.1914 258.02 63.5898 258.723 64.3867C259.426 65.1777 259.777 66.2236 259.777 67.5244V68.4473H253.142C253.171 69.5781 253.455 70.4365 253.994 71.0225C254.539 71.6084 255.304 71.9014 256.288 71.9014C257.325 71.9014 258.351 71.6846 259.364 71.251V72.5518C258.849 72.7744 258.359 72.9326 257.896 73.0264C257.439 73.126 256.886 73.1758 256.235 73.1758ZM255.84 64.4131C255.066 64.4131 254.448 64.665 253.985 65.1689C253.528 65.6729 253.259 66.3701 253.177 67.2607H258.213C258.213 66.3408 258.008 65.6377 257.598 65.1514C257.188 64.6592 256.602 64.4131 255.84 64.4131ZM266.668 63.1914C267.096 63.1914 267.479 63.2266 267.819 63.2969L267.617 64.6504C267.219 64.5625 266.867 64.5186 266.562 64.5186C265.783 64.5186 265.115 64.835 264.559 65.4678C264.008 66.1006 263.732 66.8887 263.732 67.832V73H262.273V63.3672H263.478L263.645 65.1514H263.715C264.072 64.5244 264.503 64.041 265.007 63.7012C265.511 63.3613 266.064 63.1914 266.668 63.1914ZM275.835 70.3721C275.835 71.2686 275.501 71.96 274.833 72.4463C274.165 72.9326 273.228 73.1758 272.021 73.1758C270.743 73.1758 269.747 72.9736 269.032 72.5693V71.2158C269.495 71.4502 269.99 71.6348 270.518 71.7695C271.051 71.9043 271.563 71.9717 272.056 71.9717C272.817 71.9717 273.403 71.8516 273.813 71.6113C274.224 71.3652 274.429 70.9932 274.429 70.4951C274.429 70.1201 274.265 69.8008 273.937 69.5371C273.614 69.2676 272.981 68.9512 272.038 68.5879C271.142 68.2539 270.503 67.9639 270.122 67.7178C269.747 67.4658 269.466 67.1816 269.278 66.8652C269.097 66.5488 269.006 66.1709 269.006 65.7314C269.006 64.9463 269.325 64.3281 269.964 63.877C270.603 63.4199 271.479 63.1914 272.592 63.1914C273.629 63.1914 274.643 63.4023 275.633 63.8242L275.114 65.0107C274.147 64.6123 273.271 64.4131 272.486 64.4131C271.795 64.4131 271.273 64.5215 270.922 64.7383C270.57 64.9551 270.395 65.2539 270.395 65.6348C270.395 65.8926 270.459 66.1123 270.588 66.2939C270.723 66.4756 270.937 66.6484 271.229 66.8125C271.522 66.9766 272.085 67.2139 272.917 67.5244C274.06 67.9404 274.83 68.3594 275.229 68.7812C275.633 69.2031 275.835 69.7334 275.835 70.3721ZM281.328 71.9717C281.586 71.9717 281.835 71.9541 282.075 71.9189C282.315 71.8779 282.506 71.8369 282.646 71.7959V72.9121C282.488 72.9883 282.254 73.0498 281.943 73.0967C281.639 73.1494 281.363 73.1758 281.117 73.1758C279.254 73.1758 278.322 72.1943 278.322 70.2314V64.501H276.942V63.7979L278.322 63.1914L278.938 61.1348H279.781V63.3672H282.576V64.501H279.781V70.1699C279.781 70.75 279.919 71.1953 280.194 71.5059C280.47 71.8164 280.848 71.9717 281.328 71.9717ZM290.504 73L290.214 71.6289H290.144C289.663 72.2324 289.183 72.6426 288.702 72.8594C288.228 73.0703 287.633 73.1758 286.918 73.1758C285.963 73.1758 285.213 72.9297 284.668 72.4375C284.129 71.9453 283.859 71.2451 283.859 70.3369C283.859 68.3916 285.415 67.3721 288.526 67.2783L290.161 67.2256V66.6279C290.161 65.8721 289.997 65.3154 289.669 64.958C289.347 64.5947 288.828 64.4131 288.113 64.4131C287.311 64.4131 286.402 64.6592 285.389 65.1514L284.94 64.0352C285.415 63.7773 285.934 63.5752 286.496 63.4287C287.064 63.2822 287.633 63.209 288.201 63.209C289.35 63.209 290.199 63.4639 290.75 63.9736C291.307 64.4834 291.585 65.3008 291.585 66.4258V73H290.504ZM287.208 71.9717C288.116 71.9717 288.828 71.7227 289.344 71.2246C289.865 70.7266 290.126 70.0293 290.126 69.1328V68.2627L288.667 68.3242C287.507 68.3652 286.669 68.5469 286.153 68.8691C285.644 69.1855 285.389 69.6807 285.389 70.3545C285.389 70.8818 285.547 71.2832 285.863 71.5586C286.186 71.834 286.634 71.9717 287.208 71.9717ZM301.191 73V66.7686C301.191 65.9834 301.013 65.3975 300.655 65.0107C300.298 64.624 299.738 64.4307 298.977 64.4307C297.969 64.4307 297.23 64.7031 296.762 65.248C296.293 65.793 296.059 66.6924 296.059 67.9463V73H294.6V63.3672H295.786L296.023 64.6855H296.094C296.393 64.2109 296.812 63.8447 297.351 63.5869C297.89 63.3232 298.49 63.1914 299.152 63.1914C300.312 63.1914 301.186 63.4727 301.771 64.0352C302.357 64.5918 302.65 65.4854 302.65 66.7158V73H301.191ZM312.213 71.708H312.134C311.46 72.6865 310.452 73.1758 309.11 73.1758C307.851 73.1758 306.869 72.7451 306.166 71.8838C305.469 71.0225 305.12 69.7979 305.12 68.21C305.12 66.6221 305.472 65.3887 306.175 64.5098C306.878 63.6309 307.856 63.1914 309.11 63.1914C310.417 63.1914 311.419 63.666 312.116 64.6152H312.23L312.169 63.9209L312.134 63.2441V59.3242H313.593V73H312.406L312.213 71.708ZM309.295 71.9541C310.291 71.9541 311.012 71.6846 311.457 71.1455C311.908 70.6006 312.134 69.7246 312.134 68.5176V68.21C312.134 66.8447 311.905 65.8721 311.448 65.292C310.997 64.7061 310.273 64.4131 309.277 64.4131C308.422 64.4131 307.766 64.7471 307.309 65.415C306.857 66.0771 306.632 67.0146 306.632 68.2275C306.632 69.458 306.857 70.3867 307.309 71.0137C307.76 71.6406 308.422 71.9541 309.295 71.9541ZM72.6582 96.9717C72.916 96.9717 73.165 96.9541 73.4053 96.9189C73.6455 96.8779 73.8359 96.8369 73.9766 96.7959V97.9121C73.8184 97.9883 73.584 98.0498 73.2734 98.0967C72.9688 98.1494 72.6934 98.1758 72.4473 98.1758C70.584 98.1758 69.6523 97.1943 69.6523 95.2314V89.501H68.2725V88.7979L69.6523 88.1914L70.2676 86.1348H71.1113V88.3672H73.9062V89.501H71.1113V95.1699C71.1113 95.75 71.249 96.1953 71.5244 96.5059C71.7998 96.8164 72.1777 96.9717 72.6582 96.9717ZM82.502 98V91.7686C82.502 90.9834 82.3232 90.3975 81.9658 90.0107C81.6084 89.624 81.0488 89.4307 80.2871 89.4307C79.2734 89.4307 78.5322 89.7061 78.0635 90.2568C77.6006 90.8076 77.3691 91.71 77.3691 92.9639V98H75.9102V84.3242H77.3691V88.4639C77.3691 88.9619 77.3457 89.375 77.2988 89.7031H77.3867C77.6738 89.2402 78.0811 88.877 78.6084 88.6133C79.1416 88.3438 79.748 88.209 80.4277 88.209C81.6055 88.209 82.4873 88.4902 83.0732 89.0527C83.665 89.6094 83.9609 90.4971 83.9609 91.7158V98H82.502ZM91.0361 98.1758C89.6123 98.1758 88.4873 97.7422 87.6611 96.875C86.8408 96.0078 86.4307 94.8037 86.4307 93.2627C86.4307 91.71 86.8115 90.4766 87.5732 89.5625C88.3408 88.6484 89.3691 88.1914 90.6582 88.1914C91.8652 88.1914 92.8203 88.5898 93.5234 89.3867C94.2266 90.1777 94.5781 91.2236 94.5781 92.5244V93.4473H87.9424C87.9717 94.5781 88.2559 95.4365 88.7949 96.0225C89.3398 96.6084 90.1045 96.9014 91.0889 96.9014C92.126 96.9014 93.1514 96.6846 94.165 96.251V97.5518C93.6494 97.7744 93.1602 97.9326 92.6973 98.0264C92.2402 98.126 91.6865 98.1758 91.0361 98.1758ZM90.6406 89.4131C89.8672 89.4131 89.249 89.665 88.7861 90.1689C88.3291 90.6729 88.0596 91.3701 87.9775 92.2607H93.0137C93.0137 91.3408 92.8086 90.6377 92.3984 90.1514C91.9883 89.6592 91.4023 89.4131 90.6406 89.4131ZM109.353 98V91.7334C109.353 90.9658 109.188 90.3916 108.86 90.0107C108.532 89.624 108.022 89.4307 107.331 89.4307C106.423 89.4307 105.752 89.6914 105.318 90.2129C104.885 90.7344 104.668 91.5371 104.668 92.6211V98H103.209V91.7334C103.209 90.9658 103.045 90.3916 102.717 90.0107C102.389 89.624 101.876 89.4307 101.179 89.4307C100.265 89.4307 99.5938 89.7061 99.166 90.2568C98.7441 90.8018 98.5332 91.6982 98.5332 92.9463V98H97.0742V88.3672H98.2607L98.498 89.6855H98.5684C98.8438 89.2168 99.2305 88.8506 99.7285 88.5869C100.232 88.3232 100.795 88.1914 101.416 88.1914C102.922 88.1914 103.906 88.7363 104.369 89.8262H104.439C104.727 89.3223 105.143 88.9238 105.688 88.6309C106.232 88.3379 106.854 88.1914 107.551 88.1914C108.641 88.1914 109.455 88.4727 109.994 89.0352C110.539 89.5918 110.812 90.4854 110.812 91.7158V98H109.353ZM120.04 95.3721C120.04 96.2686 119.706 96.96 119.038 97.4463C118.37 97.9326 117.433 98.1758 116.226 98.1758C114.948 98.1758 113.952 97.9736 113.237 97.5693V96.2158C113.7 96.4502 114.195 96.6348 114.723 96.7695C115.256 96.9043 115.769 96.9717 116.261 96.9717C117.022 96.9717 117.608 96.8516 118.019 96.6113C118.429 96.3652 118.634 95.9932 118.634 95.4951C118.634 95.1201 118.47 94.8008 118.142 94.5371C117.819 94.2676 117.187 93.9512 116.243 93.5879C115.347 93.2539 114.708 92.9639 114.327 92.7178C113.952 92.4658 113.671 92.1816 113.483 91.8652C113.302 91.5488 113.211 91.1709 113.211 90.7314C113.211 89.9463 113.53 89.3281 114.169 88.877C114.808 88.4199 115.684 88.1914 116.797 88.1914C117.834 88.1914 118.848 88.4023 119.838 88.8242L119.319 90.0107C118.353 89.6123 117.477 89.4131 116.691 89.4131C116 89.4131 115.479 89.5215 115.127 89.7383C114.775 89.9551 114.6 90.2539 114.6 90.6348C114.6 90.8926 114.664 91.1123 114.793 91.2939C114.928 91.4756 115.142 91.6484 115.435 91.8125C115.728 91.9766 116.29 92.2139 117.122 92.5244C118.265 92.9404 119.035 93.3594 119.434 93.7812C119.838 94.2031 120.04 94.7334 120.04 95.3721ZM126.491 98.1758C125.067 98.1758 123.942 97.7422 123.116 96.875C122.296 96.0078 121.886 94.8037 121.886 93.2627C121.886 91.71 122.267 90.4766 123.028 89.5625C123.796 88.6484 124.824 88.1914 126.113 88.1914C127.32 88.1914 128.275 88.5898 128.979 89.3867C129.682 90.1777 130.033 91.2236 130.033 92.5244V93.4473H123.397C123.427 94.5781 123.711 95.4365 124.25 96.0225C124.795 96.6084 125.56 96.9014 126.544 96.9014C127.581 96.9014 128.606 96.6846 129.62 96.251V97.5518C129.104 97.7744 128.615 97.9326 128.152 98.0264C127.695 98.126 127.142 98.1758 126.491 98.1758ZM126.096 89.4131C125.322 89.4131 124.704 89.665 124.241 90.1689C123.784 90.6729 123.515 91.3701 123.433 92.2607H128.469C128.469 91.3408 128.264 90.6377 127.854 90.1514C127.443 89.6592 126.857 89.4131 126.096 89.4131ZM133.988 98H132.529V84.3242H133.988V98ZM139.191 98L135.535 88.3672H137.1L139.174 94.0801C139.643 95.416 139.918 96.2832 140 96.6816H140.07C140.135 96.3711 140.337 95.7295 140.677 94.7568C141.022 93.7783 141.793 91.6484 142.988 88.3672H144.553L140.896 98H139.191ZM150.169 98.1758C148.745 98.1758 147.62 97.7422 146.794 96.875C145.974 96.0078 145.563 94.8037 145.563 93.2627C145.563 91.71 145.944 90.4766 146.706 89.5625C147.474 88.6484 148.502 88.1914 149.791 88.1914C150.998 88.1914 151.953 88.5898 152.656 89.3867C153.359 90.1777 153.711 91.2236 153.711 92.5244V93.4473H147.075C147.104 94.5781 147.389 95.4365 147.928 96.0225C148.473 96.6084 149.237 96.9014 150.222 96.9014C151.259 96.9014 152.284 96.6846 153.298 96.251V97.5518C152.782 97.7744 152.293 97.9326 151.83 98.0264C151.373 98.126 150.819 98.1758 150.169 98.1758ZM149.773 89.4131C149 89.4131 148.382 89.665 147.919 90.1689C147.462 90.6729 147.192 91.3701 147.11 92.2607H152.146C152.146 91.3408 151.941 90.6377 151.531 90.1514C151.121 89.6592 150.535 89.4131 149.773 89.4131ZM162.421 95.3721C162.421 96.2686 162.087 96.96 161.419 97.4463C160.751 97.9326 159.813 98.1758 158.606 98.1758C157.329 98.1758 156.333 97.9736 155.618 97.5693V96.2158C156.081 96.4502 156.576 96.6348 157.104 96.7695C157.637 96.9043 158.149 96.9717 158.642 96.9717C159.403 96.9717 159.989 96.8516 160.399 96.6113C160.81 96.3652 161.015 95.9932 161.015 95.4951C161.015 95.1201 160.851 94.8008 160.522 94.5371C160.2 94.2676 159.567 93.9512 158.624 93.5879C157.728 93.2539 157.089 92.9639 156.708 92.7178C156.333 92.4658 156.052 92.1816 155.864 91.8652C155.683 91.5488 155.592 91.1709 155.592 90.7314C155.592 89.9463 155.911 89.3281 156.55 88.877C157.188 88.4199 158.064 88.1914 159.178 88.1914C160.215 88.1914 161.229 88.4023 162.219 88.8242L161.7 90.0107C160.733 89.6123 159.857 89.4131 159.072 89.4131C158.381 89.4131 157.859 89.5215 157.508 89.7383C157.156 89.9551 156.98 90.2539 156.98 90.6348C156.98 90.8926 157.045 91.1123 157.174 91.2939C157.309 91.4756 157.522 91.6484 157.815 91.8125C158.108 91.9766 158.671 92.2139 159.503 92.5244C160.646 92.9404 161.416 93.3594 161.814 93.7812C162.219 94.2031 162.421 94.7334 162.421 95.3721ZM164.592 97.0684C164.592 96.6758 164.68 96.3799 164.855 96.1807C165.037 95.9756 165.295 95.873 165.629 95.873C165.969 95.873 166.232 95.9756 166.42 96.1807C166.613 96.3799 166.71 96.6758 166.71 97.0684C166.71 97.4492 166.613 97.7422 166.42 97.9473C166.227 98.1523 165.963 98.2549 165.629 98.2549C165.33 98.2549 165.081 98.1641 164.882 97.9824C164.688 97.7949 164.592 97.4902 164.592 97.0684ZM185.65 91.5576C185.65 93.6143 185.129 95.2314 184.086 96.4092C183.049 97.5869 181.604 98.1758 179.753 98.1758C177.86 98.1758 176.398 97.5986 175.367 96.4443C174.342 95.2842 173.829 93.6494 173.829 91.54C173.829 89.4482 174.345 87.8281 175.376 86.6797C176.407 85.5254 177.872 84.9482 179.771 84.9482C181.616 84.9482 183.058 85.5342 184.095 86.7061C185.132 87.8779 185.65 89.4951 185.65 91.5576ZM175.411 91.5576C175.411 93.2979 175.78 94.6191 176.519 95.5215C177.263 96.418 178.341 96.8662 179.753 96.8662C181.177 96.8662 182.252 96.418 182.979 95.5215C183.705 94.625 184.068 93.3037 184.068 91.5576C184.068 89.8291 183.705 88.5195 182.979 87.6289C182.258 86.7324 181.188 86.2842 179.771 86.2842C178.347 86.2842 177.263 86.7354 176.519 87.6377C175.78 88.5342 175.411 89.8408 175.411 91.5576ZM194.896 98V91.7686C194.896 90.9834 194.718 90.3975 194.36 90.0107C194.003 89.624 193.443 89.4307 192.682 89.4307C191.674 89.4307 190.936 89.7031 190.467 90.248C189.998 90.793 189.764 91.6924 189.764 92.9463V98H188.305V88.3672H189.491L189.729 89.6855H189.799C190.098 89.2109 190.517 88.8447 191.056 88.5869C191.595 88.3232 192.195 88.1914 192.857 88.1914C194.018 88.1914 194.891 88.4727 195.477 89.0352C196.062 89.5918 196.355 90.4854 196.355 91.7158V98H194.896ZM200.82 98H199.361V84.3242H200.82V98ZM202.385 88.3672H203.949L206.059 93.8604C206.521 95.1143 206.809 96.0195 206.92 96.5762H206.99C207.066 96.2773 207.225 95.7676 207.465 95.0469C207.711 94.3203 208.508 92.0938 209.855 88.3672H211.42L207.28 99.3359C206.87 100.42 206.39 101.188 205.839 101.639C205.294 102.096 204.623 102.324 203.826 102.324C203.381 102.324 202.941 102.274 202.508 102.175V101.006C202.83 101.076 203.19 101.111 203.589 101.111C204.591 101.111 205.306 100.549 205.733 99.4238L206.27 98.0527L202.385 88.3672ZM225.526 98L223.76 92.3486C223.648 92.0029 223.44 91.2178 223.136 89.9932H223.065C222.831 91.0186 222.626 91.8096 222.45 92.3662L220.631 98H218.943L216.315 88.3672H217.845C218.466 90.7871 218.938 92.6299 219.26 93.8955C219.588 95.1611 219.775 96.0137 219.822 96.4531H219.893C219.957 96.1191 220.06 95.6885 220.2 95.1611C220.347 94.6279 220.473 94.2061 220.578 93.8955L222.345 88.3672H223.927L225.649 93.8955C225.978 94.9033 226.2 95.75 226.317 96.4355H226.388C226.411 96.2246 226.473 95.8994 226.572 95.46C226.678 95.0205 227.29 92.6562 228.409 88.3672H229.921L227.258 98H225.526ZM238.262 98V91.7686C238.262 90.9834 238.083 90.3975 237.726 90.0107C237.368 89.624 236.809 89.4307 236.047 89.4307C235.033 89.4307 234.292 89.7061 233.823 90.2568C233.36 90.8076 233.129 91.71 233.129 92.9639V98H231.67V84.3242H233.129V88.4639C233.129 88.9619 233.105 89.375 233.059 89.7031H233.146C233.434 89.2402 233.841 88.877 234.368 88.6133C234.901 88.3438 235.508 88.209 236.188 88.209C237.365 88.209 238.247 88.4902 238.833 89.0527C239.425 89.6094 239.721 90.4971 239.721 91.7158V98H238.262ZM246.796 98.1758C245.372 98.1758 244.247 97.7422 243.421 96.875C242.601 96.0078 242.19 94.8037 242.19 93.2627C242.19 91.71 242.571 90.4766 243.333 89.5625C244.101 88.6484 245.129 88.1914 246.418 88.1914C247.625 88.1914 248.58 88.5898 249.283 89.3867C249.986 90.1777 250.338 91.2236 250.338 92.5244V93.4473H243.702C243.731 94.5781 244.016 95.4365 244.555 96.0225C245.1 96.6084 245.864 96.9014 246.849 96.9014C247.886 96.9014 248.911 96.6846 249.925 96.251V97.5518C249.409 97.7744 248.92 97.9326 248.457 98.0264C248 98.126 247.446 98.1758 246.796 98.1758ZM246.4 89.4131C245.627 89.4131 245.009 89.665 244.546 90.1689C244.089 90.6729 243.819 91.3701 243.737 92.2607H248.773C248.773 91.3408 248.568 90.6377 248.158 90.1514C247.748 89.6592 247.162 89.4131 246.4 89.4131ZM259.426 98V91.7686C259.426 90.9834 259.247 90.3975 258.89 90.0107C258.532 89.624 257.973 89.4307 257.211 89.4307C256.203 89.4307 255.465 89.7031 254.996 90.248C254.527 90.793 254.293 91.6924 254.293 92.9463V98H252.834V88.3672H254.021L254.258 89.6855H254.328C254.627 89.2109 255.046 88.8447 255.585 88.5869C256.124 88.3232 256.725 88.1914 257.387 88.1914C258.547 88.1914 259.42 88.4727 260.006 89.0352C260.592 89.5918 260.885 90.4854 260.885 91.7158V98H259.426ZM276.433 98L274.666 92.3486C274.555 92.0029 274.347 91.2178 274.042 89.9932H273.972C273.737 91.0186 273.532 91.8096 273.356 92.3662L271.537 98H269.85L267.222 88.3672H268.751C269.372 90.7871 269.844 92.6299 270.166 93.8955C270.494 95.1611 270.682 96.0137 270.729 96.4531H270.799C270.863 96.1191 270.966 95.6885 271.106 95.1611C271.253 94.6279 271.379 94.2061 271.484 93.8955L273.251 88.3672H274.833L276.556 93.8955C276.884 94.9033 277.106 95.75 277.224 96.4355H277.294C277.317 96.2246 277.379 95.8994 277.479 95.46C277.584 95.0205 278.196 92.6562 279.315 88.3672H280.827L278.164 98H276.433ZM286.646 98.1758C285.222 98.1758 284.097 97.7422 283.271 96.875C282.45 96.0078 282.04 94.8037 282.04 93.2627C282.04 91.71 282.421 90.4766 283.183 89.5625C283.95 88.6484 284.979 88.1914 286.268 88.1914C287.475 88.1914 288.43 88.5898 289.133 89.3867C289.836 90.1777 290.188 91.2236 290.188 92.5244V93.4473H283.552C283.581 94.5781 283.865 95.4365 284.404 96.0225C284.949 96.6084 285.714 96.9014 286.698 96.9014C287.735 96.9014 288.761 96.6846 289.774 96.251V97.5518C289.259 97.7744 288.77 97.9326 288.307 98.0264C287.85 98.126 287.296 98.1758 286.646 98.1758ZM286.25 89.4131C285.477 89.4131 284.858 89.665 284.396 90.1689C283.938 90.6729 283.669 91.3701 283.587 92.2607H288.623C288.623 91.3408 288.418 90.6377 288.008 90.1514C287.598 89.6592 287.012 89.4131 286.25 89.4131ZM72.6582 121.972C72.916 121.972 73.165 121.954 73.4053 121.919C73.6455 121.878 73.8359 121.837 73.9766 121.796V122.912C73.8184 122.988 73.584 123.05 73.2734 123.097C72.9688 123.149 72.6934 123.176 72.4473 123.176C70.584 123.176 69.6523 122.194 69.6523 120.231V114.501H68.2725V113.798L69.6523 113.191L70.2676 111.135H71.1113V113.367H73.9062V114.501H71.1113V120.17C71.1113 120.75 71.249 121.195 71.5244 121.506C71.7998 121.816 72.1777 121.972 72.6582 121.972ZM82.502 123V116.769C82.502 115.983 82.3232 115.397 81.9658 115.011C81.6084 114.624 81.0488 114.431 80.2871 114.431C79.2734 114.431 78.5322 114.706 78.0635 115.257C77.6006 115.808 77.3691 116.71 77.3691 117.964V123H75.9102V109.324H77.3691V113.464C77.3691 113.962 77.3457 114.375 77.2988 114.703H77.3867C77.6738 114.24 78.0811 113.877 78.6084 113.613C79.1416 113.344 79.748 113.209 80.4277 113.209C81.6055 113.209 82.4873 113.49 83.0732 114.053C83.665 114.609 83.9609 115.497 83.9609 116.716V123H82.502ZM95.2812 118.175C95.2812 119.745 94.8857 120.973 94.0947 121.857C93.3037 122.736 92.2109 123.176 90.8164 123.176C89.9551 123.176 89.1904 122.974 88.5225 122.569C87.8545 122.165 87.3389 121.585 86.9756 120.829C86.6123 120.073 86.4307 119.188 86.4307 118.175C86.4307 116.604 86.8232 115.383 87.6084 114.51C88.3936 113.631 89.4834 113.191 90.8779 113.191C92.2256 113.191 93.2949 113.64 94.0859 114.536C94.8828 115.433 95.2812 116.646 95.2812 118.175ZM87.9424 118.175C87.9424 119.405 88.1885 120.343 88.6807 120.987C89.1729 121.632 89.8965 121.954 90.8516 121.954C91.8066 121.954 92.5303 121.635 93.0225 120.996C93.5205 120.352 93.7695 119.411 93.7695 118.175C93.7695 116.95 93.5205 116.021 93.0225 115.389C92.5303 114.75 91.8008 114.431 90.834 114.431C89.8789 114.431 89.1582 114.744 88.6719 115.371C88.1855 115.998 87.9424 116.933 87.9424 118.175ZM102.242 113.191C102.67 113.191 103.054 113.227 103.394 113.297L103.191 114.65C102.793 114.562 102.441 114.519 102.137 114.519C101.357 114.519 100.689 114.835 100.133 115.468C99.582 116.101 99.3066 116.889 99.3066 117.832V123H97.8477V113.367H99.0518L99.2188 115.151H99.2891C99.6465 114.524 100.077 114.041 100.581 113.701C101.085 113.361 101.639 113.191 102.242 113.191ZM113.51 118.175C113.51 119.745 113.114 120.973 112.323 121.857C111.532 122.736 110.439 123.176 109.045 123.176C108.184 123.176 107.419 122.974 106.751 122.569C106.083 122.165 105.567 121.585 105.204 120.829C104.841 120.073 104.659 119.188 104.659 118.175C104.659 116.604 105.052 115.383 105.837 114.51C106.622 113.631 107.712 113.191 109.106 113.191C110.454 113.191 111.523 113.64 112.314 114.536C113.111 115.433 113.51 116.646 113.51 118.175ZM106.171 118.175C106.171 119.405 106.417 120.343 106.909 120.987C107.401 121.632 108.125 121.954 109.08 121.954C110.035 121.954 110.759 121.635 111.251 120.996C111.749 120.352 111.998 119.411 111.998 118.175C111.998 116.95 111.749 116.021 111.251 115.389C110.759 114.75 110.029 114.431 109.062 114.431C108.107 114.431 107.387 114.744 106.9 115.371C106.414 115.998 106.171 116.933 106.171 118.175ZM117.447 113.367V119.616C117.447 120.401 117.626 120.987 117.983 121.374C118.341 121.761 118.9 121.954 119.662 121.954C120.67 121.954 121.405 121.679 121.868 121.128C122.337 120.577 122.571 119.678 122.571 118.43V113.367H124.03V123H122.826L122.615 121.708H122.536C122.237 122.183 121.821 122.546 121.288 122.798C120.761 123.05 120.157 123.176 119.478 123.176C118.306 123.176 117.427 122.897 116.841 122.341C116.261 121.784 115.971 120.894 115.971 119.669V113.367H117.447ZM135.017 113.367V114.29L133.232 114.501C133.396 114.706 133.543 114.976 133.672 115.31C133.801 115.638 133.865 116.01 133.865 116.426C133.865 117.369 133.543 118.122 132.898 118.685C132.254 119.247 131.369 119.528 130.244 119.528C129.957 119.528 129.688 119.505 129.436 119.458C128.814 119.786 128.504 120.199 128.504 120.697C128.504 120.961 128.612 121.157 128.829 121.286C129.046 121.409 129.418 121.471 129.945 121.471H131.65C132.693 121.471 133.493 121.69 134.05 122.13C134.612 122.569 134.894 123.208 134.894 124.046C134.894 125.112 134.466 125.924 133.61 126.48C132.755 127.043 131.507 127.324 129.866 127.324C128.606 127.324 127.634 127.09 126.948 126.621C126.269 126.152 125.929 125.49 125.929 124.635C125.929 124.049 126.116 123.542 126.491 123.114C126.866 122.687 127.394 122.396 128.073 122.244C127.827 122.133 127.619 121.96 127.449 121.726C127.285 121.491 127.203 121.219 127.203 120.908C127.203 120.557 127.297 120.249 127.484 119.985C127.672 119.722 127.968 119.467 128.372 119.221C127.874 119.016 127.467 118.667 127.15 118.175C126.84 117.683 126.685 117.12 126.685 116.487C126.685 115.433 127.001 114.621 127.634 114.053C128.267 113.479 129.163 113.191 130.323 113.191C130.827 113.191 131.281 113.25 131.686 113.367H135.017ZM127.335 124.617C127.335 125.139 127.555 125.534 127.994 125.804C128.434 126.073 129.063 126.208 129.884 126.208C131.108 126.208 132.014 126.023 132.6 125.654C133.191 125.291 133.487 124.796 133.487 124.169C133.487 123.647 133.326 123.284 133.004 123.079C132.682 122.88 132.075 122.78 131.185 122.78H129.436C128.773 122.78 128.258 122.938 127.889 123.255C127.52 123.571 127.335 124.025 127.335 124.617ZM128.126 116.452C128.126 117.126 128.316 117.636 128.697 117.981C129.078 118.327 129.608 118.5 130.288 118.5C131.712 118.5 132.424 117.809 132.424 116.426C132.424 114.979 131.703 114.255 130.262 114.255C129.576 114.255 129.049 114.439 128.68 114.809C128.311 115.178 128.126 115.726 128.126 116.452ZM143.586 123V116.769C143.586 115.983 143.407 115.397 143.05 115.011C142.692 114.624 142.133 114.431 141.371 114.431C140.357 114.431 139.616 114.706 139.147 115.257C138.685 115.808 138.453 116.71 138.453 117.964V123H136.994V109.324H138.453V113.464C138.453 113.962 138.43 114.375 138.383 114.703H138.471C138.758 114.24 139.165 113.877 139.692 113.613C140.226 113.344 140.832 113.209 141.512 113.209C142.689 113.209 143.571 113.49 144.157 114.053C144.749 114.609 145.045 115.497 145.045 116.716V123H143.586ZM149.51 123H148.051V109.324H149.51V123ZM151.074 113.367H152.639L154.748 118.86C155.211 120.114 155.498 121.02 155.609 121.576H155.68C155.756 121.277 155.914 120.768 156.154 120.047C156.4 119.32 157.197 117.094 158.545 113.367H160.109L155.97 124.336C155.56 125.42 155.079 126.188 154.528 126.639C153.983 127.096 153.312 127.324 152.516 127.324C152.07 127.324 151.631 127.274 151.197 127.175V126.006C151.52 126.076 151.88 126.111 152.278 126.111C153.28 126.111 153.995 125.549 154.423 124.424L154.959 123.053L151.074 113.367ZM167.721 113.367V119.616C167.721 120.401 167.899 120.987 168.257 121.374C168.614 121.761 169.174 121.954 169.936 121.954C170.943 121.954 171.679 121.679 172.142 121.128C172.61 120.577 172.845 119.678 172.845 118.43V113.367H174.304V123H173.1L172.889 121.708H172.81C172.511 122.183 172.095 122.546 171.562 122.798C171.034 123.05 170.431 123.176 169.751 123.176C168.579 123.176 167.7 122.897 167.114 122.341C166.534 121.784 166.244 120.894 166.244 119.669V113.367H167.721ZM183.998 123V116.769C183.998 115.983 183.819 115.397 183.462 115.011C183.104 114.624 182.545 114.431 181.783 114.431C180.775 114.431 180.037 114.703 179.568 115.248C179.1 115.793 178.865 116.692 178.865 117.946V123H177.406V113.367H178.593L178.83 114.686H178.9C179.199 114.211 179.618 113.845 180.157 113.587C180.696 113.323 181.297 113.191 181.959 113.191C183.119 113.191 183.992 113.473 184.578 114.035C185.164 114.592 185.457 115.485 185.457 116.716V123H183.998ZM195.02 121.708H194.94C194.267 122.687 193.259 123.176 191.917 123.176C190.657 123.176 189.676 122.745 188.973 121.884C188.275 121.022 187.927 119.798 187.927 118.21C187.927 116.622 188.278 115.389 188.981 114.51C189.685 113.631 190.663 113.191 191.917 113.191C193.224 113.191 194.226 113.666 194.923 114.615H195.037L194.976 113.921L194.94 113.244V109.324H196.399V123H195.213L195.02 121.708ZM192.102 121.954C193.098 121.954 193.818 121.685 194.264 121.146C194.715 120.601 194.94 119.725 194.94 118.518V118.21C194.94 116.845 194.712 115.872 194.255 115.292C193.804 114.706 193.08 114.413 192.084 114.413C191.229 114.413 190.572 114.747 190.115 115.415C189.664 116.077 189.438 117.015 189.438 118.228C189.438 119.458 189.664 120.387 190.115 121.014C190.566 121.641 191.229 121.954 192.102 121.954ZM203.571 123.176C202.147 123.176 201.022 122.742 200.196 121.875C199.376 121.008 198.966 119.804 198.966 118.263C198.966 116.71 199.347 115.477 200.108 114.562C200.876 113.648 201.904 113.191 203.193 113.191C204.4 113.191 205.355 113.59 206.059 114.387C206.762 115.178 207.113 116.224 207.113 117.524V118.447H200.478C200.507 119.578 200.791 120.437 201.33 121.022C201.875 121.608 202.64 121.901 203.624 121.901C204.661 121.901 205.687 121.685 206.7 121.251V122.552C206.185 122.774 205.695 122.933 205.232 123.026C204.775 123.126 204.222 123.176 203.571 123.176ZM203.176 114.413C202.402 114.413 201.784 114.665 201.321 115.169C200.864 115.673 200.595 116.37 200.513 117.261H205.549C205.549 116.341 205.344 115.638 204.934 115.151C204.523 114.659 203.938 114.413 203.176 114.413ZM214.004 113.191C214.432 113.191 214.815 113.227 215.155 113.297L214.953 114.65C214.555 114.562 214.203 114.519 213.898 114.519C213.119 114.519 212.451 114.835 211.895 115.468C211.344 116.101 211.068 116.889 211.068 117.832V123H209.609V113.367H210.813L210.98 115.151H211.051C211.408 114.524 211.839 114.041 212.343 113.701C212.847 113.361 213.4 113.191 214.004 113.191ZM223.171 120.372C223.171 121.269 222.837 121.96 222.169 122.446C221.501 122.933 220.563 123.176 219.356 123.176C218.079 123.176 217.083 122.974 216.368 122.569V121.216C216.831 121.45 217.326 121.635 217.854 121.77C218.387 121.904 218.899 121.972 219.392 121.972C220.153 121.972 220.739 121.852 221.149 121.611C221.56 121.365 221.765 120.993 221.765 120.495C221.765 120.12 221.601 119.801 221.272 119.537C220.95 119.268 220.317 118.951 219.374 118.588C218.478 118.254 217.839 117.964 217.458 117.718C217.083 117.466 216.802 117.182 216.614 116.865C216.433 116.549 216.342 116.171 216.342 115.731C216.342 114.946 216.661 114.328 217.3 113.877C217.938 113.42 218.814 113.191 219.928 113.191C220.965 113.191 221.979 113.402 222.969 113.824L222.45 115.011C221.483 114.612 220.607 114.413 219.822 114.413C219.131 114.413 218.609 114.521 218.258 114.738C217.906 114.955 217.73 115.254 217.73 115.635C217.73 115.893 217.795 116.112 217.924 116.294C218.059 116.476 218.272 116.648 218.565 116.812C218.858 116.977 219.421 117.214 220.253 117.524C221.396 117.94 222.166 118.359 222.564 118.781C222.969 119.203 223.171 119.733 223.171 120.372ZM228.664 121.972C228.922 121.972 229.171 121.954 229.411 121.919C229.651 121.878 229.842 121.837 229.982 121.796V122.912C229.824 122.988 229.59 123.05 229.279 123.097C228.975 123.149 228.699 123.176 228.453 123.176C226.59 123.176 225.658 122.194 225.658 120.231V114.501H224.278V113.798L225.658 113.191L226.273 111.135H227.117V113.367H229.912V114.501H227.117V120.17C227.117 120.75 227.255 121.195 227.53 121.506C227.806 121.816 228.184 121.972 228.664 121.972ZM237.84 123L237.55 121.629H237.479C236.999 122.232 236.519 122.643 236.038 122.859C235.563 123.07 234.969 123.176 234.254 123.176C233.299 123.176 232.549 122.93 232.004 122.438C231.465 121.945 231.195 121.245 231.195 120.337C231.195 118.392 232.751 117.372 235.862 117.278L237.497 117.226V116.628C237.497 115.872 237.333 115.315 237.005 114.958C236.683 114.595 236.164 114.413 235.449 114.413C234.646 114.413 233.738 114.659 232.725 115.151L232.276 114.035C232.751 113.777 233.27 113.575 233.832 113.429C234.4 113.282 234.969 113.209 235.537 113.209C236.686 113.209 237.535 113.464 238.086 113.974C238.643 114.483 238.921 115.301 238.921 116.426V123H237.84ZM234.544 121.972C235.452 121.972 236.164 121.723 236.68 121.225C237.201 120.727 237.462 120.029 237.462 119.133V118.263L236.003 118.324C234.843 118.365 234.005 118.547 233.489 118.869C232.979 119.186 232.725 119.681 232.725 120.354C232.725 120.882 232.883 121.283 233.199 121.559C233.521 121.834 233.97 121.972 234.544 121.972ZM248.527 123V116.769C248.527 115.983 248.349 115.397 247.991 115.011C247.634 114.624 247.074 114.431 246.312 114.431C245.305 114.431 244.566 114.703 244.098 115.248C243.629 115.793 243.395 116.692 243.395 117.946V123H241.936V113.367H243.122L243.359 114.686H243.43C243.729 114.211 244.147 113.845 244.687 113.587C245.226 113.323 245.826 113.191 246.488 113.191C247.648 113.191 248.521 113.473 249.107 114.035C249.693 114.592 249.986 115.485 249.986 116.716V123H248.527ZM259.549 121.708H259.47C258.796 122.687 257.788 123.176 256.446 123.176C255.187 123.176 254.205 122.745 253.502 121.884C252.805 121.022 252.456 119.798 252.456 118.21C252.456 116.622 252.808 115.389 253.511 114.51C254.214 113.631 255.192 113.191 256.446 113.191C257.753 113.191 258.755 113.666 259.452 114.615H259.566L259.505 113.921L259.47 113.244V109.324H260.929V123H259.742L259.549 121.708ZM256.631 121.954C257.627 121.954 258.348 121.685 258.793 121.146C259.244 120.601 259.47 119.725 259.47 118.518V118.21C259.47 116.845 259.241 115.872 258.784 115.292C258.333 114.706 257.609 114.413 256.613 114.413C255.758 114.413 255.102 114.747 254.645 115.415C254.193 116.077 253.968 117.015 253.968 118.228C253.968 119.458 254.193 120.387 254.645 121.014C255.096 121.641 255.758 121.954 256.631 121.954ZM77.8613 143.175C77.8613 144.745 77.4658 145.973 76.6748 146.857C75.8838 147.736 74.791 148.176 73.3965 148.176C72.5352 148.176 71.7705 147.974 71.1025 147.569C70.4346 147.165 69.9189 146.585 69.5557 145.829C69.1924 145.073 69.0107 144.188 69.0107 143.175C69.0107 141.604 69.4033 140.383 70.1885 139.51C70.9736 138.631 72.0635 138.191 73.458 138.191C74.8057 138.191 75.875 138.64 76.666 139.536C77.4629 140.433 77.8613 141.646 77.8613 143.175ZM70.5225 143.175C70.5225 144.405 70.7686 145.343 71.2607 145.987C71.7529 146.632 72.4766 146.954 73.4316 146.954C74.3867 146.954 75.1104 146.635 75.6025 145.996C76.1006 145.352 76.3496 144.411 76.3496 143.175C76.3496 141.95 76.1006 141.021 75.6025 140.389C75.1104 139.75 74.3809 139.431 73.4141 139.431C72.459 139.431 71.7383 139.744 71.252 140.371C70.7656 140.998 70.5225 141.933 70.5225 143.175ZM81.7988 138.367V144.616C81.7988 145.401 81.9775 145.987 82.335 146.374C82.6924 146.761 83.252 146.954 84.0137 146.954C85.0215 146.954 85.7568 146.679 86.2197 146.128C86.6885 145.577 86.9229 144.678 86.9229 143.43V138.367H88.3818V148H87.1777L86.9668 146.708H86.8877C86.5889 147.183 86.1729 147.546 85.6396 147.798C85.1123 148.05 84.5088 148.176 83.8291 148.176C82.6572 148.176 81.7783 147.897 81.1924 147.341C80.6123 146.784 80.3223 145.894 80.3223 144.669V138.367H81.7988ZM95.8789 138.191C96.3066 138.191 96.6904 138.227 97.0303 138.297L96.8281 139.65C96.4297 139.562 96.0781 139.519 95.7734 139.519C94.9941 139.519 94.3262 139.835 93.7695 140.468C93.2188 141.101 92.9434 141.889 92.9434 142.832V148H91.4844V138.367H92.6885L92.8555 140.151H92.9258C93.2832 139.524 93.7139 139.041 94.2178 138.701C94.7217 138.361 95.2754 138.191 95.8789 138.191ZM105.046 145.372C105.046 146.269 104.712 146.96 104.044 147.446C103.376 147.933 102.438 148.176 101.231 148.176C99.9541 148.176 98.958 147.974 98.2432 147.569V146.216C98.7061 146.45 99.2012 146.635 99.7285 146.77C100.262 146.904 100.774 146.972 101.267 146.972C102.028 146.972 102.614 146.852 103.024 146.611C103.435 146.365 103.64 145.993 103.64 145.495C103.64 145.12 103.476 144.801 103.147 144.537C102.825 144.268 102.192 143.951 101.249 143.588C100.353 143.254 99.7139 142.964 99.333 142.718C98.958 142.466 98.6768 142.182 98.4893 141.865C98.3076 141.549 98.2168 141.171 98.2168 140.731C98.2168 139.946 98.5361 139.328 99.1748 138.877C99.8135 138.42 100.689 138.191 101.803 138.191C102.84 138.191 103.854 138.402 104.844 138.824L104.325 140.011C103.358 139.612 102.482 139.413 101.697 139.413C101.006 139.413 100.484 139.521 100.133 139.738C99.7812 139.955 99.6055 140.254 99.6055 140.635C99.6055 140.893 99.6699 141.112 99.7988 141.294C99.9336 141.476 100.147 141.648 100.44 141.812C100.733 141.977 101.296 142.214 102.128 142.524C103.271 142.94 104.041 143.359 104.439 143.781C104.844 144.203 105.046 144.733 105.046 145.372ZM111.497 148.176C110.073 148.176 108.948 147.742 108.122 146.875C107.302 146.008 106.892 144.804 106.892 143.263C106.892 141.71 107.272 140.477 108.034 139.562C108.802 138.648 109.83 138.191 111.119 138.191C112.326 138.191 113.281 138.59 113.984 139.387C114.688 140.178 115.039 141.224 115.039 142.524V143.447H108.403C108.433 144.578 108.717 145.437 109.256 146.022C109.801 146.608 110.565 146.901 111.55 146.901C112.587 146.901 113.612 146.685 114.626 146.251V147.552C114.11 147.774 113.621 147.933 113.158 148.026C112.701 148.126 112.147 148.176 111.497 148.176ZM111.102 139.413C110.328 139.413 109.71 139.665 109.247 140.169C108.79 140.673 108.521 141.37 108.438 142.261H113.475C113.475 141.341 113.27 140.638 112.859 140.151C112.449 139.659 111.863 139.413 111.102 139.413ZM118.994 148H117.535V134.324H118.994V148ZM124.197 148L120.541 138.367H122.105L124.18 144.08C124.648 145.416 124.924 146.283 125.006 146.682H125.076C125.141 146.371 125.343 145.729 125.683 144.757C126.028 143.778 126.799 141.648 127.994 138.367H129.559L125.902 148H124.197ZM135.175 148.176C133.751 148.176 132.626 147.742 131.8 146.875C130.979 146.008 130.569 144.804 130.569 143.263C130.569 141.71 130.95 140.477 131.712 139.562C132.479 138.648 133.508 138.191 134.797 138.191C136.004 138.191 136.959 138.59 137.662 139.387C138.365 140.178 138.717 141.224 138.717 142.524V143.447H132.081C132.11 144.578 132.395 145.437 132.934 146.022C133.479 146.608 134.243 146.901 135.228 146.901C136.265 146.901 137.29 146.685 138.304 146.251V147.552C137.788 147.774 137.299 147.933 136.836 148.026C136.379 148.126 135.825 148.176 135.175 148.176ZM134.779 139.413C134.006 139.413 133.388 139.665 132.925 140.169C132.468 140.673 132.198 141.37 132.116 142.261H137.152C137.152 141.341 136.947 140.638 136.537 140.151C136.127 139.659 135.541 139.413 134.779 139.413ZM147.427 145.372C147.427 146.269 147.093 146.96 146.425 147.446C145.757 147.933 144.819 148.176 143.612 148.176C142.335 148.176 141.339 147.974 140.624 147.569V146.216C141.087 146.45 141.582 146.635 142.109 146.77C142.643 146.904 143.155 146.972 143.647 146.972C144.409 146.972 144.995 146.852 145.405 146.611C145.815 146.365 146.021 145.993 146.021 145.495C146.021 145.12 145.856 144.801 145.528 144.537C145.206 144.268 144.573 143.951 143.63 143.588C142.733 143.254 142.095 142.964 141.714 142.718C141.339 142.466 141.058 142.182 140.87 141.865C140.688 141.549 140.598 141.171 140.598 140.731C140.598 139.946 140.917 139.328 141.556 138.877C142.194 138.42 143.07 138.191 144.184 138.191C145.221 138.191 146.234 138.402 147.225 138.824L146.706 140.011C145.739 139.612 144.863 139.413 144.078 139.413C143.387 139.413 142.865 139.521 142.514 139.738C142.162 139.955 141.986 140.254 141.986 140.635C141.986 140.893 142.051 141.112 142.18 141.294C142.314 141.476 142.528 141.648 142.821 141.812C143.114 141.977 143.677 142.214 144.509 142.524C145.651 142.94 146.422 143.359 146.82 143.781C147.225 144.203 147.427 144.733 147.427 145.372ZM151.338 145.908L151.47 146.11C151.317 146.696 151.098 147.376 150.811 148.149C150.523 148.929 150.225 149.652 149.914 150.32H148.815C148.974 149.711 149.146 148.958 149.334 148.062C149.527 147.165 149.662 146.447 149.738 145.908H151.338ZM165.453 146.708H165.374C164.7 147.687 163.692 148.176 162.351 148.176C161.091 148.176 160.109 147.745 159.406 146.884C158.709 146.022 158.36 144.798 158.36 143.21C158.36 141.622 158.712 140.389 159.415 139.51C160.118 138.631 161.097 138.191 162.351 138.191C163.657 138.191 164.659 138.666 165.356 139.615H165.471L165.409 138.921L165.374 138.244V134.324H166.833V148H165.646L165.453 146.708ZM162.535 146.954C163.531 146.954 164.252 146.685 164.697 146.146C165.148 145.601 165.374 144.725 165.374 143.518V143.21C165.374 141.845 165.146 140.872 164.688 140.292C164.237 139.706 163.514 139.413 162.518 139.413C161.662 139.413 161.006 139.747 160.549 140.415C160.098 141.077 159.872 142.015 159.872 143.228C159.872 144.458 160.098 145.387 160.549 146.014C161 146.641 161.662 146.954 162.535 146.954ZM178.25 143.175C178.25 144.745 177.854 145.973 177.063 146.857C176.272 147.736 175.18 148.176 173.785 148.176C172.924 148.176 172.159 147.974 171.491 147.569C170.823 147.165 170.308 146.585 169.944 145.829C169.581 145.073 169.399 144.188 169.399 143.175C169.399 141.604 169.792 140.383 170.577 139.51C171.362 138.631 172.452 138.191 173.847 138.191C175.194 138.191 176.264 138.64 177.055 139.536C177.852 140.433 178.25 141.646 178.25 143.175ZM170.911 143.175C170.911 144.405 171.157 145.343 171.649 145.987C172.142 146.632 172.865 146.954 173.82 146.954C174.775 146.954 175.499 146.635 175.991 145.996C176.489 145.352 176.738 144.411 176.738 143.175C176.738 141.95 176.489 141.021 175.991 140.389C175.499 139.75 174.77 139.431 173.803 139.431C172.848 139.431 172.127 139.744 171.641 140.371C171.154 140.998 170.911 141.933 170.911 143.175ZM193.358 148L191.592 142.349C191.48 142.003 191.272 141.218 190.968 139.993H190.897C190.663 141.019 190.458 141.81 190.282 142.366L188.463 148H186.775L184.147 138.367H185.677C186.298 140.787 186.77 142.63 187.092 143.896C187.42 145.161 187.607 146.014 187.654 146.453H187.725C187.789 146.119 187.892 145.688 188.032 145.161C188.179 144.628 188.305 144.206 188.41 143.896L190.177 138.367H191.759L193.481 143.896C193.81 144.903 194.032 145.75 194.149 146.436H194.22C194.243 146.225 194.305 145.899 194.404 145.46C194.51 145.021 195.122 142.656 196.241 138.367H197.753L195.09 148H193.358ZM203.571 148.176C202.147 148.176 201.022 147.742 200.196 146.875C199.376 146.008 198.966 144.804 198.966 143.263C198.966 141.71 199.347 140.477 200.108 139.562C200.876 138.648 201.904 138.191 203.193 138.191C204.4 138.191 205.355 138.59 206.059 139.387C206.762 140.178 207.113 141.224 207.113 142.524V143.447H200.478C200.507 144.578 200.791 145.437 201.33 146.022C201.875 146.608 202.64 146.901 203.624 146.901C204.661 146.901 205.687 146.685 206.7 146.251V147.552C206.185 147.774 205.695 147.933 205.232 148.026C204.775 148.126 204.222 148.176 203.571 148.176ZM203.176 139.413C202.402 139.413 201.784 139.665 201.321 140.169C200.864 140.673 200.595 141.37 200.513 142.261H205.549C205.549 141.341 205.344 140.638 204.934 140.151C204.523 139.659 203.938 139.413 203.176 139.413ZM215.656 138.367V144.616C215.656 145.401 215.835 145.987 216.192 146.374C216.55 146.761 217.109 146.954 217.871 146.954C218.879 146.954 219.614 146.679 220.077 146.128C220.546 145.577 220.78 144.678 220.78 143.43V138.367H222.239V148H221.035L220.824 146.708H220.745C220.446 147.183 220.03 147.546 219.497 147.798C218.97 148.05 218.366 148.176 217.687 148.176C216.515 148.176 215.636 147.897 215.05 147.341C214.47 146.784 214.18 145.894 214.18 144.669V138.367H215.656ZM231.934 148V141.769C231.934 140.983 231.755 140.397 231.397 140.011C231.04 139.624 230.48 139.431 229.719 139.431C228.711 139.431 227.973 139.703 227.504 140.248C227.035 140.793 226.801 141.692 226.801 142.946V148H225.342V138.367H226.528L226.766 139.686H226.836C227.135 139.211 227.554 138.845 228.093 138.587C228.632 138.323 229.232 138.191 229.895 138.191C231.055 138.191 231.928 138.473 232.514 139.035C233.1 139.592 233.393 140.485 233.393 141.716V148H231.934ZM242.955 146.708H242.876C242.202 147.687 241.194 148.176 239.853 148.176C238.593 148.176 237.611 147.745 236.908 146.884C236.211 146.022 235.862 144.798 235.862 143.21C235.862 141.622 236.214 140.389 236.917 139.51C237.62 138.631 238.599 138.191 239.853 138.191C241.159 138.191 242.161 138.666 242.858 139.615H242.973L242.911 138.921L242.876 138.244V134.324H244.335V148H243.148L242.955 146.708ZM240.037 146.954C241.033 146.954 241.754 146.685 242.199 146.146C242.65 145.601 242.876 144.725 242.876 143.518V143.21C242.876 141.845 242.647 140.872 242.19 140.292C241.739 139.706 241.016 139.413 240.02 139.413C239.164 139.413 238.508 139.747 238.051 140.415C237.6 141.077 237.374 142.015 237.374 143.228C237.374 144.458 237.6 145.387 238.051 146.014C238.502 146.641 239.164 146.954 240.037 146.954ZM251.507 148.176C250.083 148.176 248.958 147.742 248.132 146.875C247.312 146.008 246.901 144.804 246.901 143.263C246.901 141.71 247.282 140.477 248.044 139.562C248.812 138.648 249.84 138.191 251.129 138.191C252.336 138.191 253.291 138.59 253.994 139.387C254.697 140.178 255.049 141.224 255.049 142.524V143.447H248.413C248.442 144.578 248.727 145.437 249.266 146.022C249.811 146.608 250.575 146.901 251.56 146.901C252.597 146.901 253.622 146.685 254.636 146.251V147.552C254.12 147.774 253.631 147.933 253.168 148.026C252.711 148.126 252.157 148.176 251.507 148.176ZM251.111 139.413C250.338 139.413 249.72 139.665 249.257 140.169C248.8 140.673 248.53 141.37 248.448 142.261H253.484C253.484 141.341 253.279 140.638 252.869 140.151C252.459 139.659 251.873 139.413 251.111 139.413ZM261.939 138.191C262.367 138.191 262.751 138.227 263.091 138.297L262.889 139.65C262.49 139.562 262.139 139.519 261.834 139.519C261.055 139.519 260.387 139.835 259.83 140.468C259.279 141.101 259.004 141.889 259.004 142.832V148H257.545V138.367H258.749L258.916 140.151H258.986C259.344 139.524 259.774 139.041 260.278 138.701C260.782 138.361 261.336 138.191 261.939 138.191ZM271.106 145.372C271.106 146.269 270.772 146.96 270.104 147.446C269.437 147.933 268.499 148.176 267.292 148.176C266.015 148.176 265.019 147.974 264.304 147.569V146.216C264.767 146.45 265.262 146.635 265.789 146.77C266.322 146.904 266.835 146.972 267.327 146.972C268.089 146.972 268.675 146.852 269.085 146.611C269.495 146.365 269.7 145.993 269.7 145.495C269.7 145.12 269.536 144.801 269.208 144.537C268.886 144.268 268.253 143.951 267.31 143.588C266.413 143.254 265.774 142.964 265.394 142.718C265.019 142.466 264.737 142.182 264.55 141.865C264.368 141.549 264.277 141.171 264.277 140.731C264.277 139.946 264.597 139.328 265.235 138.877C265.874 138.42 266.75 138.191 267.863 138.191C268.9 138.191 269.914 138.402 270.904 138.824L270.386 140.011C269.419 139.612 268.543 139.413 267.758 139.413C267.066 139.413 266.545 139.521 266.193 139.738C265.842 139.955 265.666 140.254 265.666 140.635C265.666 140.893 265.73 141.112 265.859 141.294C265.994 141.476 266.208 141.648 266.501 141.812C266.794 141.977 267.356 142.214 268.188 142.524C269.331 142.94 270.102 143.359 270.5 143.781C270.904 144.203 271.106 144.733 271.106 145.372ZM276.6 146.972C276.857 146.972 277.106 146.954 277.347 146.919C277.587 146.878 277.777 146.837 277.918 146.796V147.912C277.76 147.988 277.525 148.05 277.215 148.097C276.91 148.149 276.635 148.176 276.389 148.176C274.525 148.176 273.594 147.194 273.594 145.231V139.501H272.214V138.798L273.594 138.191L274.209 136.135H275.053V138.367H277.848V139.501H275.053V145.17C275.053 145.75 275.19 146.195 275.466 146.506C275.741 146.816 276.119 146.972 276.6 146.972ZM285.775 148L285.485 146.629H285.415C284.935 147.232 284.454 147.643 283.974 147.859C283.499 148.07 282.904 148.176 282.189 148.176C281.234 148.176 280.484 147.93 279.939 147.438C279.4 146.945 279.131 146.245 279.131 145.337C279.131 143.392 280.687 142.372 283.798 142.278L285.433 142.226V141.628C285.433 140.872 285.269 140.315 284.94 139.958C284.618 139.595 284.1 139.413 283.385 139.413C282.582 139.413 281.674 139.659 280.66 140.151L280.212 139.035C280.687 138.777 281.205 138.575 281.768 138.429C282.336 138.282 282.904 138.209 283.473 138.209C284.621 138.209 285.471 138.464 286.021 138.974C286.578 139.483 286.856 140.301 286.856 141.426V148H285.775ZM282.479 146.972C283.388 146.972 284.1 146.723 284.615 146.225C285.137 145.727 285.397 145.029 285.397 144.133V143.263L283.938 143.324C282.778 143.365 281.94 143.547 281.425 143.869C280.915 144.186 280.66 144.681 280.66 145.354C280.66 145.882 280.818 146.283 281.135 146.559C281.457 146.834 281.905 146.972 282.479 146.972ZM296.463 148V141.769C296.463 140.983 296.284 140.397 295.927 140.011C295.569 139.624 295.01 139.431 294.248 139.431C293.24 139.431 292.502 139.703 292.033 140.248C291.564 140.793 291.33 141.692 291.33 142.946V148H289.871V138.367H291.058L291.295 139.686H291.365C291.664 139.211 292.083 138.845 292.622 138.587C293.161 138.323 293.762 138.191 294.424 138.191C295.584 138.191 296.457 138.473 297.043 139.035C297.629 139.592 297.922 140.485 297.922 141.716V148H296.463ZM307.484 146.708H307.405C306.731 147.687 305.724 148.176 304.382 148.176C303.122 148.176 302.141 147.745 301.438 146.884C300.74 146.022 300.392 144.798 300.392 143.21C300.392 141.622 300.743 140.389 301.446 139.51C302.149 138.631 303.128 138.191 304.382 138.191C305.688 138.191 306.69 138.666 307.388 139.615H307.502L307.44 138.921L307.405 138.244V134.324H308.864V148H307.678L307.484 146.708ZM304.566 146.954C305.562 146.954 306.283 146.685 306.729 146.146C307.18 145.601 307.405 144.725 307.405 143.518V143.21C307.405 141.845 307.177 140.872 306.72 140.292C306.269 139.706 305.545 139.413 304.549 139.413C303.693 139.413 303.037 139.747 302.58 140.415C302.129 141.077 301.903 142.015 301.903 143.228C301.903 144.458 302.129 145.387 302.58 146.014C303.031 146.641 303.693 146.954 304.566 146.954ZM319.754 146.972C320.012 146.972 320.261 146.954 320.501 146.919C320.741 146.878 320.932 146.837 321.072 146.796V147.912C320.914 147.988 320.68 148.05 320.369 148.097C320.064 148.149 319.789 148.176 319.543 148.176C317.68 148.176 316.748 147.194 316.748 145.231V139.501H315.368V138.798L316.748 138.191L317.363 136.135H318.207V138.367H321.002V139.501H318.207V145.17C318.207 145.75 318.345 146.195 318.62 146.506C318.896 146.816 319.273 146.972 319.754 146.972ZM329.598 148V141.769C329.598 140.983 329.419 140.397 329.062 140.011C328.704 139.624 328.145 139.431 327.383 139.431C326.369 139.431 325.628 139.706 325.159 140.257C324.696 140.808 324.465 141.71 324.465 142.964V148H323.006V134.324H324.465V138.464C324.465 138.962 324.441 139.375 324.395 139.703H324.482C324.77 139.24 325.177 138.877 325.704 138.613C326.237 138.344 326.844 138.209 327.523 138.209C328.701 138.209 329.583 138.49 330.169 139.053C330.761 139.609 331.057 140.497 331.057 141.716V148H329.598ZM338.132 148.176C336.708 148.176 335.583 147.742 334.757 146.875C333.937 146.008 333.526 144.804 333.526 143.263C333.526 141.71 333.907 140.477 334.669 139.562C335.437 138.648 336.465 138.191 337.754 138.191C338.961 138.191 339.916 138.59 340.619 139.387C341.322 140.178 341.674 141.224 341.674 142.524V143.447H335.038C335.067 144.578 335.352 145.437 335.891 146.022C336.436 146.608 337.2 146.901 338.185 146.901C339.222 146.901 340.247 146.685 341.261 146.251V147.552C340.745 147.774 340.256 147.933 339.793 148.026C339.336 148.126 338.782 148.176 338.132 148.176ZM337.736 139.413C336.963 139.413 336.345 139.665 335.882 140.169C335.425 140.673 335.155 141.37 335.073 142.261H340.109C340.109 141.341 339.904 140.638 339.494 140.151C339.084 139.659 338.498 139.413 337.736 139.413ZM74.0293 163.209C75.2949 163.209 76.2764 163.643 76.9736 164.51C77.6768 165.371 78.0283 166.593 78.0283 168.175C78.0283 169.757 77.6738 170.987 76.9648 171.866C76.2617 172.739 75.2832 173.176 74.0293 173.176C73.4023 173.176 72.8281 173.062 72.3066 172.833C71.791 172.599 71.3574 172.241 71.0059 171.761H70.9004L70.5928 173H69.5469V159.324H71.0059V162.646C71.0059 163.391 70.9824 164.059 70.9355 164.65H71.0059C71.6855 163.689 72.6934 163.209 74.0293 163.209ZM73.8184 164.431C72.8223 164.431 72.1045 164.718 71.665 165.292C71.2256 165.86 71.0059 166.821 71.0059 168.175C71.0059 169.528 71.2314 170.498 71.6826 171.084C72.1338 171.664 72.8574 171.954 73.8535 171.954C74.75 171.954 75.418 171.629 75.8574 170.979C76.2969 170.322 76.5166 169.382 76.5166 168.157C76.5166 166.903 76.2969 165.969 75.8574 165.354C75.418 164.738 74.7383 164.431 73.8184 164.431ZM84.6553 173.176C83.2314 173.176 82.1064 172.742 81.2803 171.875C80.46 171.008 80.0498 169.804 80.0498 168.263C80.0498 166.71 80.4307 165.477 81.1924 164.562C81.96 163.648 82.9883 163.191 84.2773 163.191C85.4844 163.191 86.4395 163.59 87.1426 164.387C87.8457 165.178 88.1973 166.224 88.1973 167.524V168.447H81.5615C81.5908 169.578 81.875 170.437 82.4141 171.022C82.959 171.608 83.7236 171.901 84.708 171.901C85.7451 171.901 86.7705 171.685 87.7842 171.251V172.552C87.2686 172.774 86.7793 172.933 86.3164 173.026C85.8594 173.126 85.3057 173.176 84.6553 173.176ZM84.2598 164.413C83.4863 164.413 82.8682 164.665 82.4053 165.169C81.9482 165.673 81.6787 166.37 81.5967 167.261H86.6328C86.6328 166.341 86.4277 165.638 86.0176 165.151C85.6074 164.659 85.0215 164.413 84.2598 164.413ZM97.2852 173V166.769C97.2852 165.983 97.1064 165.397 96.749 165.011C96.3916 164.624 95.832 164.431 95.0703 164.431C94.0566 164.431 93.3154 164.706 92.8467 165.257C92.3838 165.808 92.1523 166.71 92.1523 167.964V173H90.6934V159.324H92.1523V163.464C92.1523 163.962 92.1289 164.375 92.082 164.703H92.1699C92.457 164.24 92.8643 163.877 93.3916 163.613C93.9248 163.344 94.5312 163.209 95.2109 163.209C96.3887 163.209 97.2705 163.49 97.8564 164.053C98.4482 164.609 98.7441 165.497 98.7441 166.716V173H97.2852ZM107.674 173L107.384 171.629H107.313C106.833 172.232 106.353 172.643 105.872 172.859C105.397 173.07 104.803 173.176 104.088 173.176C103.133 173.176 102.383 172.93 101.838 172.438C101.299 171.945 101.029 171.245 101.029 170.337C101.029 168.392 102.585 167.372 105.696 167.278L107.331 167.226V166.628C107.331 165.872 107.167 165.315 106.839 164.958C106.517 164.595 105.998 164.413 105.283 164.413C104.48 164.413 103.572 164.659 102.559 165.151L102.11 164.035C102.585 163.777 103.104 163.575 103.666 163.429C104.234 163.282 104.803 163.209 105.371 163.209C106.52 163.209 107.369 163.464 107.92 163.974C108.477 164.483 108.755 165.301 108.755 166.426V173H107.674ZM104.378 171.972C105.286 171.972 105.998 171.723 106.514 171.225C107.035 170.727 107.296 170.029 107.296 169.133V168.263L105.837 168.324C104.677 168.365 103.839 168.547 103.323 168.869C102.813 169.186 102.559 169.681 102.559 170.354C102.559 170.882 102.717 171.283 103.033 171.559C103.355 171.834 103.804 171.972 104.378 171.972ZM113.879 173L110.223 163.367H111.787L113.861 169.08C114.33 170.416 114.605 171.283 114.688 171.682H114.758C114.822 171.371 115.024 170.729 115.364 169.757C115.71 168.778 116.48 166.648 117.676 163.367H119.24L115.584 173H113.879ZM122.246 173H120.787V163.367H122.246V173ZM120.664 160.757C120.664 160.423 120.746 160.18 120.91 160.027C121.074 159.869 121.279 159.79 121.525 159.79C121.76 159.79 121.962 159.869 122.132 160.027C122.302 160.186 122.387 160.429 122.387 160.757C122.387 161.085 122.302 161.331 122.132 161.495C121.962 161.653 121.76 161.732 121.525 161.732C121.279 161.732 121.074 161.653 120.91 161.495C120.746 161.331 120.664 161.085 120.664 160.757ZM133.654 168.175C133.654 169.745 133.259 170.973 132.468 171.857C131.677 172.736 130.584 173.176 129.189 173.176C128.328 173.176 127.563 172.974 126.896 172.569C126.228 172.165 125.712 171.585 125.349 170.829C124.985 170.073 124.804 169.188 124.804 168.175C124.804 166.604 125.196 165.383 125.981 164.51C126.767 163.631 127.856 163.191 129.251 163.191C130.599 163.191 131.668 163.64 132.459 164.536C133.256 165.433 133.654 166.646 133.654 168.175ZM126.315 168.175C126.315 169.405 126.562 170.343 127.054 170.987C127.546 171.632 128.27 171.954 129.225 171.954C130.18 171.954 130.903 171.635 131.396 170.996C131.894 170.352 132.143 169.411 132.143 168.175C132.143 166.95 131.894 166.021 131.396 165.389C130.903 164.75 130.174 164.431 129.207 164.431C128.252 164.431 127.531 164.744 127.045 165.371C126.559 165.998 126.315 166.933 126.315 168.175ZM140.615 163.191C141.043 163.191 141.427 163.227 141.767 163.297L141.564 164.65C141.166 164.562 140.814 164.519 140.51 164.519C139.73 164.519 139.062 164.835 138.506 165.468C137.955 166.101 137.68 166.889 137.68 167.832V173H136.221V163.367H137.425L137.592 165.151H137.662C138.02 164.524 138.45 164.041 138.954 163.701C139.458 163.361 140.012 163.191 140.615 163.191ZM156.559 168.175C156.559 169.745 156.163 170.973 155.372 171.857C154.581 172.736 153.488 173.176 152.094 173.176C151.232 173.176 150.468 172.974 149.8 172.569C149.132 172.165 148.616 171.585 148.253 170.829C147.89 170.073 147.708 169.188 147.708 168.175C147.708 166.604 148.101 165.383 148.886 164.51C149.671 163.631 150.761 163.191 152.155 163.191C153.503 163.191 154.572 163.64 155.363 164.536C156.16 165.433 156.559 166.646 156.559 168.175ZM149.22 168.175C149.22 169.405 149.466 170.343 149.958 170.987C150.45 171.632 151.174 171.954 152.129 171.954C153.084 171.954 153.808 171.635 154.3 170.996C154.798 170.352 155.047 169.411 155.047 168.175C155.047 166.95 154.798 166.021 154.3 165.389C153.808 164.75 153.078 164.431 152.111 164.431C151.156 164.431 150.436 164.744 149.949 165.371C149.463 165.998 149.22 166.933 149.22 168.175ZM163.467 164.501H161.015V173H159.556V164.501H157.833V163.842L159.556 163.314V162.778C159.556 160.411 160.59 159.228 162.658 159.228C163.168 159.228 163.766 159.33 164.451 159.535L164.073 160.704C163.511 160.522 163.03 160.432 162.632 160.432C162.081 160.432 161.674 160.616 161.41 160.985C161.146 161.349 161.015 161.935 161.015 162.743V163.367H163.467V164.501ZM178.215 168.175C178.215 169.745 177.819 170.973 177.028 171.857C176.237 172.736 175.145 173.176 173.75 173.176C172.889 173.176 172.124 172.974 171.456 172.569C170.788 172.165 170.272 171.585 169.909 170.829C169.546 170.073 169.364 169.188 169.364 168.175C169.364 166.604 169.757 165.383 170.542 164.51C171.327 163.631 172.417 163.191 173.812 163.191C175.159 163.191 176.229 163.64 177.02 164.536C177.816 165.433 178.215 166.646 178.215 168.175ZM170.876 168.175C170.876 169.405 171.122 170.343 171.614 170.987C172.106 171.632 172.83 171.954 173.785 171.954C174.74 171.954 175.464 171.635 175.956 170.996C176.454 170.352 176.703 169.411 176.703 168.175C176.703 166.95 176.454 166.021 175.956 165.389C175.464 164.75 174.734 164.431 173.768 164.431C172.812 164.431 172.092 164.744 171.605 165.371C171.119 165.998 170.876 166.933 170.876 168.175ZM183.893 171.972C184.15 171.972 184.399 171.954 184.64 171.919C184.88 171.878 185.07 171.837 185.211 171.796V172.912C185.053 172.988 184.818 173.05 184.508 173.097C184.203 173.149 183.928 173.176 183.682 173.176C181.818 173.176 180.887 172.194 180.887 170.231V164.501H179.507V163.798L180.887 163.191L181.502 161.135H182.346V163.367H185.141V164.501H182.346V170.17C182.346 170.75 182.483 171.195 182.759 171.506C183.034 171.816 183.412 171.972 183.893 171.972ZM193.736 173V166.769C193.736 165.983 193.558 165.397 193.2 165.011C192.843 164.624 192.283 164.431 191.521 164.431C190.508 164.431 189.767 164.706 189.298 165.257C188.835 165.808 188.604 166.71 188.604 167.964V173H187.145V159.324H188.604V163.464C188.604 163.962 188.58 164.375 188.533 164.703H188.621C188.908 164.24 189.315 163.877 189.843 163.613C190.376 163.344 190.982 163.209 191.662 163.209C192.84 163.209 193.722 163.49 194.308 164.053C194.899 164.609 195.195 165.497 195.195 166.716V173H193.736ZM202.271 173.176C200.847 173.176 199.722 172.742 198.896 171.875C198.075 171.008 197.665 169.804 197.665 168.263C197.665 166.71 198.046 165.477 198.808 164.562C199.575 163.648 200.604 163.191 201.893 163.191C203.1 163.191 204.055 163.59 204.758 164.387C205.461 165.178 205.812 166.224 205.812 167.524V168.447H199.177C199.206 169.578 199.49 170.437 200.029 171.022C200.574 171.608 201.339 171.901 202.323 171.901C203.36 171.901 204.386 171.685 205.399 171.251V172.552C204.884 172.774 204.395 172.933 203.932 173.026C203.475 173.126 202.921 173.176 202.271 173.176ZM201.875 164.413C201.102 164.413 200.483 164.665 200.021 165.169C199.563 165.673 199.294 166.37 199.212 167.261H204.248C204.248 166.341 204.043 165.638 203.633 165.151C203.223 164.659 202.637 164.413 201.875 164.413ZM212.703 163.191C213.131 163.191 213.515 163.227 213.854 163.297L213.652 164.65C213.254 164.562 212.902 164.519 212.598 164.519C211.818 164.519 211.15 164.835 210.594 165.468C210.043 166.101 209.768 166.889 209.768 167.832V173H208.309V163.367H209.513L209.68 165.151H209.75C210.107 164.524 210.538 164.041 211.042 163.701C211.546 163.361 212.1 163.191 212.703 163.191ZM221.87 170.372C221.87 171.269 221.536 171.96 220.868 172.446C220.2 172.933 219.263 173.176 218.056 173.176C216.778 173.176 215.782 172.974 215.067 172.569V171.216C215.53 171.45 216.025 171.635 216.553 171.77C217.086 171.904 217.599 171.972 218.091 171.972C218.853 171.972 219.438 171.852 219.849 171.611C220.259 171.365 220.464 170.993 220.464 170.495C220.464 170.12 220.3 169.801 219.972 169.537C219.649 169.268 219.017 168.951 218.073 168.588C217.177 168.254 216.538 167.964 216.157 167.718C215.782 167.466 215.501 167.182 215.313 166.865C215.132 166.549 215.041 166.171 215.041 165.731C215.041 164.946 215.36 164.328 215.999 163.877C216.638 163.42 217.514 163.191 218.627 163.191C219.664 163.191 220.678 163.402 221.668 163.824L221.149 165.011C220.183 164.612 219.307 164.413 218.521 164.413C217.83 164.413 217.309 164.521 216.957 164.738C216.605 164.955 216.43 165.254 216.43 165.635C216.43 165.893 216.494 166.112 216.623 166.294C216.758 166.476 216.972 166.648 217.265 166.812C217.558 166.977 218.12 167.214 218.952 167.524C220.095 167.94 220.865 168.359 221.264 168.781C221.668 169.203 221.87 169.733 221.87 170.372ZM234.852 173L234.562 171.629H234.491C234.011 172.232 233.53 172.643 233.05 172.859C232.575 173.07 231.98 173.176 231.266 173.176C230.311 173.176 229.561 172.93 229.016 172.438C228.477 171.945 228.207 171.245 228.207 170.337C228.207 168.392 229.763 167.372 232.874 167.278L234.509 167.226V166.628C234.509 165.872 234.345 165.315 234.017 164.958C233.694 164.595 233.176 164.413 232.461 164.413C231.658 164.413 230.75 164.659 229.736 165.151L229.288 164.035C229.763 163.777 230.281 163.575 230.844 163.429C231.412 163.282 231.98 163.209 232.549 163.209C233.697 163.209 234.547 163.464 235.098 163.974C235.654 164.483 235.933 165.301 235.933 166.426V173H234.852ZM231.556 171.972C232.464 171.972 233.176 171.723 233.691 171.225C234.213 170.727 234.474 170.029 234.474 169.133V168.263L233.015 168.324C231.854 168.365 231.017 168.547 230.501 168.869C229.991 169.186 229.736 169.681 229.736 170.354C229.736 170.882 229.895 171.283 230.211 171.559C230.533 171.834 230.981 171.972 231.556 171.972ZM243.342 163.191C243.77 163.191 244.153 163.227 244.493 163.297L244.291 164.65C243.893 164.562 243.541 164.519 243.236 164.519C242.457 164.519 241.789 164.835 241.232 165.468C240.682 166.101 240.406 166.889 240.406 167.832V173H238.947V163.367H240.151L240.318 165.151H240.389C240.746 164.524 241.177 164.041 241.681 163.701C242.185 163.361 242.738 163.191 243.342 163.191ZM254.609 168.175C254.609 169.745 254.214 170.973 253.423 171.857C252.632 172.736 251.539 173.176 250.145 173.176C249.283 173.176 248.519 172.974 247.851 172.569C247.183 172.165 246.667 171.585 246.304 170.829C245.94 170.073 245.759 169.188 245.759 168.175C245.759 166.604 246.151 165.383 246.937 164.51C247.722 163.631 248.812 163.191 250.206 163.191C251.554 163.191 252.623 163.64 253.414 164.536C254.211 165.433 254.609 166.646 254.609 168.175ZM247.271 168.175C247.271 169.405 247.517 170.343 248.009 170.987C248.501 171.632 249.225 171.954 250.18 171.954C251.135 171.954 251.858 171.635 252.351 170.996C252.849 170.352 253.098 169.411 253.098 168.175C253.098 166.95 252.849 166.021 252.351 165.389C251.858 164.75 251.129 164.431 250.162 164.431C249.207 164.431 248.486 164.744 248 165.371C247.514 165.998 247.271 166.933 247.271 168.175ZM258.547 163.367V169.616C258.547 170.401 258.726 170.987 259.083 171.374C259.44 171.761 260 171.954 260.762 171.954C261.77 171.954 262.505 171.679 262.968 171.128C263.437 170.577 263.671 169.678 263.671 168.43V163.367H265.13V173H263.926L263.715 171.708H263.636C263.337 172.183 262.921 172.546 262.388 172.798C261.86 173.05 261.257 173.176 260.577 173.176C259.405 173.176 258.526 172.897 257.94 172.341C257.36 171.784 257.07 170.894 257.07 169.669V163.367H258.547ZM274.824 173V166.769C274.824 165.983 274.646 165.397 274.288 165.011C273.931 164.624 273.371 164.431 272.609 164.431C271.602 164.431 270.863 164.703 270.395 165.248C269.926 165.793 269.691 166.692 269.691 167.946V173H268.232V163.367H269.419L269.656 164.686H269.727C270.025 164.211 270.444 163.845 270.983 163.587C271.522 163.323 272.123 163.191 272.785 163.191C273.945 163.191 274.818 163.473 275.404 164.035C275.99 164.592 276.283 165.485 276.283 166.716V173H274.824ZM285.846 171.708H285.767C285.093 172.687 284.085 173.176 282.743 173.176C281.483 173.176 280.502 172.745 279.799 171.884C279.102 171.022 278.753 169.798 278.753 168.21C278.753 166.622 279.104 165.389 279.808 164.51C280.511 163.631 281.489 163.191 282.743 163.191C284.05 163.191 285.052 163.666 285.749 164.615H285.863L285.802 163.921L285.767 163.244V159.324H287.226V173H286.039L285.846 171.708ZM282.928 171.954C283.924 171.954 284.645 171.685 285.09 171.146C285.541 170.601 285.767 169.725 285.767 168.518V168.21C285.767 166.845 285.538 165.872 285.081 165.292C284.63 164.706 283.906 164.413 282.91 164.413C282.055 164.413 281.398 164.747 280.941 165.415C280.49 166.077 280.265 167.015 280.265 168.228C280.265 169.458 280.49 170.387 280.941 171.014C281.393 171.641 282.055 171.954 282.928 171.954ZM296.375 163.367V169.616C296.375 170.401 296.554 170.987 296.911 171.374C297.269 171.761 297.828 171.954 298.59 171.954C299.598 171.954 300.333 171.679 300.796 171.128C301.265 170.577 301.499 169.678 301.499 168.43V163.367H302.958V173H301.754L301.543 171.708H301.464C301.165 172.183 300.749 172.546 300.216 172.798C299.688 173.05 299.085 173.176 298.405 173.176C297.233 173.176 296.354 172.897 295.769 172.341C295.188 171.784 294.898 170.894 294.898 169.669V163.367H296.375ZM312.274 170.372C312.274 171.269 311.94 171.96 311.272 172.446C310.604 172.933 309.667 173.176 308.46 173.176C307.183 173.176 306.187 172.974 305.472 172.569V171.216C305.935 171.45 306.43 171.635 306.957 171.77C307.49 171.904 308.003 171.972 308.495 171.972C309.257 171.972 309.843 171.852 310.253 171.611C310.663 171.365 310.868 170.993 310.868 170.495C310.868 170.12 310.704 169.801 310.376 169.537C310.054 169.268 309.421 168.951 308.478 168.588C307.581 168.254 306.942 167.964 306.562 167.718C306.187 167.466 305.905 167.182 305.718 166.865C305.536 166.549 305.445 166.171 305.445 165.731C305.445 164.946 305.765 164.328 306.403 163.877C307.042 163.42 307.918 163.191 309.031 163.191C310.068 163.191 311.082 163.402 312.072 163.824L311.554 165.011C310.587 164.612 309.711 164.413 308.926 164.413C308.234 164.413 307.713 164.521 307.361 164.738C307.01 164.955 306.834 165.254 306.834 165.635C306.834 165.893 306.898 166.112 307.027 166.294C307.162 166.476 307.376 166.648 307.669 166.812C307.962 166.977 308.524 167.214 309.356 167.524C310.499 167.94 311.27 168.359 311.668 168.781C312.072 169.203 312.274 169.733 312.274 170.372ZM314.445 172.068C314.445 171.676 314.533 171.38 314.709 171.181C314.891 170.976 315.148 170.873 315.482 170.873C315.822 170.873 316.086 170.976 316.273 171.181C316.467 171.38 316.563 171.676 316.563 172.068C316.563 172.449 316.467 172.742 316.273 172.947C316.08 173.152 315.816 173.255 315.482 173.255C315.184 173.255 314.935 173.164 314.735 172.982C314.542 172.795 314.445 172.49 314.445 172.068Z" fill="#1092A7"/>
</svg>
