<svg width="379" height="228" viewBox="0 0 379 228" fill="none" xmlns="http://www.w3.org/2000/svg">
<rect width="379" height="228" rx="6" fill="white"/>
<path d="M24.1226 39.4545C25.7218 39.4545 27.2851 39.9397 28.6148 40.8487C29.9445 41.7578 30.9808 43.0498 31.5928 44.5614C32.2048 46.0731 32.3649 47.7364 32.0529 49.3412C31.7409 50.946 30.9709 52.42 29.8401 53.577C28.7093 54.7339 27.2685 55.5218 25.7001 55.841C24.1316 56.1602 22.5058 55.9964 21.0284 55.3703C19.5509 54.7441 18.2881 53.6838 17.3996 52.3234C16.5112 50.9629 16.037 49.3635 16.037 47.7273L16 46.5455C16 42.1573 17.7038 37.9489 20.7365 34.8461C23.7692 31.7432 27.8824 30 32.1713 30V34.7273C30.6538 34.7231 29.1505 35.0268 27.7483 35.6207C26.3462 36.2147 25.073 37.0871 24.0025 38.1876C23.5864 38.6125 23.2026 39.0693 22.8543 39.5538C23.2679 39.4876 23.6906 39.4522 24.1203 39.4522L24.1226 39.4545ZM44.9143 39.4545C46.5135 39.4545 48.0768 39.9397 49.4065 40.8487C50.7362 41.7578 51.7725 43.0498 52.3845 44.5614C52.9965 46.0731 53.1566 47.7364 52.8446 49.3412C52.5326 50.946 51.7626 52.42 50.6318 53.577C49.501 54.7339 48.0602 55.5218 46.4918 55.841C44.9233 56.1602 43.2975 55.9964 41.8201 55.3703C40.3426 54.7441 39.0798 53.6838 38.1913 52.3234C37.3029 50.9629 36.8287 49.3635 36.8287 47.7273L36.7917 46.5455C36.7917 42.1573 38.4955 37.9489 41.5282 34.8461C44.5609 31.7432 48.6741 30 52.963 30V34.7273C51.4455 34.7231 49.9422 35.0268 48.54 35.6207C47.1379 36.2147 45.8647 37.0871 44.7942 38.1876C44.3781 38.6125 43.9943 39.0693 43.646 39.5538C44.0596 39.4876 44.4823 39.4522 44.9143 39.4522V39.4545Z" fill="#FBC352"/>
<path d="M80.9199 41.5576C80.9199 43.6143 80.3984 45.2314 79.3555 46.4092C78.3184 47.5869 76.874 48.1758 75.0225 48.1758C73.1299 48.1758 71.668 47.5986 70.6367 46.4443C69.6113 45.2842 69.0986 43.6494 69.0986 41.54C69.0986 39.4482 69.6143 37.8281 70.6455 36.6797C71.6768 35.5254 73.1416 34.9482 75.04 34.9482C76.8857 34.9482 78.3271 35.5342 79.3643 36.7061C80.4014 37.8779 80.9199 39.4951 80.9199 41.5576ZM70.6807 41.5576C70.6807 43.2979 71.0498 44.6191 71.7881 45.5215C72.5322 46.418 73.6104 46.8662 75.0225 46.8662C76.4463 46.8662 77.5215 46.418 78.248 45.5215C78.9746 44.625 79.3379 43.3037 79.3379 41.5576C79.3379 39.8291 78.9746 38.5195 78.248 37.6289C77.5273 36.7324 76.458 36.2842 75.04 36.2842C73.6162 36.2842 72.5322 36.7354 71.7881 37.6377C71.0498 38.5342 70.6807 39.8408 70.6807 41.5576ZM90.166 48V41.7686C90.166 40.9834 89.9873 40.3975 89.6299 40.0107C89.2725 39.624 88.7129 39.4307 87.9512 39.4307C86.9434 39.4307 86.2051 39.7031 85.7363 40.248C85.2676 40.793 85.0332 41.6924 85.0332 42.9463V48H83.5742V38.3672H84.7607L84.998 39.6855H85.0684C85.3672 39.2109 85.7861 38.8447 86.3252 38.5869C86.8643 38.3232 87.4648 38.1914 88.127 38.1914C89.2871 38.1914 90.1602 38.4727 90.7461 39.0352C91.332 39.5918 91.625 40.4854 91.625 41.7158V48H90.166ZM98.7002 48.1758C97.2764 48.1758 96.1514 47.7422 95.3252 46.875C94.5049 46.0078 94.0947 44.8037 94.0947 43.2627C94.0947 41.71 94.4756 40.4766 95.2373 39.5625C96.0049 38.6484 97.0332 38.1914 98.3223 38.1914C99.5293 38.1914 100.484 38.5898 101.188 39.3867C101.891 40.1777 102.242 41.2236 102.242 42.5244V43.4473H95.6064C95.6357 44.5781 95.9199 45.4365 96.459 46.0225C97.0039 46.6084 97.7686 46.9014 98.7529 46.9014C99.79 46.9014 100.815 46.6846 101.829 46.251V47.5518C101.313 47.7744 100.824 47.9326 100.361 48.0264C99.9043 48.126 99.3506 48.1758 98.7002 48.1758ZM98.3047 39.4131C97.5312 39.4131 96.9131 39.665 96.4502 40.1689C95.9932 40.6729 95.7236 41.3701 95.6416 42.2607H100.678C100.678 41.3408 100.473 40.6377 100.062 40.1514C99.6523 39.6592 99.0664 39.4131 98.3047 39.4131ZM113.483 48.1758C112.06 48.1758 110.935 47.7422 110.108 46.875C109.288 46.0078 108.878 44.8037 108.878 43.2627C108.878 41.71 109.259 40.4766 110.021 39.5625C110.788 38.6484 111.816 38.1914 113.105 38.1914C114.312 38.1914 115.268 38.5898 115.971 39.3867C116.674 40.1777 117.025 41.2236 117.025 42.5244V43.4473H110.39C110.419 44.5781 110.703 45.4365 111.242 46.0225C111.787 46.6084 112.552 46.9014 113.536 46.9014C114.573 46.9014 115.599 46.6846 116.612 46.251V47.5518C116.097 47.7744 115.607 47.9326 115.145 48.0264C114.688 48.126 114.134 48.1758 113.483 48.1758ZM113.088 39.4131C112.314 39.4131 111.696 39.665 111.233 40.1689C110.776 40.6729 110.507 41.3701 110.425 42.2607H115.461C115.461 41.3408 115.256 40.6377 114.846 40.1514C114.436 39.6592 113.85 39.4131 113.088 39.4131ZM122.633 46.9717C122.891 46.9717 123.14 46.9541 123.38 46.9189C123.62 46.8779 123.811 46.8369 123.951 46.7959V47.9121C123.793 47.9883 123.559 48.0498 123.248 48.0967C122.943 48.1494 122.668 48.1758 122.422 48.1758C120.559 48.1758 119.627 47.1943 119.627 45.2314V39.501H118.247V38.7979L119.627 38.1914L120.242 36.1348H121.086V38.3672H123.881V39.501H121.086V45.1699C121.086 45.75 121.224 46.1953 121.499 46.5059C121.774 46.8164 122.152 46.9717 122.633 46.9717ZM132.477 48V41.7686C132.477 40.9834 132.298 40.3975 131.94 40.0107C131.583 39.624 131.023 39.4307 130.262 39.4307C129.248 39.4307 128.507 39.7061 128.038 40.2568C127.575 40.8076 127.344 41.71 127.344 42.9639V48H125.885V34.3242H127.344V38.4639C127.344 38.9619 127.32 39.375 127.273 39.7031H127.361C127.648 39.2402 128.056 38.877 128.583 38.6133C129.116 38.3438 129.723 38.209 130.402 38.209C131.58 38.209 132.462 38.4902 133.048 39.0527C133.64 39.6094 133.936 40.4971 133.936 41.7158V48H132.477ZM145.256 43.1748C145.256 44.7451 144.86 45.9727 144.069 46.8574C143.278 47.7363 142.186 48.1758 140.791 48.1758C139.93 48.1758 139.165 47.9736 138.497 47.5693C137.829 47.165 137.313 46.585 136.95 45.8291C136.587 45.0732 136.405 44.1885 136.405 43.1748C136.405 41.6045 136.798 40.3828 137.583 39.5098C138.368 38.6309 139.458 38.1914 140.853 38.1914C142.2 38.1914 143.27 38.6396 144.061 39.5361C144.857 40.4326 145.256 41.6455 145.256 43.1748ZM137.917 43.1748C137.917 44.4053 138.163 45.3428 138.655 45.9873C139.147 46.6318 139.871 46.9541 140.826 46.9541C141.781 46.9541 142.505 46.6348 142.997 45.9961C143.495 45.3516 143.744 44.4111 143.744 43.1748C143.744 41.9502 143.495 41.0215 142.997 40.3887C142.505 39.75 141.775 39.4307 140.809 39.4307C139.854 39.4307 139.133 39.7441 138.646 40.3711C138.16 40.998 137.917 41.9326 137.917 43.1748ZM154.036 45.3721C154.036 46.2686 153.702 46.96 153.034 47.4463C152.366 47.9326 151.429 48.1758 150.222 48.1758C148.944 48.1758 147.948 47.9736 147.233 47.5693V46.2158C147.696 46.4502 148.191 46.6348 148.719 46.7695C149.252 46.9043 149.765 46.9717 150.257 46.9717C151.019 46.9717 151.604 46.8516 152.015 46.6113C152.425 46.3652 152.63 45.9932 152.63 45.4951C152.63 45.1201 152.466 44.8008 152.138 44.5371C151.815 44.2676 151.183 43.9512 150.239 43.5879C149.343 43.2539 148.704 42.9639 148.323 42.7178C147.948 42.4658 147.667 42.1816 147.479 41.8652C147.298 41.5488 147.207 41.1709 147.207 40.7314C147.207 39.9463 147.526 39.3281 148.165 38.877C148.804 38.4199 149.68 38.1914 150.793 38.1914C151.83 38.1914 152.844 38.4023 153.834 38.8242L153.315 40.0107C152.349 39.6123 151.473 39.4131 150.688 39.4131C149.996 39.4131 149.475 39.5215 149.123 39.7383C148.771 39.9551 148.596 40.2539 148.596 40.6348C148.596 40.8926 148.66 41.1123 148.789 41.2939C148.924 41.4756 149.138 41.6484 149.431 41.8125C149.724 41.9766 150.286 42.2139 151.118 42.5244C152.261 42.9404 153.031 43.3594 153.43 43.7812C153.834 44.2031 154.036 44.7334 154.036 45.3721ZM169.408 43.1748C169.408 44.7451 169.013 45.9727 168.222 46.8574C167.431 47.7363 166.338 48.1758 164.943 48.1758C164.082 48.1758 163.317 47.9736 162.649 47.5693C161.981 47.165 161.466 46.585 161.103 45.8291C160.739 45.0732 160.558 44.1885 160.558 43.1748C160.558 41.6045 160.95 40.3828 161.735 39.5098C162.521 38.6309 163.61 38.1914 165.005 38.1914C166.353 38.1914 167.422 38.6396 168.213 39.5361C169.01 40.4326 169.408 41.6455 169.408 43.1748ZM162.069 43.1748C162.069 44.4053 162.315 45.3428 162.808 45.9873C163.3 46.6318 164.023 46.9541 164.979 46.9541C165.934 46.9541 166.657 46.6348 167.149 45.9961C167.647 45.3516 167.896 44.4111 167.896 43.1748C167.896 41.9502 167.647 41.0215 167.149 40.3887C166.657 39.75 165.928 39.4307 164.961 39.4307C164.006 39.4307 163.285 39.7441 162.799 40.3711C162.312 40.998 162.069 41.9326 162.069 43.1748ZM176.316 39.501H173.864V48H172.405V39.501H170.683V38.8418L172.405 38.3145V37.7783C172.405 35.4111 173.439 34.2275 175.508 34.2275C176.018 34.2275 176.615 34.3301 177.301 34.5352L176.923 35.7041C176.36 35.5225 175.88 35.4316 175.481 35.4316C174.931 35.4316 174.523 35.6162 174.26 35.9854C173.996 36.3486 173.864 36.9346 173.864 37.7432V38.3672H176.316V39.501ZM185.861 46.9717C186.119 46.9717 186.368 46.9541 186.608 46.9189C186.849 46.8779 187.039 46.8369 187.18 46.7959V47.9121C187.021 47.9883 186.787 48.0498 186.477 48.0967C186.172 48.1494 185.896 48.1758 185.65 48.1758C183.787 48.1758 182.855 47.1943 182.855 45.2314V39.501H181.476V38.7979L182.855 38.1914L183.471 36.1348H184.314V38.3672H187.109V39.501H184.314V45.1699C184.314 45.75 184.452 46.1953 184.728 46.5059C185.003 46.8164 185.381 46.9717 185.861 46.9717ZM195.705 48V41.7686C195.705 40.9834 195.526 40.3975 195.169 40.0107C194.812 39.624 194.252 39.4307 193.49 39.4307C192.477 39.4307 191.735 39.7061 191.267 40.2568C190.804 40.8076 190.572 41.71 190.572 42.9639V48H189.113V34.3242H190.572V38.4639C190.572 38.9619 190.549 39.375 190.502 39.7031H190.59C190.877 39.2402 191.284 38.877 191.812 38.6133C192.345 38.3438 192.951 38.209 193.631 38.209C194.809 38.209 195.69 38.4902 196.276 39.0527C196.868 39.6094 197.164 40.4971 197.164 41.7158V48H195.705ZM204.239 48.1758C202.815 48.1758 201.69 47.7422 200.864 46.875C200.044 46.0078 199.634 44.8037 199.634 43.2627C199.634 41.71 200.015 40.4766 200.776 39.5625C201.544 38.6484 202.572 38.1914 203.861 38.1914C205.068 38.1914 206.023 38.5898 206.727 39.3867C207.43 40.1777 207.781 41.2236 207.781 42.5244V43.4473H201.146C201.175 44.5781 201.459 45.4365 201.998 46.0225C202.543 46.6084 203.308 46.9014 204.292 46.9014C205.329 46.9014 206.354 46.6846 207.368 46.251V47.5518C206.853 47.7744 206.363 47.9326 205.9 48.0264C205.443 48.126 204.89 48.1758 204.239 48.1758ZM203.844 39.4131C203.07 39.4131 202.452 39.665 201.989 40.1689C201.532 40.6729 201.263 41.3701 201.181 42.2607H206.217C206.217 41.3408 206.012 40.6377 205.602 40.1514C205.191 39.6592 204.605 39.4131 203.844 39.4131ZM220.877 48L220.587 46.6289H220.517C220.036 47.2324 219.556 47.6426 219.075 47.8594C218.601 48.0703 218.006 48.1758 217.291 48.1758C216.336 48.1758 215.586 47.9297 215.041 47.4375C214.502 46.9453 214.232 46.2451 214.232 45.3369C214.232 43.3916 215.788 42.3721 218.899 42.2783L220.534 42.2256V41.6279C220.534 40.8721 220.37 40.3154 220.042 39.958C219.72 39.5947 219.201 39.4131 218.486 39.4131C217.684 39.4131 216.775 39.6592 215.762 40.1514L215.313 39.0352C215.788 38.7773 216.307 38.5752 216.869 38.4287C217.438 38.2822 218.006 38.209 218.574 38.209C219.723 38.209 220.572 38.4639 221.123 38.9736C221.68 39.4834 221.958 40.3008 221.958 41.4258V48H220.877ZM217.581 46.9717C218.489 46.9717 219.201 46.7227 219.717 46.2246C220.238 45.7266 220.499 45.0293 220.499 44.1328V43.2627L219.04 43.3242C217.88 43.3652 217.042 43.5469 216.526 43.8691C216.017 44.1855 215.762 44.6807 215.762 45.3545C215.762 45.8818 215.92 46.2832 216.236 46.5586C216.559 46.834 217.007 46.9717 217.581 46.9717ZM229.455 48.1758C228.828 48.1758 228.254 48.0615 227.732 47.833C227.217 47.5986 226.783 47.2412 226.432 46.7607H226.326C226.396 47.3232 226.432 47.8564 226.432 48.3604V52.3242H224.973V38.3672H226.159L226.361 39.6855H226.432C226.807 39.1582 227.243 38.7773 227.741 38.543C228.239 38.3086 228.811 38.1914 229.455 38.1914C230.732 38.1914 231.717 38.6279 232.408 39.501C233.105 40.374 233.454 41.5986 233.454 43.1748C233.454 44.7568 233.1 45.9873 232.391 46.8662C231.688 47.7393 230.709 48.1758 229.455 48.1758ZM229.244 39.4307C228.26 39.4307 227.548 39.7031 227.108 40.248C226.669 40.793 226.443 41.6602 226.432 42.8496V43.1748C226.432 44.5283 226.657 45.498 227.108 46.084C227.56 46.6641 228.283 46.9541 229.279 46.9541C230.111 46.9541 230.762 46.6172 231.23 45.9434C231.705 45.2695 231.942 44.3408 231.942 43.1572C231.942 41.9561 231.705 41.0361 231.23 40.3975C230.762 39.7529 230.1 39.4307 229.244 39.4307ZM240.494 48.1758C239.867 48.1758 239.293 48.0615 238.771 47.833C238.256 47.5986 237.822 47.2412 237.471 46.7607H237.365C237.436 47.3232 237.471 47.8564 237.471 48.3604V52.3242H236.012V38.3672H237.198L237.4 39.6855H237.471C237.846 39.1582 238.282 38.7773 238.78 38.543C239.278 38.3086 239.85 38.1914 240.494 38.1914C241.771 38.1914 242.756 38.6279 243.447 39.501C244.145 40.374 244.493 41.5986 244.493 43.1748C244.493 44.7568 244.139 45.9873 243.43 46.8662C242.727 47.7393 241.748 48.1758 240.494 48.1758ZM240.283 39.4307C239.299 39.4307 238.587 39.7031 238.147 40.248C237.708 40.793 237.482 41.6602 237.471 42.8496V43.1748C237.471 44.5283 237.696 45.498 238.147 46.084C238.599 46.6641 239.322 46.9541 240.318 46.9541C241.15 46.9541 241.801 46.6172 242.27 45.9434C242.744 45.2695 242.981 44.3408 242.981 43.1572C242.981 41.9561 242.744 41.0361 242.27 40.3975C241.801 39.7529 241.139 39.4307 240.283 39.4307ZM257.94 45.3721C257.94 46.2686 257.606 46.96 256.938 47.4463C256.271 47.9326 255.333 48.1758 254.126 48.1758C252.849 48.1758 251.853 47.9736 251.138 47.5693V46.2158C251.601 46.4502 252.096 46.6348 252.623 46.7695C253.156 46.9043 253.669 46.9717 254.161 46.9717C254.923 46.9717 255.509 46.8516 255.919 46.6113C256.329 46.3652 256.534 45.9932 256.534 45.4951C256.534 45.1201 256.37 44.8008 256.042 44.5371C255.72 44.2676 255.087 43.9512 254.144 43.5879C253.247 43.2539 252.608 42.9639 252.228 42.7178C251.853 42.4658 251.571 42.1816 251.384 41.8652C251.202 41.5488 251.111 41.1709 251.111 40.7314C251.111 39.9463 251.431 39.3281 252.069 38.877C252.708 38.4199 253.584 38.1914 254.697 38.1914C255.734 38.1914 256.748 38.4023 257.738 38.8242L257.22 40.0107C256.253 39.6123 255.377 39.4131 254.592 39.4131C253.9 39.4131 253.379 39.5215 253.027 39.7383C252.676 39.9551 252.5 40.2539 252.5 40.6348C252.5 40.8926 252.564 41.1123 252.693 41.2939C252.828 41.4756 253.042 41.6484 253.335 41.8125C253.628 41.9766 254.19 42.2139 255.022 42.5244C256.165 42.9404 256.936 43.3594 257.334 43.7812C257.738 44.2031 257.94 44.7334 257.94 45.3721ZM266.914 48V41.7686C266.914 40.9834 266.735 40.3975 266.378 40.0107C266.021 39.624 265.461 39.4307 264.699 39.4307C263.686 39.4307 262.944 39.7061 262.476 40.2568C262.013 40.8076 261.781 41.71 261.781 42.9639V48H260.322V34.3242H261.781V38.4639C261.781 38.9619 261.758 39.375 261.711 39.7031H261.799C262.086 39.2402 262.493 38.877 263.021 38.6133C263.554 38.3438 264.16 38.209 264.84 38.209C266.018 38.209 266.899 38.4902 267.485 39.0527C268.077 39.6094 268.373 40.4971 268.373 41.7158V48H266.914ZM279.693 43.1748C279.693 44.7451 279.298 45.9727 278.507 46.8574C277.716 47.7363 276.623 48.1758 275.229 48.1758C274.367 48.1758 273.603 47.9736 272.935 47.5693C272.267 47.165 271.751 46.585 271.388 45.8291C271.024 45.0732 270.843 44.1885 270.843 43.1748C270.843 41.6045 271.235 40.3828 272.021 39.5098C272.806 38.6309 273.896 38.1914 275.29 38.1914C276.638 38.1914 277.707 38.6396 278.498 39.5361C279.295 40.4326 279.693 41.6455 279.693 43.1748ZM272.354 43.1748C272.354 44.4053 272.601 45.3428 273.093 45.9873C273.585 46.6318 274.309 46.9541 275.264 46.9541C276.219 46.9541 276.942 46.6348 277.435 45.9961C277.933 45.3516 278.182 44.4111 278.182 43.1748C278.182 41.9502 277.933 41.0215 277.435 40.3887C276.942 39.75 276.213 39.4307 275.246 39.4307C274.291 39.4307 273.57 39.7441 273.084 40.3711C272.598 40.998 272.354 41.9326 272.354 43.1748ZM283.631 38.3672V44.6162C283.631 45.4014 283.81 45.9873 284.167 46.374C284.524 46.7607 285.084 46.9541 285.846 46.9541C286.854 46.9541 287.589 46.6787 288.052 46.1279C288.521 45.5771 288.755 44.6777 288.755 43.4297V38.3672H290.214V48H289.01L288.799 46.708H288.72C288.421 47.1826 288.005 47.5459 287.472 47.7979C286.944 48.0498 286.341 48.1758 285.661 48.1758C284.489 48.1758 283.61 47.8975 283.024 47.3408C282.444 46.7842 282.154 45.8936 282.154 44.6689V38.3672H283.631ZM294.775 48H293.316V34.3242H294.775V48ZM304.426 46.708H304.347C303.673 47.6865 302.665 48.1758 301.323 48.1758C300.063 48.1758 299.082 47.7451 298.379 46.8838C297.682 46.0225 297.333 44.7979 297.333 43.21C297.333 41.6221 297.685 40.3887 298.388 39.5098C299.091 38.6309 300.069 38.1914 301.323 38.1914C302.63 38.1914 303.632 38.666 304.329 39.6152H304.443L304.382 38.9209L304.347 38.2441V34.3242H305.806V48H304.619L304.426 46.708ZM301.508 46.9541C302.504 46.9541 303.225 46.6846 303.67 46.1455C304.121 45.6006 304.347 44.7246 304.347 43.5176V43.21C304.347 41.8447 304.118 40.8721 303.661 40.292C303.21 39.7061 302.486 39.4131 301.49 39.4131C300.635 39.4131 299.979 39.7471 299.521 40.415C299.07 41.0771 298.845 42.0146 298.845 43.2275C298.845 44.458 299.07 45.3867 299.521 46.0137C299.973 46.6406 300.635 46.9541 301.508 46.9541ZM318.066 38.209C319.332 38.209 320.313 38.6426 321.011 39.5098C321.714 40.3711 322.065 41.5928 322.065 43.1748C322.065 44.7568 321.711 45.9873 321.002 46.8662C320.299 47.7393 319.32 48.1758 318.066 48.1758C317.439 48.1758 316.865 48.0615 316.344 47.833C315.828 47.5986 315.395 47.2412 315.043 46.7607H314.938L314.63 48H313.584V34.3242H315.043V37.6465C315.043 38.3906 315.02 39.0586 314.973 39.6504H315.043C315.723 38.6895 316.73 38.209 318.066 38.209ZM317.855 39.4307C316.859 39.4307 316.142 39.7178 315.702 40.292C315.263 40.8604 315.043 41.8213 315.043 43.1748C315.043 44.5283 315.269 45.498 315.72 46.084C316.171 46.6641 316.895 46.9541 317.891 46.9541C318.787 46.9541 319.455 46.6289 319.895 45.9785C320.334 45.3223 320.554 44.3818 320.554 43.1572C320.554 41.9033 320.334 40.9688 319.895 40.3535C319.455 39.7383 318.775 39.4307 317.855 39.4307ZM328.692 48.1758C327.269 48.1758 326.144 47.7422 325.317 46.875C324.497 46.0078 324.087 44.8037 324.087 43.2627C324.087 41.71 324.468 40.4766 325.229 39.5625C325.997 38.6484 327.025 38.1914 328.314 38.1914C329.521 38.1914 330.477 38.5898 331.18 39.3867C331.883 40.1777 332.234 41.2236 332.234 42.5244V43.4473H325.599C325.628 44.5781 325.912 45.4365 326.451 46.0225C326.996 46.6084 327.761 46.9014 328.745 46.9014C329.782 46.9014 330.808 46.6846 331.821 46.251V47.5518C331.306 47.7744 330.816 47.9326 330.354 48.0264C329.896 48.126 329.343 48.1758 328.692 48.1758ZM328.297 39.4131C327.523 39.4131 326.905 39.665 326.442 40.1689C325.985 40.6729 325.716 41.3701 325.634 42.2607H330.67C330.67 41.3408 330.465 40.6377 330.055 40.1514C329.645 39.6592 329.059 39.4131 328.297 39.4131ZM71.0059 73H69.5469V63.3672H71.0059V73ZM69.4238 60.7568C69.4238 60.4229 69.5059 60.1797 69.6699 60.0273C69.834 59.8691 70.0391 59.79 70.2852 59.79C70.5195 59.79 70.7217 59.8691 70.8916 60.0273C71.0615 60.1855 71.1465 60.4287 71.1465 60.7568C71.1465 61.085 71.0615 61.3311 70.8916 61.4951C70.7217 61.6533 70.5195 61.7324 70.2852 61.7324C70.0391 61.7324 69.834 61.6533 69.6699 61.4951C69.5059 61.3311 69.4238 61.085 69.4238 60.7568ZM77.2109 71.9717C77.4688 71.9717 77.7178 71.9541 77.958 71.9189C78.1982 71.8779 78.3887 71.8369 78.5293 71.7959V72.9121C78.3711 72.9883 78.1367 73.0498 77.8262 73.0967C77.5215 73.1494 77.2461 73.1758 77 73.1758C75.1367 73.1758 74.2051 72.1943 74.2051 70.2314V64.501H72.8252V63.7979L74.2051 63.1914L74.8203 61.1348H75.6641V63.3672H78.459V64.501H75.6641V70.1699C75.6641 70.75 75.8018 71.1953 76.0771 71.5059C76.3525 71.8164 76.7305 71.9717 77.2109 71.9717ZM86.6768 70.3721C86.6768 71.2686 86.3428 71.96 85.6748 72.4463C85.0068 72.9326 84.0693 73.1758 82.8623 73.1758C81.585 73.1758 80.5889 72.9736 79.874 72.5693V71.2158C80.3369 71.4502 80.832 71.6348 81.3594 71.7695C81.8926 71.9043 82.4053 71.9717 82.8975 71.9717C83.6592 71.9717 84.2451 71.8516 84.6553 71.6113C85.0654 71.3652 85.2705 70.9932 85.2705 70.4951C85.2705 70.1201 85.1064 69.8008 84.7783 69.5371C84.4561 69.2676 83.8232 68.9512 82.8799 68.5879C81.9834 68.2539 81.3447 67.9639 80.9639 67.7178C80.5889 67.4658 80.3076 67.1816 80.1201 66.8652C79.9385 66.5488 79.8477 66.1709 79.8477 65.7314C79.8477 64.9463 80.167 64.3281 80.8057 63.877C81.4443 63.4199 82.3203 63.1914 83.4336 63.1914C84.4707 63.1914 85.4844 63.4023 86.4746 63.8242L85.9561 65.0107C84.9893 64.6123 84.1133 64.4131 83.3281 64.4131C82.6367 64.4131 82.1152 64.5215 81.7637 64.7383C81.4121 64.9551 81.2363 65.2539 81.2363 65.6348C81.2363 65.8926 81.3008 66.1123 81.4297 66.2939C81.5645 66.4756 81.7783 66.6484 82.0713 66.8125C82.3643 66.9766 82.9268 67.2139 83.7588 67.5244C84.9014 67.9404 85.6719 68.3594 86.0703 68.7812C86.4746 69.2031 86.6768 69.7334 86.6768 70.3721ZM97.8037 73.1758C96.3799 73.1758 95.2549 72.7422 94.4287 71.875C93.6084 71.0078 93.1982 69.8037 93.1982 68.2627C93.1982 66.71 93.5791 65.4766 94.3408 64.5625C95.1084 63.6484 96.1367 63.1914 97.4258 63.1914C98.6328 63.1914 99.5879 63.5898 100.291 64.3867C100.994 65.1777 101.346 66.2236 101.346 67.5244V68.4473H94.71C94.7393 69.5781 95.0234 70.4365 95.5625 71.0225C96.1074 71.6084 96.8721 71.9014 97.8564 71.9014C98.8936 71.9014 99.9189 71.6846 100.933 71.251V72.5518C100.417 72.7744 99.9277 72.9326 99.4648 73.0264C99.0078 73.126 98.4541 73.1758 97.8037 73.1758ZM97.4082 64.4131C96.6348 64.4131 96.0166 64.665 95.5537 65.1689C95.0967 65.6729 94.8271 66.3701 94.7451 67.2607H99.7812C99.7812 66.3408 99.5762 65.6377 99.166 65.1514C98.7559 64.6592 98.1699 64.4131 97.4082 64.4131ZM109.766 73L109.476 71.6289H109.405C108.925 72.2324 108.444 72.6426 107.964 72.8594C107.489 73.0703 106.895 73.1758 106.18 73.1758C105.225 73.1758 104.475 72.9297 103.93 72.4375C103.391 71.9453 103.121 71.2451 103.121 70.3369C103.121 68.3916 104.677 67.3721 107.788 67.2783L109.423 67.2256V66.6279C109.423 65.8721 109.259 65.3154 108.931 64.958C108.608 64.5947 108.09 64.4131 107.375 64.4131C106.572 64.4131 105.664 64.6592 104.65 65.1514L104.202 64.0352C104.677 63.7773 105.195 63.5752 105.758 63.4287C106.326 63.2822 106.895 63.209 107.463 63.209C108.611 63.209 109.461 63.4639 110.012 63.9736C110.568 64.4834 110.847 65.3008 110.847 66.4258V73H109.766ZM106.47 71.9717C107.378 71.9717 108.09 71.7227 108.605 71.2246C109.127 70.7266 109.388 70.0293 109.388 69.1328V68.2627L107.929 68.3242C106.769 68.3652 105.931 68.5469 105.415 68.8691C104.905 69.1855 104.65 69.6807 104.65 70.3545C104.65 70.8818 104.809 71.2832 105.125 71.5586C105.447 71.834 105.896 71.9717 106.47 71.9717ZM120.075 70.3721C120.075 71.2686 119.741 71.96 119.073 72.4463C118.405 72.9326 117.468 73.1758 116.261 73.1758C114.983 73.1758 113.987 72.9736 113.272 72.5693V71.2158C113.735 71.4502 114.23 71.6348 114.758 71.7695C115.291 71.9043 115.804 71.9717 116.296 71.9717C117.058 71.9717 117.644 71.8516 118.054 71.6113C118.464 71.3652 118.669 70.9932 118.669 70.4951C118.669 70.1201 118.505 69.8008 118.177 69.5371C117.854 69.2676 117.222 68.9512 116.278 68.5879C115.382 68.2539 114.743 67.9639 114.362 67.7178C113.987 67.4658 113.706 67.1816 113.519 66.8652C113.337 66.5488 113.246 66.1709 113.246 65.7314C113.246 64.9463 113.565 64.3281 114.204 63.877C114.843 63.4199 115.719 63.1914 116.832 63.1914C117.869 63.1914 118.883 63.4023 119.873 63.8242L119.354 65.0107C118.388 64.6123 117.512 64.4131 116.727 64.4131C116.035 64.4131 115.514 64.5215 115.162 64.7383C114.811 64.9551 114.635 65.2539 114.635 65.6348C114.635 65.8926 114.699 66.1123 114.828 66.2939C114.963 66.4756 115.177 66.6484 115.47 66.8125C115.763 66.9766 116.325 67.2139 117.157 67.5244C118.3 67.9404 119.07 68.3594 119.469 68.7812C119.873 69.2031 120.075 69.7334 120.075 70.3721ZM126.526 73.1758C125.103 73.1758 123.978 72.7422 123.151 71.875C122.331 71.0078 121.921 69.8037 121.921 68.2627C121.921 66.71 122.302 65.4766 123.063 64.5625C123.831 63.6484 124.859 63.1914 126.148 63.1914C127.355 63.1914 128.311 63.5898 129.014 64.3867C129.717 65.1777 130.068 66.2236 130.068 67.5244V68.4473H123.433C123.462 69.5781 123.746 70.4365 124.285 71.0225C124.83 71.6084 125.595 71.9014 126.579 71.9014C127.616 71.9014 128.642 71.6846 129.655 71.251V72.5518C129.14 72.7744 128.65 72.9326 128.188 73.0264C127.73 73.126 127.177 73.1758 126.526 73.1758ZM126.131 64.4131C125.357 64.4131 124.739 64.665 124.276 65.1689C123.819 65.6729 123.55 66.3701 123.468 67.2607H128.504C128.504 66.3408 128.299 65.6377 127.889 65.1514C127.479 64.6592 126.893 64.4131 126.131 64.4131ZM145.555 68.1748C145.555 69.7451 145.159 70.9727 144.368 71.8574C143.577 72.7363 142.484 73.1758 141.09 73.1758C140.229 73.1758 139.464 72.9736 138.796 72.5693C138.128 72.165 137.612 71.585 137.249 70.8291C136.886 70.0732 136.704 69.1885 136.704 68.1748C136.704 66.6045 137.097 65.3828 137.882 64.5098C138.667 63.6309 139.757 63.1914 141.151 63.1914C142.499 63.1914 143.568 63.6396 144.359 64.5361C145.156 65.4326 145.555 66.6455 145.555 68.1748ZM138.216 68.1748C138.216 69.4053 138.462 70.3428 138.954 70.9873C139.446 71.6318 140.17 71.9541 141.125 71.9541C142.08 71.9541 142.804 71.6348 143.296 70.9961C143.794 70.3516 144.043 69.4111 144.043 68.1748C144.043 66.9502 143.794 66.0215 143.296 65.3887C142.804 64.75 142.074 64.4307 141.107 64.4307C140.152 64.4307 139.432 64.7441 138.945 65.3711C138.459 65.998 138.216 66.9326 138.216 68.1748ZM152.463 64.501H150.011V73H148.552V64.501H146.829V63.8418L148.552 63.3145V62.7783C148.552 60.4111 149.586 59.2275 151.654 59.2275C152.164 59.2275 152.762 59.3301 153.447 59.5352L153.069 60.7041C152.507 60.5225 152.026 60.4316 151.628 60.4316C151.077 60.4316 150.67 60.6162 150.406 60.9854C150.143 61.3486 150.011 61.9346 150.011 62.7432V63.3672H152.463V64.501ZM165.488 73V66.7686C165.488 65.9834 165.31 65.3975 164.952 65.0107C164.595 64.624 164.035 64.4307 163.273 64.4307C162.266 64.4307 161.527 64.7031 161.059 65.248C160.59 65.793 160.355 66.6924 160.355 67.9463V73H158.896V63.3672H160.083L160.32 64.6855H160.391C160.689 64.2109 161.108 63.8447 161.647 63.5869C162.187 63.3232 162.787 63.1914 163.449 63.1914C164.609 63.1914 165.482 63.4727 166.068 64.0352C166.654 64.5918 166.947 65.4854 166.947 66.7158V73H165.488ZM175.877 73L175.587 71.6289H175.517C175.036 72.2324 174.556 72.6426 174.075 72.8594C173.601 73.0703 173.006 73.1758 172.291 73.1758C171.336 73.1758 170.586 72.9297 170.041 72.4375C169.502 71.9453 169.232 71.2451 169.232 70.3369C169.232 68.3916 170.788 67.3721 173.899 67.2783L175.534 67.2256V66.6279C175.534 65.8721 175.37 65.3154 175.042 64.958C174.72 64.5947 174.201 64.4131 173.486 64.4131C172.684 64.4131 171.775 64.6592 170.762 65.1514L170.313 64.0352C170.788 63.7773 171.307 63.5752 171.869 63.4287C172.438 63.2822 173.006 63.209 173.574 63.209C174.723 63.209 175.572 63.4639 176.123 63.9736C176.68 64.4834 176.958 65.3008 176.958 66.4258V73H175.877ZM172.581 71.9717C173.489 71.9717 174.201 71.7227 174.717 71.2246C175.238 70.7266 175.499 70.0293 175.499 69.1328V68.2627L174.04 68.3242C172.88 68.3652 172.042 68.5469 171.526 68.8691C171.017 69.1855 170.762 69.6807 170.762 70.3545C170.762 70.8818 170.92 71.2832 171.236 71.5586C171.559 71.834 172.007 71.9717 172.581 71.9717ZM182.082 73L178.426 63.3672H179.99L182.064 69.0801C182.533 70.416 182.809 71.2832 182.891 71.6816H182.961C183.025 71.3711 183.228 70.7295 183.567 69.7568C183.913 68.7783 184.684 66.6484 185.879 63.3672H187.443L183.787 73H182.082ZM190.449 73H188.99V63.3672H190.449V73ZM188.867 60.7568C188.867 60.4229 188.949 60.1797 189.113 60.0273C189.277 59.8691 189.482 59.79 189.729 59.79C189.963 59.79 190.165 59.8691 190.335 60.0273C190.505 60.1855 190.59 60.4287 190.59 60.7568C190.59 61.085 190.505 61.3311 190.335 61.4951C190.165 61.6533 189.963 61.7324 189.729 61.7324C189.482 61.7324 189.277 61.6533 189.113 61.4951C188.949 61.3311 188.867 61.085 188.867 60.7568ZM201.427 63.3672V64.29L199.643 64.501C199.807 64.7061 199.953 64.9756 200.082 65.3096C200.211 65.6377 200.275 66.0098 200.275 66.4258C200.275 67.3691 199.953 68.1221 199.309 68.6846C198.664 69.2471 197.779 69.5283 196.654 69.5283C196.367 69.5283 196.098 69.5049 195.846 69.458C195.225 69.7861 194.914 70.1992 194.914 70.6973C194.914 70.9609 195.022 71.1572 195.239 71.2861C195.456 71.4092 195.828 71.4707 196.355 71.4707H198.061C199.104 71.4707 199.903 71.6904 200.46 72.1299C201.022 72.5693 201.304 73.208 201.304 74.0459C201.304 75.1123 200.876 75.9238 200.021 76.4805C199.165 77.043 197.917 77.3242 196.276 77.3242C195.017 77.3242 194.044 77.0898 193.358 76.6211C192.679 76.1523 192.339 75.4902 192.339 74.6348C192.339 74.0488 192.526 73.542 192.901 73.1143C193.276 72.6865 193.804 72.3965 194.483 72.2441C194.237 72.1328 194.029 71.96 193.859 71.7256C193.695 71.4912 193.613 71.2188 193.613 70.9082C193.613 70.5566 193.707 70.249 193.895 69.9854C194.082 69.7217 194.378 69.4668 194.782 69.2207C194.284 69.0156 193.877 68.667 193.561 68.1748C193.25 67.6826 193.095 67.1201 193.095 66.4873C193.095 65.4326 193.411 64.6211 194.044 64.0527C194.677 63.4785 195.573 63.1914 196.733 63.1914C197.237 63.1914 197.691 63.25 198.096 63.3672H201.427ZM193.745 74.6172C193.745 75.1387 193.965 75.5342 194.404 75.8037C194.844 76.0732 195.474 76.208 196.294 76.208C197.519 76.208 198.424 76.0234 199.01 75.6543C199.602 75.291 199.897 74.7959 199.897 74.1689C199.897 73.6475 199.736 73.2842 199.414 73.0791C199.092 72.8799 198.485 72.7803 197.595 72.7803H195.846C195.184 72.7803 194.668 72.9385 194.299 73.2549C193.93 73.5713 193.745 74.0254 193.745 74.6172ZM194.536 66.4521C194.536 67.126 194.727 67.6357 195.107 67.9814C195.488 68.3271 196.019 68.5 196.698 68.5C198.122 68.5 198.834 67.8086 198.834 66.4258C198.834 64.9785 198.113 64.2549 196.672 64.2549C195.986 64.2549 195.459 64.4395 195.09 64.8086C194.721 65.1777 194.536 65.7256 194.536 66.4521ZM209.328 73L209.038 71.6289H208.968C208.487 72.2324 208.007 72.6426 207.526 72.8594C207.052 73.0703 206.457 73.1758 205.742 73.1758C204.787 73.1758 204.037 72.9297 203.492 72.4375C202.953 71.9453 202.684 71.2451 202.684 70.3369C202.684 68.3916 204.239 67.3721 207.351 67.2783L208.985 67.2256V66.6279C208.985 65.8721 208.821 65.3154 208.493 64.958C208.171 64.5947 207.652 64.4131 206.938 64.4131C206.135 64.4131 205.227 64.6592 204.213 65.1514L203.765 64.0352C204.239 63.7773 204.758 63.5752 205.32 63.4287C205.889 63.2822 206.457 63.209 207.025 63.209C208.174 63.209 209.023 63.4639 209.574 63.9736C210.131 64.4834 210.409 65.3008 210.409 66.4258V73H209.328ZM206.032 71.9717C206.94 71.9717 207.652 71.7227 208.168 71.2246C208.689 70.7266 208.95 70.0293 208.95 69.1328V68.2627L207.491 68.3242C206.331 68.3652 205.493 68.5469 204.978 68.8691C204.468 69.1855 204.213 69.6807 204.213 70.3545C204.213 70.8818 204.371 71.2832 204.688 71.5586C205.01 71.834 205.458 71.9717 206.032 71.9717ZM216.535 71.9717C216.793 71.9717 217.042 71.9541 217.282 71.9189C217.522 71.8779 217.713 71.8369 217.854 71.7959V72.9121C217.695 72.9883 217.461 73.0498 217.15 73.0967C216.846 73.1494 216.57 73.1758 216.324 73.1758C214.461 73.1758 213.529 72.1943 213.529 70.2314V64.501H212.149V63.7979L213.529 63.1914L214.145 61.1348H214.988V63.3672H217.783V64.501H214.988V70.1699C214.988 70.75 215.126 71.1953 215.401 71.5059C215.677 71.8164 216.055 71.9717 216.535 71.9717ZM221.246 73H219.787V63.3672H221.246V73ZM219.664 60.7568C219.664 60.4229 219.746 60.1797 219.91 60.0273C220.074 59.8691 220.279 59.79 220.525 59.79C220.76 59.79 220.962 59.8691 221.132 60.0273C221.302 60.1855 221.387 60.4287 221.387 60.7568C221.387 61.085 221.302 61.3311 221.132 61.4951C220.962 61.6533 220.76 61.7324 220.525 61.7324C220.279 61.7324 220.074 61.6533 219.91 61.4951C219.746 61.3311 219.664 61.085 219.664 60.7568ZM232.654 68.1748C232.654 69.7451 232.259 70.9727 231.468 71.8574C230.677 72.7363 229.584 73.1758 228.189 73.1758C227.328 73.1758 226.563 72.9736 225.896 72.5693C225.228 72.165 224.712 71.585 224.349 70.8291C223.985 70.0732 223.804 69.1885 223.804 68.1748C223.804 66.6045 224.196 65.3828 224.981 64.5098C225.767 63.6309 226.856 63.1914 228.251 63.1914C229.599 63.1914 230.668 63.6396 231.459 64.5361C232.256 65.4326 232.654 66.6455 232.654 68.1748ZM225.315 68.1748C225.315 69.4053 225.562 70.3428 226.054 70.9873C226.546 71.6318 227.27 71.9541 228.225 71.9541C229.18 71.9541 229.903 71.6348 230.396 70.9961C230.894 70.3516 231.143 69.4111 231.143 68.1748C231.143 66.9502 230.894 66.0215 230.396 65.3887C229.903 64.75 229.174 64.4307 228.207 64.4307C227.252 64.4307 226.531 64.7441 226.045 65.3711C225.559 65.998 225.315 66.9326 225.315 68.1748ZM241.812 73V66.7686C241.812 65.9834 241.634 65.3975 241.276 65.0107C240.919 64.624 240.359 64.4307 239.598 64.4307C238.59 64.4307 237.852 64.7031 237.383 65.248C236.914 65.793 236.68 66.6924 236.68 67.9463V73H235.221V63.3672H236.407L236.645 64.6855H236.715C237.014 64.2109 237.433 63.8447 237.972 63.5869C238.511 63.3232 239.111 63.1914 239.773 63.1914C240.934 63.1914 241.807 63.4727 242.393 64.0352C242.979 64.5918 243.271 65.4854 243.271 66.7158V73H241.812ZM246.066 72.0684C246.066 71.6758 246.154 71.3799 246.33 71.1807C246.512 70.9756 246.77 70.873 247.104 70.873C247.443 70.873 247.707 70.9756 247.895 71.1807C248.088 71.3799 248.185 71.6758 248.185 72.0684C248.185 72.4492 248.088 72.7422 247.895 72.9473C247.701 73.1523 247.438 73.2549 247.104 73.2549C246.805 73.2549 246.556 73.1641 246.356 72.9824C246.163 72.7949 246.066 72.4902 246.066 72.0684ZM255.972 73V60.1504H257.466V71.6465H263.135V73H255.972ZM269.173 73.1758C267.749 73.1758 266.624 72.7422 265.798 71.875C264.978 71.0078 264.567 69.8037 264.567 68.2627C264.567 66.71 264.948 65.4766 265.71 64.5625C266.478 63.6484 267.506 63.1914 268.795 63.1914C270.002 63.1914 270.957 63.5898 271.66 64.3867C272.363 65.1777 272.715 66.2236 272.715 67.5244V68.4473H266.079C266.108 69.5781 266.393 70.4365 266.932 71.0225C267.477 71.6084 268.241 71.9014 269.226 71.9014C270.263 71.9014 271.288 71.6846 272.302 71.251V72.5518C271.786 72.7744 271.297 72.9326 270.834 73.0264C270.377 73.126 269.823 73.1758 269.173 73.1758ZM268.777 64.4131C268.004 64.4131 267.386 64.665 266.923 65.1689C266.466 65.6729 266.196 66.3701 266.114 67.2607H271.15C271.15 66.3408 270.945 65.6377 270.535 65.1514C270.125 64.6592 269.539 64.4131 268.777 64.4131ZM281.135 73L280.845 71.6289H280.774C280.294 72.2324 279.813 72.6426 279.333 72.8594C278.858 73.0703 278.264 73.1758 277.549 73.1758C276.594 73.1758 275.844 72.9297 275.299 72.4375C274.76 71.9453 274.49 71.2451 274.49 70.3369C274.49 68.3916 276.046 67.3721 279.157 67.2783L280.792 67.2256V66.6279C280.792 65.8721 280.628 65.3154 280.3 64.958C279.978 64.5947 279.459 64.4131 278.744 64.4131C277.941 64.4131 277.033 64.6592 276.02 65.1514L275.571 64.0352C276.046 63.7773 276.564 63.5752 277.127 63.4287C277.695 63.2822 278.264 63.209 278.832 63.209C279.98 63.209 280.83 63.4639 281.381 63.9736C281.938 64.4834 282.216 65.3008 282.216 66.4258V73H281.135ZM277.839 71.9717C278.747 71.9717 279.459 71.7227 279.975 71.2246C280.496 70.7266 280.757 70.0293 280.757 69.1328V68.2627L279.298 68.3242C278.138 68.3652 277.3 68.5469 276.784 68.8691C276.274 69.1855 276.02 69.6807 276.02 70.3545C276.02 70.8818 276.178 71.2832 276.494 71.5586C276.816 71.834 277.265 71.9717 277.839 71.9717ZM289.625 63.1914C290.053 63.1914 290.437 63.2266 290.776 63.2969L290.574 64.6504C290.176 64.5625 289.824 64.5186 289.52 64.5186C288.74 64.5186 288.072 64.835 287.516 65.4678C286.965 66.1006 286.689 66.8887 286.689 67.832V73H285.23V63.3672H286.435L286.602 65.1514H286.672C287.029 64.5244 287.46 64.041 287.964 63.7012C288.468 63.3613 289.021 63.1914 289.625 63.1914ZM299.17 73V66.7686C299.17 65.9834 298.991 65.3975 298.634 65.0107C298.276 64.624 297.717 64.4307 296.955 64.4307C295.947 64.4307 295.209 64.7031 294.74 65.248C294.271 65.793 294.037 66.6924 294.037 67.9463V73H292.578V63.3672H293.765L294.002 64.6855H294.072C294.371 64.2109 294.79 63.8447 295.329 63.5869C295.868 63.3232 296.469 63.1914 297.131 63.1914C298.291 63.1914 299.164 63.4727 299.75 64.0352C300.336 64.5918 300.629 65.4854 300.629 66.7158V73H299.17ZM307.704 73.1758C306.28 73.1758 305.155 72.7422 304.329 71.875C303.509 71.0078 303.099 69.8037 303.099 68.2627C303.099 66.71 303.479 65.4766 304.241 64.5625C305.009 63.6484 306.037 63.1914 307.326 63.1914C308.533 63.1914 309.488 63.5898 310.191 64.3867C310.895 65.1777 311.246 66.2236 311.246 67.5244V68.4473H304.61C304.64 69.5781 304.924 70.4365 305.463 71.0225C306.008 71.6084 306.772 71.9014 307.757 71.9014C308.794 71.9014 309.819 71.6846 310.833 71.251V72.5518C310.317 72.7744 309.828 72.9326 309.365 73.0264C308.908 73.126 308.354 73.1758 307.704 73.1758ZM307.309 64.4131C306.535 64.4131 305.917 64.665 305.454 65.1689C304.997 65.6729 304.728 66.3701 304.646 67.2607H309.682C309.682 66.3408 309.477 65.6377 309.066 65.1514C308.656 64.6592 308.07 64.4131 307.309 64.4131ZM318.137 63.1914C318.564 63.1914 318.948 63.2266 319.288 63.2969L319.086 64.6504C318.688 64.5625 318.336 64.5186 318.031 64.5186C317.252 64.5186 316.584 64.835 316.027 65.4678C315.477 66.1006 315.201 66.8887 315.201 67.832V73H313.742V63.3672H314.946L315.113 65.1514H315.184C315.541 64.5244 315.972 64.041 316.476 63.7012C316.979 63.3613 317.533 63.1914 318.137 63.1914ZM327.304 70.3721C327.304 71.2686 326.97 71.96 326.302 72.4463C325.634 72.9326 324.696 73.1758 323.489 73.1758C322.212 73.1758 321.216 72.9736 320.501 72.5693V71.2158C320.964 71.4502 321.459 71.6348 321.986 71.7695C322.52 71.9043 323.032 71.9717 323.524 71.9717C324.286 71.9717 324.872 71.8516 325.282 71.6113C325.692 71.3652 325.897 70.9932 325.897 70.4951C325.897 70.1201 325.733 69.8008 325.405 69.5371C325.083 69.2676 324.45 68.9512 323.507 68.5879C322.61 68.2539 321.972 67.9639 321.591 67.7178C321.216 67.4658 320.935 67.1816 320.747 66.8652C320.565 66.5488 320.475 66.1709 320.475 65.7314C320.475 64.9463 320.794 64.3281 321.433 63.877C322.071 63.4199 322.947 63.1914 324.061 63.1914C325.098 63.1914 326.111 63.4023 327.102 63.8242L326.583 65.0107C325.616 64.6123 324.74 64.4131 323.955 64.4131C323.264 64.4131 322.742 64.5215 322.391 64.7383C322.039 64.9551 321.863 65.2539 321.863 65.6348C321.863 65.8926 321.928 66.1123 322.057 66.2939C322.191 66.4756 322.405 66.6484 322.698 66.8125C322.991 66.9766 323.554 67.2139 324.386 67.5244C325.528 67.9404 326.299 68.3594 326.697 68.7812C327.102 69.2031 327.304 69.7334 327.304 70.3721ZM75.7607 95.3721C75.7607 96.2686 75.4268 96.96 74.7588 97.4463C74.0908 97.9326 73.1533 98.1758 71.9463 98.1758C70.6689 98.1758 69.6729 97.9736 68.958 97.5693V96.2158C69.4209 96.4502 69.916 96.6348 70.4434 96.7695C70.9766 96.9043 71.4893 96.9717 71.9814 96.9717C72.7432 96.9717 73.3291 96.8516 73.7393 96.6113C74.1494 96.3652 74.3545 95.9932 74.3545 95.4951C74.3545 95.1201 74.1904 94.8008 73.8623 94.5371C73.54 94.2676 72.9072 93.9512 71.9639 93.5879C71.0674 93.2539 70.4287 92.9639 70.0479 92.7178C69.6729 92.4658 69.3916 92.1816 69.2041 91.8652C69.0225 91.5488 68.9316 91.1709 68.9316 90.7314C68.9316 89.9463 69.251 89.3281 69.8896 88.877C70.5283 88.4199 71.4043 88.1914 72.5176 88.1914C73.5547 88.1914 74.5684 88.4023 75.5586 88.8242L75.04 90.0107C74.0732 89.6123 73.1973 89.4131 72.4121 89.4131C71.7207 89.4131 71.1992 89.5215 70.8477 89.7383C70.4961 89.9551 70.3203 90.2539 70.3203 90.6348C70.3203 90.8926 70.3848 91.1123 70.5137 91.2939C70.6484 91.4756 70.8623 91.6484 71.1553 91.8125C71.4482 91.9766 72.0107 92.2139 72.8428 92.5244C73.9854 92.9404 74.7559 93.3594 75.1543 93.7812C75.5586 94.2031 75.7607 94.7334 75.7607 95.3721ZM84.7344 98V91.7686C84.7344 90.9834 84.5557 90.3975 84.1982 90.0107C83.8408 89.624 83.2812 89.4307 82.5195 89.4307C81.5059 89.4307 80.7646 89.7061 80.2959 90.2568C79.833 90.8076 79.6016 91.71 79.6016 92.9639V98H78.1426V84.3242H79.6016V88.4639C79.6016 88.9619 79.5781 89.375 79.5312 89.7031H79.6191C79.9062 89.2402 80.3135 88.877 80.8408 88.6133C81.374 88.3438 81.9805 88.209 82.6602 88.209C83.8379 88.209 84.7197 88.4902 85.3057 89.0527C85.8975 89.6094 86.1934 90.4971 86.1934 91.7158V98H84.7344ZM97.5137 93.1748C97.5137 94.7451 97.1182 95.9727 96.3271 96.8574C95.5361 97.7363 94.4434 98.1758 93.0488 98.1758C92.1875 98.1758 91.4229 97.9736 90.7549 97.5693C90.0869 97.165 89.5713 96.585 89.208 95.8291C88.8447 95.0732 88.6631 94.1885 88.6631 93.1748C88.6631 91.6045 89.0557 90.3828 89.8408 89.5098C90.626 88.6309 91.7158 88.1914 93.1104 88.1914C94.458 88.1914 95.5273 88.6396 96.3184 89.5361C97.1152 90.4326 97.5137 91.6455 97.5137 93.1748ZM90.1748 93.1748C90.1748 94.4053 90.4209 95.3428 90.9131 95.9873C91.4053 96.6318 92.1289 96.9541 93.084 96.9541C94.0391 96.9541 94.7627 96.6348 95.2549 95.9961C95.7529 95.3516 96.002 94.4111 96.002 93.1748C96.002 91.9502 95.7529 91.0215 95.2549 90.3887C94.7627 89.75 94.0332 89.4307 93.0664 89.4307C92.1113 89.4307 91.3906 89.7441 90.9043 90.3711C90.418 90.998 90.1748 91.9326 90.1748 93.1748ZM101.451 88.3672V94.6162C101.451 95.4014 101.63 95.9873 101.987 96.374C102.345 96.7607 102.904 96.9541 103.666 96.9541C104.674 96.9541 105.409 96.6787 105.872 96.1279C106.341 95.5771 106.575 94.6777 106.575 93.4297V88.3672H108.034V98H106.83L106.619 96.708H106.54C106.241 97.1826 105.825 97.5459 105.292 97.7979C104.765 98.0498 104.161 98.1758 103.481 98.1758C102.31 98.1758 101.431 97.8975 100.845 97.3408C100.265 96.7842 99.9746 95.8936 99.9746 94.6689V88.3672H101.451ZM112.596 98H111.137V84.3242H112.596V98ZM122.246 96.708H122.167C121.493 97.6865 120.485 98.1758 119.144 98.1758C117.884 98.1758 116.902 97.7451 116.199 96.8838C115.502 96.0225 115.153 94.7979 115.153 93.21C115.153 91.6221 115.505 90.3887 116.208 89.5098C116.911 88.6309 117.89 88.1914 119.144 88.1914C120.45 88.1914 121.452 88.666 122.149 89.6152H122.264L122.202 88.9209L122.167 88.2441V84.3242H123.626V98H122.439L122.246 96.708ZM119.328 96.9541C120.324 96.9541 121.045 96.6846 121.49 96.1455C121.941 95.6006 122.167 94.7246 122.167 93.5176V93.21C122.167 91.8447 121.938 90.8721 121.481 90.292C121.03 89.7061 120.307 89.4131 119.311 89.4131C118.455 89.4131 117.799 89.7471 117.342 90.415C116.891 91.0771 116.665 92.0146 116.665 93.2275C116.665 94.458 116.891 95.3867 117.342 96.0137C117.793 96.6406 118.455 96.9541 119.328 96.9541ZM135.887 88.209C137.152 88.209 138.134 88.6426 138.831 89.5098C139.534 90.3711 139.886 91.5928 139.886 93.1748C139.886 94.7568 139.531 95.9873 138.822 96.8662C138.119 97.7393 137.141 98.1758 135.887 98.1758C135.26 98.1758 134.686 98.0615 134.164 97.833C133.648 97.5986 133.215 97.2412 132.863 96.7607H132.758L132.45 98H131.404V84.3242H132.863V87.6465C132.863 88.3906 132.84 89.0586 132.793 89.6504H132.863C133.543 88.6895 134.551 88.209 135.887 88.209ZM135.676 89.4307C134.68 89.4307 133.962 89.7178 133.522 90.292C133.083 90.8604 132.863 91.8213 132.863 93.1748C132.863 94.5283 133.089 95.498 133.54 96.084C133.991 96.6641 134.715 96.9541 135.711 96.9541C136.607 96.9541 137.275 96.6289 137.715 95.9785C138.154 95.3223 138.374 94.3818 138.374 93.1572C138.374 91.9033 138.154 90.9688 137.715 90.3535C137.275 89.7383 136.596 89.4307 135.676 89.4307ZM146.513 98.1758C145.089 98.1758 143.964 97.7422 143.138 96.875C142.317 96.0078 141.907 94.8037 141.907 93.2627C141.907 91.71 142.288 90.4766 143.05 89.5625C143.817 88.6484 144.846 88.1914 146.135 88.1914C147.342 88.1914 148.297 88.5898 149 89.3867C149.703 90.1777 150.055 91.2236 150.055 92.5244V93.4473H143.419C143.448 94.5781 143.732 95.4365 144.271 96.0225C144.816 96.6084 145.581 96.9014 146.565 96.9014C147.603 96.9014 148.628 96.6846 149.642 96.251V97.5518C149.126 97.7744 148.637 97.9326 148.174 98.0264C147.717 98.126 147.163 98.1758 146.513 98.1758ZM146.117 89.4131C145.344 89.4131 144.726 89.665 144.263 90.1689C143.806 90.6729 143.536 91.3701 143.454 92.2607H148.49C148.49 91.3408 148.285 90.6377 147.875 90.1514C147.465 89.6592 146.879 89.4131 146.117 89.4131ZM163.15 98L162.86 96.6289H162.79C162.31 97.2324 161.829 97.6426 161.349 97.8594C160.874 98.0703 160.279 98.1758 159.564 98.1758C158.609 98.1758 157.859 97.9297 157.314 97.4375C156.775 96.9453 156.506 96.2451 156.506 95.3369C156.506 93.3916 158.062 92.3721 161.173 92.2783L162.808 92.2256V91.6279C162.808 90.8721 162.644 90.3154 162.315 89.958C161.993 89.5947 161.475 89.4131 160.76 89.4131C159.957 89.4131 159.049 89.6592 158.035 90.1514L157.587 89.0352C158.062 88.7773 158.58 88.5752 159.143 88.4287C159.711 88.2822 160.279 88.209 160.848 88.209C161.996 88.209 162.846 88.4639 163.396 88.9736C163.953 89.4834 164.231 90.3008 164.231 91.4258V98H163.15ZM159.854 96.9717C160.763 96.9717 161.475 96.7227 161.99 96.2246C162.512 95.7266 162.772 95.0293 162.772 94.1328V93.2627L161.313 93.3242C160.153 93.3652 159.315 93.5469 158.8 93.8691C158.29 94.1855 158.035 94.6807 158.035 95.3545C158.035 95.8818 158.193 96.2832 158.51 96.5586C158.832 96.834 159.28 96.9717 159.854 96.9717ZM171.729 88.209C172.994 88.209 173.976 88.6426 174.673 89.5098C175.376 90.3711 175.728 91.5928 175.728 93.1748C175.728 94.7568 175.373 95.9873 174.664 96.8662C173.961 97.7393 172.982 98.1758 171.729 98.1758C171.102 98.1758 170.527 98.0615 170.006 97.833C169.49 97.5986 169.057 97.2412 168.705 96.7607H168.6L168.292 98H167.246V84.3242H168.705V87.6465C168.705 88.3906 168.682 89.0586 168.635 89.6504H168.705C169.385 88.6895 170.393 88.209 171.729 88.209ZM171.518 89.4307C170.521 89.4307 169.804 89.7178 169.364 90.292C168.925 90.8604 168.705 91.8213 168.705 93.1748C168.705 94.5283 168.931 95.498 169.382 96.084C169.833 96.6641 170.557 96.9541 171.553 96.9541C172.449 96.9541 173.117 96.6289 173.557 95.9785C173.996 95.3223 174.216 94.3818 174.216 93.1572C174.216 91.9033 173.996 90.9688 173.557 90.3535C173.117 89.7383 172.438 89.4307 171.518 89.4307ZM179.744 98H178.285V84.3242H179.744V98ZM186.907 98.1758C185.483 98.1758 184.358 97.7422 183.532 96.875C182.712 96.0078 182.302 94.8037 182.302 93.2627C182.302 91.71 182.683 90.4766 183.444 89.5625C184.212 88.6484 185.24 88.1914 186.529 88.1914C187.736 88.1914 188.691 88.5898 189.395 89.3867C190.098 90.1777 190.449 91.2236 190.449 92.5244V93.4473H183.813C183.843 94.5781 184.127 95.4365 184.666 96.0225C185.211 96.6084 185.976 96.9014 186.96 96.9014C187.997 96.9014 189.022 96.6846 190.036 96.251V97.5518C189.521 97.7744 189.031 97.9326 188.568 98.0264C188.111 98.126 187.558 98.1758 186.907 98.1758ZM186.512 89.4131C185.738 89.4131 185.12 89.665 184.657 90.1689C184.2 90.6729 183.931 91.3701 183.849 92.2607H188.885C188.885 91.3408 188.68 90.6377 188.27 90.1514C187.859 89.6592 187.273 89.4131 186.512 89.4131ZM200.732 96.9717C200.99 96.9717 201.239 96.9541 201.479 96.9189C201.72 96.8779 201.91 96.8369 202.051 96.7959V97.9121C201.893 97.9883 201.658 98.0498 201.348 98.0967C201.043 98.1494 200.768 98.1758 200.521 98.1758C198.658 98.1758 197.727 97.1943 197.727 95.2314V89.501H196.347V88.7979L197.727 88.1914L198.342 86.1348H199.186V88.3672H201.98V89.501H199.186V95.1699C199.186 95.75 199.323 96.1953 199.599 96.5059C199.874 96.8164 200.252 96.9717 200.732 96.9717ZM212.299 93.1748C212.299 94.7451 211.903 95.9727 211.112 96.8574C210.321 97.7363 209.229 98.1758 207.834 98.1758C206.973 98.1758 206.208 97.9736 205.54 97.5693C204.872 97.165 204.356 96.585 203.993 95.8291C203.63 95.0732 203.448 94.1885 203.448 93.1748C203.448 91.6045 203.841 90.3828 204.626 89.5098C205.411 88.6309 206.501 88.1914 207.896 88.1914C209.243 88.1914 210.312 88.6396 211.104 89.5361C211.9 90.4326 212.299 91.6455 212.299 93.1748ZM204.96 93.1748C204.96 94.4053 205.206 95.3428 205.698 95.9873C206.19 96.6318 206.914 96.9541 207.869 96.9541C208.824 96.9541 209.548 96.6348 210.04 95.9961C210.538 95.3516 210.787 94.4111 210.787 93.1748C210.787 91.9502 210.538 91.0215 210.04 90.3887C209.548 89.75 208.818 89.4307 207.852 89.4307C206.896 89.4307 206.176 89.7441 205.689 90.3711C205.203 90.998 204.96 91.9326 204.96 93.1748ZM227.425 88.3672V89.29L225.641 89.501C225.805 89.7061 225.951 89.9756 226.08 90.3096C226.209 90.6377 226.273 91.0098 226.273 91.4258C226.273 92.3691 225.951 93.1221 225.307 93.6846C224.662 94.2471 223.777 94.5283 222.652 94.5283C222.365 94.5283 222.096 94.5049 221.844 94.458C221.223 94.7861 220.912 95.1992 220.912 95.6973C220.912 95.9609 221.021 96.1572 221.237 96.2861C221.454 96.4092 221.826 96.4707 222.354 96.4707H224.059C225.102 96.4707 225.901 96.6904 226.458 97.1299C227.021 97.5693 227.302 98.208 227.302 99.0459C227.302 100.112 226.874 100.924 226.019 101.48C225.163 102.043 223.915 102.324 222.274 102.324C221.015 102.324 220.042 102.09 219.356 101.621C218.677 101.152 218.337 100.49 218.337 99.6348C218.337 99.0488 218.524 98.542 218.899 98.1143C219.274 97.6865 219.802 97.3965 220.481 97.2441C220.235 97.1328 220.027 96.96 219.857 96.7256C219.693 96.4912 219.611 96.2188 219.611 95.9082C219.611 95.5566 219.705 95.249 219.893 94.9854C220.08 94.7217 220.376 94.4668 220.78 94.2207C220.282 94.0156 219.875 93.667 219.559 93.1748C219.248 92.6826 219.093 92.1201 219.093 91.4873C219.093 90.4326 219.409 89.6211 220.042 89.0527C220.675 88.4785 221.571 88.1914 222.731 88.1914C223.235 88.1914 223.689 88.25 224.094 88.3672H227.425ZM219.743 99.6172C219.743 100.139 219.963 100.534 220.402 100.804C220.842 101.073 221.472 101.208 222.292 101.208C223.517 101.208 224.422 101.023 225.008 100.654C225.6 100.291 225.896 99.7959 225.896 99.1689C225.896 98.6475 225.734 98.2842 225.412 98.0791C225.09 97.8799 224.483 97.7803 223.593 97.7803H221.844C221.182 97.7803 220.666 97.9385 220.297 98.2549C219.928 98.5713 219.743 99.0254 219.743 99.6172ZM220.534 91.4521C220.534 92.126 220.725 92.6357 221.105 92.9814C221.486 93.3271 222.017 93.5 222.696 93.5C224.12 93.5 224.832 92.8086 224.832 91.4258C224.832 89.9785 224.111 89.2549 222.67 89.2549C221.984 89.2549 221.457 89.4395 221.088 89.8086C220.719 90.1777 220.534 90.7256 220.534 91.4521ZM237.717 93.1748C237.717 94.7451 237.321 95.9727 236.53 96.8574C235.739 97.7363 234.646 98.1758 233.252 98.1758C232.391 98.1758 231.626 97.9736 230.958 97.5693C230.29 97.165 229.774 96.585 229.411 95.8291C229.048 95.0732 228.866 94.1885 228.866 93.1748C228.866 91.6045 229.259 90.3828 230.044 89.5098C230.829 88.6309 231.919 88.1914 233.313 88.1914C234.661 88.1914 235.73 88.6396 236.521 89.5361C237.318 90.4326 237.717 91.6455 237.717 93.1748ZM230.378 93.1748C230.378 94.4053 230.624 95.3428 231.116 95.9873C231.608 96.6318 232.332 96.9541 233.287 96.9541C234.242 96.9541 234.966 96.6348 235.458 95.9961C235.956 95.3516 236.205 94.4111 236.205 93.1748C236.205 91.9502 235.956 91.0215 235.458 90.3887C234.966 89.75 234.236 89.4307 233.27 89.4307C232.314 89.4307 231.594 89.7441 231.107 90.3711C230.621 90.998 230.378 91.9326 230.378 93.1748ZM248.07 96.9717C248.328 96.9717 248.577 96.9541 248.817 96.9189C249.058 96.8779 249.248 96.8369 249.389 96.7959V97.9121C249.23 97.9883 248.996 98.0498 248.686 98.0967C248.381 98.1494 248.105 98.1758 247.859 98.1758C245.996 98.1758 245.064 97.1943 245.064 95.2314V89.501H243.685V88.7979L245.064 88.1914L245.68 86.1348H246.523V88.3672H249.318V89.501H246.523V95.1699C246.523 95.75 246.661 96.1953 246.937 96.5059C247.212 96.8164 247.59 96.9717 248.07 96.9717ZM259.637 93.1748C259.637 94.7451 259.241 95.9727 258.45 96.8574C257.659 97.7363 256.566 98.1758 255.172 98.1758C254.311 98.1758 253.546 97.9736 252.878 97.5693C252.21 97.165 251.694 96.585 251.331 95.8291C250.968 95.0732 250.786 94.1885 250.786 93.1748C250.786 91.6045 251.179 90.3828 251.964 89.5098C252.749 88.6309 253.839 88.1914 255.233 88.1914C256.581 88.1914 257.65 88.6396 258.441 89.5361C259.238 90.4326 259.637 91.6455 259.637 93.1748ZM252.298 93.1748C252.298 94.4053 252.544 95.3428 253.036 95.9873C253.528 96.6318 254.252 96.9541 255.207 96.9541C256.162 96.9541 256.886 96.6348 257.378 95.9961C257.876 95.3516 258.125 94.4111 258.125 93.1748C258.125 91.9502 257.876 91.0215 257.378 90.3887C256.886 89.75 256.156 89.4307 255.189 89.4307C254.234 89.4307 253.514 89.7441 253.027 90.3711C252.541 90.998 252.298 91.9326 252.298 93.1748ZM269.99 96.9717C270.248 96.9717 270.497 96.9541 270.737 96.9189C270.978 96.8779 271.168 96.8369 271.309 96.7959V97.9121C271.15 97.9883 270.916 98.0498 270.605 98.0967C270.301 98.1494 270.025 98.1758 269.779 98.1758C267.916 98.1758 266.984 97.1943 266.984 95.2314V89.501H265.604V88.7979L266.984 88.1914L267.6 86.1348H268.443V88.3672H271.238V89.501H268.443V95.1699C268.443 95.75 268.581 96.1953 268.856 96.5059C269.132 96.8164 269.51 96.9717 269.99 96.9717ZM279.834 98V91.7686C279.834 90.9834 279.655 90.3975 279.298 90.0107C278.94 89.624 278.381 89.4307 277.619 89.4307C276.605 89.4307 275.864 89.7061 275.396 90.2568C274.933 90.8076 274.701 91.71 274.701 92.9639V98H273.242V84.3242H274.701V88.4639C274.701 88.9619 274.678 89.375 274.631 89.7031H274.719C275.006 89.2402 275.413 88.877 275.94 88.6133C276.474 88.3438 277.08 88.209 277.76 88.209C278.938 88.209 279.819 88.4902 280.405 89.0527C280.997 89.6094 281.293 90.4971 281.293 91.7158V98H279.834ZM288.368 98.1758C286.944 98.1758 285.819 97.7422 284.993 96.875C284.173 96.0078 283.763 94.8037 283.763 93.2627C283.763 91.71 284.144 90.4766 284.905 89.5625C285.673 88.6484 286.701 88.1914 287.99 88.1914C289.197 88.1914 290.152 88.5898 290.855 89.3867C291.559 90.1777 291.91 91.2236 291.91 92.5244V93.4473H285.274C285.304 94.5781 285.588 95.4365 286.127 96.0225C286.672 96.6084 287.437 96.9014 288.421 96.9014C289.458 96.9014 290.483 96.6846 291.497 96.251V97.5518C290.981 97.7744 290.492 97.9326 290.029 98.0264C289.572 98.126 289.019 98.1758 288.368 98.1758ZM287.973 89.4131C287.199 89.4131 286.581 89.665 286.118 90.1689C285.661 90.6729 285.392 91.3701 285.31 92.2607H290.346C290.346 91.3408 290.141 90.6377 289.73 90.1514C289.32 89.6592 288.734 89.4131 287.973 89.4131ZM305.006 98L304.716 96.6289H304.646C304.165 97.2324 303.685 97.6426 303.204 97.8594C302.729 98.0703 302.135 98.1758 301.42 98.1758C300.465 98.1758 299.715 97.9297 299.17 97.4375C298.631 96.9453 298.361 96.2451 298.361 95.3369C298.361 93.3916 299.917 92.3721 303.028 92.2783L304.663 92.2256V91.6279C304.663 90.8721 304.499 90.3154 304.171 89.958C303.849 89.5947 303.33 89.4131 302.615 89.4131C301.812 89.4131 300.904 89.6592 299.891 90.1514L299.442 89.0352C299.917 88.7773 300.436 88.5752 300.998 88.4287C301.566 88.2822 302.135 88.209 302.703 88.209C303.852 88.209 304.701 88.4639 305.252 88.9736C305.809 89.4834 306.087 90.3008 306.087 91.4258V98H305.006ZM301.71 96.9717C302.618 96.9717 303.33 96.7227 303.846 96.2246C304.367 95.7266 304.628 95.0293 304.628 94.1328V93.2627L303.169 93.3242C302.009 93.3652 301.171 93.5469 300.655 93.8691C300.146 94.1855 299.891 94.6807 299.891 95.3545C299.891 95.8818 300.049 96.2832 300.365 96.5586C300.688 96.834 301.136 96.9717 301.71 96.9717ZM313.584 98.1758C312.957 98.1758 312.383 98.0615 311.861 97.833C311.346 97.5986 310.912 97.2412 310.561 96.7607H310.455C310.525 97.3232 310.561 97.8564 310.561 98.3604V102.324H309.102V88.3672H310.288L310.49 89.6855H310.561C310.936 89.1582 311.372 88.7773 311.87 88.543C312.368 88.3086 312.939 88.1914 313.584 88.1914C314.861 88.1914 315.846 88.6279 316.537 89.501C317.234 90.374 317.583 91.5986 317.583 93.1748C317.583 94.7568 317.229 95.9873 316.52 96.8662C315.816 97.7393 314.838 98.1758 313.584 98.1758ZM313.373 89.4307C312.389 89.4307 311.677 89.7031 311.237 90.248C310.798 90.793 310.572 91.6602 310.561 92.8496V93.1748C310.561 94.5283 310.786 95.498 311.237 96.084C311.688 96.6641 312.412 96.9541 313.408 96.9541C314.24 96.9541 314.891 96.6172 315.359 95.9434C315.834 95.2695 316.071 94.3408 316.071 93.1572C316.071 91.9561 315.834 91.0361 315.359 90.3975C314.891 89.7529 314.229 89.4307 313.373 89.4307ZM324.623 98.1758C323.996 98.1758 323.422 98.0615 322.9 97.833C322.385 97.5986 321.951 97.2412 321.6 96.7607H321.494C321.564 97.3232 321.6 97.8564 321.6 98.3604V102.324H320.141V88.3672H321.327L321.529 89.6855H321.6C321.975 89.1582 322.411 88.7773 322.909 88.543C323.407 88.3086 323.979 88.1914 324.623 88.1914C325.9 88.1914 326.885 88.6279 327.576 89.501C328.273 90.374 328.622 91.5986 328.622 93.1748C328.622 94.7568 328.268 95.9873 327.559 96.8662C326.855 97.7393 325.877 98.1758 324.623 98.1758ZM324.412 89.4307C323.428 89.4307 322.716 89.7031 322.276 90.248C321.837 90.793 321.611 91.6602 321.6 92.8496V93.1748C321.6 94.5283 321.825 95.498 322.276 96.084C322.728 96.6641 323.451 96.9541 324.447 96.9541C325.279 96.9541 325.93 96.6172 326.398 95.9434C326.873 95.2695 327.11 94.3408 327.11 93.1572C327.11 91.9561 326.873 91.0361 326.398 90.3975C325.93 89.7529 325.268 89.4307 324.412 89.4307ZM75.4707 123L75.1807 121.629H75.1104C74.6299 122.232 74.1494 122.643 73.6689 122.859C73.1943 123.07 72.5996 123.176 71.8848 123.176C70.9297 123.176 70.1797 122.93 69.6348 122.438C69.0957 121.945 68.8262 121.245 68.8262 120.337C68.8262 118.392 70.3818 117.372 73.4932 117.278L75.1279 117.226V116.628C75.1279 115.872 74.9639 115.315 74.6357 114.958C74.3135 114.595 73.7949 114.413 73.0801 114.413C72.2773 114.413 71.3691 114.659 70.3555 115.151L69.9072 114.035C70.3818 113.777 70.9004 113.575 71.4629 113.429C72.0312 113.282 72.5996 113.209 73.168 113.209C74.3164 113.209 75.166 113.464 75.7168 113.974C76.2734 114.483 76.5518 115.301 76.5518 116.426V123H75.4707ZM72.1748 121.972C73.083 121.972 73.7949 121.723 74.3105 121.225C74.832 120.727 75.0928 120.029 75.0928 119.133V118.263L73.6338 118.324C72.4736 118.365 71.6357 118.547 71.1201 118.869C70.6104 119.186 70.3555 119.681 70.3555 120.354C70.3555 120.882 70.5137 121.283 70.8301 121.559C71.1523 121.834 71.6006 121.972 72.1748 121.972ZM86.1582 123V116.769C86.1582 115.983 85.9795 115.397 85.6221 115.011C85.2646 114.624 84.7051 114.431 83.9434 114.431C82.9355 114.431 82.1973 114.703 81.7285 115.248C81.2598 115.793 81.0254 116.692 81.0254 117.946V123H79.5664V113.367H80.7529L80.9902 114.686H81.0605C81.3594 114.211 81.7783 113.845 82.3174 113.587C82.8564 113.323 83.457 113.191 84.1191 113.191C85.2793 113.191 86.1523 113.473 86.7383 114.035C87.3242 114.592 87.6172 115.485 87.6172 116.716V123H86.1582ZM97.1797 121.708H97.1006C96.4268 122.687 95.4189 123.176 94.0771 123.176C92.8174 123.176 91.8359 122.745 91.1328 121.884C90.4355 121.022 90.0869 119.798 90.0869 118.21C90.0869 116.622 90.4385 115.389 91.1416 114.51C91.8447 113.631 92.8232 113.191 94.0771 113.191C95.3838 113.191 96.3857 113.666 97.083 114.615H97.1973L97.1357 113.921L97.1006 113.244V109.324H98.5596V123H97.373L97.1797 121.708ZM94.2617 121.954C95.2578 121.954 95.9785 121.685 96.4238 121.146C96.875 120.601 97.1006 119.725 97.1006 118.518V118.21C97.1006 116.845 96.8721 115.872 96.415 115.292C95.9639 114.706 95.2402 114.413 94.2441 114.413C93.3887 114.413 92.7324 114.747 92.2754 115.415C91.8242 116.077 91.5986 117.015 91.5986 118.228C91.5986 119.458 91.8242 120.387 92.2754 121.014C92.7266 121.641 93.3887 121.954 94.2617 121.954ZM114.222 113.367V114.29L112.438 114.501C112.602 114.706 112.748 114.976 112.877 115.31C113.006 115.638 113.07 116.01 113.07 116.426C113.07 117.369 112.748 118.122 112.104 118.685C111.459 119.247 110.574 119.528 109.449 119.528C109.162 119.528 108.893 119.505 108.641 119.458C108.02 119.786 107.709 120.199 107.709 120.697C107.709 120.961 107.817 121.157 108.034 121.286C108.251 121.409 108.623 121.471 109.15 121.471H110.855C111.898 121.471 112.698 121.69 113.255 122.13C113.817 122.569 114.099 123.208 114.099 124.046C114.099 125.112 113.671 125.924 112.815 126.48C111.96 127.043 110.712 127.324 109.071 127.324C107.812 127.324 106.839 127.09 106.153 126.621C105.474 126.152 105.134 125.49 105.134 124.635C105.134 124.049 105.321 123.542 105.696 123.114C106.071 122.687 106.599 122.396 107.278 122.244C107.032 122.133 106.824 121.96 106.654 121.726C106.49 121.491 106.408 121.219 106.408 120.908C106.408 120.557 106.502 120.249 106.689 119.985C106.877 119.722 107.173 119.467 107.577 119.221C107.079 119.016 106.672 118.667 106.355 118.175C106.045 117.683 105.89 117.12 105.89 116.487C105.89 115.433 106.206 114.621 106.839 114.053C107.472 113.479 108.368 113.191 109.528 113.191C110.032 113.191 110.486 113.25 110.891 113.367H114.222ZM106.54 124.617C106.54 125.139 106.76 125.534 107.199 125.804C107.639 126.073 108.269 126.208 109.089 126.208C110.313 126.208 111.219 126.023 111.805 125.654C112.396 125.291 112.692 124.796 112.692 124.169C112.692 123.647 112.531 123.284 112.209 123.079C111.887 122.88 111.28 122.78 110.39 122.78H108.641C107.979 122.78 107.463 122.938 107.094 123.255C106.725 123.571 106.54 124.025 106.54 124.617ZM107.331 116.452C107.331 117.126 107.521 117.636 107.902 117.981C108.283 118.327 108.813 118.5 109.493 118.5C110.917 118.5 111.629 117.809 111.629 116.426C111.629 114.979 110.908 114.255 109.467 114.255C108.781 114.255 108.254 114.439 107.885 114.809C107.516 115.178 107.331 115.726 107.331 116.452ZM124.514 118.175C124.514 119.745 124.118 120.973 123.327 121.857C122.536 122.736 121.443 123.176 120.049 123.176C119.188 123.176 118.423 122.974 117.755 122.569C117.087 122.165 116.571 121.585 116.208 120.829C115.845 120.073 115.663 119.188 115.663 118.175C115.663 116.604 116.056 115.383 116.841 114.51C117.626 113.631 118.716 113.191 120.11 113.191C121.458 113.191 122.527 113.64 123.318 114.536C124.115 115.433 124.514 116.646 124.514 118.175ZM117.175 118.175C117.175 119.405 117.421 120.343 117.913 120.987C118.405 121.632 119.129 121.954 120.084 121.954C121.039 121.954 121.763 121.635 122.255 120.996C122.753 120.352 123.002 119.411 123.002 118.175C123.002 116.95 122.753 116.021 122.255 115.389C121.763 114.75 121.033 114.431 120.066 114.431C119.111 114.431 118.391 114.744 117.904 115.371C117.418 115.998 117.175 116.933 117.175 118.175ZM134.867 121.972C135.125 121.972 135.374 121.954 135.614 121.919C135.854 121.878 136.045 121.837 136.186 121.796V122.912C136.027 122.988 135.793 123.05 135.482 123.097C135.178 123.149 134.902 123.176 134.656 123.176C132.793 123.176 131.861 122.194 131.861 120.231V114.501H130.481V113.798L131.861 113.191L132.477 111.135H133.32V113.367H136.115V114.501H133.32V120.17C133.32 120.75 133.458 121.195 133.733 121.506C134.009 121.816 134.387 121.972 134.867 121.972ZM144.711 123V116.769C144.711 115.983 144.532 115.397 144.175 115.011C143.817 114.624 143.258 114.431 142.496 114.431C141.482 114.431 140.741 114.706 140.272 115.257C139.81 115.808 139.578 116.71 139.578 117.964V123H138.119V109.324H139.578V113.464C139.578 113.962 139.555 114.375 139.508 114.703H139.596C139.883 114.24 140.29 113.877 140.817 113.613C141.351 113.344 141.957 113.209 142.637 113.209C143.814 113.209 144.696 113.49 145.282 114.053C145.874 114.609 146.17 115.497 146.17 116.716V123H144.711ZM153.57 113.191C153.998 113.191 154.382 113.227 154.722 113.297L154.52 114.65C154.121 114.562 153.77 114.519 153.465 114.519C152.686 114.519 152.018 114.835 151.461 115.468C150.91 116.101 150.635 116.889 150.635 117.832V123H149.176V113.367H150.38L150.547 115.151H150.617C150.975 114.524 151.405 114.041 151.909 113.701C152.413 113.361 152.967 113.191 153.57 113.191ZM164.838 118.175C164.838 119.745 164.442 120.973 163.651 121.857C162.86 122.736 161.768 123.176 160.373 123.176C159.512 123.176 158.747 122.974 158.079 122.569C157.411 122.165 156.896 121.585 156.532 120.829C156.169 120.073 155.987 119.188 155.987 118.175C155.987 116.604 156.38 115.383 157.165 114.51C157.95 113.631 159.04 113.191 160.435 113.191C161.782 113.191 162.852 113.64 163.643 114.536C164.439 115.433 164.838 116.646 164.838 118.175ZM157.499 118.175C157.499 119.405 157.745 120.343 158.237 120.987C158.729 121.632 159.453 121.954 160.408 121.954C161.363 121.954 162.087 121.635 162.579 120.996C163.077 120.352 163.326 119.411 163.326 118.175C163.326 116.95 163.077 116.021 162.579 115.389C162.087 114.75 161.357 114.431 160.391 114.431C159.436 114.431 158.715 114.744 158.229 115.371C157.742 115.998 157.499 116.933 157.499 118.175ZM168.775 113.367V119.616C168.775 120.401 168.954 120.987 169.312 121.374C169.669 121.761 170.229 121.954 170.99 121.954C171.998 121.954 172.733 121.679 173.196 121.128C173.665 120.577 173.899 119.678 173.899 118.43V113.367H175.358V123H174.154L173.943 121.708H173.864C173.565 122.183 173.149 122.546 172.616 122.798C172.089 123.05 171.485 123.176 170.806 123.176C169.634 123.176 168.755 122.897 168.169 122.341C167.589 121.784 167.299 120.894 167.299 119.669V113.367H168.775ZM186.345 113.367V114.29L184.561 114.501C184.725 114.706 184.871 114.976 185 115.31C185.129 115.638 185.193 116.01 185.193 116.426C185.193 117.369 184.871 118.122 184.227 118.685C183.582 119.247 182.697 119.528 181.572 119.528C181.285 119.528 181.016 119.505 180.764 119.458C180.143 119.786 179.832 120.199 179.832 120.697C179.832 120.961 179.94 121.157 180.157 121.286C180.374 121.409 180.746 121.471 181.273 121.471H182.979C184.021 121.471 184.821 121.69 185.378 122.13C185.94 122.569 186.222 123.208 186.222 124.046C186.222 125.112 185.794 125.924 184.938 126.48C184.083 127.043 182.835 127.324 181.194 127.324C179.935 127.324 178.962 127.09 178.276 126.621C177.597 126.152 177.257 125.49 177.257 124.635C177.257 124.049 177.444 123.542 177.819 123.114C178.194 122.687 178.722 122.396 179.401 122.244C179.155 122.133 178.947 121.96 178.777 121.726C178.613 121.491 178.531 121.219 178.531 120.908C178.531 120.557 178.625 120.249 178.812 119.985C179 119.722 179.296 119.467 179.7 119.221C179.202 119.016 178.795 118.667 178.479 118.175C178.168 117.683 178.013 117.12 178.013 116.487C178.013 115.433 178.329 114.621 178.962 114.053C179.595 113.479 180.491 113.191 181.651 113.191C182.155 113.191 182.609 113.25 183.014 113.367H186.345ZM178.663 124.617C178.663 125.139 178.883 125.534 179.322 125.804C179.762 126.073 180.392 126.208 181.212 126.208C182.437 126.208 183.342 126.023 183.928 125.654C184.52 125.291 184.815 124.796 184.815 124.169C184.815 123.647 184.654 123.284 184.332 123.079C184.01 122.88 183.403 122.78 182.513 122.78H180.764C180.102 122.78 179.586 122.938 179.217 123.255C178.848 123.571 178.663 124.025 178.663 124.617ZM179.454 116.452C179.454 117.126 179.645 117.636 180.025 117.981C180.406 118.327 180.937 118.5 181.616 118.5C183.04 118.5 183.752 117.809 183.752 116.426C183.752 114.979 183.031 114.255 181.59 114.255C180.904 114.255 180.377 114.439 180.008 114.809C179.639 115.178 179.454 115.726 179.454 116.452ZM194.914 123V116.769C194.914 115.983 194.735 115.397 194.378 115.011C194.021 114.624 193.461 114.431 192.699 114.431C191.686 114.431 190.944 114.706 190.476 115.257C190.013 115.808 189.781 116.71 189.781 117.964V123H188.322V109.324H189.781V113.464C189.781 113.962 189.758 114.375 189.711 114.703H189.799C190.086 114.24 190.493 113.877 191.021 113.613C191.554 113.344 192.16 113.209 192.84 113.209C194.018 113.209 194.899 113.49 195.485 114.053C196.077 114.609 196.373 115.497 196.373 116.716V123H194.914ZM216.333 123V116.733C216.333 115.966 216.169 115.392 215.841 115.011C215.513 114.624 215.003 114.431 214.312 114.431C213.403 114.431 212.732 114.691 212.299 115.213C211.865 115.734 211.648 116.537 211.648 117.621V123H210.189V116.733C210.189 115.966 210.025 115.392 209.697 115.011C209.369 114.624 208.856 114.431 208.159 114.431C207.245 114.431 206.574 114.706 206.146 115.257C205.725 115.802 205.514 116.698 205.514 117.946V123H204.055V113.367H205.241L205.479 114.686H205.549C205.824 114.217 206.211 113.851 206.709 113.587C207.213 113.323 207.775 113.191 208.396 113.191C209.902 113.191 210.887 113.736 211.35 114.826H211.42C211.707 114.322 212.123 113.924 212.668 113.631C213.213 113.338 213.834 113.191 214.531 113.191C215.621 113.191 216.436 113.473 216.975 114.035C217.52 114.592 217.792 115.485 217.792 116.716V123H216.333ZM229.121 118.175C229.121 119.745 228.726 120.973 227.935 121.857C227.144 122.736 226.051 123.176 224.656 123.176C223.795 123.176 223.03 122.974 222.362 122.569C221.694 122.165 221.179 121.585 220.815 120.829C220.452 120.073 220.271 119.188 220.271 118.175C220.271 116.604 220.663 115.383 221.448 114.51C222.233 113.631 223.323 113.191 224.718 113.191C226.065 113.191 227.135 113.64 227.926 114.536C228.723 115.433 229.121 116.646 229.121 118.175ZM221.782 118.175C221.782 119.405 222.028 120.343 222.521 120.987C223.013 121.632 223.736 121.954 224.691 121.954C225.646 121.954 226.37 121.635 226.862 120.996C227.36 120.352 227.609 119.411 227.609 118.175C227.609 116.95 227.36 116.021 226.862 115.389C226.37 114.75 225.641 114.431 224.674 114.431C223.719 114.431 222.998 114.744 222.512 115.371C222.025 115.998 221.782 116.933 221.782 118.175ZM238.244 121.708H238.165C237.491 122.687 236.483 123.176 235.142 123.176C233.882 123.176 232.9 122.745 232.197 121.884C231.5 121.022 231.151 119.798 231.151 118.21C231.151 116.622 231.503 115.389 232.206 114.51C232.909 113.631 233.888 113.191 235.142 113.191C236.448 113.191 237.45 113.666 238.147 114.615H238.262L238.2 113.921L238.165 113.244V109.324H239.624V123H238.438L238.244 121.708ZM235.326 121.954C236.322 121.954 237.043 121.685 237.488 121.146C237.939 120.601 238.165 119.725 238.165 118.518V118.21C238.165 116.845 237.937 115.872 237.479 115.292C237.028 114.706 236.305 114.413 235.309 114.413C234.453 114.413 233.797 114.747 233.34 115.415C232.889 116.077 232.663 117.015 232.663 118.228C232.663 119.458 232.889 120.387 233.34 121.014C233.791 121.641 234.453 121.954 235.326 121.954ZM244.098 113.367V119.616C244.098 120.401 244.276 120.987 244.634 121.374C244.991 121.761 245.551 121.954 246.312 121.954C247.32 121.954 248.056 121.679 248.519 121.128C248.987 120.577 249.222 119.678 249.222 118.43V113.367H250.681V123H249.477L249.266 121.708H249.187C248.888 122.183 248.472 122.546 247.938 122.798C247.411 123.05 246.808 123.176 246.128 123.176C244.956 123.176 244.077 122.897 243.491 122.341C242.911 121.784 242.621 120.894 242.621 119.669V113.367H244.098ZM255.242 123H253.783V109.324H255.242V123ZM262.405 123.176C260.981 123.176 259.856 122.742 259.03 121.875C258.21 121.008 257.8 119.804 257.8 118.263C257.8 116.71 258.181 115.477 258.942 114.562C259.71 113.648 260.738 113.191 262.027 113.191C263.234 113.191 264.189 113.59 264.893 114.387C265.596 115.178 265.947 116.224 265.947 117.524V118.447H259.312C259.341 119.578 259.625 120.437 260.164 121.022C260.709 121.608 261.474 121.901 262.458 121.901C263.495 121.901 264.521 121.685 265.534 121.251V122.552C265.019 122.774 264.529 122.933 264.066 123.026C263.609 123.126 263.056 123.176 262.405 123.176ZM262.01 114.413C261.236 114.413 260.618 114.665 260.155 115.169C259.698 115.673 259.429 116.37 259.347 117.261H264.383C264.383 116.341 264.178 115.638 263.768 115.151C263.357 114.659 262.771 114.413 262.01 114.413ZM274.657 120.372C274.657 121.269 274.323 121.96 273.655 122.446C272.987 122.933 272.05 123.176 270.843 123.176C269.565 123.176 268.569 122.974 267.854 122.569V121.216C268.317 121.45 268.812 121.635 269.34 121.77C269.873 121.904 270.386 121.972 270.878 121.972C271.64 121.972 272.226 121.852 272.636 121.611C273.046 121.365 273.251 120.993 273.251 120.495C273.251 120.12 273.087 119.801 272.759 119.537C272.437 119.268 271.804 118.951 270.86 118.588C269.964 118.254 269.325 117.964 268.944 117.718C268.569 117.466 268.288 117.182 268.101 116.865C267.919 116.549 267.828 116.171 267.828 115.731C267.828 114.946 268.147 114.328 268.786 113.877C269.425 113.42 270.301 113.191 271.414 113.191C272.451 113.191 273.465 113.402 274.455 113.824L273.937 115.011C272.97 114.612 272.094 114.413 271.309 114.413C270.617 114.413 270.096 114.521 269.744 114.738C269.393 114.955 269.217 115.254 269.217 115.635C269.217 115.893 269.281 116.112 269.41 116.294C269.545 116.476 269.759 116.648 270.052 116.812C270.345 116.977 270.907 117.214 271.739 117.524C272.882 117.94 273.652 118.359 274.051 118.781C274.455 119.203 274.657 119.733 274.657 120.372ZM76.1035 146.708H76.0244C75.3506 147.687 74.3428 148.176 73.001 148.176C71.7412 148.176 70.7598 147.745 70.0566 146.884C69.3594 146.022 69.0107 144.798 69.0107 143.21C69.0107 141.622 69.3623 140.389 70.0654 139.51C70.7686 138.631 71.7471 138.191 73.001 138.191C74.3076 138.191 75.3096 138.666 76.0068 139.615H76.1211L76.0596 138.921L76.0244 138.244V134.324H77.4834V148H76.2969L76.1035 146.708ZM73.1855 146.954C74.1816 146.954 74.9023 146.685 75.3477 146.146C75.7988 145.601 76.0244 144.725 76.0244 143.518V143.21C76.0244 141.845 75.7959 140.872 75.3389 140.292C74.8877 139.706 74.1641 139.413 73.168 139.413C72.3125 139.413 71.6562 139.747 71.1992 140.415C70.748 141.077 70.5225 142.015 70.5225 143.228C70.5225 144.458 70.748 145.387 71.1992 146.014C71.6504 146.641 72.3125 146.954 73.1855 146.954ZM84.6553 148.176C83.2314 148.176 82.1064 147.742 81.2803 146.875C80.46 146.008 80.0498 144.804 80.0498 143.263C80.0498 141.71 80.4307 140.477 81.1924 139.562C81.96 138.648 82.9883 138.191 84.2773 138.191C85.4844 138.191 86.4395 138.59 87.1426 139.387C87.8457 140.178 88.1973 141.224 88.1973 142.524V143.447H81.5615C81.5908 144.578 81.875 145.437 82.4141 146.022C82.959 146.608 83.7236 146.901 84.708 146.901C85.7451 146.901 86.7705 146.685 87.7842 146.251V147.552C87.2686 147.774 86.7793 147.933 86.3164 148.026C85.8594 148.126 85.3057 148.176 84.6553 148.176ZM84.2598 139.413C83.4863 139.413 82.8682 139.665 82.4053 140.169C81.9482 140.673 81.6787 141.37 81.5967 142.261H86.6328C86.6328 141.341 86.4277 140.638 86.0176 140.151C85.6074 139.659 85.0215 139.413 84.2598 139.413ZM95.1758 148.176C94.5488 148.176 93.9746 148.062 93.4531 147.833C92.9375 147.599 92.5039 147.241 92.1523 146.761H92.0469C92.1172 147.323 92.1523 147.856 92.1523 148.36V152.324H90.6934V138.367H91.8799L92.082 139.686H92.1523C92.5273 139.158 92.9639 138.777 93.4619 138.543C93.96 138.309 94.5312 138.191 95.1758 138.191C96.4531 138.191 97.4375 138.628 98.1289 139.501C98.8262 140.374 99.1748 141.599 99.1748 143.175C99.1748 144.757 98.8203 145.987 98.1113 146.866C97.4082 147.739 96.4297 148.176 95.1758 148.176ZM94.9648 139.431C93.9805 139.431 93.2686 139.703 92.8291 140.248C92.3896 140.793 92.1641 141.66 92.1523 142.85V143.175C92.1523 144.528 92.3779 145.498 92.8291 146.084C93.2803 146.664 94.0039 146.954 95 146.954C95.832 146.954 96.4824 146.617 96.9512 145.943C97.4258 145.27 97.6631 144.341 97.6631 143.157C97.6631 141.956 97.4258 141.036 96.9512 140.397C96.4824 139.753 95.8203 139.431 94.9648 139.431ZM105.802 148.176C104.378 148.176 103.253 147.742 102.427 146.875C101.606 146.008 101.196 144.804 101.196 143.263C101.196 141.71 101.577 140.477 102.339 139.562C103.106 138.648 104.135 138.191 105.424 138.191C106.631 138.191 107.586 138.59 108.289 139.387C108.992 140.178 109.344 141.224 109.344 142.524V143.447H102.708C102.737 144.578 103.021 145.437 103.561 146.022C104.105 146.608 104.87 146.901 105.854 146.901C106.892 146.901 107.917 146.685 108.931 146.251V147.552C108.415 147.774 107.926 147.933 107.463 148.026C107.006 148.126 106.452 148.176 105.802 148.176ZM105.406 139.413C104.633 139.413 104.015 139.665 103.552 140.169C103.095 140.673 102.825 141.37 102.743 142.261H107.779C107.779 141.341 107.574 140.638 107.164 140.151C106.754 139.659 106.168 139.413 105.406 139.413ZM118.432 148V141.769C118.432 140.983 118.253 140.397 117.896 140.011C117.538 139.624 116.979 139.431 116.217 139.431C115.209 139.431 114.471 139.703 114.002 140.248C113.533 140.793 113.299 141.692 113.299 142.946V148H111.84V138.367H113.026L113.264 139.686H113.334C113.633 139.211 114.052 138.845 114.591 138.587C115.13 138.323 115.73 138.191 116.393 138.191C117.553 138.191 118.426 138.473 119.012 139.035C119.598 139.592 119.891 140.485 119.891 141.716V148H118.432ZM129.453 146.708H129.374C128.7 147.687 127.692 148.176 126.351 148.176C125.091 148.176 124.109 147.745 123.406 146.884C122.709 146.022 122.36 144.798 122.36 143.21C122.36 141.622 122.712 140.389 123.415 139.51C124.118 138.631 125.097 138.191 126.351 138.191C127.657 138.191 128.659 138.666 129.356 139.615H129.471L129.409 138.921L129.374 138.244V134.324H130.833V148H129.646L129.453 146.708ZM126.535 146.954C127.531 146.954 128.252 146.685 128.697 146.146C129.148 145.601 129.374 144.725 129.374 143.518V143.21C129.374 141.845 129.146 140.872 128.688 140.292C128.237 139.706 127.514 139.413 126.518 139.413C125.662 139.413 125.006 139.747 124.549 140.415C124.098 141.077 123.872 142.015 123.872 143.228C123.872 144.458 124.098 145.387 124.549 146.014C125 146.641 125.662 146.954 126.535 146.954ZM135.395 148H133.936V138.367H135.395V148ZM133.812 135.757C133.812 135.423 133.895 135.18 134.059 135.027C134.223 134.869 134.428 134.79 134.674 134.79C134.908 134.79 135.11 134.869 135.28 135.027C135.45 135.186 135.535 135.429 135.535 135.757C135.535 136.085 135.45 136.331 135.28 136.495C135.11 136.653 134.908 136.732 134.674 136.732C134.428 136.732 134.223 136.653 134.059 136.495C133.895 136.331 133.812 136.085 133.812 135.757ZM145.08 148V141.769C145.08 140.983 144.901 140.397 144.544 140.011C144.187 139.624 143.627 139.431 142.865 139.431C141.857 139.431 141.119 139.703 140.65 140.248C140.182 140.793 139.947 141.692 139.947 142.946V148H138.488V138.367H139.675L139.912 139.686H139.982C140.281 139.211 140.7 138.845 141.239 138.587C141.778 138.323 142.379 138.191 143.041 138.191C144.201 138.191 145.074 138.473 145.66 139.035C146.246 139.592 146.539 140.485 146.539 141.716V148H145.08ZM157.429 138.367V139.29L155.645 139.501C155.809 139.706 155.955 139.976 156.084 140.31C156.213 140.638 156.277 141.01 156.277 141.426C156.277 142.369 155.955 143.122 155.311 143.685C154.666 144.247 153.781 144.528 152.656 144.528C152.369 144.528 152.1 144.505 151.848 144.458C151.227 144.786 150.916 145.199 150.916 145.697C150.916 145.961 151.024 146.157 151.241 146.286C151.458 146.409 151.83 146.471 152.357 146.471H154.062C155.105 146.471 155.905 146.69 156.462 147.13C157.024 147.569 157.306 148.208 157.306 149.046C157.306 150.112 156.878 150.924 156.022 151.48C155.167 152.043 153.919 152.324 152.278 152.324C151.019 152.324 150.046 152.09 149.36 151.621C148.681 151.152 148.341 150.49 148.341 149.635C148.341 149.049 148.528 148.542 148.903 148.114C149.278 147.687 149.806 147.396 150.485 147.244C150.239 147.133 150.031 146.96 149.861 146.726C149.697 146.491 149.615 146.219 149.615 145.908C149.615 145.557 149.709 145.249 149.896 144.985C150.084 144.722 150.38 144.467 150.784 144.221C150.286 144.016 149.879 143.667 149.562 143.175C149.252 142.683 149.097 142.12 149.097 141.487C149.097 140.433 149.413 139.621 150.046 139.053C150.679 138.479 151.575 138.191 152.735 138.191C153.239 138.191 153.693 138.25 154.098 138.367H157.429ZM149.747 149.617C149.747 150.139 149.967 150.534 150.406 150.804C150.846 151.073 151.476 151.208 152.296 151.208C153.521 151.208 154.426 151.023 155.012 150.654C155.604 150.291 155.899 149.796 155.899 149.169C155.899 148.647 155.738 148.284 155.416 148.079C155.094 147.88 154.487 147.78 153.597 147.78H151.848C151.186 147.78 150.67 147.938 150.301 148.255C149.932 148.571 149.747 149.025 149.747 149.617ZM150.538 141.452C150.538 142.126 150.729 142.636 151.109 142.981C151.49 143.327 152.021 143.5 152.7 143.5C154.124 143.5 154.836 142.809 154.836 141.426C154.836 139.979 154.115 139.255 152.674 139.255C151.988 139.255 151.461 139.439 151.092 139.809C150.723 140.178 150.538 140.726 150.538 141.452ZM172.396 143.175C172.396 144.745 172.001 145.973 171.21 146.857C170.419 147.736 169.326 148.176 167.932 148.176C167.07 148.176 166.306 147.974 165.638 147.569C164.97 147.165 164.454 146.585 164.091 145.829C163.728 145.073 163.546 144.188 163.546 143.175C163.546 141.604 163.938 140.383 164.724 139.51C165.509 138.631 166.599 138.191 167.993 138.191C169.341 138.191 170.41 138.64 171.201 139.536C171.998 140.433 172.396 141.646 172.396 143.175ZM165.058 143.175C165.058 144.405 165.304 145.343 165.796 145.987C166.288 146.632 167.012 146.954 167.967 146.954C168.922 146.954 169.646 146.635 170.138 145.996C170.636 145.352 170.885 144.411 170.885 143.175C170.885 141.95 170.636 141.021 170.138 140.389C169.646 139.75 168.916 139.431 167.949 139.431C166.994 139.431 166.273 139.744 165.787 140.371C165.301 140.998 165.058 141.933 165.058 143.175ZM181.555 148V141.769C181.555 140.983 181.376 140.397 181.019 140.011C180.661 139.624 180.102 139.431 179.34 139.431C178.332 139.431 177.594 139.703 177.125 140.248C176.656 140.793 176.422 141.692 176.422 142.946V148H174.963V138.367H176.149L176.387 139.686H176.457C176.756 139.211 177.175 138.845 177.714 138.587C178.253 138.323 178.854 138.191 179.516 138.191C180.676 138.191 181.549 138.473 182.135 139.035C182.721 139.592 183.014 140.485 183.014 141.716V148H181.555ZM198.562 148L196.795 142.349C196.684 142.003 196.476 141.218 196.171 139.993H196.101C195.866 141.019 195.661 141.81 195.485 142.366L193.666 148H191.979L189.351 138.367H190.88C191.501 140.787 191.973 142.63 192.295 143.896C192.623 145.161 192.811 146.014 192.857 146.453H192.928C192.992 146.119 193.095 145.688 193.235 145.161C193.382 144.628 193.508 144.206 193.613 143.896L195.38 138.367H196.962L198.685 143.896C199.013 144.903 199.235 145.75 199.353 146.436H199.423C199.446 146.225 199.508 145.899 199.607 145.46C199.713 145.021 200.325 142.656 201.444 138.367H202.956L200.293 148H198.562ZM211.297 148V141.769C211.297 140.983 211.118 140.397 210.761 140.011C210.403 139.624 209.844 139.431 209.082 139.431C208.068 139.431 207.327 139.706 206.858 140.257C206.396 140.808 206.164 141.71 206.164 142.964V148H204.705V134.324H206.164V138.464C206.164 138.962 206.141 139.375 206.094 139.703H206.182C206.469 139.24 206.876 138.877 207.403 138.613C207.937 138.344 208.543 138.209 209.223 138.209C210.4 138.209 211.282 138.49 211.868 139.053C212.46 139.609 212.756 140.497 212.756 141.716V148H211.297ZM221.686 148L221.396 146.629H221.325C220.845 147.232 220.364 147.643 219.884 147.859C219.409 148.07 218.814 148.176 218.1 148.176C217.145 148.176 216.395 147.93 215.85 147.438C215.311 146.945 215.041 146.245 215.041 145.337C215.041 143.392 216.597 142.372 219.708 142.278L221.343 142.226V141.628C221.343 140.872 221.179 140.315 220.851 139.958C220.528 139.595 220.01 139.413 219.295 139.413C218.492 139.413 217.584 139.659 216.57 140.151L216.122 139.035C216.597 138.777 217.115 138.575 217.678 138.429C218.246 138.282 218.814 138.209 219.383 138.209C220.531 138.209 221.381 138.464 221.932 138.974C222.488 139.483 222.767 140.301 222.767 141.426V148H221.686ZM218.39 146.972C219.298 146.972 220.01 146.723 220.525 146.225C221.047 145.727 221.308 145.029 221.308 144.133V143.263L219.849 143.324C218.688 143.365 217.851 143.547 217.335 143.869C216.825 144.186 216.57 144.681 216.57 145.354C216.57 145.882 216.729 146.283 217.045 146.559C217.367 146.834 217.815 146.972 218.39 146.972ZM228.893 146.972C229.15 146.972 229.399 146.954 229.64 146.919C229.88 146.878 230.07 146.837 230.211 146.796V147.912C230.053 147.988 229.818 148.05 229.508 148.097C229.203 148.149 228.928 148.176 228.682 148.176C226.818 148.176 225.887 147.194 225.887 145.231V139.501H224.507V138.798L225.887 138.191L226.502 136.135H227.346V138.367H230.141V139.501H227.346V145.17C227.346 145.75 227.483 146.195 227.759 146.506C228.034 146.816 228.412 146.972 228.893 146.972ZM239.932 146.972C240.189 146.972 240.438 146.954 240.679 146.919C240.919 146.878 241.109 146.837 241.25 146.796V147.912C241.092 147.988 240.857 148.05 240.547 148.097C240.242 148.149 239.967 148.176 239.721 148.176C237.857 148.176 236.926 147.194 236.926 145.231V139.501H235.546V138.798L236.926 138.191L237.541 136.135H238.385V138.367H241.18V139.501H238.385V145.17C238.385 145.75 238.522 146.195 238.798 146.506C239.073 146.816 239.451 146.972 239.932 146.972ZM249.775 148V141.769C249.775 140.983 249.597 140.397 249.239 140.011C248.882 139.624 248.322 139.431 247.561 139.431C246.547 139.431 245.806 139.706 245.337 140.257C244.874 140.808 244.643 141.71 244.643 142.964V148H243.184V134.324H244.643V138.464C244.643 138.962 244.619 139.375 244.572 139.703H244.66C244.947 139.24 245.354 138.877 245.882 138.613C246.415 138.344 247.021 138.209 247.701 138.209C248.879 138.209 249.761 138.49 250.347 139.053C250.938 139.609 251.234 140.497 251.234 141.716V148H249.775ZM258.31 148.176C256.886 148.176 255.761 147.742 254.935 146.875C254.114 146.008 253.704 144.804 253.704 143.263C253.704 141.71 254.085 140.477 254.847 139.562C255.614 138.648 256.643 138.191 257.932 138.191C259.139 138.191 260.094 138.59 260.797 139.387C261.5 140.178 261.852 141.224 261.852 142.524V143.447H255.216C255.245 144.578 255.529 145.437 256.068 146.022C256.613 146.608 257.378 146.901 258.362 146.901C259.399 146.901 260.425 146.685 261.438 146.251V147.552C260.923 147.774 260.434 147.933 259.971 148.026C259.514 148.126 258.96 148.176 258.31 148.176ZM257.914 139.413C257.141 139.413 256.522 139.665 256.06 140.169C255.603 140.673 255.333 141.37 255.251 142.261H260.287C260.287 141.341 260.082 140.638 259.672 140.151C259.262 139.659 258.676 139.413 257.914 139.413ZM262.818 138.367H264.383L266.492 143.86C266.955 145.114 267.242 146.02 267.354 146.576H267.424C267.5 146.277 267.658 145.768 267.898 145.047C268.145 144.32 268.941 142.094 270.289 138.367H271.854L267.714 149.336C267.304 150.42 266.823 151.188 266.272 151.639C265.728 152.096 265.057 152.324 264.26 152.324C263.814 152.324 263.375 152.274 262.941 152.175V151.006C263.264 151.076 263.624 151.111 264.022 151.111C265.024 151.111 265.739 150.549 266.167 149.424L266.703 148.053L262.818 138.367ZM284.018 148L283.728 146.629H283.657C283.177 147.232 282.696 147.643 282.216 147.859C281.741 148.07 281.146 148.176 280.432 148.176C279.477 148.176 278.727 147.93 278.182 147.438C277.643 146.945 277.373 146.245 277.373 145.337C277.373 143.392 278.929 142.372 282.04 142.278L283.675 142.226V141.628C283.675 140.872 283.511 140.315 283.183 139.958C282.86 139.595 282.342 139.413 281.627 139.413C280.824 139.413 279.916 139.659 278.902 140.151L278.454 139.035C278.929 138.777 279.447 138.575 280.01 138.429C280.578 138.282 281.146 138.209 281.715 138.209C282.863 138.209 283.713 138.464 284.264 138.974C284.82 139.483 285.099 140.301 285.099 141.426V148H284.018ZM280.722 146.972C281.63 146.972 282.342 146.723 282.857 146.225C283.379 145.727 283.64 145.029 283.64 144.133V143.263L282.181 143.324C281.021 143.365 280.183 143.547 279.667 143.869C279.157 144.186 278.902 144.681 278.902 145.354C278.902 145.882 279.061 146.283 279.377 146.559C279.699 146.834 280.147 146.972 280.722 146.972ZM292.508 138.191C292.936 138.191 293.319 138.227 293.659 138.297L293.457 139.65C293.059 139.562 292.707 139.519 292.402 139.519C291.623 139.519 290.955 139.835 290.398 140.468C289.848 141.101 289.572 141.889 289.572 142.832V148H288.113V138.367H289.317L289.484 140.151H289.555C289.912 139.524 290.343 139.041 290.847 138.701C291.351 138.361 291.904 138.191 292.508 138.191ZM299.53 148.176C298.106 148.176 296.981 147.742 296.155 146.875C295.335 146.008 294.925 144.804 294.925 143.263C294.925 141.71 295.306 140.477 296.067 139.562C296.835 138.648 297.863 138.191 299.152 138.191C300.359 138.191 301.314 138.59 302.018 139.387C302.721 140.178 303.072 141.224 303.072 142.524V143.447H296.437C296.466 144.578 296.75 145.437 297.289 146.022C297.834 146.608 298.599 146.901 299.583 146.901C300.62 146.901 301.646 146.685 302.659 146.251V147.552C302.144 147.774 301.654 147.933 301.191 148.026C300.734 148.126 300.181 148.176 299.53 148.176ZM299.135 139.413C298.361 139.413 297.743 139.665 297.28 140.169C296.823 140.673 296.554 141.37 296.472 142.261H301.508C301.508 141.341 301.303 140.638 300.893 140.151C300.482 139.659 299.896 139.413 299.135 139.413ZM73.8887 164.501H71.4365V173H69.9775V164.501H68.2549V163.842L69.9775 163.314V162.778C69.9775 160.411 71.0117 159.228 73.0801 159.228C73.5898 159.228 74.1875 159.33 74.873 159.535L74.4951 160.704C73.9326 160.522 73.4521 160.432 73.0537 160.432C72.5029 160.432 72.0957 160.616 71.832 160.985C71.5684 161.349 71.4365 161.935 71.4365 162.743V163.367H73.8887V164.501ZM79.7158 173.176C78.292 173.176 77.167 172.742 76.3408 171.875C75.5205 171.008 75.1104 169.804 75.1104 168.263C75.1104 166.71 75.4912 165.477 76.2529 164.562C77.0205 163.648 78.0488 163.191 79.3379 163.191C80.5449 163.191 81.5 163.59 82.2031 164.387C82.9062 165.178 83.2578 166.224 83.2578 167.524V168.447H76.6221C76.6514 169.578 76.9355 170.437 77.4746 171.022C78.0195 171.608 78.7842 171.901 79.7686 171.901C80.8057 171.901 81.8311 171.685 82.8447 171.251V172.552C82.3291 172.774 81.8398 172.933 81.377 173.026C80.9199 173.126 80.3662 173.176 79.7158 173.176ZM79.3203 164.413C78.5469 164.413 77.9287 164.665 77.4658 165.169C77.0088 165.673 76.7393 166.37 76.6572 167.261H81.6934C81.6934 166.341 81.4883 165.638 81.0781 165.151C80.668 164.659 80.082 164.413 79.3203 164.413ZM89.8232 173.176C88.3994 173.176 87.2744 172.742 86.4482 171.875C85.6279 171.008 85.2178 169.804 85.2178 168.263C85.2178 166.71 85.5986 165.477 86.3604 164.562C87.1279 163.648 88.1562 163.191 89.4453 163.191C90.6523 163.191 91.6074 163.59 92.3105 164.387C93.0137 165.178 93.3652 166.224 93.3652 167.524V168.447H86.7295C86.7588 169.578 87.043 170.437 87.582 171.022C88.127 171.608 88.8916 171.901 89.876 171.901C90.9131 171.901 91.9385 171.685 92.9521 171.251V172.552C92.4365 172.774 91.9473 172.933 91.4844 173.026C91.0273 173.126 90.4736 173.176 89.8232 173.176ZM89.4277 164.413C88.6543 164.413 88.0361 164.665 87.5732 165.169C87.1162 165.673 86.8467 166.37 86.7646 167.261H91.8008C91.8008 166.341 91.5957 165.638 91.1855 165.151C90.7754 164.659 90.1895 164.413 89.4277 164.413ZM97.3203 173H95.8613V159.324H97.3203V173ZM101.873 173H100.414V163.367H101.873V173ZM100.291 160.757C100.291 160.423 100.373 160.18 100.537 160.027C100.701 159.869 100.906 159.79 101.152 159.79C101.387 159.79 101.589 159.869 101.759 160.027C101.929 160.186 102.014 160.429 102.014 160.757C102.014 161.085 101.929 161.331 101.759 161.495C101.589 161.653 101.387 161.732 101.152 161.732C100.906 161.732 100.701 161.653 100.537 161.495C100.373 161.331 100.291 161.085 100.291 160.757ZM111.559 173V166.769C111.559 165.983 111.38 165.397 111.022 165.011C110.665 164.624 110.105 164.431 109.344 164.431C108.336 164.431 107.598 164.703 107.129 165.248C106.66 165.793 106.426 166.692 106.426 167.946V173H104.967V163.367H106.153L106.391 164.686H106.461C106.76 164.211 107.179 163.845 107.718 163.587C108.257 163.323 108.857 163.191 109.52 163.191C110.68 163.191 111.553 163.473 112.139 164.035C112.725 164.592 113.018 165.485 113.018 166.716V173H111.559ZM123.907 163.367V164.29L122.123 164.501C122.287 164.706 122.434 164.976 122.562 165.31C122.691 165.638 122.756 166.01 122.756 166.426C122.756 167.369 122.434 168.122 121.789 168.685C121.145 169.247 120.26 169.528 119.135 169.528C118.848 169.528 118.578 169.505 118.326 169.458C117.705 169.786 117.395 170.199 117.395 170.697C117.395 170.961 117.503 171.157 117.72 171.286C117.937 171.409 118.309 171.471 118.836 171.471H120.541C121.584 171.471 122.384 171.69 122.94 172.13C123.503 172.569 123.784 173.208 123.784 174.046C123.784 175.112 123.356 175.924 122.501 176.48C121.646 177.043 120.397 177.324 118.757 177.324C117.497 177.324 116.524 177.09 115.839 176.621C115.159 176.152 114.819 175.49 114.819 174.635C114.819 174.049 115.007 173.542 115.382 173.114C115.757 172.687 116.284 172.396 116.964 172.244C116.718 172.133 116.51 171.96 116.34 171.726C116.176 171.491 116.094 171.219 116.094 170.908C116.094 170.557 116.188 170.249 116.375 169.985C116.562 169.722 116.858 169.467 117.263 169.221C116.765 169.016 116.357 168.667 116.041 168.175C115.73 167.683 115.575 167.12 115.575 166.487C115.575 165.433 115.892 164.621 116.524 164.053C117.157 163.479 118.054 163.191 119.214 163.191C119.718 163.191 120.172 163.25 120.576 163.367H123.907ZM116.226 174.617C116.226 175.139 116.445 175.534 116.885 175.804C117.324 176.073 117.954 176.208 118.774 176.208C119.999 176.208 120.904 176.023 121.49 175.654C122.082 175.291 122.378 174.796 122.378 174.169C122.378 173.647 122.217 173.284 121.895 173.079C121.572 172.88 120.966 172.78 120.075 172.78H118.326C117.664 172.78 117.148 172.938 116.779 173.255C116.41 173.571 116.226 174.025 116.226 174.617ZM117.017 166.452C117.017 167.126 117.207 167.636 117.588 167.981C117.969 168.327 118.499 168.5 119.179 168.5C120.603 168.5 121.314 167.809 121.314 166.426C121.314 164.979 120.594 164.255 119.152 164.255C118.467 164.255 117.939 164.439 117.57 164.809C117.201 165.178 117.017 165.726 117.017 166.452ZM125.674 172.068C125.674 171.676 125.762 171.38 125.938 171.181C126.119 170.976 126.377 170.873 126.711 170.873C127.051 170.873 127.314 170.976 127.502 171.181C127.695 171.38 127.792 171.676 127.792 172.068C127.792 172.449 127.695 172.742 127.502 172.947C127.309 173.152 127.045 173.255 126.711 173.255C126.412 173.255 126.163 173.164 125.964 172.982C125.771 172.795 125.674 172.49 125.674 172.068Z" fill="#1092A7"/>
</svg>
