<svg width="955" height="346" viewBox="0 0 955 346" fill="none" xmlns="http://www.w3.org/2000/svg">
<rect width="955" height="346" fill="white"/>
<path d="M448.976 185.455C443.36 185.455 438.581 187.078 434.62 190.333C430.656 193.587 428.676 197.54 428.676 202.173C428.676 207.419 430.68 211.528 434.682 214.521C438.699 217.512 443.36 219.009 448.707 219.009C454.144 219.009 458.882 217.534 462.937 214.575C466.991 211.624 469.007 207.494 469.007 202.176C469.007 197.54 467.073 193.59 463.203 190.335C459.324 187.078 454.587 185.455 448.976 185.455" fill="#FBC352" fill-opacity="0.42"/>
<path d="M506.221 70.2646C501.077 63.0894 493.708 57.3358 484.307 53.1865C474.972 49.0561 464.097 46.9761 451.962 46.9761C438.907 46.9761 427.29 49.478 417.446 54.42C407.582 59.3593 399.979 65.7015 394.817 73.2851C389.619 80.893 387 88.5412 387 96.0227C387 100.027 388.805 103.754 392.364 107.105C395.942 110.475 400.395 112.184 405.592 112.184C414.44 112.184 420.505 107.401 423.584 98.0463C426.388 90.2879 429.842 84.3839 433.838 80.4684C437.6 76.7814 443.7 74.9164 451.965 74.9164C459.093 74.9164 464.715 76.7491 469.177 80.5221C473.572 84.2522 475.708 88.7024 475.708 94.1147C475.734 96.7355 475.014 99.3172 473.619 101.604C472.136 104.046 470.29 106.288 468.134 108.264C465.849 110.36 462.081 113.523 456.931 117.65C450.931 122.474 446.088 126.712 442.552 130.208C438.812 133.952 435.809 138.262 433.674 142.946C431.445 147.794 430.317 153.567 430.317 160.11C430.317 165.703 432.016 170.032 435.376 172.983C438.702 175.912 442.842 177.398 447.69 177.398C456.96 177.398 462.782 172.752 464.51 164.061C465.407 160.446 466.06 157.92 466.502 156.477C466.904 155.171 467.484 153.833 468.231 152.495C468.955 151.199 470.103 149.724 471.641 148.101C473.25 146.405 475.438 144.403 478.107 142.17C488.095 133.984 495.138 128.053 499.046 124.543C503.078 120.918 506.594 116.578 509.509 111.628C512.485 106.549 514 100.586 514 93.897C513.994 85.4212 511.375 77.4774 506.204 70.2726" fill="#FBC352" fill-opacity="0.42"/>
<path d="M125.208 121H120.642V102.523H99.9634V121H95.3979V81.7373H99.9634V98.4414H120.642V81.7373H125.208V121ZM160.737 106.256C160.737 111.055 159.529 114.805 157.112 117.509C154.695 120.194 151.356 121.537 147.095 121.537C144.463 121.537 142.126 120.919 140.085 119.684C138.044 118.449 136.469 116.676 135.359 114.367C134.249 112.057 133.694 109.354 133.694 106.256C133.694 101.458 134.893 97.7253 137.292 95.0576C139.692 92.3721 143.022 91.0293 147.283 91.0293C151.401 91.0293 154.668 92.3989 157.085 95.1382C159.52 97.8774 160.737 101.583 160.737 106.256ZM138.313 106.256C138.313 110.016 139.065 112.881 140.569 114.85C142.073 116.819 144.284 117.804 147.202 117.804C150.12 117.804 152.332 116.828 153.835 114.877C155.357 112.908 156.118 110.034 156.118 106.256C156.118 102.514 155.357 99.6768 153.835 97.7432C152.332 95.7917 150.103 94.8159 147.148 94.8159C144.23 94.8159 142.028 95.7738 140.542 97.6895C139.056 99.6051 138.313 102.461 138.313 106.256ZM192.615 121L187.217 103.732C186.877 102.676 186.241 100.277 185.31 96.5347H185.095C184.379 99.6678 183.752 102.085 183.215 103.786L177.656 121H172.5L164.47 91.5664H169.143C171.041 98.9606 172.482 104.591 173.467 108.458C174.469 112.326 175.042 114.931 175.186 116.273H175.4C175.597 115.253 175.911 113.937 176.34 112.326C176.788 110.696 177.173 109.407 177.495 108.458L182.893 91.5664H187.727L192.991 108.458C193.993 111.538 194.674 114.125 195.032 116.22H195.247C195.318 115.575 195.506 114.582 195.811 113.239C196.133 111.896 198.004 104.672 201.423 91.5664H206.042L197.905 121H192.615ZM263.191 121V101.852C263.191 99.5067 262.69 97.7521 261.687 96.5884C260.684 95.4067 259.127 94.8159 257.014 94.8159C254.239 94.8159 252.189 95.6126 250.864 97.2061C249.539 98.7995 248.877 101.252 248.877 104.564V121H244.419V101.852C244.419 99.5067 243.918 97.7521 242.915 96.5884C241.912 95.4067 240.346 94.8159 238.215 94.8159C235.422 94.8159 233.372 95.6574 232.065 97.3403C230.776 99.0054 230.132 101.745 230.132 105.558V121H225.674V91.5664H229.299L230.024 95.5947H230.239C231.081 94.1624 232.262 93.0435 233.784 92.2378C235.324 91.4321 237.043 91.0293 238.94 91.0293C243.542 91.0293 246.549 92.6943 247.964 96.0244H248.179C249.056 94.4847 250.327 93.2673 251.992 92.3721C253.657 91.4769 255.555 91.0293 257.686 91.0293C261.016 91.0293 263.504 91.8887 265.151 93.6074C266.816 95.3083 267.649 98.0386 267.649 101.798V121H263.191ZM281.318 121H276.86V91.5664H281.318V121ZM276.484 83.5903C276.484 82.5698 276.735 81.8268 277.236 81.3613C277.738 80.8779 278.364 80.6362 279.116 80.6362C279.832 80.6362 280.45 80.8779 280.969 81.3613C281.488 81.8447 281.748 82.5877 281.748 83.5903C281.748 84.5929 281.488 85.3449 280.969 85.8462C280.45 86.3296 279.832 86.5713 279.116 86.5713C278.364 86.5713 277.738 86.3296 277.236 85.8462C276.735 85.3449 276.484 84.5929 276.484 83.5903ZM314.861 91.5664V94.3862L309.409 95.0308C309.91 95.6574 310.358 96.481 310.752 97.5015C311.146 98.5041 311.343 99.641 311.343 100.912C311.343 103.795 310.358 106.095 308.389 107.814C306.419 109.533 303.716 110.392 300.278 110.392C299.401 110.392 298.577 110.32 297.808 110.177C295.91 111.18 294.961 112.442 294.961 113.964C294.961 114.77 295.292 115.369 295.955 115.763C296.617 116.139 297.754 116.327 299.365 116.327H304.575C307.762 116.327 310.206 116.999 311.907 118.341C313.625 119.684 314.485 121.636 314.485 124.196C314.485 127.454 313.178 129.934 310.564 131.635C307.95 133.354 304.137 134.213 299.124 134.213C295.274 134.213 292.302 133.497 290.208 132.064C288.131 130.632 287.092 128.609 287.092 125.995C287.092 124.205 287.665 122.656 288.811 121.349C289.957 120.042 291.568 119.156 293.645 118.69C292.893 118.35 292.257 117.822 291.738 117.106C291.237 116.39 290.986 115.557 290.986 114.608C290.986 113.534 291.273 112.594 291.846 111.789C292.419 110.983 293.323 110.204 294.558 109.452C293.036 108.826 291.792 107.76 290.825 106.256C289.876 104.752 289.402 103.034 289.402 101.1C289.402 97.8774 290.369 95.3978 292.302 93.6611C294.236 91.9066 296.975 91.0293 300.52 91.0293C302.06 91.0293 303.447 91.2083 304.683 91.5664H314.861ZM291.389 125.941C291.389 127.535 292.061 128.743 293.403 129.567C294.746 130.39 296.671 130.802 299.177 130.802C302.919 130.802 305.685 130.238 307.476 129.11C309.284 128 310.188 126.487 310.188 124.572C310.188 122.978 309.696 121.868 308.711 121.242C307.726 120.633 305.873 120.329 303.152 120.329H297.808C295.785 120.329 294.209 120.812 293.081 121.779C291.953 122.746 291.389 124.133 291.389 125.941ZM293.806 100.993C293.806 103.052 294.388 104.609 295.552 105.666C296.715 106.722 298.336 107.25 300.413 107.25C304.763 107.25 306.938 105.137 306.938 100.912C306.938 96.4899 304.736 94.2788 300.332 94.2788C298.237 94.2788 296.626 94.8428 295.498 95.9707C294.37 97.0986 293.806 98.7726 293.806 100.993ZM341.045 121V101.959C341.045 99.5604 340.499 97.77 339.407 96.5884C338.315 95.4067 336.605 94.8159 334.277 94.8159C331.18 94.8159 328.915 95.6574 327.483 97.3403C326.069 99.0233 325.361 101.78 325.361 105.612V121H320.903V79.2129H325.361V91.8618C325.361 93.3836 325.29 94.6458 325.146 95.6484H325.415C326.292 94.234 327.537 93.124 329.148 92.3184C330.777 91.4948 332.63 91.083 334.707 91.083C338.306 91.083 341 91.9424 342.791 93.6611C344.599 95.362 345.503 98.0744 345.503 101.798V121H341.045ZM364.194 117.858C364.982 117.858 365.743 117.804 366.477 117.697C367.211 117.571 367.793 117.446 368.223 117.321V120.731C367.739 120.964 367.023 121.152 366.074 121.295C365.143 121.457 364.302 121.537 363.55 121.537C357.856 121.537 355.01 118.538 355.01 112.541V95.0308H350.793V92.8823L355.01 91.0293L356.89 84.7451H359.468V91.5664H368.008V95.0308H359.468V112.353C359.468 114.125 359.889 115.486 360.73 116.435C361.571 117.383 362.726 117.858 364.194 117.858ZM412.454 121L407.056 103.732C406.715 102.676 406.08 100.277 405.149 96.5347H404.934C404.218 99.6678 403.591 102.085 403.054 103.786L397.495 121H392.339L384.309 91.5664H388.982C390.88 98.9606 392.321 104.591 393.306 108.458C394.308 112.326 394.881 114.931 395.024 116.273H395.239C395.436 115.253 395.75 113.937 396.179 112.326C396.627 110.696 397.012 109.407 397.334 108.458L402.732 91.5664H407.566L412.83 108.458C413.832 111.538 414.513 114.125 414.871 116.22H415.085C415.157 115.575 415.345 114.582 415.649 113.239C415.972 111.896 417.843 104.672 421.262 91.5664H425.881L417.744 121H412.454ZM443.66 121.537C439.309 121.537 435.872 120.212 433.347 117.562C430.841 114.913 429.587 111.234 429.587 106.525C429.587 101.78 430.751 98.0117 433.079 95.2188C435.424 92.4258 438.566 91.0293 442.505 91.0293C446.193 91.0293 449.111 92.2467 451.26 94.6816C453.408 97.0986 454.482 100.294 454.482 104.269V107.089H434.207C434.296 110.544 435.164 113.167 436.812 114.958C438.477 116.748 440.813 117.643 443.821 117.643C446.99 117.643 450.123 116.981 453.22 115.656V119.63C451.645 120.311 450.15 120.794 448.735 121.081C447.339 121.385 445.647 121.537 443.66 121.537ZM442.451 94.7622C440.088 94.7622 438.199 95.5321 436.785 97.0718C435.388 98.6115 434.565 100.742 434.314 103.463H449.702C449.702 100.653 449.076 98.5041 447.822 97.0181C446.569 95.5142 444.779 94.7622 442.451 94.7622ZM495.383 112.97C495.383 115.709 494.363 117.822 492.322 119.308C490.281 120.794 487.416 121.537 483.728 121.537C479.825 121.537 476.781 120.919 474.597 119.684V115.548C476.012 116.264 477.524 116.828 479.136 117.24C480.765 117.652 482.332 117.858 483.835 117.858C486.163 117.858 487.953 117.491 489.207 116.757C490.46 116.005 491.086 114.868 491.086 113.346C491.086 112.2 490.585 111.225 489.583 110.419C488.598 109.595 486.664 108.629 483.782 107.519C481.042 106.498 479.091 105.612 477.927 104.86C476.781 104.09 475.922 103.222 475.349 102.255C474.794 101.288 474.517 100.133 474.517 98.7905C474.517 96.3914 475.492 94.5026 477.444 93.124C479.395 91.7275 482.072 91.0293 485.474 91.0293C488.643 91.0293 491.74 91.6738 494.766 92.9629L493.181 96.5884C490.227 95.3709 487.55 94.7622 485.151 94.7622C483.039 94.7622 481.445 95.0934 480.371 95.7559C479.297 96.4183 478.76 97.3314 478.76 98.4951C478.76 99.2829 478.957 99.9543 479.351 100.509C479.762 101.064 480.416 101.592 481.311 102.094C482.206 102.595 483.925 103.32 486.467 104.269C489.958 105.54 492.313 106.82 493.53 108.109C494.766 109.398 495.383 111.019 495.383 112.97ZM512.168 117.858C512.956 117.858 513.717 117.804 514.451 117.697C515.185 117.571 515.767 117.446 516.196 117.321V120.731C515.713 120.964 514.997 121.152 514.048 121.295C513.117 121.457 512.275 121.537 511.523 121.537C505.83 121.537 502.983 118.538 502.983 112.541V95.0308H498.767V92.8823L502.983 91.0293L504.863 84.7451H507.441V91.5664H515.981V95.0308H507.441V112.353C507.441 114.125 507.862 115.486 508.704 116.435C509.545 117.383 510.7 117.858 512.168 117.858ZM535.532 91.0293C536.839 91.0293 538.012 91.1367 539.05 91.3516L538.433 95.4873C537.215 95.2188 536.141 95.0845 535.21 95.0845C532.829 95.0845 530.788 96.0513 529.087 97.9849C527.404 99.9185 526.562 102.326 526.562 105.209V121H522.104V91.5664H525.784L526.294 97.0181H526.509C527.601 95.1024 528.917 93.6253 530.457 92.5869C531.996 91.5485 533.688 91.0293 535.532 91.0293ZM548.745 91.5664V110.661C548.745 113.06 549.291 114.85 550.383 116.032C551.475 117.213 553.185 117.804 555.513 117.804C558.592 117.804 560.839 116.963 562.253 115.28C563.686 113.597 564.402 110.849 564.402 107.035V91.5664H568.86V121H565.181L564.536 117.052H564.294C563.381 118.502 562.11 119.612 560.481 120.382C558.87 121.152 557.026 121.537 554.949 121.537C551.368 121.537 548.682 120.687 546.892 118.986C545.12 117.285 544.233 114.564 544.233 110.822V91.5664H548.745ZM590.103 121.537C585.841 121.537 582.538 120.23 580.193 117.616C577.865 114.984 576.702 111.269 576.702 106.471C576.702 101.548 577.883 97.7432 580.247 95.0576C582.628 92.3721 586.012 91.0293 590.398 91.0293C591.812 91.0293 593.227 91.1815 594.641 91.4858C596.056 91.7902 597.166 92.1483 597.971 92.5601L596.602 96.3467C595.617 95.9528 594.543 95.6305 593.379 95.3799C592.215 95.1113 591.186 94.9771 590.291 94.9771C584.311 94.9771 581.321 98.7905 581.321 106.417C581.321 110.034 582.046 112.809 583.496 114.743C584.964 116.676 587.131 117.643 589.995 117.643C592.448 117.643 594.963 117.115 597.542 116.059V120.006C595.572 121.027 593.092 121.537 590.103 121.537ZM614.058 117.858C614.845 117.858 615.606 117.804 616.34 117.697C617.074 117.571 617.656 117.446 618.086 117.321V120.731C617.603 120.964 616.886 121.152 615.938 121.295C615.007 121.457 614.165 121.537 613.413 121.537C607.72 121.537 604.873 118.538 604.873 112.541V95.0308H600.657V92.8823L604.873 91.0293L606.753 84.7451H609.331V91.5664H617.871V95.0308H609.331V112.353C609.331 114.125 609.752 115.486 610.593 116.435C611.435 117.383 612.59 117.858 614.058 117.858ZM628.184 91.5664V110.661C628.184 113.06 628.73 114.85 629.822 116.032C630.914 117.213 632.624 117.804 634.951 117.804C638.031 117.804 640.278 116.963 641.692 115.28C643.124 113.597 643.84 110.849 643.84 107.035V91.5664H648.298V121H644.619L643.975 117.052H643.733C642.82 118.502 641.549 119.612 639.919 120.382C638.308 121.152 636.464 121.537 634.387 121.537C630.806 121.537 628.121 120.687 626.331 118.986C624.558 117.285 623.672 114.564 623.672 110.822V91.5664H628.184ZM671.206 91.0293C672.513 91.0293 673.686 91.1367 674.724 91.3516L674.106 95.4873C672.889 95.2188 671.815 95.0845 670.884 95.0845C668.503 95.0845 666.462 96.0513 664.761 97.9849C663.078 99.9185 662.236 102.326 662.236 105.209V121H657.778V91.5664H661.458L661.968 97.0181H662.183C663.275 95.1024 664.591 93.6253 666.13 92.5869C667.67 91.5485 669.362 91.0293 671.206 91.0293ZM692.664 121.537C688.313 121.537 684.875 120.212 682.351 117.562C679.845 114.913 678.591 111.234 678.591 106.525C678.591 101.78 679.755 98.0117 682.083 95.2188C684.428 92.4258 687.57 91.0293 691.509 91.0293C695.197 91.0293 698.115 92.2467 700.264 94.6816C702.412 97.0986 703.486 100.294 703.486 104.269V107.089H683.21C683.3 110.544 684.168 113.167 685.815 114.958C687.48 116.748 689.817 117.643 692.825 117.643C695.994 117.643 699.127 116.981 702.224 115.656V119.63C700.649 120.311 699.154 120.794 697.739 121.081C696.343 121.385 694.651 121.537 692.664 121.537ZM691.455 94.7622C689.092 94.7622 687.203 95.5321 685.789 97.0718C684.392 98.6115 683.569 100.742 683.318 103.463H698.706C698.706 100.653 698.079 98.5041 696.826 97.0181C695.573 95.5142 693.783 94.7622 691.455 94.7622ZM734.907 117.858C735.695 117.858 736.456 117.804 737.19 117.697C737.924 117.571 738.506 117.446 738.936 117.321V120.731C738.452 120.964 737.736 121.152 736.787 121.295C735.856 121.457 735.015 121.537 734.263 121.537C728.569 121.537 725.723 118.538 725.723 112.541V95.0308H721.506V92.8823L725.723 91.0293L727.603 84.7451H730.181V91.5664H738.721V95.0308H730.181V112.353C730.181 114.125 730.601 115.486 731.443 116.435C732.284 117.383 733.439 117.858 734.907 117.858ZM764.985 121V101.959C764.985 99.5604 764.439 97.77 763.347 96.5884C762.255 95.4067 760.545 94.8159 758.218 94.8159C755.12 94.8159 752.856 95.6574 751.423 97.3403C750.009 99.0233 749.302 101.78 749.302 105.612V121H744.844V79.2129H749.302V91.8618C749.302 93.3836 749.23 94.6458 749.087 95.6484H749.355C750.233 94.234 751.477 93.124 753.088 92.3184C754.718 91.4948 756.571 91.083 758.647 91.083C762.246 91.083 764.941 91.9424 766.731 93.6611C768.539 95.362 769.443 98.0744 769.443 101.798V121H764.985ZM791.062 121.537C786.711 121.537 783.274 120.212 780.75 117.562C778.243 114.913 776.99 111.234 776.99 106.525C776.99 101.78 778.153 98.0117 780.481 95.2188C782.826 92.4258 785.968 91.0293 789.907 91.0293C793.595 91.0293 796.514 92.2467 798.662 94.6816C800.811 97.0986 801.885 100.294 801.885 104.269V107.089H781.609C781.698 110.544 782.567 113.167 784.214 114.958C785.879 116.748 788.215 117.643 791.223 117.643C794.392 117.643 797.525 116.981 800.623 115.656V119.63C799.047 120.311 797.552 120.794 796.138 121.081C794.741 121.385 793.049 121.537 791.062 121.537ZM789.854 94.7622C787.49 94.7622 785.601 95.5321 784.187 97.0718C782.791 98.6115 781.967 100.742 781.716 103.463H797.104C797.104 100.653 796.478 98.5041 795.225 97.0181C793.971 95.5142 792.181 94.7622 789.854 94.7622ZM106.489 196.537C102.228 196.537 98.925 195.23 96.5796 192.616C94.2521 189.984 93.0884 186.269 93.0884 181.471C93.0884 176.548 94.27 172.743 96.6333 170.058C99.0145 167.372 102.398 166.029 106.785 166.029C108.199 166.029 109.613 166.181 111.028 166.486C112.442 166.79 113.552 167.148 114.358 167.56L112.988 171.347C112.004 170.953 110.929 170.631 109.766 170.38C108.602 170.111 107.572 169.977 106.677 169.977C100.697 169.977 97.7075 173.791 97.7075 181.417C97.7075 185.034 98.4326 187.809 99.8828 189.743C101.351 191.676 103.517 192.643 106.382 192.643C108.835 192.643 111.35 192.115 113.928 191.059V195.006C111.959 196.027 109.479 196.537 106.489 196.537ZM146.343 181.256C146.343 186.055 145.134 189.805 142.717 192.509C140.3 195.194 136.961 196.537 132.7 196.537C130.068 196.537 127.732 195.919 125.691 194.684C123.65 193.449 122.074 191.676 120.964 189.367C119.854 187.057 119.299 184.354 119.299 181.256C119.299 176.458 120.499 172.725 122.898 170.058C125.297 167.372 128.627 166.029 132.888 166.029C137.006 166.029 140.273 167.399 142.69 170.138C145.125 172.877 146.343 176.583 146.343 181.256ZM123.918 181.256C123.918 185.016 124.67 187.881 126.174 189.85C127.678 191.819 129.889 192.804 132.808 192.804C135.726 192.804 137.937 191.828 139.441 189.877C140.963 187.908 141.724 185.034 141.724 181.256C141.724 177.514 140.963 174.677 139.441 172.743C137.937 170.792 135.708 169.816 132.754 169.816C129.836 169.816 127.633 170.774 126.147 172.689C124.661 174.605 123.918 177.461 123.918 181.256ZM174.326 196V176.959C174.326 174.56 173.78 172.77 172.688 171.588C171.596 170.407 169.886 169.816 167.559 169.816C164.479 169.816 162.223 170.648 160.791 172.313C159.359 173.979 158.643 176.727 158.643 180.558V196H154.185V166.566H157.81L158.535 170.595H158.75C159.663 169.145 160.943 168.026 162.59 167.238C164.237 166.432 166.073 166.029 168.096 166.029C171.641 166.029 174.308 166.889 176.099 168.607C177.889 170.308 178.784 173.039 178.784 176.798V196H174.326ZM197.476 192.858C198.263 192.858 199.024 192.804 199.758 192.697C200.492 192.571 201.074 192.446 201.504 192.321V195.731C201.021 195.964 200.304 196.152 199.355 196.295C198.424 196.457 197.583 196.537 196.831 196.537C191.138 196.537 188.291 193.538 188.291 187.541V170.031H184.075V167.882L188.291 166.029L190.171 159.745H192.749V166.566H201.289V170.031H192.749V187.353C192.749 189.125 193.17 190.486 194.011 191.435C194.853 192.383 196.007 192.858 197.476 192.858ZM219.846 196.537C215.496 196.537 212.058 195.212 209.534 192.562C207.027 189.913 205.774 186.234 205.774 181.525C205.774 176.78 206.938 173.012 209.265 170.219C211.611 167.426 214.753 166.029 218.691 166.029C222.38 166.029 225.298 167.247 227.446 169.682C229.595 172.099 230.669 175.294 230.669 179.269V182.089H210.393C210.483 185.544 211.351 188.167 212.998 189.958C214.663 191.748 217 192.643 220.007 192.643C223.176 192.643 226.309 191.981 229.407 190.656V194.63C227.831 195.311 226.336 195.794 224.922 196.081C223.525 196.385 221.833 196.537 219.846 196.537ZM218.638 169.762C216.274 169.762 214.386 170.532 212.971 172.072C211.575 173.611 210.751 175.742 210.5 178.463H225.889C225.889 175.653 225.262 173.504 224.009 172.018C222.756 170.514 220.965 169.762 218.638 169.762ZM258.438 196V176.959C258.438 174.56 257.891 172.77 256.799 171.588C255.707 170.407 253.997 169.816 251.67 169.816C248.59 169.816 246.335 170.648 244.902 172.313C243.47 173.979 242.754 176.727 242.754 180.558V196H238.296V166.566H241.921L242.646 170.595H242.861C243.774 169.145 245.055 168.026 246.702 167.238C248.349 166.432 250.184 166.029 252.207 166.029C255.752 166.029 258.42 166.889 260.21 168.607C262 170.308 262.896 173.039 262.896 176.798V196H258.438ZM281.587 192.858C282.375 192.858 283.136 192.804 283.87 192.697C284.604 192.571 285.186 192.446 285.615 192.321V195.731C285.132 195.964 284.416 196.152 283.467 196.295C282.536 196.457 281.694 196.537 280.942 196.537C275.249 196.537 272.402 193.538 272.402 187.541V170.031H268.186V167.882L272.402 166.029L274.282 159.745H276.86V166.566H285.4V170.031H276.86V187.353C276.86 189.125 277.281 190.486 278.123 191.435C278.964 192.383 280.119 192.858 281.587 192.858ZM323.911 196L323.025 191.811H322.81C321.342 193.655 319.874 194.908 318.406 195.57C316.956 196.215 315.138 196.537 312.954 196.537C310.036 196.537 307.744 195.785 306.079 194.281C304.432 192.777 303.608 190.638 303.608 187.863C303.608 181.919 308.362 178.804 317.869 178.517L322.864 178.356V176.53C322.864 174.22 322.362 172.519 321.36 171.427C320.375 170.317 318.791 169.762 316.606 169.762C314.154 169.762 311.379 170.514 308.281 172.018L306.912 168.607C308.362 167.82 309.946 167.202 311.665 166.754C313.402 166.307 315.138 166.083 316.875 166.083C320.384 166.083 322.98 166.862 324.663 168.419C326.364 169.977 327.214 172.475 327.214 175.912V196H323.911ZM313.84 192.858C316.615 192.858 318.791 192.097 320.366 190.575C321.96 189.053 322.756 186.923 322.756 184.184V181.525L318.298 181.713C314.753 181.838 312.193 182.393 310.618 183.378C309.06 184.345 308.281 185.858 308.281 187.917C308.281 189.528 308.765 190.754 309.731 191.596C310.716 192.437 312.086 192.858 313.84 192.858ZM356.567 196V176.959C356.567 174.56 356.021 172.77 354.929 171.588C353.837 170.407 352.127 169.816 349.8 169.816C346.72 169.816 344.465 170.648 343.032 172.313C341.6 173.979 340.884 176.727 340.884 180.558V196H336.426V166.566H340.051L340.776 170.595H340.991C341.904 169.145 343.184 168.026 344.832 167.238C346.479 166.432 348.314 166.029 350.337 166.029C353.882 166.029 356.549 166.889 358.34 168.607C360.13 170.308 361.025 173.039 361.025 176.798V196H356.567ZM390.244 192.052H390.002C387.944 195.042 384.864 196.537 380.764 196.537C376.915 196.537 373.916 195.221 371.768 192.589C369.637 189.958 368.572 186.216 368.572 181.364C368.572 176.512 369.646 172.743 371.794 170.058C373.943 167.372 376.933 166.029 380.764 166.029C384.757 166.029 387.818 167.479 389.949 170.38H390.298L390.11 168.258L390.002 166.19V154.213H394.46V196H390.835L390.244 192.052ZM381.328 192.804C384.372 192.804 386.574 191.981 387.935 190.333C389.313 188.668 390.002 185.992 390.002 182.304V181.364C390.002 177.192 389.304 174.22 387.908 172.448C386.529 170.657 384.318 169.762 381.274 169.762C378.66 169.762 376.655 170.783 375.259 172.824C373.88 174.847 373.191 177.711 373.191 181.417C373.191 185.177 373.88 188.015 375.259 189.931C376.637 191.846 378.66 192.804 381.328 192.804ZM455.745 196V176.852C455.745 174.507 455.243 172.752 454.241 171.588C453.238 170.407 451.681 169.816 449.568 169.816C446.793 169.816 444.743 170.613 443.418 172.206C442.093 173.799 441.431 176.252 441.431 179.564V196H436.973V176.852C436.973 174.507 436.471 172.752 435.469 171.588C434.466 170.407 432.9 169.816 430.769 169.816C427.976 169.816 425.926 170.657 424.619 172.34C423.33 174.005 422.686 176.745 422.686 180.558V196H418.228V166.566H421.853L422.578 170.595H422.793C423.634 169.162 424.816 168.043 426.338 167.238C427.878 166.432 429.596 166.029 431.494 166.029C436.095 166.029 439.103 167.694 440.518 171.024H440.732C441.61 169.485 442.881 168.267 444.546 167.372C446.211 166.477 448.109 166.029 450.239 166.029C453.569 166.029 456.058 166.889 457.705 168.607C459.37 170.308 460.203 173.039 460.203 176.798V196H455.745ZM487.515 196L486.628 191.811H486.414C484.945 193.655 483.477 194.908 482.009 195.57C480.559 196.215 478.742 196.537 476.558 196.537C473.639 196.537 471.348 195.785 469.683 194.281C468.035 192.777 467.212 190.638 467.212 187.863C467.212 181.919 471.965 178.804 481.472 178.517L486.467 178.356V176.53C486.467 174.22 485.966 172.519 484.963 171.427C483.979 170.317 482.394 169.762 480.21 169.762C477.757 169.762 474.982 170.514 471.885 172.018L470.515 168.607C471.965 167.82 473.55 167.202 475.269 166.754C477.005 166.307 478.742 166.083 480.479 166.083C483.988 166.083 486.584 166.862 488.267 168.419C489.967 169.977 490.818 172.475 490.818 175.912V196H487.515ZM477.444 192.858C480.219 192.858 482.394 192.097 483.97 190.575C485.563 189.053 486.36 186.923 486.36 184.184V181.525L481.902 181.713C478.357 181.838 475.797 182.393 474.221 183.378C472.664 184.345 471.885 185.858 471.885 187.917C471.885 189.528 472.368 190.754 473.335 191.596C474.32 192.437 475.689 192.858 477.444 192.858ZM504.434 180.934C505.203 179.842 506.376 178.41 507.952 176.637L517.458 166.566H522.749L510.825 179.108L523.582 196H518.184L507.791 182.089L504.434 184.989V196H500.029V154.213H504.434V176.369C504.434 177.353 504.362 178.875 504.219 180.934H504.434ZM541.36 196.537C537.009 196.537 533.572 195.212 531.047 192.562C528.541 189.913 527.288 186.234 527.288 181.525C527.288 176.78 528.451 173.012 530.779 170.219C533.124 167.426 536.266 166.029 540.205 166.029C543.893 166.029 546.812 167.247 548.96 169.682C551.108 172.099 552.183 175.294 552.183 179.269V182.089H531.907C531.996 185.544 532.865 188.167 534.512 189.958C536.177 191.748 538.513 192.643 541.521 192.643C544.69 192.643 547.823 191.981 550.92 190.656V194.63C549.345 195.311 547.85 195.794 546.436 196.081C545.039 196.385 543.347 196.537 541.36 196.537ZM540.151 169.762C537.788 169.762 535.899 170.532 534.485 172.072C533.088 173.611 532.265 175.742 532.014 178.463H547.402C547.402 175.653 546.776 173.504 545.522 172.018C544.269 170.514 542.479 169.762 540.151 169.762ZM583.604 192.858C584.391 192.858 585.152 192.804 585.886 192.697C586.62 192.571 587.202 192.446 587.632 192.321V195.731C587.148 195.964 586.432 196.152 585.483 196.295C584.552 196.457 583.711 196.537 582.959 196.537C577.266 196.537 574.419 193.538 574.419 187.541V170.031H570.203V167.882L574.419 166.029L576.299 159.745H578.877V166.566H587.417V170.031H578.877V187.353C578.877 189.125 579.298 190.486 580.139 191.435C580.981 192.383 582.135 192.858 583.604 192.858ZM613.682 196V176.959C613.682 174.56 613.136 172.77 612.043 171.588C610.951 170.407 609.242 169.816 606.914 169.816C603.817 169.816 601.552 170.657 600.12 172.34C598.705 174.023 597.998 176.78 597.998 180.612V196H593.54V154.213H597.998V166.862C597.998 168.384 597.926 169.646 597.783 170.648H598.052C598.929 169.234 600.173 168.124 601.785 167.318C603.414 166.495 605.267 166.083 607.344 166.083C610.942 166.083 613.637 166.942 615.427 168.661C617.236 170.362 618.14 173.074 618.14 176.798V196H613.682ZM639.758 196.537C635.408 196.537 631.97 195.212 629.446 192.562C626.939 189.913 625.686 186.234 625.686 181.525C625.686 176.78 626.85 173.012 629.177 170.219C631.523 167.426 634.665 166.029 638.604 166.029C642.292 166.029 645.21 167.247 647.358 169.682C649.507 172.099 650.581 175.294 650.581 179.269V182.089H630.305C630.395 185.544 631.263 188.167 632.91 189.958C634.575 191.748 636.912 192.643 639.919 192.643C643.088 192.643 646.222 191.981 649.319 190.656V194.63C647.743 195.311 646.248 195.794 644.834 196.081C643.438 196.385 641.746 196.537 639.758 196.537ZM638.55 169.762C636.187 169.762 634.298 170.532 632.883 172.072C631.487 173.611 630.663 175.742 630.413 178.463H645.801C645.801 175.653 645.174 173.504 643.921 172.018C642.668 170.514 640.877 169.762 638.55 169.762ZM112.827 271L111.941 266.811H111.726C110.258 268.655 108.79 269.908 107.322 270.57C105.872 271.215 104.054 271.537 101.87 271.537C98.9518 271.537 96.6602 270.785 94.9951 269.281C93.348 267.777 92.5244 265.638 92.5244 262.863C92.5244 256.919 97.2778 253.804 106.785 253.517L111.78 253.356V251.53C111.78 249.22 111.278 247.519 110.276 246.427C109.291 245.317 107.707 244.762 105.522 244.762C103.07 244.762 100.295 245.514 97.1973 247.018L95.8276 243.607C97.2778 242.82 98.8623 242.202 100.581 241.754C102.318 241.307 104.054 241.083 105.791 241.083C109.3 241.083 111.896 241.862 113.579 243.419C115.28 244.977 116.13 247.475 116.13 250.912V271H112.827ZM102.756 267.858C105.531 267.858 107.707 267.097 109.282 265.575C110.876 264.053 111.672 261.923 111.672 259.184V256.525L107.214 256.713C103.669 256.838 101.109 257.393 99.5337 258.378C97.9761 259.345 97.1973 260.858 97.1973 262.917C97.1973 264.528 97.6807 265.754 98.6475 266.596C99.6322 267.437 101.002 267.858 102.756 267.858ZM139.038 271.537C137.122 271.537 135.368 271.188 133.774 270.49C132.199 269.774 130.874 268.681 129.8 267.213H129.478C129.692 268.932 129.8 270.561 129.8 272.101V284.213H125.342V241.566H128.967L129.585 245.595H129.8C130.946 243.983 132.279 242.82 133.801 242.104C135.323 241.387 137.069 241.029 139.038 241.029C142.941 241.029 145.949 242.363 148.062 245.031C150.192 247.698 151.257 251.44 151.257 256.256C151.257 261.09 150.174 264.85 148.008 267.536C145.859 270.203 142.869 271.537 139.038 271.537ZM138.394 244.816C135.386 244.816 133.21 245.648 131.868 247.313C130.525 248.979 129.836 251.628 129.8 255.263V256.256C129.8 260.392 130.489 263.355 131.868 265.146C133.246 266.918 135.457 267.804 138.501 267.804C141.043 267.804 143.031 266.775 144.463 264.716C145.913 262.657 146.638 259.819 146.638 256.203C146.638 252.532 145.913 249.722 144.463 247.77C143.031 245.801 141.007 244.816 138.394 244.816ZM172.769 271.537C170.853 271.537 169.098 271.188 167.505 270.49C165.929 269.774 164.604 268.681 163.53 267.213H163.208C163.423 268.932 163.53 270.561 163.53 272.101V284.213H159.072V241.566H162.698L163.315 245.595H163.53C164.676 243.983 166.01 242.82 167.532 242.104C169.054 241.387 170.799 241.029 172.769 241.029C176.672 241.029 179.679 242.363 181.792 245.031C183.923 247.698 184.988 251.44 184.988 256.256C184.988 261.09 183.905 264.85 181.738 267.536C179.59 270.203 176.6 271.537 172.769 271.537ZM172.124 244.816C169.116 244.816 166.941 245.648 165.598 247.313C164.255 248.979 163.566 251.628 163.53 255.263V256.256C163.53 260.392 164.22 263.355 165.598 265.146C166.977 266.918 169.188 267.804 172.231 267.804C174.774 267.804 176.761 266.775 178.193 264.716C179.644 262.657 180.369 259.819 180.369 256.203C180.369 252.532 179.644 249.722 178.193 247.77C176.761 245.801 174.738 244.816 172.124 244.816ZM197.261 271H192.803V229.213H197.261V271ZM211.172 271H206.714V241.566H211.172V271ZM206.338 233.59C206.338 232.57 206.589 231.827 207.09 231.361C207.591 230.878 208.218 230.636 208.97 230.636C209.686 230.636 210.304 230.878 210.823 231.361C211.342 231.845 211.602 232.588 211.602 233.59C211.602 234.593 211.342 235.345 210.823 235.846C210.304 236.33 209.686 236.571 208.97 236.571C208.218 236.571 207.591 236.33 207.09 235.846C206.589 235.345 206.338 234.593 206.338 233.59ZM232.388 271.537C228.127 271.537 224.823 270.23 222.478 267.616C220.151 264.984 218.987 261.269 218.987 256.471C218.987 251.548 220.168 247.743 222.532 245.058C224.913 242.372 228.297 241.029 232.683 241.029C234.097 241.029 235.512 241.181 236.926 241.486C238.341 241.79 239.451 242.148 240.256 242.56L238.887 246.347C237.902 245.953 236.828 245.631 235.664 245.38C234.5 245.111 233.471 244.977 232.576 244.977C226.596 244.977 223.606 248.791 223.606 256.417C223.606 260.034 224.331 262.809 225.781 264.743C227.249 266.676 229.416 267.643 232.28 267.643C234.733 267.643 237.249 267.115 239.827 266.059V270.006C237.857 271.027 235.378 271.537 232.388 271.537ZM264.937 271L264.05 266.811H263.835C262.367 268.655 260.899 269.908 259.431 270.57C257.981 271.215 256.164 271.537 253.979 271.537C251.061 271.537 248.77 270.785 247.104 269.281C245.457 267.777 244.634 265.638 244.634 262.863C244.634 256.919 249.387 253.804 258.894 253.517L263.889 253.356V251.53C263.889 249.22 263.388 247.519 262.385 246.427C261.401 245.317 259.816 244.762 257.632 244.762C255.179 244.762 252.404 245.514 249.307 247.018L247.937 243.607C249.387 242.82 250.972 242.202 252.69 241.754C254.427 241.307 256.164 241.083 257.9 241.083C261.41 241.083 264.006 241.862 265.688 243.419C267.389 244.977 268.24 247.475 268.24 250.912V271H264.937ZM254.866 267.858C257.641 267.858 259.816 267.097 261.392 265.575C262.985 264.053 263.782 261.923 263.782 259.184V256.525L259.324 256.713C255.779 256.838 253.219 257.393 251.643 258.378C250.085 259.345 249.307 260.858 249.307 262.917C249.307 264.528 249.79 265.754 250.757 266.596C251.742 267.437 253.111 267.858 254.866 267.858ZM286.958 267.858C287.746 267.858 288.507 267.804 289.241 267.697C289.975 267.571 290.557 267.446 290.986 267.321V270.731C290.503 270.964 289.787 271.152 288.838 271.295C287.907 271.457 287.065 271.537 286.313 271.537C280.62 271.537 277.773 268.538 277.773 262.541V245.031H273.557V242.882L277.773 241.029L279.653 234.745H282.231V241.566H290.771V245.031H282.231V262.353C282.231 264.125 282.652 265.486 283.494 266.435C284.335 267.383 285.49 267.858 286.958 267.858ZM301.353 271H296.895V241.566H301.353V271ZM296.519 233.59C296.519 232.57 296.769 231.827 297.271 231.361C297.772 230.878 298.398 230.636 299.15 230.636C299.867 230.636 300.484 230.878 301.003 231.361C301.523 231.845 301.782 232.588 301.782 233.59C301.782 234.593 301.523 235.345 301.003 235.846C300.484 236.33 299.867 236.571 299.15 236.571C298.398 236.571 297.772 236.33 297.271 235.846C296.769 235.345 296.519 234.593 296.519 233.59ZM336.211 256.256C336.211 261.055 335.002 264.805 332.585 267.509C330.168 270.194 326.829 271.537 322.568 271.537C319.937 271.537 317.6 270.919 315.559 269.684C313.518 268.449 311.943 266.676 310.833 264.367C309.722 262.057 309.167 259.354 309.167 256.256C309.167 251.458 310.367 247.725 312.766 245.058C315.165 242.372 318.495 241.029 322.756 241.029C326.874 241.029 330.142 242.399 332.559 245.138C334.993 247.877 336.211 251.583 336.211 256.256ZM313.787 256.256C313.787 260.016 314.539 262.881 316.042 264.85C317.546 266.819 319.757 267.804 322.676 267.804C325.594 267.804 327.805 266.828 329.309 264.877C330.831 262.908 331.592 260.034 331.592 256.256C331.592 252.514 330.831 249.677 329.309 247.743C327.805 245.792 325.576 244.816 322.622 244.816C319.704 244.816 317.502 245.774 316.016 247.689C314.53 249.605 313.787 252.461 313.787 256.256ZM364.194 271V251.959C364.194 249.56 363.648 247.77 362.556 246.588C361.464 245.407 359.754 244.816 357.427 244.816C354.347 244.816 352.091 245.648 350.659 247.313C349.227 248.979 348.511 251.727 348.511 255.558V271H344.053V241.566H347.678L348.403 245.595H348.618C349.531 244.145 350.811 243.026 352.458 242.238C354.106 241.432 355.941 241.029 357.964 241.029C361.509 241.029 364.176 241.889 365.967 243.607C367.757 245.308 368.652 248.039 368.652 251.798V271H364.194ZM429.641 271V251.852C429.641 249.507 429.14 247.752 428.137 246.588C427.135 245.407 425.577 244.816 423.464 244.816C420.689 244.816 418.639 245.613 417.314 247.206C415.99 248.799 415.327 251.252 415.327 254.564V271H410.869V251.852C410.869 249.507 410.368 247.752 409.365 246.588C408.363 245.407 406.796 244.816 404.666 244.816C401.873 244.816 399.823 245.657 398.516 247.34C397.227 249.005 396.582 251.745 396.582 255.558V271H392.124V241.566H395.75L396.475 245.595H396.689C397.531 244.162 398.713 243.043 400.234 242.238C401.774 241.432 403.493 241.029 405.391 241.029C409.992 241.029 413 242.694 414.414 246.024H414.629C415.506 244.485 416.777 243.267 418.442 242.372C420.107 241.477 422.005 241.029 424.136 241.029C427.466 241.029 429.954 241.889 431.602 243.607C433.267 245.308 434.099 248.039 434.099 251.798V271H429.641ZM468.716 256.256C468.716 261.055 467.507 264.805 465.09 267.509C462.673 270.194 459.334 271.537 455.073 271.537C452.441 271.537 450.105 270.919 448.064 269.684C446.023 268.449 444.447 266.676 443.337 264.367C442.227 262.057 441.672 259.354 441.672 256.256C441.672 251.458 442.872 247.725 445.271 245.058C447.67 242.372 451 241.029 455.261 241.029C459.379 241.029 462.646 242.399 465.063 245.138C467.498 247.877 468.716 251.583 468.716 256.256ZM446.292 256.256C446.292 260.016 447.043 262.881 448.547 264.85C450.051 266.819 452.262 267.804 455.181 267.804C458.099 267.804 460.31 266.828 461.814 264.877C463.336 262.908 464.097 260.034 464.097 256.256C464.097 252.514 463.336 249.677 461.814 247.743C460.31 245.792 458.081 244.816 455.127 244.816C452.209 244.816 450.007 245.774 448.521 247.689C447.035 249.605 446.292 252.461 446.292 256.256ZM489.985 241.029C491.292 241.029 492.465 241.137 493.503 241.352L492.886 245.487C491.668 245.219 490.594 245.084 489.663 245.084C487.282 245.084 485.241 246.051 483.54 247.985C481.857 249.918 481.016 252.326 481.016 255.209V271H476.558V241.566H480.237L480.747 247.018H480.962C482.054 245.102 483.37 243.625 484.91 242.587C486.449 241.549 488.141 241.029 489.985 241.029ZM511.443 271.537C507.092 271.537 503.655 270.212 501.13 267.562C498.624 264.913 497.371 261.234 497.371 256.525C497.371 251.78 498.534 248.012 500.862 245.219C503.207 242.426 506.349 241.029 510.288 241.029C513.976 241.029 516.895 242.247 519.043 244.682C521.191 247.099 522.266 250.294 522.266 254.269V257.089H501.99C502.079 260.544 502.948 263.167 504.595 264.958C506.26 266.748 508.596 267.643 511.604 267.643C514.773 267.643 517.906 266.981 521.003 265.656V269.63C519.428 270.311 517.933 270.794 516.519 271.081C515.122 271.385 513.43 271.537 511.443 271.537ZM510.234 244.762C507.871 244.762 505.982 245.532 504.568 247.072C503.171 248.611 502.348 250.742 502.097 253.463H517.485C517.485 250.653 516.859 248.504 515.605 247.018C514.352 245.514 512.562 244.762 510.234 244.762ZM548.638 271H544.18V241.566H548.638V271ZM543.804 233.59C543.804 232.57 544.054 231.827 544.556 231.361C545.057 230.878 545.684 230.636 546.436 230.636C547.152 230.636 547.769 230.878 548.289 231.361C548.808 231.845 549.067 232.588 549.067 233.59C549.067 234.593 548.808 235.345 548.289 235.846C547.769 236.33 547.152 236.571 546.436 236.571C545.684 236.571 545.057 236.33 544.556 235.846C544.054 235.345 543.804 234.593 543.804 233.59ZM578.232 271V251.959C578.232 249.56 577.686 247.77 576.594 246.588C575.502 245.407 573.792 244.816 571.465 244.816C568.385 244.816 566.13 245.648 564.697 247.313C563.265 248.979 562.549 251.727 562.549 255.558V271H558.091V241.566H561.716L562.441 245.595H562.656C563.569 244.145 564.849 243.026 566.497 242.238C568.144 241.432 569.979 241.029 572.002 241.029C575.547 241.029 578.215 241.889 580.005 243.607C581.795 245.308 582.69 248.039 582.69 251.798V271H578.232ZM601.382 267.858C602.17 267.858 602.931 267.804 603.665 267.697C604.399 267.571 604.98 267.446 605.41 267.321V270.731C604.927 270.964 604.211 271.152 603.262 271.295C602.331 271.457 601.489 271.537 600.737 271.537C595.044 271.537 592.197 268.538 592.197 262.541V245.031H587.981V242.882L592.197 241.029L594.077 234.745H596.655V241.566H605.195V245.031H596.655V262.353C596.655 264.125 597.076 265.486 597.917 266.435C598.759 267.383 599.914 267.858 601.382 267.858ZM623.752 271.537C619.402 271.537 615.964 270.212 613.44 267.562C610.933 264.913 609.68 261.234 609.68 256.525C609.68 251.78 610.844 248.012 613.171 245.219C615.517 242.426 618.659 241.029 622.598 241.029C626.286 241.029 629.204 242.247 631.353 244.682C633.501 247.099 634.575 250.294 634.575 254.269V257.089H614.299C614.389 260.544 615.257 263.167 616.904 264.958C618.569 266.748 620.906 267.643 623.914 267.643C627.083 267.643 630.216 266.981 633.313 265.656V269.63C631.737 270.311 630.243 270.794 628.828 271.081C627.432 271.385 625.74 271.537 623.752 271.537ZM622.544 244.762C620.181 244.762 618.292 245.532 616.877 247.072C615.481 248.611 614.657 250.742 614.407 253.463H629.795C629.795 250.653 629.168 248.504 627.915 247.018C626.662 245.514 624.871 244.762 622.544 244.762ZM655.63 241.029C656.937 241.029 658.11 241.137 659.148 241.352L658.53 245.487C657.313 245.219 656.239 245.084 655.308 245.084C652.926 245.084 650.885 246.051 649.185 247.985C647.502 249.918 646.66 252.326 646.66 255.209V271H642.202V241.566H645.881L646.392 247.018H646.606C647.699 245.102 649.014 243.625 650.554 242.587C652.094 241.549 653.786 241.029 655.63 241.029ZM682.754 271L681.868 266.811H681.653C680.185 268.655 678.717 269.908 677.249 270.57C675.798 271.215 673.981 271.537 671.797 271.537C668.879 271.537 666.587 270.785 664.922 269.281C663.275 267.777 662.451 265.638 662.451 262.863C662.451 256.919 667.205 253.804 676.711 253.517L681.707 253.356V251.53C681.707 249.22 681.205 247.519 680.203 246.427C679.218 245.317 677.633 244.762 675.449 244.762C672.996 244.762 670.221 245.514 667.124 247.018L665.754 243.607C667.205 242.82 668.789 242.202 670.508 241.754C672.244 241.307 673.981 241.083 675.718 241.083C679.227 241.083 681.823 241.862 683.506 243.419C685.207 244.977 686.057 247.475 686.057 250.912V271H682.754ZM672.683 267.858C675.458 267.858 677.633 267.097 679.209 265.575C680.802 264.053 681.599 261.923 681.599 259.184V256.525L677.141 256.713C673.596 256.838 671.036 257.393 669.46 258.378C667.903 259.345 667.124 260.858 667.124 262.917C667.124 264.528 667.607 265.754 668.574 266.596C669.559 267.437 670.929 267.858 672.683 267.858ZM707.031 271.537C702.77 271.537 699.467 270.23 697.122 267.616C694.794 264.984 693.63 261.269 693.63 256.471C693.63 251.548 694.812 247.743 697.175 245.058C699.556 242.372 702.94 241.029 707.327 241.029C708.741 241.029 710.155 241.181 711.57 241.486C712.984 241.79 714.094 242.148 714.9 242.56L713.53 246.347C712.546 245.953 711.471 245.631 710.308 245.38C709.144 245.111 708.114 244.977 707.219 244.977C701.239 244.977 698.25 248.791 698.25 256.417C698.25 260.034 698.975 262.809 700.425 264.743C701.893 266.676 704.059 267.643 706.924 267.643C709.377 267.643 711.892 267.115 714.47 266.059V270.006C712.501 271.027 710.021 271.537 707.031 271.537ZM730.986 267.858C731.774 267.858 732.535 267.804 733.269 267.697C734.003 267.571 734.585 267.446 735.015 267.321V270.731C734.531 270.964 733.815 271.152 732.866 271.295C731.935 271.457 731.094 271.537 730.342 271.537C724.648 271.537 721.802 268.538 721.802 262.541V245.031H717.585V242.882L721.802 241.029L723.682 234.745H726.26V241.566H734.8V245.031H726.26V262.353C726.26 264.125 726.681 265.486 727.522 266.435C728.363 267.383 729.518 267.858 730.986 267.858ZM745.381 271H740.923V241.566H745.381V271ZM740.547 233.59C740.547 232.57 740.798 231.827 741.299 231.361C741.8 230.878 742.427 230.636 743.179 230.636C743.895 230.636 744.513 230.878 745.032 231.361C745.551 231.845 745.811 232.588 745.811 233.59C745.811 234.593 745.551 235.345 745.032 235.846C744.513 236.33 743.895 236.571 743.179 236.571C742.427 236.571 741.8 236.33 741.299 235.846C740.798 235.345 740.547 234.593 740.547 233.59ZM761.279 271L750.107 241.566H754.888L761.226 259.022C762.658 263.104 763.499 265.754 763.75 266.972H763.965C764.162 266.023 764.779 264.062 765.818 261.09C766.874 258.1 769.229 251.592 772.881 241.566H777.661L766.489 271H761.279ZM794.822 271.537C790.471 271.537 787.034 270.212 784.509 267.562C782.003 264.913 780.75 261.234 780.75 256.525C780.75 251.78 781.913 248.012 784.241 245.219C786.586 242.426 789.728 241.029 793.667 241.029C797.355 241.029 800.273 242.247 802.422 244.682C804.57 247.099 805.645 250.294 805.645 254.269V257.089H785.369C785.458 260.544 786.326 263.167 787.974 264.958C789.639 266.748 791.975 267.643 794.983 267.643C798.152 267.643 801.285 266.981 804.382 265.656V269.63C802.807 270.311 801.312 270.794 799.897 271.081C798.501 271.385 796.809 271.537 794.822 271.537ZM793.613 244.762C791.25 244.762 789.361 245.532 787.947 247.072C786.55 248.611 785.727 250.742 785.476 253.463H800.864C800.864 250.653 800.238 248.504 798.984 247.018C797.731 245.514 795.941 244.762 793.613 244.762ZM816.306 260.177V258.727C816.306 256.632 816.628 254.914 817.273 253.571C817.917 252.21 819.117 250.778 820.872 249.274C823.306 247.215 824.837 245.666 825.464 244.628C826.108 243.59 826.431 242.336 826.431 240.868C826.431 239.042 825.84 237.637 824.658 236.652C823.494 235.649 821.812 235.148 819.609 235.148C818.195 235.148 816.816 235.318 815.474 235.658C814.131 235.98 812.591 236.58 810.854 237.458L809.27 233.832C812.654 232.06 816.19 231.173 819.878 231.173C823.298 231.173 825.956 232.015 827.854 233.698C829.752 235.381 830.701 237.753 830.701 240.814C830.701 242.121 830.522 243.276 830.164 244.279C829.823 245.264 829.313 246.203 828.633 247.099C827.952 247.976 826.484 249.399 824.229 251.369C822.42 252.908 821.221 254.188 820.63 255.209C820.057 256.229 819.771 257.59 819.771 259.291V260.177H816.306ZM814.99 268.153C814.99 265.718 816.064 264.501 818.213 264.501C819.251 264.501 820.048 264.814 820.603 265.441C821.176 266.068 821.462 266.972 821.462 268.153C821.462 269.299 821.176 270.194 820.603 270.839C820.03 271.465 819.233 271.779 818.213 271.779C817.282 271.779 816.512 271.501 815.903 270.946C815.295 270.373 814.99 269.442 814.99 268.153Z" fill="#1092A7"/>
</svg>
