<svg width="379" height="228" viewBox="0 0 379 228" fill="none" xmlns="http://www.w3.org/2000/svg">
<rect width="379" height="228" rx="6" fill="white"/>
<path d="M24.1226 39.4545C25.7218 39.4545 27.2851 39.9397 28.6148 40.8487C29.9445 41.7578 30.9808 43.0498 31.5928 44.5614C32.2048 46.0731 32.3649 47.7364 32.0529 49.3412C31.7409 50.946 30.9709 52.42 29.8401 53.577C28.7093 54.7339 27.2685 55.5218 25.7001 55.841C24.1316 56.1602 22.5058 55.9964 21.0284 55.3703C19.5509 54.7441 18.2881 53.6838 17.3996 52.3234C16.5112 50.9629 16.037 49.3635 16.037 47.7273L16 46.5455C16 42.1573 17.7038 37.9489 20.7365 34.8461C23.7692 31.7432 27.8824 30 32.1713 30V34.7273C30.6538 34.7231 29.1505 35.0268 27.7483 35.6207C26.3462 36.2147 25.073 37.0871 24.0025 38.1876C23.5864 38.6125 23.2026 39.0693 22.8543 39.5538C23.2679 39.4876 23.6906 39.4522 24.1203 39.4522L24.1226 39.4545ZM44.9143 39.4545C46.5135 39.4545 48.0768 39.9397 49.4065 40.8487C50.7362 41.7578 51.7725 43.0498 52.3845 44.5614C52.9965 46.0731 53.1566 47.7364 52.8446 49.3412C52.5326 50.946 51.7626 52.42 50.6318 53.577C49.501 54.7339 48.0602 55.5218 46.4918 55.841C44.9233 56.1602 43.2975 55.9964 41.8201 55.3703C40.3426 54.7441 39.0798 53.6838 38.1913 52.3234C37.3029 50.9629 36.8287 49.3635 36.8287 47.7273L36.7917 46.5455C36.7917 42.1573 38.4955 37.9489 41.5282 34.8461C44.5609 31.7432 48.6741 30 52.963 30V34.7273C51.4455 34.7231 49.9422 35.0268 48.54 35.6207C47.1379 36.2147 45.8647 37.0871 44.7942 38.1876C44.3781 38.6125 43.9943 39.0693 43.646 39.5538C44.0596 39.4876 44.4823 39.4522 44.9143 39.4522V39.4545Z" fill="#1C1026" fill-opacity="0.15"/>
<path d="M69.7666 48V35.1504H71.2607V48H69.7666ZM75.8311 35.1504L75.4795 39.791H74.5566L74.1963 35.1504H75.8311ZM90.8428 48V41.7334C90.8428 40.9658 90.6787 40.3916 90.3506 40.0107C90.0225 39.624 89.5127 39.4307 88.8213 39.4307C87.9131 39.4307 87.2422 39.6914 86.8086 40.2129C86.375 40.7344 86.1582 41.5371 86.1582 42.6211V48H84.6992V41.7334C84.6992 40.9658 84.5352 40.3916 84.207 40.0107C83.8789 39.624 83.3662 39.4307 82.6689 39.4307C81.7549 39.4307 81.084 39.7061 80.6562 40.2568C80.2344 40.8018 80.0234 41.6982 80.0234 42.9463V48H78.5645V38.3672H79.751L79.9883 39.6855H80.0586C80.334 39.2168 80.7207 38.8506 81.2188 38.5869C81.7227 38.3232 82.2852 38.1914 82.9062 38.1914C84.4121 38.1914 85.3965 38.7363 85.8594 39.8262H85.9297C86.2168 39.3223 86.6328 38.9238 87.1777 38.6309C87.7227 38.3379 88.3438 38.1914 89.041 38.1914C90.1309 38.1914 90.9453 38.4727 91.4844 39.0352C92.0293 39.5918 92.3018 40.4854 92.3018 41.7158V48H90.8428ZM104.334 39.501H101.882V48H100.423V39.501H98.7002V38.8418L100.423 38.3145V37.7783C100.423 35.4111 101.457 34.2275 103.525 34.2275C104.035 34.2275 104.633 34.3301 105.318 34.5352L104.94 35.7041C104.378 35.5225 103.897 35.4316 103.499 35.4316C102.948 35.4316 102.541 35.6162 102.277 35.9854C102.014 36.3486 101.882 36.9346 101.882 37.7432V38.3672H104.334V39.501ZM110.161 48.1758C108.737 48.1758 107.612 47.7422 106.786 46.875C105.966 46.0078 105.556 44.8037 105.556 43.2627C105.556 41.71 105.937 40.4766 106.698 39.5625C107.466 38.6484 108.494 38.1914 109.783 38.1914C110.99 38.1914 111.945 38.5898 112.648 39.3867C113.352 40.1777 113.703 41.2236 113.703 42.5244V43.4473H107.067C107.097 44.5781 107.381 45.4365 107.92 46.0225C108.465 46.6084 109.229 46.9014 110.214 46.9014C111.251 46.9014 112.276 46.6846 113.29 46.251V47.5518C112.774 47.7744 112.285 47.9326 111.822 48.0264C111.365 48.126 110.812 48.1758 110.161 48.1758ZM109.766 39.4131C108.992 39.4131 108.374 39.665 107.911 40.1689C107.454 40.6729 107.185 41.3701 107.103 42.2607H112.139C112.139 41.3408 111.934 40.6377 111.523 40.1514C111.113 39.6592 110.527 39.4131 109.766 39.4131ZM120.269 48.1758C118.845 48.1758 117.72 47.7422 116.894 46.875C116.073 46.0078 115.663 44.8037 115.663 43.2627C115.663 41.71 116.044 40.4766 116.806 39.5625C117.573 38.6484 118.602 38.1914 119.891 38.1914C121.098 38.1914 122.053 38.5898 122.756 39.3867C123.459 40.1777 123.811 41.2236 123.811 42.5244V43.4473H117.175C117.204 44.5781 117.488 45.4365 118.027 46.0225C118.572 46.6084 119.337 46.9014 120.321 46.9014C121.358 46.9014 122.384 46.6846 123.397 46.251V47.5518C122.882 47.7744 122.393 47.9326 121.93 48.0264C121.473 48.126 120.919 48.1758 120.269 48.1758ZM119.873 39.4131C119.1 39.4131 118.481 39.665 118.019 40.1689C117.562 40.6729 117.292 41.3701 117.21 42.2607H122.246C122.246 41.3408 122.041 40.6377 121.631 40.1514C121.221 39.6592 120.635 39.4131 119.873 39.4131ZM127.766 48H126.307V34.3242H127.766V48ZM132.318 48H130.859V38.3672H132.318V48ZM130.736 35.7568C130.736 35.4229 130.818 35.1797 130.982 35.0273C131.146 34.8691 131.352 34.79 131.598 34.79C131.832 34.79 132.034 34.8691 132.204 35.0273C132.374 35.1855 132.459 35.4287 132.459 35.7568C132.459 36.085 132.374 36.3311 132.204 36.4951C132.034 36.6533 131.832 36.7324 131.598 36.7324C131.352 36.7324 131.146 36.6533 130.982 36.4951C130.818 36.3311 130.736 36.085 130.736 35.7568ZM142.004 48V41.7686C142.004 40.9834 141.825 40.3975 141.468 40.0107C141.11 39.624 140.551 39.4307 139.789 39.4307C138.781 39.4307 138.043 39.7031 137.574 40.248C137.105 40.793 136.871 41.6924 136.871 42.9463V48H135.412V38.3672H136.599L136.836 39.6855H136.906C137.205 39.2109 137.624 38.8447 138.163 38.5869C138.702 38.3232 139.303 38.1914 139.965 38.1914C141.125 38.1914 141.998 38.4727 142.584 39.0352C143.17 39.5918 143.463 40.4854 143.463 41.7158V48H142.004ZM154.353 38.3672V39.29L152.568 39.501C152.732 39.7061 152.879 39.9756 153.008 40.3096C153.137 40.6377 153.201 41.0098 153.201 41.4258C153.201 42.3691 152.879 43.1221 152.234 43.6846C151.59 44.2471 150.705 44.5283 149.58 44.5283C149.293 44.5283 149.023 44.5049 148.771 44.458C148.15 44.7861 147.84 45.1992 147.84 45.6973C147.84 45.9609 147.948 46.1572 148.165 46.2861C148.382 46.4092 148.754 46.4707 149.281 46.4707H150.986C152.029 46.4707 152.829 46.6904 153.386 47.1299C153.948 47.5693 154.229 48.208 154.229 49.0459C154.229 50.1123 153.802 50.9238 152.946 51.4805C152.091 52.043 150.843 52.3242 149.202 52.3242C147.942 52.3242 146.97 52.0898 146.284 51.6211C145.604 51.1523 145.265 50.4902 145.265 49.6348C145.265 49.0488 145.452 48.542 145.827 48.1143C146.202 47.6865 146.729 47.3965 147.409 47.2441C147.163 47.1328 146.955 46.96 146.785 46.7256C146.621 46.4912 146.539 46.2188 146.539 45.9082C146.539 45.5566 146.633 45.249 146.82 44.9854C147.008 44.7217 147.304 44.4668 147.708 44.2207C147.21 44.0156 146.803 43.667 146.486 43.1748C146.176 42.6826 146.021 42.1201 146.021 41.4873C146.021 40.4326 146.337 39.6211 146.97 39.0527C147.603 38.4785 148.499 38.1914 149.659 38.1914C150.163 38.1914 150.617 38.25 151.021 38.3672H154.353ZM146.671 49.6172C146.671 50.1387 146.891 50.5342 147.33 50.8037C147.77 51.0732 148.399 51.208 149.22 51.208C150.444 51.208 151.35 51.0234 151.936 50.6543C152.527 50.291 152.823 49.7959 152.823 49.1689C152.823 48.6475 152.662 48.2842 152.34 48.0791C152.018 47.8799 151.411 47.7803 150.521 47.7803H148.771C148.109 47.7803 147.594 47.9385 147.225 48.2549C146.855 48.5713 146.671 49.0254 146.671 49.6172ZM147.462 41.4521C147.462 42.126 147.652 42.6357 148.033 42.9814C148.414 43.3271 148.944 43.5 149.624 43.5C151.048 43.5 151.76 42.8086 151.76 41.4258C151.76 39.9785 151.039 39.2549 149.598 39.2549C148.912 39.2549 148.385 39.4395 148.016 39.8086C147.646 40.1777 147.462 40.7256 147.462 41.4521ZM163.115 48L159.459 38.3672H161.023L163.098 44.0801C163.566 45.416 163.842 46.2832 163.924 46.6816H163.994C164.059 46.3711 164.261 45.7295 164.601 44.7568C164.946 43.7783 165.717 41.6484 166.912 38.3672H168.477L164.82 48H163.115ZM174.093 48.1758C172.669 48.1758 171.544 47.7422 170.718 46.875C169.897 46.0078 169.487 44.8037 169.487 43.2627C169.487 41.71 169.868 40.4766 170.63 39.5625C171.397 38.6484 172.426 38.1914 173.715 38.1914C174.922 38.1914 175.877 38.5898 176.58 39.3867C177.283 40.1777 177.635 41.2236 177.635 42.5244V43.4473H170.999C171.028 44.5781 171.312 45.4365 171.852 46.0225C172.396 46.6084 173.161 46.9014 174.146 46.9014C175.183 46.9014 176.208 46.6846 177.222 46.251V47.5518C176.706 47.7744 176.217 47.9326 175.754 48.0264C175.297 48.126 174.743 48.1758 174.093 48.1758ZM173.697 39.4131C172.924 39.4131 172.306 39.665 171.843 40.1689C171.386 40.6729 171.116 41.3701 171.034 42.2607H176.07C176.07 41.3408 175.865 40.6377 175.455 40.1514C175.045 39.6592 174.459 39.4131 173.697 39.4131ZM184.525 38.1914C184.953 38.1914 185.337 38.2266 185.677 38.2969L185.475 39.6504C185.076 39.5625 184.725 39.5186 184.42 39.5186C183.641 39.5186 182.973 39.835 182.416 40.4678C181.865 41.1006 181.59 41.8887 181.59 42.832V48H180.131V38.3672H181.335L181.502 40.1514H181.572C181.93 39.5244 182.36 39.041 182.864 38.7012C183.368 38.3613 183.922 38.1914 184.525 38.1914ZM185.949 38.3672H187.514L189.623 43.8604C190.086 45.1143 190.373 46.0195 190.484 46.5762H190.555C190.631 46.2773 190.789 45.7676 191.029 45.0469C191.275 44.3203 192.072 42.0938 193.42 38.3672H194.984L190.845 49.3359C190.435 50.4199 189.954 51.1875 189.403 51.6387C188.858 52.0957 188.188 52.3242 187.391 52.3242C186.945 52.3242 186.506 52.2744 186.072 52.1748V51.0059C186.395 51.0762 186.755 51.1113 187.153 51.1113C188.155 51.1113 188.87 50.5488 189.298 49.4238L189.834 48.0527L185.949 38.3672ZM209.539 43.1748C209.539 44.7451 209.144 45.9727 208.353 46.8574C207.562 47.7363 206.469 48.1758 205.074 48.1758C204.213 48.1758 203.448 47.9736 202.78 47.5693C202.112 47.165 201.597 46.585 201.233 45.8291C200.87 45.0732 200.688 44.1885 200.688 43.1748C200.688 41.6045 201.081 40.3828 201.866 39.5098C202.651 38.6309 203.741 38.1914 205.136 38.1914C206.483 38.1914 207.553 38.6396 208.344 39.5361C209.141 40.4326 209.539 41.6455 209.539 43.1748ZM202.2 43.1748C202.2 44.4053 202.446 45.3428 202.938 45.9873C203.431 46.6318 204.154 46.9541 205.109 46.9541C206.064 46.9541 206.788 46.6348 207.28 45.9961C207.778 45.3516 208.027 44.4111 208.027 43.1748C208.027 41.9502 207.778 41.0215 207.28 40.3887C206.788 39.75 206.059 39.4307 205.092 39.4307C204.137 39.4307 203.416 39.7441 202.93 40.3711C202.443 40.998 202.2 41.9326 202.2 43.1748ZM214.215 48L210.559 38.3672H212.123L214.197 44.0801C214.666 45.416 214.941 46.2832 215.023 46.6816H215.094C215.158 46.3711 215.36 45.7295 215.7 44.7568C216.046 43.7783 216.816 41.6484 218.012 38.3672H219.576L215.92 48H214.215ZM225.192 48.1758C223.769 48.1758 222.644 47.7422 221.817 46.875C220.997 46.0078 220.587 44.8037 220.587 43.2627C220.587 41.71 220.968 40.4766 221.729 39.5625C222.497 38.6484 223.525 38.1914 224.814 38.1914C226.021 38.1914 226.977 38.5898 227.68 39.3867C228.383 40.1777 228.734 41.2236 228.734 42.5244V43.4473H222.099C222.128 44.5781 222.412 45.4365 222.951 46.0225C223.496 46.6084 224.261 46.9014 225.245 46.9014C226.282 46.9014 227.308 46.6846 228.321 46.251V47.5518C227.806 47.7744 227.316 47.9326 226.854 48.0264C226.396 48.126 225.843 48.1758 225.192 48.1758ZM224.797 39.4131C224.023 39.4131 223.405 39.665 222.942 40.1689C222.485 40.6729 222.216 41.3701 222.134 42.2607H227.17C227.17 41.3408 226.965 40.6377 226.555 40.1514C226.145 39.6592 225.559 39.4131 224.797 39.4131ZM235.625 38.1914C236.053 38.1914 236.437 38.2266 236.776 38.2969L236.574 39.6504C236.176 39.5625 235.824 39.5186 235.52 39.5186C234.74 39.5186 234.072 39.835 233.516 40.4678C232.965 41.1006 232.689 41.8887 232.689 42.832V48H231.23V38.3672H232.435L232.602 40.1514H232.672C233.029 39.5244 233.46 39.041 233.964 38.7012C234.468 38.3613 235.021 38.1914 235.625 38.1914ZM246.444 48L244.678 42.3486C244.566 42.0029 244.358 41.2178 244.054 39.9932H243.983C243.749 41.0186 243.544 41.8096 243.368 42.3662L241.549 48H239.861L237.233 38.3672H238.763C239.384 40.7871 239.855 42.6299 240.178 43.8955C240.506 45.1611 240.693 46.0137 240.74 46.4531H240.811C240.875 46.1191 240.978 45.6885 241.118 45.1611C241.265 44.6279 241.391 44.2061 241.496 43.8955L243.263 38.3672H244.845L246.567 43.8955C246.896 44.9033 247.118 45.75 247.235 46.4355H247.306C247.329 46.2246 247.391 45.8994 247.49 45.46C247.596 45.0205 248.208 42.6562 249.327 38.3672H250.839L248.176 48H246.444ZM259.18 48V41.7686C259.18 40.9834 259.001 40.3975 258.644 40.0107C258.286 39.624 257.727 39.4307 256.965 39.4307C255.951 39.4307 255.21 39.7061 254.741 40.2568C254.278 40.8076 254.047 41.71 254.047 42.9639V48H252.588V34.3242H254.047V38.4639C254.047 38.9619 254.023 39.375 253.977 39.7031H254.064C254.352 39.2402 254.759 38.877 255.286 38.6133C255.819 38.3438 256.426 38.209 257.105 38.209C258.283 38.209 259.165 38.4902 259.751 39.0527C260.343 39.6094 260.639 40.4971 260.639 41.7158V48H259.18ZM267.714 48.1758C266.29 48.1758 265.165 47.7422 264.339 46.875C263.519 46.0078 263.108 44.8037 263.108 43.2627C263.108 41.71 263.489 40.4766 264.251 39.5625C265.019 38.6484 266.047 38.1914 267.336 38.1914C268.543 38.1914 269.498 38.5898 270.201 39.3867C270.904 40.1777 271.256 41.2236 271.256 42.5244V43.4473H264.62C264.649 44.5781 264.934 45.4365 265.473 46.0225C266.018 46.6084 266.782 46.9014 267.767 46.9014C268.804 46.9014 269.829 46.6846 270.843 46.251V47.5518C270.327 47.7744 269.838 47.9326 269.375 48.0264C268.918 48.126 268.364 48.1758 267.714 48.1758ZM267.318 39.4131C266.545 39.4131 265.927 39.665 265.464 40.1689C265.007 40.6729 264.737 41.3701 264.655 42.2607H269.691C269.691 41.3408 269.486 40.6377 269.076 40.1514C268.666 39.6592 268.08 39.4131 267.318 39.4131ZM275.211 48H273.752V34.3242H275.211V48ZM290.583 48V41.7334C290.583 40.9658 290.419 40.3916 290.091 40.0107C289.763 39.624 289.253 39.4307 288.562 39.4307C287.653 39.4307 286.982 39.6914 286.549 40.2129C286.115 40.7344 285.898 41.5371 285.898 42.6211V48H284.439V41.7334C284.439 40.9658 284.275 40.3916 283.947 40.0107C283.619 39.624 283.106 39.4307 282.409 39.4307C281.495 39.4307 280.824 39.7061 280.396 40.2568C279.975 40.8018 279.764 41.6982 279.764 42.9463V48H278.305V38.3672H279.491L279.729 39.6855H279.799C280.074 39.2168 280.461 38.8506 280.959 38.5869C281.463 38.3232 282.025 38.1914 282.646 38.1914C284.152 38.1914 285.137 38.7363 285.6 39.8262H285.67C285.957 39.3223 286.373 38.9238 286.918 38.6309C287.463 38.3379 288.084 38.1914 288.781 38.1914C289.871 38.1914 290.686 38.4727 291.225 39.0352C291.77 39.5918 292.042 40.4854 292.042 41.7158V48H290.583ZM299.126 48.1758C297.702 48.1758 296.577 47.7422 295.751 46.875C294.931 46.0078 294.521 44.8037 294.521 43.2627C294.521 41.71 294.901 40.4766 295.663 39.5625C296.431 38.6484 297.459 38.1914 298.748 38.1914C299.955 38.1914 300.91 38.5898 301.613 39.3867C302.316 40.1777 302.668 41.2236 302.668 42.5244V43.4473H296.032C296.062 44.5781 296.346 45.4365 296.885 46.0225C297.43 46.6084 298.194 46.9014 299.179 46.9014C300.216 46.9014 301.241 46.6846 302.255 46.251V47.5518C301.739 47.7744 301.25 47.9326 300.787 48.0264C300.33 48.126 299.776 48.1758 299.126 48.1758ZM298.73 39.4131C297.957 39.4131 297.339 39.665 296.876 40.1689C296.419 40.6729 296.149 41.3701 296.067 42.2607H301.104C301.104 41.3408 300.898 40.6377 300.488 40.1514C300.078 39.6592 299.492 39.4131 298.73 39.4131ZM311.721 46.708H311.642C310.968 47.6865 309.96 48.1758 308.618 48.1758C307.358 48.1758 306.377 47.7451 305.674 46.8838C304.977 46.0225 304.628 44.7979 304.628 43.21C304.628 41.6221 304.979 40.3887 305.683 39.5098C306.386 38.6309 307.364 38.1914 308.618 38.1914C309.925 38.1914 310.927 38.666 311.624 39.6152H311.738L311.677 38.9209L311.642 38.2441V34.3242H313.101V48H311.914L311.721 46.708ZM308.803 46.9541C309.799 46.9541 310.52 46.6846 310.965 46.1455C311.416 45.6006 311.642 44.7246 311.642 43.5176V43.21C311.642 41.8447 311.413 40.8721 310.956 40.292C310.505 39.7061 309.781 39.4131 308.785 39.4131C307.93 39.4131 307.273 39.7471 306.816 40.415C306.365 41.0771 306.14 42.0146 306.14 43.2275C306.14 44.458 306.365 45.3867 306.816 46.0137C307.268 46.6406 307.93 46.9541 308.803 46.9541ZM77.4131 73L75.6465 67.3486C75.5352 67.0029 75.3271 66.2178 75.0225 64.9932H74.9521C74.7178 66.0186 74.5127 66.8096 74.3369 67.3662L72.5176 73H70.8301L68.2021 63.3672H69.7314C70.3525 65.7871 70.8242 67.6299 71.1465 68.8955C71.4746 70.1611 71.6621 71.0137 71.709 71.4531H71.7793C71.8438 71.1191 71.9463 70.6885 72.0869 70.1611C72.2334 69.6279 72.3594 69.2061 72.4648 68.8955L74.2314 63.3672H75.8135L77.5361 68.8955C77.8643 69.9033 78.0869 70.75 78.2041 71.4355H78.2744C78.2979 71.2246 78.3594 70.8994 78.459 70.46C78.5645 70.0205 79.1768 67.6562 80.2959 63.3672H81.8076L79.1445 73H77.4131ZM85.0156 73H83.5566V63.3672H85.0156V73ZM83.4336 60.7568C83.4336 60.4229 83.5156 60.1797 83.6797 60.0273C83.8438 59.8691 84.0488 59.79 84.2949 59.79C84.5293 59.79 84.7314 59.8691 84.9014 60.0273C85.0713 60.1855 85.1562 60.4287 85.1562 60.7568C85.1562 61.085 85.0713 61.3311 84.9014 61.4951C84.7314 61.6533 84.5293 61.7324 84.2949 61.7324C84.0488 61.7324 83.8438 61.6533 83.6797 61.4951C83.5156 61.3311 83.4336 61.085 83.4336 60.7568ZM91.2207 71.9717C91.4785 71.9717 91.7275 71.9541 91.9678 71.9189C92.208 71.8779 92.3984 71.8369 92.5391 71.7959V72.9121C92.3809 72.9883 92.1465 73.0498 91.8359 73.0967C91.5312 73.1494 91.2559 73.1758 91.0098 73.1758C89.1465 73.1758 88.2148 72.1943 88.2148 70.2314V64.501H86.835V63.7979L88.2148 63.1914L88.8301 61.1348H89.6738V63.3672H92.4688V64.501H89.6738V70.1699C89.6738 70.75 89.8115 71.1953 90.0869 71.5059C90.3623 71.8164 90.7402 71.9717 91.2207 71.9717ZM101.064 73V66.7686C101.064 65.9834 100.886 65.3975 100.528 65.0107C100.171 64.624 99.6113 64.4307 98.8496 64.4307C97.8359 64.4307 97.0947 64.7061 96.626 65.2568C96.1631 65.8076 95.9316 66.71 95.9316 67.9639V73H94.4727V59.3242H95.9316V63.4639C95.9316 63.9619 95.9082 64.375 95.8613 64.7031H95.9492C96.2363 64.2402 96.6436 63.877 97.1709 63.6133C97.7041 63.3438 98.3105 63.209 98.9902 63.209C100.168 63.209 101.05 63.4902 101.636 64.0527C102.228 64.6094 102.523 65.4971 102.523 66.7158V73H101.064ZM113.316 71.9717C113.574 71.9717 113.823 71.9541 114.063 71.9189C114.304 71.8779 114.494 71.8369 114.635 71.7959V72.9121C114.477 72.9883 114.242 73.0498 113.932 73.0967C113.627 73.1494 113.352 73.1758 113.105 73.1758C111.242 73.1758 110.311 72.1943 110.311 70.2314V64.501H108.931V63.7979L110.311 63.1914L110.926 61.1348H111.77V63.3672H114.564V64.501H111.77V70.1699C111.77 70.75 111.907 71.1953 112.183 71.5059C112.458 71.8164 112.836 71.9717 113.316 71.9717ZM123.16 73V66.7686C123.16 65.9834 122.981 65.3975 122.624 65.0107C122.267 64.624 121.707 64.4307 120.945 64.4307C119.932 64.4307 119.19 64.7061 118.722 65.2568C118.259 65.8076 118.027 66.71 118.027 67.9639V73H116.568V59.3242H118.027V63.4639C118.027 63.9619 118.004 64.375 117.957 64.7031H118.045C118.332 64.2402 118.739 63.877 119.267 63.6133C119.8 63.3438 120.406 63.209 121.086 63.209C122.264 63.209 123.146 63.4902 123.731 64.0527C124.323 64.6094 124.619 65.4971 124.619 66.7158V73H123.16ZM131.694 73.1758C130.271 73.1758 129.146 72.7422 128.319 71.875C127.499 71.0078 127.089 69.8037 127.089 68.2627C127.089 66.71 127.47 65.4766 128.231 64.5625C128.999 63.6484 130.027 63.1914 131.316 63.1914C132.523 63.1914 133.479 63.5898 134.182 64.3867C134.885 65.1777 135.236 66.2236 135.236 67.5244V68.4473H128.601C128.63 69.5781 128.914 70.4365 129.453 71.0225C129.998 71.6084 130.763 71.9014 131.747 71.9014C132.784 71.9014 133.81 71.6846 134.823 71.251V72.5518C134.308 72.7744 133.818 72.9326 133.355 73.0264C132.898 73.126 132.345 73.1758 131.694 73.1758ZM131.299 64.4131C130.525 64.4131 129.907 64.665 129.444 65.1689C128.987 65.6729 128.718 66.3701 128.636 67.2607H133.672C133.672 66.3408 133.467 65.6377 133.057 65.1514C132.646 64.6592 132.061 64.4131 131.299 64.4131ZM149 73V66.7686C149 65.9834 148.821 65.3975 148.464 65.0107C148.106 64.624 147.547 64.4307 146.785 64.4307C145.777 64.4307 145.039 64.7031 144.57 65.248C144.102 65.793 143.867 66.6924 143.867 67.9463V73H142.408V63.3672H143.595L143.832 64.6855H143.902C144.201 64.2109 144.62 63.8447 145.159 63.5869C145.698 63.3232 146.299 63.1914 146.961 63.1914C148.121 63.1914 148.994 63.4727 149.58 64.0352C150.166 64.5918 150.459 65.4854 150.459 66.7158V73H149ZM154.836 63.3672V69.6162C154.836 70.4014 155.015 70.9873 155.372 71.374C155.729 71.7607 156.289 71.9541 157.051 71.9541C158.059 71.9541 158.794 71.6787 159.257 71.1279C159.726 70.5771 159.96 69.6777 159.96 68.4297V63.3672H161.419V73H160.215L160.004 71.708H159.925C159.626 72.1826 159.21 72.5459 158.677 72.7979C158.149 73.0498 157.546 73.1758 156.866 73.1758C155.694 73.1758 154.815 72.8975 154.229 72.3408C153.649 71.7842 153.359 70.8936 153.359 69.6689V63.3672H154.836ZM176.8 73V66.7334C176.8 65.9658 176.636 65.3916 176.308 65.0107C175.979 64.624 175.47 64.4307 174.778 64.4307C173.87 64.4307 173.199 64.6914 172.766 65.2129C172.332 65.7344 172.115 66.5371 172.115 67.6211V73H170.656V66.7334C170.656 65.9658 170.492 65.3916 170.164 65.0107C169.836 64.624 169.323 64.4307 168.626 64.4307C167.712 64.4307 167.041 64.7061 166.613 65.2568C166.191 65.8018 165.98 66.6982 165.98 67.9463V73H164.521V63.3672H165.708L165.945 64.6855H166.016C166.291 64.2168 166.678 63.8506 167.176 63.5869C167.68 63.3232 168.242 63.1914 168.863 63.1914C170.369 63.1914 171.354 63.7363 171.816 64.8262H171.887C172.174 64.3223 172.59 63.9238 173.135 63.6309C173.68 63.3379 174.301 63.1914 174.998 63.1914C176.088 63.1914 176.902 63.4727 177.441 64.0352C177.986 64.5918 178.259 65.4854 178.259 66.7158V73H176.8ZM185.756 63.209C187.021 63.209 188.003 63.6426 188.7 64.5098C189.403 65.3711 189.755 66.5928 189.755 68.1748C189.755 69.7568 189.4 70.9873 188.691 71.8662C187.988 72.7393 187.01 73.1758 185.756 73.1758C185.129 73.1758 184.555 73.0615 184.033 72.833C183.518 72.5986 183.084 72.2412 182.732 71.7607H182.627L182.319 73H181.273V59.3242H182.732V62.6465C182.732 63.3906 182.709 64.0586 182.662 64.6504H182.732C183.412 63.6895 184.42 63.209 185.756 63.209ZM185.545 64.4307C184.549 64.4307 183.831 64.7178 183.392 65.292C182.952 65.8604 182.732 66.8213 182.732 68.1748C182.732 69.5283 182.958 70.498 183.409 71.084C183.86 71.6641 184.584 71.9541 185.58 71.9541C186.477 71.9541 187.145 71.6289 187.584 70.9785C188.023 70.3223 188.243 69.3818 188.243 68.1572C188.243 66.9033 188.023 65.9688 187.584 65.3535C187.145 64.7383 186.465 64.4307 185.545 64.4307ZM196.382 73.1758C194.958 73.1758 193.833 72.7422 193.007 71.875C192.187 71.0078 191.776 69.8037 191.776 68.2627C191.776 66.71 192.157 65.4766 192.919 64.5625C193.687 63.6484 194.715 63.1914 196.004 63.1914C197.211 63.1914 198.166 63.5898 198.869 64.3867C199.572 65.1777 199.924 66.2236 199.924 67.5244V68.4473H193.288C193.317 69.5781 193.602 70.4365 194.141 71.0225C194.686 71.6084 195.45 71.9014 196.435 71.9014C197.472 71.9014 198.497 71.6846 199.511 71.251V72.5518C198.995 72.7744 198.506 72.9326 198.043 73.0264C197.586 73.126 197.032 73.1758 196.382 73.1758ZM195.986 64.4131C195.213 64.4131 194.595 64.665 194.132 65.1689C193.675 65.6729 193.405 66.3701 193.323 67.2607H198.359C198.359 66.3408 198.154 65.6377 197.744 65.1514C197.334 64.6592 196.748 64.4131 195.986 64.4131ZM206.814 63.1914C207.242 63.1914 207.626 63.2266 207.966 63.2969L207.764 64.6504C207.365 64.5625 207.014 64.5186 206.709 64.5186C205.93 64.5186 205.262 64.835 204.705 65.4678C204.154 66.1006 203.879 66.8887 203.879 67.832V73H202.42V63.3672H203.624L203.791 65.1514H203.861C204.219 64.5244 204.649 64.041 205.153 63.7012C205.657 63.3613 206.211 63.1914 206.814 63.1914ZM222.758 68.1748C222.758 69.7451 222.362 70.9727 221.571 71.8574C220.78 72.7363 219.688 73.1758 218.293 73.1758C217.432 73.1758 216.667 72.9736 215.999 72.5693C215.331 72.165 214.815 71.585 214.452 70.8291C214.089 70.0732 213.907 69.1885 213.907 68.1748C213.907 66.6045 214.3 65.3828 215.085 64.5098C215.87 63.6309 216.96 63.1914 218.354 63.1914C219.702 63.1914 220.771 63.6396 221.562 64.5361C222.359 65.4326 222.758 66.6455 222.758 68.1748ZM215.419 68.1748C215.419 69.4053 215.665 70.3428 216.157 70.9873C216.649 71.6318 217.373 71.9541 218.328 71.9541C219.283 71.9541 220.007 71.6348 220.499 70.9961C220.997 70.3516 221.246 69.4111 221.246 68.1748C221.246 66.9502 220.997 66.0215 220.499 65.3887C220.007 64.75 219.277 64.4307 218.311 64.4307C217.355 64.4307 216.635 64.7441 216.148 65.3711C215.662 65.998 215.419 66.9326 215.419 68.1748ZM229.666 64.501H227.214V73H225.755V64.501H224.032V63.8418L225.755 63.3145V62.7783C225.755 60.4111 226.789 59.2275 228.857 59.2275C229.367 59.2275 229.965 59.3301 230.65 59.5352L230.272 60.7041C229.71 60.5225 229.229 60.4316 228.831 60.4316C228.28 60.4316 227.873 60.6162 227.609 60.9854C227.346 61.3486 227.214 61.9346 227.214 62.7432V63.3672H229.666V64.501ZM248.378 73V66.7334C248.378 65.9658 248.214 65.3916 247.886 65.0107C247.558 64.624 247.048 64.4307 246.356 64.4307C245.448 64.4307 244.777 64.6914 244.344 65.2129C243.91 65.7344 243.693 66.5371 243.693 67.6211V73H242.234V66.7334C242.234 65.9658 242.07 65.3916 241.742 65.0107C241.414 64.624 240.901 64.4307 240.204 64.4307C239.29 64.4307 238.619 64.7061 238.191 65.2568C237.77 65.8018 237.559 66.6982 237.559 67.9463V73H236.1V63.3672H237.286L237.523 64.6855H237.594C237.869 64.2168 238.256 63.8506 238.754 63.5869C239.258 63.3232 239.82 63.1914 240.441 63.1914C241.947 63.1914 242.932 63.7363 243.395 64.8262H243.465C243.752 64.3223 244.168 63.9238 244.713 63.6309C245.258 63.3379 245.879 63.1914 246.576 63.1914C247.666 63.1914 248.48 63.4727 249.02 64.0352C249.564 64.5918 249.837 65.4854 249.837 66.7158V73H248.378ZM261.166 68.1748C261.166 69.7451 260.771 70.9727 259.979 71.8574C259.188 72.7363 258.096 73.1758 256.701 73.1758C255.84 73.1758 255.075 72.9736 254.407 72.5693C253.739 72.165 253.224 71.585 252.86 70.8291C252.497 70.0732 252.315 69.1885 252.315 68.1748C252.315 66.6045 252.708 65.3828 253.493 64.5098C254.278 63.6309 255.368 63.1914 256.763 63.1914C258.11 63.1914 259.18 63.6396 259.971 64.5361C260.768 65.4326 261.166 66.6455 261.166 68.1748ZM253.827 68.1748C253.827 69.4053 254.073 70.3428 254.565 70.9873C255.058 71.6318 255.781 71.9541 256.736 71.9541C257.691 71.9541 258.415 71.6348 258.907 70.9961C259.405 70.3516 259.654 69.4111 259.654 68.1748C259.654 66.9502 259.405 66.0215 258.907 65.3887C258.415 64.75 257.686 64.4307 256.719 64.4307C255.764 64.4307 255.043 64.7441 254.557 65.3711C254.07 65.998 253.827 66.9326 253.827 68.1748ZM270.289 71.708H270.21C269.536 72.6865 268.528 73.1758 267.187 73.1758C265.927 73.1758 264.945 72.7451 264.242 71.8838C263.545 71.0225 263.196 69.7979 263.196 68.21C263.196 66.6221 263.548 65.3887 264.251 64.5098C264.954 63.6309 265.933 63.1914 267.187 63.1914C268.493 63.1914 269.495 63.666 270.192 64.6152H270.307L270.245 63.9209L270.21 63.2441V59.3242H271.669V73H270.482L270.289 71.708ZM267.371 71.9541C268.367 71.9541 269.088 71.6846 269.533 71.1455C269.984 70.6006 270.21 69.7246 270.21 68.5176V68.21C270.21 66.8447 269.981 65.8721 269.524 65.292C269.073 64.7061 268.35 64.4131 267.354 64.4131C266.498 64.4131 265.842 64.7471 265.385 65.415C264.934 66.0771 264.708 67.0146 264.708 68.2275C264.708 69.458 264.934 70.3867 265.385 71.0137C265.836 71.6406 266.498 71.9541 267.371 71.9541ZM276.143 63.3672V69.6162C276.143 70.4014 276.321 70.9873 276.679 71.374C277.036 71.7607 277.596 71.9541 278.357 71.9541C279.365 71.9541 280.101 71.6787 280.563 71.1279C281.032 70.5771 281.267 69.6777 281.267 68.4297V63.3672H282.726V73H281.521L281.311 71.708H281.231C280.933 72.1826 280.517 72.5459 279.983 72.7979C279.456 73.0498 278.853 73.1758 278.173 73.1758C277.001 73.1758 276.122 72.8975 275.536 72.3408C274.956 71.7842 274.666 70.8936 274.666 69.6689V63.3672H276.143ZM287.287 73H285.828V59.3242H287.287V73ZM294.45 73.1758C293.026 73.1758 291.901 72.7422 291.075 71.875C290.255 71.0078 289.845 69.8037 289.845 68.2627C289.845 66.71 290.226 65.4766 290.987 64.5625C291.755 63.6484 292.783 63.1914 294.072 63.1914C295.279 63.1914 296.234 63.5898 296.938 64.3867C297.641 65.1777 297.992 66.2236 297.992 67.5244V68.4473H291.356C291.386 69.5781 291.67 70.4365 292.209 71.0225C292.754 71.6084 293.519 71.9014 294.503 71.9014C295.54 71.9014 296.565 71.6846 297.579 71.251V72.5518C297.063 72.7744 296.574 72.9326 296.111 73.0264C295.654 73.126 295.101 73.1758 294.45 73.1758ZM294.055 64.4131C293.281 64.4131 292.663 64.665 292.2 65.1689C291.743 65.6729 291.474 66.3701 291.392 67.2607H296.428C296.428 66.3408 296.223 65.6377 295.812 65.1514C295.402 64.6592 294.816 64.4131 294.055 64.4131ZM306.702 70.3721C306.702 71.2686 306.368 71.96 305.7 72.4463C305.032 72.9326 304.095 73.1758 302.888 73.1758C301.61 73.1758 300.614 72.9736 299.899 72.5693V71.2158C300.362 71.4502 300.857 71.6348 301.385 71.7695C301.918 71.9043 302.431 71.9717 302.923 71.9717C303.685 71.9717 304.271 71.8516 304.681 71.6113C305.091 71.3652 305.296 70.9932 305.296 70.4951C305.296 70.1201 305.132 69.8008 304.804 69.5371C304.481 69.2676 303.849 68.9512 302.905 68.5879C302.009 68.2539 301.37 67.9639 300.989 67.7178C300.614 67.4658 300.333 67.1816 300.146 66.8652C299.964 66.5488 299.873 66.1709 299.873 65.7314C299.873 64.9463 300.192 64.3281 300.831 63.877C301.47 63.4199 302.346 63.1914 303.459 63.1914C304.496 63.1914 305.51 63.4023 306.5 63.8242L305.981 65.0107C305.015 64.6123 304.139 64.4131 303.354 64.4131C302.662 64.4131 302.141 64.5215 301.789 64.7383C301.438 64.9551 301.262 65.2539 301.262 65.6348C301.262 65.8926 301.326 66.1123 301.455 66.2939C301.59 66.4756 301.804 66.6484 302.097 66.8125C302.39 66.9766 302.952 67.2139 303.784 67.5244C304.927 67.9404 305.697 68.3594 306.096 68.7812C306.5 69.2031 306.702 69.7334 306.702 70.3721ZM308.873 72.0684C308.873 71.6758 308.961 71.3799 309.137 71.1807C309.318 70.9756 309.576 70.873 309.91 70.873C310.25 70.873 310.514 70.9756 310.701 71.1807C310.895 71.3799 310.991 71.6758 310.991 72.0684C310.991 72.4492 310.895 72.7422 310.701 72.9473C310.508 73.1523 310.244 73.2549 309.91 73.2549C309.611 73.2549 309.362 73.1641 309.163 72.9824C308.97 72.7949 308.873 72.4902 308.873 72.0684ZM318.778 73V60.1504H320.272V73H318.778ZM76.1387 98V91.7686C76.1387 90.9834 75.96 90.3975 75.6025 90.0107C75.2451 89.624 74.6855 89.4307 73.9238 89.4307C72.916 89.4307 72.1777 89.7031 71.709 90.248C71.2402 90.793 71.0059 91.6924 71.0059 92.9463V98H69.5469V88.3672H70.7334L70.9707 89.6855H71.041C71.3398 89.2109 71.7588 88.8447 72.2979 88.5869C72.8369 88.3232 73.4375 88.1914 74.0996 88.1914C75.2598 88.1914 76.1328 88.4727 76.7188 89.0352C77.3047 89.5918 77.5977 90.4854 77.5977 91.7158V98H76.1387ZM84.6729 98.1758C83.249 98.1758 82.124 97.7422 81.2979 96.875C80.4775 96.0078 80.0674 94.8037 80.0674 93.2627C80.0674 91.71 80.4482 90.4766 81.21 89.5625C81.9775 88.6484 83.0059 88.1914 84.2949 88.1914C85.502 88.1914 86.457 88.5898 87.1602 89.3867C87.8633 90.1777 88.2148 91.2236 88.2148 92.5244V93.4473H81.5791C81.6084 94.5781 81.8926 95.4365 82.4316 96.0225C82.9766 96.6084 83.7412 96.9014 84.7256 96.9014C85.7627 96.9014 86.7881 96.6846 87.8018 96.251V97.5518C87.2861 97.7744 86.7969 97.9326 86.334 98.0264C85.877 98.126 85.3232 98.1758 84.6729 98.1758ZM84.2773 89.4131C83.5039 89.4131 82.8857 89.665 82.4229 90.1689C81.9658 90.6729 81.6963 91.3701 81.6143 92.2607H86.6504C86.6504 91.3408 86.4453 90.6377 86.0352 90.1514C85.625 89.6592 85.0391 89.4131 84.2773 89.4131ZM94.7803 98.1758C93.3564 98.1758 92.2314 97.7422 91.4053 96.875C90.585 96.0078 90.1748 94.8037 90.1748 93.2627C90.1748 91.71 90.5557 90.4766 91.3174 89.5625C92.085 88.6484 93.1133 88.1914 94.4023 88.1914C95.6094 88.1914 96.5645 88.5898 97.2676 89.3867C97.9707 90.1777 98.3223 91.2236 98.3223 92.5244V93.4473H91.6865C91.7158 94.5781 92 95.4365 92.5391 96.0225C93.084 96.6084 93.8486 96.9014 94.833 96.9014C95.8701 96.9014 96.8955 96.6846 97.9092 96.251V97.5518C97.3936 97.7744 96.9043 97.9326 96.4414 98.0264C95.9844 98.126 95.4307 98.1758 94.7803 98.1758ZM94.3848 89.4131C93.6113 89.4131 92.9932 89.665 92.5303 90.1689C92.0732 90.6729 91.8037 91.3701 91.7217 92.2607H96.7578C96.7578 91.3408 96.5527 90.6377 96.1426 90.1514C95.7324 89.6592 95.1465 89.4131 94.3848 89.4131ZM107.375 96.708H107.296C106.622 97.6865 105.614 98.1758 104.272 98.1758C103.013 98.1758 102.031 97.7451 101.328 96.8838C100.631 96.0225 100.282 94.7979 100.282 93.21C100.282 91.6221 100.634 90.3887 101.337 89.5098C102.04 88.6309 103.019 88.1914 104.272 88.1914C105.579 88.1914 106.581 88.666 107.278 89.6152H107.393L107.331 88.9209L107.296 88.2441V84.3242H108.755V98H107.568L107.375 96.708ZM104.457 96.9541C105.453 96.9541 106.174 96.6846 106.619 96.1455C107.07 95.6006 107.296 94.7246 107.296 93.5176V93.21C107.296 91.8447 107.067 90.8721 106.61 90.292C106.159 89.7061 105.436 89.4131 104.439 89.4131C103.584 89.4131 102.928 89.7471 102.471 90.415C102.02 91.0771 101.794 92.0146 101.794 93.2275C101.794 94.458 102.02 95.3867 102.471 96.0137C102.922 96.6406 103.584 96.9541 104.457 96.9541ZM122.457 98L122.167 96.6289H122.097C121.616 97.2324 121.136 97.6426 120.655 97.8594C120.181 98.0703 119.586 98.1758 118.871 98.1758C117.916 98.1758 117.166 97.9297 116.621 97.4375C116.082 96.9453 115.812 96.2451 115.812 95.3369C115.812 93.3916 117.368 92.3721 120.479 92.2783L122.114 92.2256V91.6279C122.114 90.8721 121.95 90.3154 121.622 89.958C121.3 89.5947 120.781 89.4131 120.066 89.4131C119.264 89.4131 118.355 89.6592 117.342 90.1514L116.894 89.0352C117.368 88.7773 117.887 88.5752 118.449 88.4287C119.018 88.2822 119.586 88.209 120.154 88.209C121.303 88.209 122.152 88.4639 122.703 88.9736C123.26 89.4834 123.538 90.3008 123.538 91.4258V98H122.457ZM119.161 96.9717C120.069 96.9717 120.781 96.7227 121.297 96.2246C121.818 95.7266 122.079 95.0293 122.079 94.1328V93.2627L120.62 93.3242C119.46 93.3652 118.622 93.5469 118.106 93.8691C117.597 94.1855 117.342 94.6807 117.342 95.3545C117.342 95.8818 117.5 96.2832 117.816 96.5586C118.139 96.834 118.587 96.9717 119.161 96.9717ZM143.507 98V91.7334C143.507 90.9658 143.343 90.3916 143.015 90.0107C142.687 89.624 142.177 89.4307 141.485 89.4307C140.577 89.4307 139.906 89.6914 139.473 90.2129C139.039 90.7344 138.822 91.5371 138.822 92.6211V98H137.363V91.7334C137.363 90.9658 137.199 90.3916 136.871 90.0107C136.543 89.624 136.03 89.4307 135.333 89.4307C134.419 89.4307 133.748 89.7061 133.32 90.2568C132.898 90.8018 132.688 91.6982 132.688 92.9463V98H131.229V88.3672H132.415L132.652 89.6855H132.723C132.998 89.2168 133.385 88.8506 133.883 88.5869C134.387 88.3232 134.949 88.1914 135.57 88.1914C137.076 88.1914 138.061 88.7363 138.523 89.8262H138.594C138.881 89.3223 139.297 88.9238 139.842 88.6309C140.387 88.3379 141.008 88.1914 141.705 88.1914C142.795 88.1914 143.609 88.4727 144.148 89.0352C144.693 89.5918 144.966 90.4854 144.966 91.7158V98H143.507ZM149.352 88.3672V94.6162C149.352 95.4014 149.53 95.9873 149.888 96.374C150.245 96.7607 150.805 96.9541 151.566 96.9541C152.574 96.9541 153.31 96.6787 153.772 96.1279C154.241 95.5771 154.476 94.6777 154.476 93.4297V88.3672H155.935V98H154.73L154.52 96.708H154.44C154.142 97.1826 153.726 97.5459 153.192 97.7979C152.665 98.0498 152.062 98.1758 151.382 98.1758C150.21 98.1758 149.331 97.8975 148.745 97.3408C148.165 96.7842 147.875 95.8936 147.875 94.6689V88.3672H149.352ZM162.887 98.1758C161.492 98.1758 160.411 97.748 159.644 96.8926C158.882 96.0312 158.501 94.8154 158.501 93.2451C158.501 91.6338 158.888 90.3887 159.661 89.5098C160.44 88.6309 161.548 88.1914 162.983 88.1914C163.446 88.1914 163.909 88.2412 164.372 88.3408C164.835 88.4404 165.198 88.5576 165.462 88.6924L165.014 89.9316C164.691 89.8027 164.34 89.6973 163.959 89.6152C163.578 89.5273 163.241 89.4834 162.948 89.4834C160.991 89.4834 160.013 90.7314 160.013 93.2275C160.013 94.4111 160.25 95.3193 160.725 95.9521C161.205 96.585 161.914 96.9014 162.852 96.9014C163.654 96.9014 164.478 96.7285 165.321 96.3828V97.6748C164.677 98.0088 163.865 98.1758 162.887 98.1758ZM174.207 98V91.7686C174.207 90.9834 174.028 90.3975 173.671 90.0107C173.313 89.624 172.754 89.4307 171.992 89.4307C170.979 89.4307 170.237 89.7061 169.769 90.2568C169.306 90.8076 169.074 91.71 169.074 92.9639V98H167.615V84.3242H169.074V88.4639C169.074 88.9619 169.051 89.375 169.004 89.7031H169.092C169.379 89.2402 169.786 88.877 170.313 88.6133C170.847 88.3438 171.453 88.209 172.133 88.209C173.311 88.209 174.192 88.4902 174.778 89.0527C175.37 89.6094 175.666 90.4971 175.666 91.7158V98H174.207ZM195.626 98V91.7334C195.626 90.9658 195.462 90.3916 195.134 90.0107C194.806 89.624 194.296 89.4307 193.604 89.4307C192.696 89.4307 192.025 89.6914 191.592 90.2129C191.158 90.7344 190.941 91.5371 190.941 92.6211V98H189.482V91.7334C189.482 90.9658 189.318 90.3916 188.99 90.0107C188.662 89.624 188.149 89.4307 187.452 89.4307C186.538 89.4307 185.867 89.7061 185.439 90.2568C185.018 90.8018 184.807 91.6982 184.807 92.9463V98H183.348V88.3672H184.534L184.771 89.6855H184.842C185.117 89.2168 185.504 88.8506 186.002 88.5869C186.506 88.3232 187.068 88.1914 187.689 88.1914C189.195 88.1914 190.18 88.7363 190.643 89.8262H190.713C191 89.3223 191.416 88.9238 191.961 88.6309C192.506 88.3379 193.127 88.1914 193.824 88.1914C194.914 88.1914 195.729 88.4727 196.268 89.0352C196.812 89.5918 197.085 90.4854 197.085 91.7158V98H195.626ZM208.414 93.1748C208.414 94.7451 208.019 95.9727 207.228 96.8574C206.437 97.7363 205.344 98.1758 203.949 98.1758C203.088 98.1758 202.323 97.9736 201.655 97.5693C200.987 97.165 200.472 96.585 200.108 95.8291C199.745 95.0732 199.563 94.1885 199.563 93.1748C199.563 91.6045 199.956 90.3828 200.741 89.5098C201.526 88.6309 202.616 88.1914 204.011 88.1914C205.358 88.1914 206.428 88.6396 207.219 89.5361C208.016 90.4326 208.414 91.6455 208.414 93.1748ZM201.075 93.1748C201.075 94.4053 201.321 95.3428 201.813 95.9873C202.306 96.6318 203.029 96.9541 203.984 96.9541C204.939 96.9541 205.663 96.6348 206.155 95.9961C206.653 95.3516 206.902 94.4111 206.902 93.1748C206.902 91.9502 206.653 91.0215 206.155 90.3887C205.663 89.75 204.934 89.4307 203.967 89.4307C203.012 89.4307 202.291 89.7441 201.805 90.3711C201.318 90.998 201.075 91.9326 201.075 93.1748ZM215.375 88.1914C215.803 88.1914 216.187 88.2266 216.526 88.2969L216.324 89.6504C215.926 89.5625 215.574 89.5186 215.27 89.5186C214.49 89.5186 213.822 89.835 213.266 90.4678C212.715 91.1006 212.439 91.8887 212.439 92.832V98H210.98V88.3672H212.185L212.352 90.1514H212.422C212.779 89.5244 213.21 89.041 213.714 88.7012C214.218 88.3613 214.771 88.1914 215.375 88.1914ZM222.397 98.1758C220.974 98.1758 219.849 97.7422 219.022 96.875C218.202 96.0078 217.792 94.8037 217.792 93.2627C217.792 91.71 218.173 90.4766 218.935 89.5625C219.702 88.6484 220.73 88.1914 222.02 88.1914C223.227 88.1914 224.182 88.5898 224.885 89.3867C225.588 90.1777 225.939 91.2236 225.939 92.5244V93.4473H219.304C219.333 94.5781 219.617 95.4365 220.156 96.0225C220.701 96.6084 221.466 96.9014 222.45 96.9014C223.487 96.9014 224.513 96.6846 225.526 96.251V97.5518C225.011 97.7744 224.521 97.9326 224.059 98.0264C223.602 98.126 223.048 98.1758 222.397 98.1758ZM222.002 89.4131C221.229 89.4131 220.61 89.665 220.147 90.1689C219.69 90.6729 219.421 91.3701 219.339 92.2607H224.375C224.375 91.3408 224.17 90.6377 223.76 90.1514C223.35 89.6592 222.764 89.4131 222.002 89.4131ZM240.995 88.3672V89.29L239.211 89.501C239.375 89.7061 239.521 89.9756 239.65 90.3096C239.779 90.6377 239.844 91.0098 239.844 91.4258C239.844 92.3691 239.521 93.1221 238.877 93.6846C238.232 94.2471 237.348 94.5283 236.223 94.5283C235.936 94.5283 235.666 94.5049 235.414 94.458C234.793 94.7861 234.482 95.1992 234.482 95.6973C234.482 95.9609 234.591 96.1572 234.808 96.2861C235.024 96.4092 235.396 96.4707 235.924 96.4707H237.629C238.672 96.4707 239.472 96.6904 240.028 97.1299C240.591 97.5693 240.872 98.208 240.872 99.0459C240.872 100.112 240.444 100.924 239.589 101.48C238.733 102.043 237.485 102.324 235.845 102.324C234.585 102.324 233.612 102.09 232.927 101.621C232.247 101.152 231.907 100.49 231.907 99.6348C231.907 99.0488 232.095 98.542 232.47 98.1143C232.845 97.6865 233.372 97.3965 234.052 97.2441C233.806 97.1328 233.598 96.96 233.428 96.7256C233.264 96.4912 233.182 96.2188 233.182 95.9082C233.182 95.5566 233.275 95.249 233.463 94.9854C233.65 94.7217 233.946 94.4668 234.351 94.2207C233.853 94.0156 233.445 93.667 233.129 93.1748C232.818 92.6826 232.663 92.1201 232.663 91.4873C232.663 90.4326 232.979 89.6211 233.612 89.0527C234.245 88.4785 235.142 88.1914 236.302 88.1914C236.806 88.1914 237.26 88.25 237.664 88.3672H240.995ZM233.313 99.6172C233.313 100.139 233.533 100.534 233.973 100.804C234.412 101.073 235.042 101.208 235.862 101.208C237.087 101.208 237.992 101.023 238.578 100.654C239.17 100.291 239.466 99.7959 239.466 99.1689C239.466 98.6475 239.305 98.2842 238.982 98.0791C238.66 97.8799 238.054 97.7803 237.163 97.7803H235.414C234.752 97.7803 234.236 97.9385 233.867 98.2549C233.498 98.5713 233.313 99.0254 233.313 99.6172ZM234.104 91.4521C234.104 92.126 234.295 92.6357 234.676 92.9814C235.057 93.3271 235.587 93.5 236.267 93.5C237.69 93.5 238.402 92.8086 238.402 91.4258C238.402 89.9785 237.682 89.2549 236.24 89.2549C235.555 89.2549 235.027 89.4395 234.658 89.8086C234.289 90.1777 234.104 90.7256 234.104 91.4521ZM247.042 98.1758C245.618 98.1758 244.493 97.7422 243.667 96.875C242.847 96.0078 242.437 94.8037 242.437 93.2627C242.437 91.71 242.817 90.4766 243.579 89.5625C244.347 88.6484 245.375 88.1914 246.664 88.1914C247.871 88.1914 248.826 88.5898 249.529 89.3867C250.232 90.1777 250.584 91.2236 250.584 92.5244V93.4473H243.948C243.978 94.5781 244.262 95.4365 244.801 96.0225C245.346 96.6084 246.11 96.9014 247.095 96.9014C248.132 96.9014 249.157 96.6846 250.171 96.251V97.5518C249.655 97.7744 249.166 97.9326 248.703 98.0264C248.246 98.126 247.692 98.1758 247.042 98.1758ZM246.646 89.4131C245.873 89.4131 245.255 89.665 244.792 90.1689C244.335 90.6729 244.065 91.3701 243.983 92.2607H249.02C249.02 91.3408 248.814 90.6377 248.404 90.1514C247.994 89.6592 247.408 89.4131 246.646 89.4131ZM259.672 98V91.7686C259.672 90.9834 259.493 90.3975 259.136 90.0107C258.778 89.624 258.219 89.4307 257.457 89.4307C256.449 89.4307 255.711 89.7031 255.242 90.248C254.773 90.793 254.539 91.6924 254.539 92.9463V98H253.08V88.3672H254.267L254.504 89.6855H254.574C254.873 89.2109 255.292 88.8447 255.831 88.5869C256.37 88.3232 256.971 88.1914 257.633 88.1914C258.793 88.1914 259.666 88.4727 260.252 89.0352C260.838 89.5918 261.131 90.4854 261.131 91.7158V98H259.672ZM267.248 96.9717C267.506 96.9717 267.755 96.9541 267.995 96.9189C268.235 96.8779 268.426 96.8369 268.566 96.7959V97.9121C268.408 97.9883 268.174 98.0498 267.863 98.0967C267.559 98.1494 267.283 98.1758 267.037 98.1758C265.174 98.1758 264.242 97.1943 264.242 95.2314V89.501H262.862V88.7979L264.242 88.1914L264.857 86.1348H265.701V88.3672H268.496V89.501H265.701V95.1699C265.701 95.75 265.839 96.1953 266.114 96.5059C266.39 96.8164 266.768 96.9717 267.248 96.9717ZM271.959 98H270.5V84.3242H271.959V98ZM279.122 98.1758C277.698 98.1758 276.573 97.7422 275.747 96.875C274.927 96.0078 274.517 94.8037 274.517 93.2627C274.517 91.71 274.897 90.4766 275.659 89.5625C276.427 88.6484 277.455 88.1914 278.744 88.1914C279.951 88.1914 280.906 88.5898 281.609 89.3867C282.312 90.1777 282.664 91.2236 282.664 92.5244V93.4473H276.028C276.058 94.5781 276.342 95.4365 276.881 96.0225C277.426 96.6084 278.19 96.9014 279.175 96.9014C280.212 96.9014 281.237 96.6846 282.251 96.251V97.5518C281.735 97.7744 281.246 97.9326 280.783 98.0264C280.326 98.126 279.772 98.1758 279.122 98.1758ZM278.727 89.4131C277.953 89.4131 277.335 89.665 276.872 90.1689C276.415 90.6729 276.146 91.3701 276.063 92.2607H281.1C281.1 91.3408 280.895 90.6377 280.484 90.1514C280.074 89.6592 279.488 89.4131 278.727 89.4131ZM71.0059 123H69.5469V113.367H71.0059V123ZM69.4238 110.757C69.4238 110.423 69.5059 110.18 69.6699 110.027C69.834 109.869 70.0391 109.79 70.2852 109.79C70.5195 109.79 70.7217 109.869 70.8916 110.027C71.0615 110.186 71.1465 110.429 71.1465 110.757C71.1465 111.085 71.0615 111.331 70.8916 111.495C70.7217 111.653 70.5195 111.732 70.2852 111.732C70.0391 111.732 69.834 111.653 69.6699 111.495C69.5059 111.331 69.4238 111.085 69.4238 110.757ZM80.6914 123V116.769C80.6914 115.983 80.5127 115.397 80.1553 115.011C79.7979 114.624 79.2383 114.431 78.4766 114.431C77.4688 114.431 76.7305 114.703 76.2617 115.248C75.793 115.793 75.5586 116.692 75.5586 117.946V123H74.0996V113.367H75.2861L75.5234 114.686H75.5938C75.8926 114.211 76.3115 113.845 76.8506 113.587C77.3896 113.323 77.9902 113.191 78.6523 113.191C79.8125 113.191 80.6855 113.473 81.2715 114.035C81.8574 114.592 82.1504 115.485 82.1504 116.716V123H80.6914ZM88.2676 121.972C88.5254 121.972 88.7744 121.954 89.0146 121.919C89.2549 121.878 89.4453 121.837 89.5859 121.796V122.912C89.4277 122.988 89.1934 123.05 88.8828 123.097C88.5781 123.149 88.3027 123.176 88.0566 123.176C86.1934 123.176 85.2617 122.194 85.2617 120.231V114.501H83.8818V113.798L85.2617 113.191L85.877 111.135H86.7207V113.367H89.5156V114.501H86.7207V120.17C86.7207 120.75 86.8584 121.195 87.1338 121.506C87.4092 121.816 87.7871 121.972 88.2676 121.972ZM95.9141 113.191C96.3418 113.191 96.7256 113.227 97.0654 113.297L96.8633 114.65C96.4648 114.562 96.1133 114.519 95.8086 114.519C95.0293 114.519 94.3613 114.835 93.8047 115.468C93.2539 116.101 92.9785 116.889 92.9785 117.832V123H91.5195V113.367H92.7236L92.8906 115.151H92.9609C93.3184 114.524 93.749 114.041 94.2529 113.701C94.7568 113.361 95.3105 113.191 95.9141 113.191ZM107.182 118.175C107.182 119.745 106.786 120.973 105.995 121.857C105.204 122.736 104.111 123.176 102.717 123.176C101.855 123.176 101.091 122.974 100.423 122.569C99.7549 122.165 99.2393 121.585 98.876 120.829C98.5127 120.073 98.3311 119.188 98.3311 118.175C98.3311 116.604 98.7236 115.383 99.5088 114.51C100.294 113.631 101.384 113.191 102.778 113.191C104.126 113.191 105.195 113.64 105.986 114.536C106.783 115.433 107.182 116.646 107.182 118.175ZM99.8428 118.175C99.8428 119.405 100.089 120.343 100.581 120.987C101.073 121.632 101.797 121.954 102.752 121.954C103.707 121.954 104.431 121.635 104.923 120.996C105.421 120.352 105.67 119.411 105.67 118.175C105.67 116.95 105.421 116.021 104.923 115.389C104.431 114.75 103.701 114.431 102.734 114.431C101.779 114.431 101.059 114.744 100.572 115.371C100.086 115.998 99.8428 116.933 99.8428 118.175ZM116.305 121.708H116.226C115.552 122.687 114.544 123.176 113.202 123.176C111.942 123.176 110.961 122.745 110.258 121.884C109.561 121.022 109.212 119.798 109.212 118.21C109.212 116.622 109.563 115.389 110.267 114.51C110.97 113.631 111.948 113.191 113.202 113.191C114.509 113.191 115.511 113.666 116.208 114.615H116.322L116.261 113.921L116.226 113.244V109.324H117.685V123H116.498L116.305 121.708ZM113.387 121.954C114.383 121.954 115.104 121.685 115.549 121.146C116 120.601 116.226 119.725 116.226 118.518V118.21C116.226 116.845 115.997 115.872 115.54 115.292C115.089 114.706 114.365 114.413 113.369 114.413C112.514 114.413 111.857 114.747 111.4 115.415C110.949 116.077 110.724 117.015 110.724 118.228C110.724 119.458 110.949 120.387 111.4 121.014C111.852 121.641 112.514 121.954 113.387 121.954ZM122.158 113.367V119.616C122.158 120.401 122.337 120.987 122.694 121.374C123.052 121.761 123.611 121.954 124.373 121.954C125.381 121.954 126.116 121.679 126.579 121.128C127.048 120.577 127.282 119.678 127.282 118.43V113.367H128.741V123H127.537L127.326 121.708H127.247C126.948 122.183 126.532 122.546 125.999 122.798C125.472 123.05 124.868 123.176 124.188 123.176C123.017 123.176 122.138 122.897 121.552 122.341C120.972 121.784 120.682 120.894 120.682 119.669V113.367H122.158ZM135.693 123.176C134.299 123.176 133.218 122.748 132.45 121.893C131.688 121.031 131.308 119.815 131.308 118.245C131.308 116.634 131.694 115.389 132.468 114.51C133.247 113.631 134.354 113.191 135.79 113.191C136.253 113.191 136.716 113.241 137.179 113.341C137.642 113.44 138.005 113.558 138.269 113.692L137.82 114.932C137.498 114.803 137.146 114.697 136.766 114.615C136.385 114.527 136.048 114.483 135.755 114.483C133.798 114.483 132.819 115.731 132.819 118.228C132.819 119.411 133.057 120.319 133.531 120.952C134.012 121.585 134.721 121.901 135.658 121.901C136.461 121.901 137.284 121.729 138.128 121.383V122.675C137.483 123.009 136.672 123.176 135.693 123.176ZM143.533 121.972C143.791 121.972 144.04 121.954 144.28 121.919C144.521 121.878 144.711 121.837 144.852 121.796V122.912C144.693 122.988 144.459 123.05 144.148 123.097C143.844 123.149 143.568 123.176 143.322 123.176C141.459 123.176 140.527 122.194 140.527 120.231V114.501H139.147V113.798L140.527 113.191L141.143 111.135H141.986V113.367H144.781V114.501H141.986V120.17C141.986 120.75 142.124 121.195 142.399 121.506C142.675 121.816 143.053 121.972 143.533 121.972ZM148.244 123H146.785V113.367H148.244V123ZM146.662 110.757C146.662 110.423 146.744 110.18 146.908 110.027C147.072 109.869 147.277 109.79 147.523 109.79C147.758 109.79 147.96 109.869 148.13 110.027C148.3 110.186 148.385 110.429 148.385 110.757C148.385 111.085 148.3 111.331 148.13 111.495C147.96 111.653 147.758 111.732 147.523 111.732C147.277 111.732 147.072 111.653 146.908 111.495C146.744 111.331 146.662 111.085 146.662 110.757ZM159.652 118.175C159.652 119.745 159.257 120.973 158.466 121.857C157.675 122.736 156.582 123.176 155.188 123.176C154.326 123.176 153.562 122.974 152.894 122.569C152.226 122.165 151.71 121.585 151.347 120.829C150.983 120.073 150.802 119.188 150.802 118.175C150.802 116.604 151.194 115.383 151.979 114.51C152.765 113.631 153.854 113.191 155.249 113.191C156.597 113.191 157.666 113.64 158.457 114.536C159.254 115.433 159.652 116.646 159.652 118.175ZM152.313 118.175C152.313 119.405 152.56 120.343 153.052 120.987C153.544 121.632 154.268 121.954 155.223 121.954C156.178 121.954 156.901 121.635 157.394 120.996C157.892 120.352 158.141 119.411 158.141 118.175C158.141 116.95 157.892 116.021 157.394 115.389C156.901 114.75 156.172 114.431 155.205 114.431C154.25 114.431 153.529 114.744 153.043 115.371C152.557 115.998 152.313 116.933 152.313 118.175ZM168.811 123V116.769C168.811 115.983 168.632 115.397 168.274 115.011C167.917 114.624 167.357 114.431 166.596 114.431C165.588 114.431 164.85 114.703 164.381 115.248C163.912 115.793 163.678 116.692 163.678 117.946V123H162.219V113.367H163.405L163.643 114.686H163.713C164.012 114.211 164.431 113.845 164.97 113.587C165.509 113.323 166.109 113.191 166.771 113.191C167.932 113.191 168.805 113.473 169.391 114.035C169.977 114.592 170.27 115.485 170.27 116.716V123H168.811ZM181.062 121.972C181.32 121.972 181.569 121.954 181.81 121.919C182.05 121.878 182.24 121.837 182.381 121.796V122.912C182.223 122.988 181.988 123.05 181.678 123.097C181.373 123.149 181.098 123.176 180.852 123.176C178.988 123.176 178.057 122.194 178.057 120.231V114.501H176.677V113.798L178.057 113.191L178.672 111.135H179.516V113.367H182.311V114.501H179.516V120.17C179.516 120.75 179.653 121.195 179.929 121.506C180.204 121.816 180.582 121.972 181.062 121.972ZM192.629 118.175C192.629 119.745 192.233 120.973 191.442 121.857C190.651 122.736 189.559 123.176 188.164 123.176C187.303 123.176 186.538 122.974 185.87 122.569C185.202 122.165 184.687 121.585 184.323 120.829C183.96 120.073 183.778 119.188 183.778 118.175C183.778 116.604 184.171 115.383 184.956 114.51C185.741 113.631 186.831 113.191 188.226 113.191C189.573 113.191 190.643 113.64 191.434 114.536C192.23 115.433 192.629 116.646 192.629 118.175ZM185.29 118.175C185.29 119.405 185.536 120.343 186.028 120.987C186.521 121.632 187.244 121.954 188.199 121.954C189.154 121.954 189.878 121.635 190.37 120.996C190.868 120.352 191.117 119.411 191.117 118.175C191.117 116.95 190.868 116.021 190.37 115.389C189.878 114.75 189.148 114.431 188.182 114.431C187.227 114.431 186.506 114.744 186.02 115.371C185.533 115.998 185.29 116.933 185.29 118.175ZM202.982 121.972C203.24 121.972 203.489 121.954 203.729 121.919C203.97 121.878 204.16 121.837 204.301 121.796V122.912C204.143 122.988 203.908 123.05 203.598 123.097C203.293 123.149 203.018 123.176 202.771 123.176C200.908 123.176 199.977 122.194 199.977 120.231V114.501H198.597V113.798L199.977 113.191L200.592 111.135H201.436V113.367H204.23V114.501H201.436V120.17C201.436 120.75 201.573 121.195 201.849 121.506C202.124 121.816 202.502 121.972 202.982 121.972ZM212.826 123V116.769C212.826 115.983 212.647 115.397 212.29 115.011C211.933 114.624 211.373 114.431 210.611 114.431C209.598 114.431 208.856 114.706 208.388 115.257C207.925 115.808 207.693 116.71 207.693 117.964V123H206.234V109.324H207.693V113.464C207.693 113.962 207.67 114.375 207.623 114.703H207.711C207.998 114.24 208.405 113.877 208.933 113.613C209.466 113.344 210.072 113.209 210.752 113.209C211.93 113.209 212.812 113.49 213.397 114.053C213.989 114.609 214.285 115.497 214.285 116.716V123H212.826ZM218.75 123H217.291V113.367H218.75V123ZM217.168 110.757C217.168 110.423 217.25 110.18 217.414 110.027C217.578 109.869 217.783 109.79 218.029 109.79C218.264 109.79 218.466 109.869 218.636 110.027C218.806 110.186 218.891 110.429 218.891 110.757C218.891 111.085 218.806 111.331 218.636 111.495C218.466 111.653 218.264 111.732 218.029 111.732C217.783 111.732 217.578 111.653 217.414 111.495C217.25 111.331 217.168 111.085 217.168 110.757ZM228.058 120.372C228.058 121.269 227.724 121.96 227.056 122.446C226.388 122.933 225.45 123.176 224.243 123.176C222.966 123.176 221.97 122.974 221.255 122.569V121.216C221.718 121.45 222.213 121.635 222.74 121.77C223.273 121.904 223.786 121.972 224.278 121.972C225.04 121.972 225.626 121.852 226.036 121.611C226.446 121.365 226.651 120.993 226.651 120.495C226.651 120.12 226.487 119.801 226.159 119.537C225.837 119.268 225.204 118.951 224.261 118.588C223.364 118.254 222.726 117.964 222.345 117.718C221.97 117.466 221.688 117.182 221.501 116.865C221.319 116.549 221.229 116.171 221.229 115.731C221.229 114.946 221.548 114.328 222.187 113.877C222.825 113.42 223.701 113.191 224.814 113.191C225.852 113.191 226.865 113.402 227.855 113.824L227.337 115.011C226.37 114.612 225.494 114.413 224.709 114.413C224.018 114.413 223.496 114.521 223.145 114.738C222.793 114.955 222.617 115.254 222.617 115.635C222.617 115.893 222.682 116.112 222.811 116.294C222.945 116.476 223.159 116.648 223.452 116.812C223.745 116.977 224.308 117.214 225.14 117.524C226.282 117.94 227.053 118.359 227.451 118.781C227.855 119.203 228.058 119.733 228.058 120.372ZM247.394 123V116.733C247.394 115.966 247.229 115.392 246.901 115.011C246.573 114.624 246.063 114.431 245.372 114.431C244.464 114.431 243.793 114.691 243.359 115.213C242.926 115.734 242.709 116.537 242.709 117.621V123H241.25V116.733C241.25 115.966 241.086 115.392 240.758 115.011C240.43 114.624 239.917 114.431 239.22 114.431C238.306 114.431 237.635 114.706 237.207 115.257C236.785 115.802 236.574 116.698 236.574 117.946V123H235.115V113.367H236.302L236.539 114.686H236.609C236.885 114.217 237.271 113.851 237.77 113.587C238.273 113.323 238.836 113.191 239.457 113.191C240.963 113.191 241.947 113.736 242.41 114.826H242.48C242.768 114.322 243.184 113.924 243.729 113.631C244.273 113.338 244.895 113.191 245.592 113.191C246.682 113.191 247.496 113.473 248.035 114.035C248.58 114.592 248.853 115.485 248.853 116.716V123H247.394ZM257.791 123L257.501 121.629H257.431C256.95 122.232 256.47 122.643 255.989 122.859C255.515 123.07 254.92 123.176 254.205 123.176C253.25 123.176 252.5 122.93 251.955 122.438C251.416 121.945 251.146 121.245 251.146 120.337C251.146 118.392 252.702 117.372 255.813 117.278L257.448 117.226V116.628C257.448 115.872 257.284 115.315 256.956 114.958C256.634 114.595 256.115 114.413 255.4 114.413C254.598 114.413 253.689 114.659 252.676 115.151L252.228 114.035C252.702 113.777 253.221 113.575 253.783 113.429C254.352 113.282 254.92 113.209 255.488 113.209C256.637 113.209 257.486 113.464 258.037 113.974C258.594 114.483 258.872 115.301 258.872 116.426V123H257.791ZM254.495 121.972C255.403 121.972 256.115 121.723 256.631 121.225C257.152 120.727 257.413 120.029 257.413 119.133V118.263L255.954 118.324C254.794 118.365 253.956 118.547 253.44 118.869C252.931 119.186 252.676 119.681 252.676 120.354C252.676 120.882 252.834 121.283 253.15 121.559C253.473 121.834 253.921 121.972 254.495 121.972ZM264.998 121.972C265.256 121.972 265.505 121.954 265.745 121.919C265.985 121.878 266.176 121.837 266.316 121.796V122.912C266.158 122.988 265.924 123.05 265.613 123.097C265.309 123.149 265.033 123.176 264.787 123.176C262.924 123.176 261.992 122.194 261.992 120.231V114.501H260.612V113.798L261.992 113.191L262.607 111.135H263.451V113.367H266.246V114.501H263.451V120.17C263.451 120.75 263.589 121.195 263.864 121.506C264.14 121.816 264.518 121.972 264.998 121.972ZM272.319 123.176C270.896 123.176 269.771 122.742 268.944 121.875C268.124 121.008 267.714 119.804 267.714 118.263C267.714 116.71 268.095 115.477 268.856 114.562C269.624 113.648 270.652 113.191 271.941 113.191C273.148 113.191 274.104 113.59 274.807 114.387C275.51 115.178 275.861 116.224 275.861 117.524V118.447H269.226C269.255 119.578 269.539 120.437 270.078 121.022C270.623 121.608 271.388 121.901 272.372 121.901C273.409 121.901 274.435 121.685 275.448 121.251V122.552C274.933 122.774 274.443 122.933 273.98 123.026C273.523 123.126 272.97 123.176 272.319 123.176ZM271.924 114.413C271.15 114.413 270.532 114.665 270.069 115.169C269.612 115.673 269.343 116.37 269.261 117.261H274.297C274.297 116.341 274.092 115.638 273.682 115.151C273.271 114.659 272.686 114.413 271.924 114.413ZM282.752 113.191C283.18 113.191 283.563 113.227 283.903 113.297L283.701 114.65C283.303 114.562 282.951 114.519 282.646 114.519C281.867 114.519 281.199 114.835 280.643 115.468C280.092 116.101 279.816 116.889 279.816 117.832V123H278.357V113.367H279.562L279.729 115.151H279.799C280.156 114.524 280.587 114.041 281.091 113.701C281.595 113.361 282.148 113.191 282.752 113.191ZM287.164 123H285.705V113.367H287.164V123ZM285.582 110.757C285.582 110.423 285.664 110.18 285.828 110.027C285.992 109.869 286.197 109.79 286.443 109.79C286.678 109.79 286.88 109.869 287.05 110.027C287.22 110.186 287.305 110.429 287.305 110.757C287.305 111.085 287.22 111.331 287.05 111.495C286.88 111.653 286.678 111.732 286.443 111.732C286.197 111.732 285.992 111.653 285.828 111.495C285.664 111.331 285.582 111.085 285.582 110.757ZM296.182 123L295.892 121.629H295.821C295.341 122.232 294.86 122.643 294.38 122.859C293.905 123.07 293.311 123.176 292.596 123.176C291.641 123.176 290.891 122.93 290.346 122.438C289.807 121.945 289.537 121.245 289.537 120.337C289.537 118.392 291.093 117.372 294.204 117.278L295.839 117.226V116.628C295.839 115.872 295.675 115.315 295.347 114.958C295.024 114.595 294.506 114.413 293.791 114.413C292.988 114.413 292.08 114.659 291.066 115.151L290.618 114.035C291.093 113.777 291.611 113.575 292.174 113.429C292.742 113.282 293.311 113.209 293.879 113.209C295.027 113.209 295.877 113.464 296.428 113.974C296.984 114.483 297.263 115.301 297.263 116.426V123H296.182ZM292.886 121.972C293.794 121.972 294.506 121.723 295.021 121.225C295.543 120.727 295.804 120.029 295.804 119.133V118.263L294.345 118.324C293.185 118.365 292.347 118.547 291.831 118.869C291.321 119.186 291.066 119.681 291.066 120.354C291.066 120.882 291.225 121.283 291.541 121.559C291.863 121.834 292.312 121.972 292.886 121.972ZM301.736 123H300.277V109.324H301.736V123ZM304.619 122.068C304.619 121.676 304.707 121.38 304.883 121.181C305.064 120.976 305.322 120.873 305.656 120.873C305.996 120.873 306.26 120.976 306.447 121.181C306.641 121.38 306.737 121.676 306.737 122.068C306.737 122.449 306.641 122.742 306.447 122.947C306.254 123.152 305.99 123.255 305.656 123.255C305.357 123.255 305.108 123.164 304.909 122.982C304.716 122.795 304.619 122.49 304.619 122.068ZM242.05 148H240.556V136.478H236.486V135.15H246.119V136.478H242.05V148ZM253.766 148L253.476 146.629H253.405C252.925 147.232 252.444 147.643 251.964 147.859C251.489 148.07 250.895 148.176 250.18 148.176C249.225 148.176 248.475 147.93 247.93 147.438C247.391 146.945 247.121 146.245 247.121 145.337C247.121 143.392 248.677 142.372 251.788 142.278L253.423 142.226V141.628C253.423 140.872 253.259 140.315 252.931 139.958C252.608 139.595 252.09 139.413 251.375 139.413C250.572 139.413 249.664 139.659 248.65 140.151L248.202 139.035C248.677 138.777 249.195 138.575 249.758 138.429C250.326 138.282 250.895 138.209 251.463 138.209C252.611 138.209 253.461 138.464 254.012 138.974C254.568 139.483 254.847 140.301 254.847 141.426V148H253.766ZM250.47 146.972C251.378 146.972 252.09 146.723 252.605 146.225C253.127 145.727 253.388 145.029 253.388 144.133V143.263L251.929 143.324C250.769 143.365 249.931 143.547 249.415 143.869C248.905 144.186 248.65 144.681 248.65 145.354C248.65 145.882 248.809 146.283 249.125 146.559C249.447 146.834 249.896 146.972 250.47 146.972ZM264.453 148V141.769C264.453 140.983 264.274 140.397 263.917 140.011C263.56 139.624 263 139.431 262.238 139.431C261.23 139.431 260.492 139.703 260.023 140.248C259.555 140.793 259.32 141.692 259.32 142.946V148H257.861V138.367H259.048L259.285 139.686H259.355C259.654 139.211 260.073 138.845 260.612 138.587C261.151 138.323 261.752 138.191 262.414 138.191C263.574 138.191 264.447 138.473 265.033 139.035C265.619 139.592 265.912 140.485 265.912 141.716V148H264.453ZM281.196 148V141.733C281.196 140.966 281.032 140.392 280.704 140.011C280.376 139.624 279.866 139.431 279.175 139.431C278.267 139.431 277.596 139.691 277.162 140.213C276.729 140.734 276.512 141.537 276.512 142.621V148H275.053V141.733C275.053 140.966 274.889 140.392 274.561 140.011C274.232 139.624 273.72 139.431 273.022 139.431C272.108 139.431 271.438 139.706 271.01 140.257C270.588 140.802 270.377 141.698 270.377 142.946V148H268.918V138.367H270.104L270.342 139.686H270.412C270.688 139.217 271.074 138.851 271.572 138.587C272.076 138.323 272.639 138.191 273.26 138.191C274.766 138.191 275.75 138.736 276.213 139.826H276.283C276.57 139.322 276.986 138.924 277.531 138.631C278.076 138.338 278.697 138.191 279.395 138.191C280.484 138.191 281.299 138.473 281.838 139.035C282.383 139.592 282.655 140.485 282.655 141.716V148H281.196ZM291.594 148L291.304 146.629H291.233C290.753 147.232 290.272 147.643 289.792 147.859C289.317 148.07 288.723 148.176 288.008 148.176C287.053 148.176 286.303 147.93 285.758 147.438C285.219 146.945 284.949 146.245 284.949 145.337C284.949 143.392 286.505 142.372 289.616 142.278L291.251 142.226V141.628C291.251 140.872 291.087 140.315 290.759 139.958C290.437 139.595 289.918 139.413 289.203 139.413C288.4 139.413 287.492 139.659 286.479 140.151L286.03 139.035C286.505 138.777 287.023 138.575 287.586 138.429C288.154 138.282 288.723 138.209 289.291 138.209C290.439 138.209 291.289 138.464 291.84 138.974C292.396 139.483 292.675 140.301 292.675 141.426V148H291.594ZM288.298 146.972C289.206 146.972 289.918 146.723 290.434 146.225C290.955 145.727 291.216 145.029 291.216 144.133V143.263L289.757 143.324C288.597 143.365 287.759 143.547 287.243 143.869C286.733 144.186 286.479 144.681 286.479 145.354C286.479 145.882 286.637 146.283 286.953 146.559C287.275 146.834 287.724 146.972 288.298 146.972ZM294.16 138.367H295.725L297.834 143.86C298.297 145.114 298.584 146.02 298.695 146.576H298.766C298.842 146.277 299 145.768 299.24 145.047C299.486 144.32 300.283 142.094 301.631 138.367H303.195L299.056 149.336C298.646 150.42 298.165 151.188 297.614 151.639C297.069 152.096 296.398 152.324 295.602 152.324C295.156 152.324 294.717 152.274 294.283 152.175V151.006C294.605 151.076 294.966 151.111 295.364 151.111C296.366 151.111 297.081 150.549 297.509 149.424L298.045 148.053L294.16 138.367ZM316.906 144.581C316.906 145.712 316.496 146.594 315.676 147.227C314.855 147.859 313.742 148.176 312.336 148.176C310.812 148.176 309.641 147.979 308.82 147.587V146.146C309.348 146.368 309.922 146.544 310.543 146.673C311.164 146.802 311.779 146.866 312.389 146.866C313.385 146.866 314.135 146.679 314.639 146.304C315.143 145.923 315.395 145.396 315.395 144.722C315.395 144.276 315.304 143.913 315.122 143.632C314.946 143.345 314.647 143.081 314.226 142.841C313.81 142.601 313.174 142.328 312.318 142.023C311.123 141.596 310.268 141.089 309.752 140.503C309.242 139.917 308.987 139.152 308.987 138.209C308.987 137.219 309.359 136.431 310.104 135.845C310.848 135.259 311.832 134.966 313.057 134.966C314.334 134.966 315.509 135.2 316.581 135.669L316.115 136.97C315.055 136.524 314.023 136.302 313.021 136.302C312.23 136.302 311.612 136.472 311.167 136.812C310.722 137.151 310.499 137.623 310.499 138.227C310.499 138.672 310.581 139.038 310.745 139.325C310.909 139.606 311.185 139.867 311.571 140.107C311.964 140.342 312.562 140.603 313.364 140.89C314.712 141.37 315.638 141.886 316.142 142.437C316.651 142.987 316.906 143.702 316.906 144.581ZM320.686 138.367V144.616C320.686 145.401 320.864 145.987 321.222 146.374C321.579 146.761 322.139 146.954 322.9 146.954C323.908 146.954 324.644 146.679 325.106 146.128C325.575 145.577 325.81 144.678 325.81 143.43V138.367H327.269V148H326.064L325.854 146.708H325.774C325.476 147.183 325.06 147.546 324.526 147.798C323.999 148.05 323.396 148.176 322.716 148.176C321.544 148.176 320.665 147.897 320.079 147.341C319.499 146.784 319.209 145.894 319.209 144.669V138.367H320.686ZM334.766 138.191C335.193 138.191 335.577 138.227 335.917 138.297L335.715 139.65C335.316 139.562 334.965 139.519 334.66 139.519C333.881 139.519 333.213 139.835 332.656 140.468C332.105 141.101 331.83 141.889 331.83 142.832V148H330.371V138.367H331.575L331.742 140.151H331.812C332.17 139.524 332.601 139.041 333.104 138.701C333.608 138.361 334.162 138.191 334.766 138.191ZM339.178 148H337.719V138.367H339.178V148ZM337.596 135.757C337.596 135.423 337.678 135.18 337.842 135.027C338.006 134.869 338.211 134.79 338.457 134.79C338.691 134.79 338.894 134.869 339.063 135.027C339.233 135.186 339.318 135.429 339.318 135.757C339.318 136.085 339.233 136.331 339.063 136.495C338.894 136.653 338.691 136.732 338.457 136.732C338.211 136.732 338.006 136.653 337.842 136.495C337.678 136.331 337.596 136.085 337.596 135.757Z" fill="#1C1026"/>
</svg>
