<svg width="950" height="346" viewBox="0 0 950 346" fill="none" xmlns="http://www.w3.org/2000/svg">
<rect width="955" height="346" fill="white"/>
<path d="M448.976 185.455C443.36 185.455 438.581 187.078 434.62 190.332C430.656 193.587 428.676 197.54 428.676 202.173C428.676 207.419 430.68 211.528 434.682 214.521C438.699 217.512 443.36 219.009 448.707 219.009C454.144 219.009 458.882 217.534 462.937 214.575C466.991 211.624 469.007 207.494 469.007 202.176C469.007 197.54 467.073 193.59 463.203 190.335C459.324 187.078 454.587 185.455 448.976 185.455" fill="#013970" fill-opacity="0.34"/>
<path d="M506.221 70.2647C501.077 63.0895 493.708 57.3359 484.307 53.1866C474.972 49.0562 464.097 46.9762 451.962 46.9762C438.907 46.9762 427.29 49.4781 417.446 54.4201C407.582 59.3594 399.979 65.7016 394.817 73.2852C389.619 80.8931 387 88.5413 387 96.0228C387 100.027 388.805 103.754 392.364 107.105C395.942 110.475 400.395 112.184 405.592 112.184C414.44 112.184 420.505 107.401 423.584 98.0464C426.388 90.288 429.842 84.3839 433.838 80.4685C437.6 76.7815 443.7 74.9164 451.965 74.9164C459.093 74.9164 464.715 76.7492 469.177 80.5222C473.572 84.2523 475.708 88.7025 475.708 94.1148C475.734 96.7356 475.014 99.3173 473.619 101.604C472.136 104.047 470.29 106.288 468.134 108.264C465.849 110.36 462.081 113.523 456.931 117.651C450.931 122.474 446.088 126.712 442.552 130.208C438.812 133.952 435.809 138.262 433.674 142.946C431.445 147.794 430.317 153.567 430.317 160.111C430.317 165.703 432.016 170.032 435.376 172.983C438.702 175.912 442.842 177.398 447.69 177.398C456.96 177.398 462.782 172.752 464.51 164.061C465.407 160.446 466.06 157.92 466.502 156.477C466.904 155.171 467.484 153.833 468.231 152.495C468.955 151.199 470.103 149.724 471.641 148.101C473.25 146.405 475.438 144.403 478.107 142.17C488.095 133.984 495.138 128.053 499.046 124.544C503.078 120.918 506.594 116.578 509.509 111.628C512.485 106.549 514 100.586 514 93.8971C513.994 85.4213 511.375 77.4775 506.204 70.2727" fill="#013970" fill-opacity="0.34"/>
<path d="M125.208 121H120.642V102.523H99.9634V121H95.3979V81.7373H99.9634V98.4414H120.642V81.7373H125.208V121ZM160.737 106.256C160.737 111.055 159.529 114.805 157.112 117.509C154.695 120.194 151.356 121.537 147.095 121.537C144.463 121.537 142.126 120.919 140.085 119.684C138.044 118.449 136.469 116.676 135.359 114.367C134.249 112.057 133.694 109.354 133.694 106.256C133.694 101.458 134.893 97.7253 137.292 95.0576C139.692 92.3721 143.022 91.0293 147.283 91.0293C151.401 91.0293 154.668 92.3989 157.085 95.1382C159.52 97.8774 160.737 101.583 160.737 106.256ZM138.313 106.256C138.313 110.016 139.065 112.881 140.569 114.85C142.073 116.819 144.284 117.804 147.202 117.804C150.12 117.804 152.332 116.828 153.835 114.877C155.357 112.908 156.118 110.034 156.118 106.256C156.118 102.514 155.357 99.6768 153.835 97.7432C152.332 95.7917 150.103 94.8159 147.148 94.8159C144.23 94.8159 142.028 95.7738 140.542 97.6895C139.056 99.6051 138.313 102.461 138.313 106.256ZM192.615 121L187.217 103.732C186.877 102.676 186.241 100.277 185.31 96.5347H185.095C184.379 99.6678 183.752 102.085 183.215 103.786L177.656 121H172.5L164.47 91.5664H169.143C171.041 98.9606 172.482 104.591 173.467 108.458C174.469 112.326 175.042 114.931 175.186 116.273H175.4C175.597 115.253 175.911 113.937 176.34 112.326C176.788 110.696 177.173 109.407 177.495 108.458L182.893 91.5664H187.727L192.991 108.458C193.993 111.538 194.674 114.125 195.032 116.22H195.247C195.318 115.575 195.506 114.582 195.811 113.239C196.133 111.896 198.004 104.672 201.423 91.5664H206.042L197.905 121H192.615ZM263.191 121V101.852C263.191 99.5067 262.69 97.7521 261.687 96.5884C260.684 95.4067 259.127 94.8159 257.014 94.8159C254.239 94.8159 252.189 95.6126 250.864 97.2061C249.539 98.7995 248.877 101.252 248.877 104.564V121H244.419V101.852C244.419 99.5067 243.918 97.7521 242.915 96.5884C241.912 95.4067 240.346 94.8159 238.215 94.8159C235.422 94.8159 233.372 95.6574 232.065 97.3403C230.776 99.0054 230.132 101.745 230.132 105.558V121H225.674V91.5664H229.299L230.024 95.5947H230.239C231.081 94.1624 232.262 93.0435 233.784 92.2378C235.324 91.4321 237.043 91.0293 238.94 91.0293C243.542 91.0293 246.549 92.6943 247.964 96.0244H248.179C249.056 94.4847 250.327 93.2673 251.992 92.3721C253.657 91.4769 255.555 91.0293 257.686 91.0293C261.016 91.0293 263.504 91.8887 265.151 93.6074C266.816 95.3083 267.649 98.0386 267.649 101.798V121H263.191ZM281.318 121H276.86V91.5664H281.318V121ZM276.484 83.5903C276.484 82.5698 276.735 81.8268 277.236 81.3613C277.738 80.8779 278.364 80.6362 279.116 80.6362C279.832 80.6362 280.45 80.8779 280.969 81.3613C281.488 81.8447 281.748 82.5877 281.748 83.5903C281.748 84.5929 281.488 85.3449 280.969 85.8462C280.45 86.3296 279.832 86.5713 279.116 86.5713C278.364 86.5713 277.738 86.3296 277.236 85.8462C276.735 85.3449 276.484 84.5929 276.484 83.5903ZM314.861 91.5664V94.3862L309.409 95.0308C309.91 95.6574 310.358 96.481 310.752 97.5015C311.146 98.5041 311.343 99.641 311.343 100.912C311.343 103.795 310.358 106.095 308.389 107.814C306.419 109.533 303.716 110.392 300.278 110.392C299.401 110.392 298.577 110.32 297.808 110.177C295.91 111.18 294.961 112.442 294.961 113.964C294.961 114.77 295.292 115.369 295.955 115.763C296.617 116.139 297.754 116.327 299.365 116.327H304.575C307.762 116.327 310.206 116.999 311.907 118.341C313.625 119.684 314.485 121.636 314.485 124.196C314.485 127.454 313.178 129.934 310.564 131.635C307.95 133.354 304.137 134.213 299.124 134.213C295.274 134.213 292.302 133.497 290.208 132.064C288.131 130.632 287.092 128.609 287.092 125.995C287.092 124.205 287.665 122.656 288.811 121.349C289.957 120.042 291.568 119.156 293.645 118.69C292.893 118.35 292.257 117.822 291.738 117.106C291.237 116.39 290.986 115.557 290.986 114.608C290.986 113.534 291.273 112.594 291.846 111.789C292.419 110.983 293.323 110.204 294.558 109.452C293.036 108.826 291.792 107.76 290.825 106.256C289.876 104.752 289.402 103.034 289.402 101.1C289.402 97.8774 290.369 95.3978 292.302 93.6611C294.236 91.9066 296.975 91.0293 300.52 91.0293C302.06 91.0293 303.447 91.2083 304.683 91.5664H314.861ZM291.389 125.941C291.389 127.535 292.061 128.743 293.403 129.567C294.746 130.39 296.671 130.802 299.177 130.802C302.919 130.802 305.685 130.238 307.476 129.11C309.284 128 310.188 126.487 310.188 124.572C310.188 122.978 309.696 121.868 308.711 121.242C307.726 120.633 305.873 120.329 303.152 120.329H297.808C295.785 120.329 294.209 120.812 293.081 121.779C291.953 122.746 291.389 124.133 291.389 125.941ZM293.806 100.993C293.806 103.052 294.388 104.609 295.552 105.666C296.715 106.722 298.336 107.25 300.413 107.25C304.763 107.25 306.938 105.137 306.938 100.912C306.938 96.4899 304.736 94.2788 300.332 94.2788C298.237 94.2788 296.626 94.8428 295.498 95.9707C294.37 97.0986 293.806 98.7726 293.806 100.993ZM341.045 121V101.959C341.045 99.5604 340.499 97.77 339.407 96.5884C338.315 95.4067 336.605 94.8159 334.277 94.8159C331.18 94.8159 328.915 95.6574 327.483 97.3403C326.069 99.0233 325.361 101.78 325.361 105.612V121H320.903V79.2129H325.361V91.8618C325.361 93.3836 325.29 94.6458 325.146 95.6484H325.415C326.292 94.234 327.537 93.124 329.148 92.3184C330.777 91.4948 332.63 91.083 334.707 91.083C338.306 91.083 341 91.9424 342.791 93.6611C344.599 95.362 345.503 98.0744 345.503 101.798V121H341.045ZM364.194 117.858C364.982 117.858 365.743 117.804 366.477 117.697C367.211 117.571 367.793 117.446 368.223 117.321V120.731C367.739 120.964 367.023 121.152 366.074 121.295C365.143 121.457 364.302 121.537 363.55 121.537C357.856 121.537 355.01 118.538 355.01 112.541V95.0308H350.793V92.8823L355.01 91.0293L356.89 84.7451H359.468V91.5664H368.008V95.0308H359.468V112.353C359.468 114.125 359.889 115.486 360.73 116.435C361.571 117.383 362.726 117.858 364.194 117.858ZM412.454 121L407.056 103.732C406.715 102.676 406.08 100.277 405.149 96.5347H404.934C404.218 99.6678 403.591 102.085 403.054 103.786L397.495 121H392.339L384.309 91.5664H388.982C390.88 98.9606 392.321 104.591 393.306 108.458C394.308 112.326 394.881 114.931 395.024 116.273H395.239C395.436 115.253 395.75 113.937 396.179 112.326C396.627 110.696 397.012 109.407 397.334 108.458L402.732 91.5664H407.566L412.83 108.458C413.832 111.538 414.513 114.125 414.871 116.22H415.085C415.157 115.575 415.345 114.582 415.649 113.239C415.972 111.896 417.843 104.672 421.262 91.5664H425.881L417.744 121H412.454ZM443.66 121.537C439.309 121.537 435.872 120.212 433.347 117.562C430.841 114.913 429.587 111.234 429.587 106.525C429.587 101.78 430.751 98.0117 433.079 95.2188C435.424 92.4258 438.566 91.0293 442.505 91.0293C446.193 91.0293 449.111 92.2467 451.26 94.6816C453.408 97.0986 454.482 100.294 454.482 104.269V107.089H434.207C434.296 110.544 435.164 113.167 436.812 114.958C438.477 116.748 440.813 117.643 443.821 117.643C446.99 117.643 450.123 116.981 453.22 115.656V119.63C451.645 120.311 450.15 120.794 448.735 121.081C447.339 121.385 445.647 121.537 443.66 121.537ZM442.451 94.7622C440.088 94.7622 438.199 95.5321 436.785 97.0718C435.388 98.6115 434.565 100.742 434.314 103.463H449.702C449.702 100.653 449.076 98.5041 447.822 97.0181C446.569 95.5142 444.779 94.7622 442.451 94.7622ZM488.831 121.537C484.48 121.537 481.042 120.212 478.518 117.562C476.012 114.913 474.758 111.234 474.758 106.525C474.758 101.78 475.922 98.0117 478.25 95.2188C480.595 92.4258 483.737 91.0293 487.676 91.0293C491.364 91.0293 494.282 92.2467 496.431 94.6816C498.579 97.0986 499.653 100.294 499.653 104.269V107.089H479.377C479.467 110.544 480.335 113.167 481.982 114.958C483.647 116.748 485.984 117.643 488.992 117.643C492.161 117.643 495.294 116.981 498.391 115.656V119.63C496.816 120.311 495.321 120.794 493.906 121.081C492.51 121.385 490.818 121.537 488.831 121.537ZM487.622 94.7622C485.259 94.7622 483.37 95.5321 481.956 97.0718C480.559 98.6115 479.736 100.742 479.485 103.463H494.873C494.873 100.653 494.246 98.5041 492.993 97.0181C491.74 95.5142 489.95 94.7622 487.622 94.7622ZM539.023 95.0308H531.531V121H527.073V95.0308H521.809V93.0166L527.073 91.4053V89.7671C527.073 82.534 530.233 78.9175 536.553 78.9175C538.11 78.9175 539.937 79.2308 542.031 79.8574L540.876 83.4292C539.158 82.8742 537.69 82.5967 536.472 82.5967C534.789 82.5967 533.545 83.1606 532.739 84.2886C531.934 85.3986 531.531 87.189 531.531 89.6597V91.5664H539.023V95.0308ZM520.547 95.0308H513.054V121H508.596V95.0308H503.333V93.0166L508.596 91.4053V89.7671C508.596 82.534 511.756 78.9175 518.076 78.9175C519.634 78.9175 521.46 79.2308 523.555 79.8574L522.4 83.4292C520.681 82.8742 519.213 82.5967 517.996 82.5967C516.313 82.5967 515.068 83.1606 514.263 84.2886C513.457 85.3986 513.054 87.189 513.054 89.6597V91.5664H520.547V95.0308ZM549.041 121H544.583V91.5664H549.041V121ZM544.207 83.5903C544.207 82.5698 544.457 81.8268 544.958 81.3613C545.46 80.8779 546.086 80.6362 546.838 80.6362C547.555 80.6362 548.172 80.8779 548.691 81.3613C549.211 81.8447 549.47 82.5877 549.47 83.5903C549.47 84.5929 549.211 85.3449 548.691 85.8462C548.172 86.3296 547.555 86.5713 546.838 86.5713C546.086 86.5713 545.46 86.3296 544.958 85.8462C544.457 85.3449 544.207 84.5929 544.207 83.5903ZM570.337 121.537C566.076 121.537 562.773 120.23 560.427 117.616C558.1 114.984 556.936 111.269 556.936 106.471C556.936 101.548 558.118 97.7432 560.481 95.0576C562.862 92.3721 566.246 91.0293 570.632 91.0293C572.047 91.0293 573.461 91.1815 574.875 91.4858C576.29 91.7902 577.4 92.1483 578.206 92.5601L576.836 96.3467C575.851 95.9528 574.777 95.6305 573.613 95.3799C572.45 95.1113 571.42 94.9771 570.525 94.9771C564.545 94.9771 561.555 98.7905 561.555 106.417C561.555 110.034 562.28 112.809 563.73 114.743C565.199 116.676 567.365 117.643 570.229 117.643C572.682 117.643 575.198 117.115 577.776 116.059V120.006C575.806 121.027 573.327 121.537 570.337 121.537ZM589.243 121H584.785V91.5664H589.243V121ZM584.409 83.5903C584.409 82.5698 584.66 81.8268 585.161 81.3613C585.662 80.8779 586.289 80.6362 587.041 80.6362C587.757 80.6362 588.375 80.8779 588.894 81.3613C589.413 81.8447 589.673 82.5877 589.673 83.5903C589.673 84.5929 589.413 85.3449 588.894 85.8462C588.375 86.3296 587.757 86.5713 587.041 86.5713C586.289 86.5713 585.662 86.3296 585.161 85.8462C584.66 85.3449 584.409 84.5929 584.409 83.5903ZM611.13 121.537C606.78 121.537 603.342 120.212 600.818 117.562C598.311 114.913 597.058 111.234 597.058 106.525C597.058 101.78 598.222 98.0117 600.549 95.2188C602.895 92.4258 606.037 91.0293 609.976 91.0293C613.664 91.0293 616.582 92.2467 618.73 94.6816C620.879 97.0986 621.953 100.294 621.953 104.269V107.089H601.677C601.767 110.544 602.635 113.167 604.282 114.958C605.947 116.748 608.284 117.643 611.292 117.643C614.46 117.643 617.594 116.981 620.691 115.656V119.63C619.115 120.311 617.62 120.794 616.206 121.081C614.81 121.385 613.118 121.537 611.13 121.537ZM609.922 94.7622C607.559 94.7622 605.67 95.5321 604.255 97.0718C602.859 98.6115 602.035 100.742 601.785 103.463H617.173C617.173 100.653 616.546 98.5041 615.293 97.0181C614.04 95.5142 612.249 94.7622 609.922 94.7622ZM649.722 121V101.959C649.722 99.5604 649.176 97.77 648.083 96.5884C646.991 95.4067 645.282 94.8159 642.954 94.8159C639.875 94.8159 637.619 95.6484 636.187 97.3135C634.754 98.9785 634.038 101.727 634.038 105.558V121H629.58V91.5664H633.206L633.931 95.5947H634.146C635.059 94.1445 636.339 93.0256 637.986 92.2378C639.633 91.4321 641.468 91.0293 643.491 91.0293C647.036 91.0293 649.704 91.8887 651.494 93.6074C653.285 95.3083 654.18 98.0386 654.18 101.798V121H649.722ZM672.871 117.858C673.659 117.858 674.42 117.804 675.154 117.697C675.888 117.571 676.47 117.446 676.899 117.321V120.731C676.416 120.964 675.7 121.152 674.751 121.295C673.82 121.457 672.979 121.537 672.227 121.537C666.533 121.537 663.687 118.538 663.687 112.541V95.0308H659.47V92.8823L663.687 91.0293L665.566 84.7451H668.145V91.5664H676.685V95.0308H668.145V112.353C668.145 114.125 668.565 115.486 669.407 116.435C670.248 117.383 671.403 117.858 672.871 117.858ZM687.266 121H682.808V79.2129H687.266V121ZM692.046 91.5664H696.826L703.271 108.351C704.686 112.182 705.563 114.949 705.903 116.649H706.118C706.351 115.736 706.834 114.179 707.568 111.977C708.32 109.757 710.755 102.953 714.873 91.5664H719.653L707.004 125.082C705.751 128.394 704.283 130.74 702.6 132.118C700.935 133.515 698.885 134.213 696.45 134.213C695.09 134.213 693.747 134.061 692.422 133.756V130.185C693.407 130.399 694.508 130.507 695.725 130.507C698.787 130.507 700.971 128.788 702.278 125.351L703.916 121.161L692.046 91.5664ZM743.179 121H738.721V79.2129H743.179V121ZM778.037 106.256C778.037 111.055 776.829 114.805 774.412 117.509C771.995 120.194 768.656 121.537 764.395 121.537C761.763 121.537 759.426 120.919 757.385 119.684C755.344 118.449 753.769 116.676 752.659 114.367C751.549 112.057 750.994 109.354 750.994 106.256C750.994 101.458 752.193 97.7253 754.592 95.0576C756.991 92.3721 760.321 91.0293 764.583 91.0293C768.7 91.0293 771.968 92.3989 774.385 95.1382C776.82 97.8774 778.037 101.583 778.037 106.256ZM755.613 106.256C755.613 110.016 756.365 112.881 757.869 114.85C759.373 116.819 761.584 117.804 764.502 117.804C767.42 117.804 769.631 116.828 771.135 114.877C772.657 112.908 773.418 110.034 773.418 106.256C773.418 102.514 772.657 99.6768 771.135 97.7432C769.631 95.7917 767.402 94.8159 764.448 94.8159C761.53 94.8159 759.328 95.7738 757.842 97.6895C756.356 99.6051 755.613 102.461 755.613 106.256ZM797.642 121.537C793.381 121.537 790.077 120.23 787.732 117.616C785.404 114.984 784.241 111.269 784.241 106.471C784.241 101.548 785.422 97.7432 787.786 95.0576C790.167 92.3721 793.551 91.0293 797.937 91.0293C799.351 91.0293 800.766 91.1815 802.18 91.4858C803.595 91.7902 804.705 92.1483 805.51 92.5601L804.141 96.3467C803.156 95.9528 802.082 95.6305 800.918 95.3799C799.754 95.1113 798.725 94.9771 797.83 94.9771C791.85 94.9771 788.86 98.7905 788.86 106.417C788.86 110.034 789.585 112.809 791.035 114.743C792.503 116.676 794.67 117.643 797.534 117.643C799.987 117.643 802.502 117.115 805.081 116.059V120.006C803.111 121.027 800.632 121.537 797.642 121.537ZM830.19 121L829.304 116.811H829.089C827.621 118.655 826.153 119.908 824.685 120.57C823.235 121.215 821.418 121.537 819.233 121.537C816.315 121.537 814.023 120.785 812.358 119.281C810.711 117.777 809.888 115.638 809.888 112.863C809.888 106.919 814.641 103.804 824.148 103.517L829.143 103.356V101.53C829.143 99.2202 828.642 97.5194 827.639 96.4272C826.654 95.3172 825.07 94.7622 822.886 94.7622C820.433 94.7622 817.658 95.5142 814.561 97.0181L813.191 93.6074C814.641 92.8197 816.226 92.202 817.944 91.7544C819.681 91.3068 821.418 91.083 823.154 91.083C826.663 91.083 829.259 91.8618 830.942 93.4194C832.643 94.9771 833.494 97.4746 833.494 100.912V121H830.19ZM820.12 117.858C822.895 117.858 825.07 117.097 826.646 115.575C828.239 114.053 829.036 111.923 829.036 109.184V106.525L824.578 106.713C821.033 106.838 818.472 107.393 816.897 108.378C815.339 109.345 814.561 110.858 814.561 112.917C814.561 114.528 815.044 115.754 816.011 116.596C816.995 117.437 818.365 117.858 820.12 117.858ZM852.212 117.858C853 117.858 853.761 117.804 854.495 117.697C855.229 117.571 855.811 117.446 856.24 117.321V120.731C855.757 120.964 855.041 121.152 854.092 121.295C853.161 121.457 852.319 121.537 851.567 121.537C845.874 121.537 843.027 118.538 843.027 112.541V95.0308H838.811V92.8823L843.027 91.0293L844.907 84.7451H847.485V91.5664H856.025V95.0308H847.485V112.353C847.485 114.125 847.906 115.486 848.748 116.435C849.589 117.383 850.744 117.858 852.212 117.858ZM874.583 121.537C870.232 121.537 866.794 120.212 864.27 117.562C861.764 114.913 860.51 111.234 860.51 106.525C860.51 101.78 861.674 98.0117 864.001 95.2188C866.347 92.4258 869.489 91.0293 873.428 91.0293C877.116 91.0293 880.034 92.2467 882.183 94.6816C884.331 97.0986 885.405 100.294 885.405 104.269V107.089H865.129C865.219 110.544 866.087 113.167 867.734 114.958C869.399 116.748 871.736 117.643 874.744 117.643C877.913 117.643 881.046 116.981 884.143 115.656V119.63C882.568 120.311 881.073 120.794 879.658 121.081C878.262 121.385 876.57 121.537 874.583 121.537ZM873.374 94.7622C871.011 94.7622 869.122 95.5321 867.708 97.0718C866.311 98.6115 865.487 100.742 865.237 103.463H880.625C880.625 100.653 879.998 98.5041 878.745 97.0181C877.492 95.5142 875.701 94.7622 873.374 94.7622ZM108.423 196.537C106.507 196.537 104.753 196.188 103.159 195.49C101.584 194.774 100.259 193.681 99.1846 192.213H98.8623C99.0771 193.932 99.1846 195.561 99.1846 197.101V209.213H94.7266V166.566H98.3521L98.9697 170.595H99.1846C100.33 168.983 101.664 167.82 103.186 167.104C104.708 166.387 106.453 166.029 108.423 166.029C112.326 166.029 115.334 167.363 117.446 170.031C119.577 172.698 120.642 176.44 120.642 181.256C120.642 186.09 119.559 189.85 117.393 192.536C115.244 195.203 112.254 196.537 108.423 196.537ZM107.778 169.816C104.771 169.816 102.595 170.648 101.252 172.313C99.9097 173.979 99.2204 176.628 99.1846 180.263V181.256C99.1846 185.392 99.8739 188.355 101.252 190.146C102.631 191.918 104.842 192.804 107.886 192.804C110.428 192.804 112.415 191.775 113.848 189.716C115.298 187.657 116.023 184.819 116.023 181.203C116.023 177.532 115.298 174.722 113.848 172.77C112.415 170.801 110.392 169.816 107.778 169.816ZM140.891 196.537C136.541 196.537 133.103 195.212 130.579 192.562C128.072 189.913 126.819 186.234 126.819 181.525C126.819 176.78 127.983 173.012 130.31 170.219C132.655 167.426 135.798 166.029 139.736 166.029C143.424 166.029 146.343 167.247 148.491 169.682C150.64 172.099 151.714 175.294 151.714 179.269V182.089H131.438C131.528 185.544 132.396 188.167 134.043 189.958C135.708 191.748 138.044 192.643 141.052 192.643C144.221 192.643 147.354 191.981 150.452 190.656V194.63C148.876 195.311 147.381 195.794 145.967 196.081C144.57 196.385 142.878 196.537 140.891 196.537ZM139.683 169.762C137.319 169.762 135.431 170.532 134.016 172.072C132.62 173.611 131.796 175.742 131.545 178.463H146.934C146.934 175.653 146.307 173.504 145.054 172.018C143.8 170.514 142.01 169.762 139.683 169.762ZM184.746 181.256C184.746 186.055 183.538 189.805 181.121 192.509C178.704 195.194 175.365 196.537 171.104 196.537C168.472 196.537 166.135 195.919 164.094 194.684C162.053 193.449 160.478 191.676 159.368 189.367C158.258 187.057 157.703 184.354 157.703 181.256C157.703 176.458 158.902 172.725 161.301 170.058C163.7 167.372 167.03 166.029 171.292 166.029C175.409 166.029 178.677 167.399 181.094 170.138C183.529 172.877 184.746 176.583 184.746 181.256ZM162.322 181.256C162.322 185.016 163.074 187.881 164.578 189.85C166.082 191.819 168.293 192.804 171.211 192.804C174.129 192.804 176.34 191.828 177.844 189.877C179.366 187.908 180.127 185.034 180.127 181.256C180.127 177.514 179.366 174.677 177.844 172.743C176.34 170.792 174.111 169.816 171.157 169.816C168.239 169.816 166.037 170.774 164.551 172.689C163.065 174.605 162.322 177.461 162.322 181.256ZM206.284 196.537C204.368 196.537 202.614 196.188 201.021 195.49C199.445 194.774 198.12 193.681 197.046 192.213H196.724C196.938 193.932 197.046 195.561 197.046 197.101V209.213H192.588V166.566H196.213L196.831 170.595H197.046C198.192 168.983 199.526 167.82 201.047 167.104C202.569 166.387 204.315 166.029 206.284 166.029C210.187 166.029 213.195 167.363 215.308 170.031C217.438 172.698 218.503 176.44 218.503 181.256C218.503 186.09 217.42 189.85 215.254 192.536C213.105 195.203 210.116 196.537 206.284 196.537ZM205.64 169.816C202.632 169.816 200.457 170.648 199.114 172.313C197.771 173.979 197.082 176.628 197.046 180.263V181.256C197.046 185.392 197.735 188.355 199.114 190.146C200.492 191.918 202.703 192.804 205.747 192.804C208.289 192.804 210.277 191.775 211.709 189.716C213.159 187.657 213.884 184.819 213.884 181.203C213.884 177.532 213.159 174.722 211.709 172.77C210.277 170.801 208.254 169.816 205.64 169.816ZM230.776 196H226.318V154.213H230.776V196ZM252.664 196.537C248.313 196.537 244.875 195.212 242.351 192.562C239.845 189.913 238.591 186.234 238.591 181.525C238.591 176.78 239.755 173.012 242.083 170.219C244.428 167.426 247.57 166.029 251.509 166.029C255.197 166.029 258.115 167.247 260.264 169.682C262.412 172.099 263.486 175.294 263.486 179.269V182.089H243.21C243.3 185.544 244.168 188.167 245.815 189.958C247.48 191.748 249.817 192.643 252.825 192.643C255.994 192.643 259.127 191.981 262.224 190.656V194.63C260.649 195.311 259.154 195.794 257.739 196.081C256.343 196.385 254.651 196.537 252.664 196.537ZM251.455 169.762C249.092 169.762 247.203 170.532 245.789 172.072C244.392 173.611 243.569 175.742 243.318 178.463H258.706C258.706 175.653 258.079 173.504 256.826 172.018C255.573 170.514 253.783 169.762 251.455 169.762ZM274.685 156.737L275.088 157.328C274.622 159.118 273.951 161.204 273.074 163.585C272.196 165.949 271.283 168.151 270.334 170.192H267.058C268.311 165.089 269.224 160.604 269.797 156.737H274.685ZM299.446 187.97C299.446 190.709 298.425 192.822 296.384 194.308C294.343 195.794 291.479 196.537 287.791 196.537C283.888 196.537 280.844 195.919 278.66 194.684V190.548C280.074 191.264 281.587 191.828 283.198 192.24C284.827 192.652 286.394 192.858 287.898 192.858C290.225 192.858 292.016 192.491 293.269 191.757C294.522 191.005 295.149 189.868 295.149 188.346C295.149 187.2 294.648 186.225 293.645 185.419C292.66 184.595 290.727 183.629 287.844 182.519C285.105 181.498 283.153 180.612 281.99 179.86C280.844 179.09 279.985 178.222 279.412 177.255C278.857 176.288 278.579 175.133 278.579 173.791C278.579 171.391 279.555 169.503 281.506 168.124C283.458 166.728 286.134 166.029 289.536 166.029C292.705 166.029 295.802 166.674 298.828 167.963L297.244 171.588C294.29 170.371 291.613 169.762 289.214 169.762C287.101 169.762 285.508 170.093 284.434 170.756C283.359 171.418 282.822 172.331 282.822 173.495C282.822 174.283 283.019 174.954 283.413 175.509C283.825 176.064 284.478 176.592 285.374 177.094C286.269 177.595 287.987 178.32 290.53 179.269C294.021 180.54 296.375 181.82 297.593 183.109C298.828 184.398 299.446 186.019 299.446 187.97ZM332.773 196.537C328.512 196.537 325.209 195.23 322.864 192.616C320.536 189.984 319.373 186.269 319.373 181.471C319.373 176.548 320.554 172.743 322.917 170.058C325.299 167.372 328.682 166.029 333.069 166.029C334.483 166.029 335.898 166.181 337.312 166.486C338.726 166.79 339.836 167.148 340.642 167.56L339.272 171.347C338.288 170.953 337.214 170.631 336.05 170.38C334.886 170.111 333.857 169.977 332.961 169.977C326.982 169.977 323.992 173.791 323.992 181.417C323.992 185.034 324.717 187.809 326.167 189.743C327.635 191.676 329.801 192.643 332.666 192.643C335.119 192.643 337.634 192.115 340.212 191.059V195.006C338.243 196.027 335.763 196.537 332.773 196.537ZM351.411 166.566V185.661C351.411 188.06 351.957 189.85 353.049 191.032C354.141 192.213 355.851 192.804 358.179 192.804C361.258 192.804 363.505 191.963 364.919 190.28C366.352 188.597 367.068 185.849 367.068 182.035V166.566H371.526V196H367.847L367.202 192.052H366.96C366.047 193.502 364.776 194.612 363.147 195.382C361.536 196.152 359.692 196.537 357.615 196.537C354.034 196.537 351.348 195.687 349.558 193.986C347.786 192.285 346.899 189.564 346.899 185.822V166.566H351.411ZM394.434 166.029C395.741 166.029 396.913 166.137 397.952 166.352L397.334 170.487C396.117 170.219 395.042 170.084 394.111 170.084C391.73 170.084 389.689 171.051 387.988 172.985C386.305 174.918 385.464 177.326 385.464 180.209V196H381.006V166.566H384.685L385.195 172.018H385.41C386.502 170.102 387.818 168.625 389.358 167.587C390.898 166.549 392.59 166.029 394.434 166.029ZM416.885 166.029C418.192 166.029 419.364 166.137 420.403 166.352L419.785 170.487C418.568 170.219 417.493 170.084 416.562 170.084C414.181 170.084 412.14 171.051 410.439 172.985C408.757 174.918 407.915 177.326 407.915 180.209V196H403.457V166.566H407.136L407.646 172.018H407.861C408.953 170.102 410.269 168.625 411.809 167.587C413.349 166.549 415.041 166.029 416.885 166.029ZM438.342 196.537C433.992 196.537 430.554 195.212 428.03 192.562C425.523 189.913 424.27 186.234 424.27 181.525C424.27 176.78 425.434 173.012 427.761 170.219C430.107 167.426 433.249 166.029 437.188 166.029C440.876 166.029 443.794 167.247 445.942 169.682C448.091 172.099 449.165 175.294 449.165 179.269V182.089H428.889C428.979 185.544 429.847 188.167 431.494 189.958C433.159 191.748 435.496 192.643 438.503 192.643C441.672 192.643 444.806 191.981 447.903 190.656V194.63C446.327 195.311 444.832 195.794 443.418 196.081C442.021 196.385 440.33 196.537 438.342 196.537ZM437.134 169.762C434.771 169.762 432.882 170.532 431.467 172.072C430.071 173.611 429.247 175.742 428.997 178.463H444.385C444.385 175.653 443.758 173.504 442.505 172.018C441.252 170.514 439.461 169.762 437.134 169.762ZM476.934 196V176.959C476.934 174.56 476.388 172.77 475.295 171.588C474.203 170.407 472.493 169.816 470.166 169.816C467.087 169.816 464.831 170.648 463.398 172.313C461.966 173.979 461.25 176.727 461.25 180.558V196H456.792V166.566H460.417L461.143 170.595H461.357C462.271 169.145 463.551 168.026 465.198 167.238C466.845 166.432 468.68 166.029 470.703 166.029C474.248 166.029 476.916 166.889 478.706 168.607C480.496 170.308 481.392 173.039 481.392 176.798V196H476.934ZM500.083 192.858C500.871 192.858 501.632 192.804 502.366 192.697C503.1 192.571 503.682 192.446 504.111 192.321V195.731C503.628 195.964 502.912 196.152 501.963 196.295C501.032 196.457 500.19 196.537 499.438 196.537C493.745 196.537 490.898 193.538 490.898 187.541V170.031H486.682V167.882L490.898 166.029L492.778 159.745H495.356V166.566H503.896V170.031H495.356V187.353C495.356 189.125 495.777 190.486 496.619 191.435C497.46 192.383 498.615 192.858 500.083 192.858ZM538.003 196.537C536.087 196.537 534.333 196.188 532.739 195.49C531.164 194.774 529.839 193.681 528.765 192.213H528.442C528.657 193.932 528.765 195.561 528.765 197.101V209.213H524.307V166.566H527.932L528.55 170.595H528.765C529.91 168.983 531.244 167.82 532.766 167.104C534.288 166.387 536.034 166.029 538.003 166.029C541.906 166.029 544.914 167.363 547.026 170.031C549.157 172.698 550.222 176.44 550.222 181.256C550.222 186.09 549.139 189.85 546.973 192.536C544.824 195.203 541.834 196.537 538.003 196.537ZM537.358 169.816C534.351 169.816 532.175 170.648 530.833 172.313C529.49 173.979 528.8 176.628 528.765 180.263V181.256C528.765 185.392 529.454 188.355 530.833 190.146C532.211 191.918 534.422 192.804 537.466 192.804C540.008 192.804 541.995 191.775 543.428 189.716C544.878 187.657 545.603 184.819 545.603 181.203C545.603 177.532 544.878 174.722 543.428 172.77C541.995 170.801 539.972 169.816 537.358 169.816ZM583.442 181.256C583.442 186.055 582.234 189.805 579.817 192.509C577.4 195.194 574.061 196.537 569.8 196.537C567.168 196.537 564.832 195.919 562.791 194.684C560.75 193.449 559.174 191.676 558.064 189.367C556.954 187.057 556.399 184.354 556.399 181.256C556.399 176.458 557.598 172.725 559.998 170.058C562.397 167.372 565.727 166.029 569.988 166.029C574.106 166.029 577.373 167.399 579.79 170.138C582.225 172.877 583.442 176.583 583.442 181.256ZM561.018 181.256C561.018 185.016 561.77 187.881 563.274 189.85C564.778 191.819 566.989 192.804 569.907 192.804C572.826 192.804 575.037 191.828 576.541 189.877C578.062 187.908 578.823 185.034 578.823 181.256C578.823 177.514 578.062 174.677 576.541 172.743C575.037 170.792 572.808 169.816 569.854 169.816C566.935 169.816 564.733 170.774 563.247 172.689C561.761 174.605 561.018 177.461 561.018 181.256ZM610.271 187.97C610.271 190.709 609.25 192.822 607.209 194.308C605.168 195.794 602.304 196.537 598.616 196.537C594.713 196.537 591.669 195.919 589.485 194.684V190.548C590.899 191.264 592.412 191.828 594.023 192.24C595.653 192.652 597.219 192.858 598.723 192.858C601.051 192.858 602.841 192.491 604.094 191.757C605.347 191.005 605.974 189.868 605.974 188.346C605.974 187.2 605.473 186.225 604.47 185.419C603.486 184.595 601.552 183.629 598.669 182.519C595.93 181.498 593.979 180.612 592.815 179.86C591.669 179.09 590.81 178.222 590.237 177.255C589.682 176.288 589.404 175.133 589.404 173.791C589.404 171.391 590.38 169.503 592.332 168.124C594.283 166.728 596.96 166.029 600.361 166.029C603.53 166.029 606.628 166.674 609.653 167.963L608.069 171.588C605.115 170.371 602.438 169.762 600.039 169.762C597.926 169.762 596.333 170.093 595.259 170.756C594.185 171.418 593.647 172.331 593.647 173.495C593.647 174.283 593.844 174.954 594.238 175.509C594.65 176.064 595.304 176.592 596.199 177.094C597.094 177.595 598.813 178.32 601.355 179.269C604.846 180.54 607.201 181.82 608.418 183.109C609.653 184.398 610.271 186.019 610.271 187.97ZM622.007 196H617.549V166.566H622.007V196ZM617.173 158.59C617.173 157.57 617.424 156.827 617.925 156.361C618.426 155.878 619.053 155.636 619.805 155.636C620.521 155.636 621.139 155.878 621.658 156.361C622.177 156.845 622.437 157.588 622.437 158.59C622.437 159.593 622.177 160.345 621.658 160.846C621.139 161.33 620.521 161.571 619.805 161.571C619.053 161.571 618.426 161.33 617.925 160.846C617.424 160.345 617.173 159.593 617.173 158.59ZM640.967 192.858C641.755 192.858 642.515 192.804 643.25 192.697C643.984 192.571 644.565 192.446 644.995 192.321V195.731C644.512 195.964 643.796 196.152 642.847 196.295C641.916 196.457 641.074 196.537 640.322 196.537C634.629 196.537 631.782 193.538 631.782 187.541V170.031H627.566V167.882L631.782 166.029L633.662 159.745H636.24V166.566H644.78V170.031H636.24V187.353C636.24 189.125 636.661 190.486 637.502 191.435C638.344 192.383 639.499 192.858 640.967 192.858ZM655.361 196H650.903V166.566H655.361V196ZM650.527 158.59C650.527 157.57 650.778 156.827 651.279 156.361C651.781 155.878 652.407 155.636 653.159 155.636C653.875 155.636 654.493 155.878 655.012 156.361C655.531 156.845 655.791 157.588 655.791 158.59C655.791 159.593 655.531 160.345 655.012 160.846C654.493 161.33 653.875 161.571 653.159 161.571C652.407 161.571 651.781 161.33 651.279 160.846C650.778 160.345 650.527 159.593 650.527 158.59ZM690.22 181.256C690.22 186.055 689.011 189.805 686.594 192.509C684.177 195.194 680.838 196.537 676.577 196.537C673.945 196.537 671.609 195.919 669.568 194.684C667.527 193.449 665.951 191.676 664.841 189.367C663.731 187.057 663.176 184.354 663.176 181.256C663.176 176.458 664.376 172.725 666.775 170.058C669.174 167.372 672.504 166.029 676.765 166.029C680.883 166.029 684.15 167.399 686.567 170.138C689.002 172.877 690.22 176.583 690.22 181.256ZM667.795 181.256C667.795 185.016 668.547 187.881 670.051 189.85C671.555 191.819 673.766 192.804 676.685 192.804C679.603 192.804 681.814 191.828 683.318 189.877C684.84 187.908 685.601 185.034 685.601 181.256C685.601 177.514 684.84 174.677 683.318 172.743C681.814 170.792 679.585 169.816 676.631 169.816C673.713 169.816 671.51 170.774 670.024 172.689C668.538 174.605 667.795 177.461 667.795 181.256ZM718.203 196V176.959C718.203 174.56 717.657 172.77 716.565 171.588C715.473 170.407 713.763 169.816 711.436 169.816C708.356 169.816 706.1 170.648 704.668 172.313C703.236 173.979 702.52 176.727 702.52 180.558V196H698.062V166.566H701.687L702.412 170.595H702.627C703.54 169.145 704.82 168.026 706.467 167.238C708.114 166.432 709.95 166.029 711.973 166.029C715.518 166.029 718.185 166.889 719.976 168.607C721.766 170.308 722.661 173.039 722.661 176.798V196H718.203ZM114.761 267.052H114.519C112.46 270.042 109.381 271.537 105.281 271.537C101.431 271.537 98.4326 270.221 96.2842 267.589C94.1536 264.958 93.0884 261.216 93.0884 256.364C93.0884 251.512 94.1626 247.743 96.311 245.058C98.4595 242.372 101.449 241.029 105.281 241.029C109.273 241.029 112.335 242.479 114.465 245.38H114.814L114.626 243.258L114.519 241.19V229.213H118.977V271H115.352L114.761 267.052ZM105.845 267.804C108.888 267.804 111.09 266.981 112.451 265.333C113.83 263.668 114.519 260.992 114.519 257.304V256.364C114.519 252.192 113.821 249.22 112.424 247.448C111.046 245.657 108.835 244.762 105.791 244.762C103.177 244.762 101.172 245.783 99.7754 247.824C98.3968 249.847 97.7075 252.711 97.7075 256.417C97.7075 260.177 98.3968 263.015 99.7754 264.931C101.154 266.846 103.177 267.804 105.845 267.804ZM123.784 241.566H128.564L135.01 258.351C136.424 262.182 137.301 264.949 137.642 266.649H137.856C138.089 265.736 138.573 264.179 139.307 261.977C140.059 259.757 142.493 252.953 146.611 241.566H151.392L138.743 275.082C137.489 278.394 136.021 280.74 134.338 282.118C132.673 283.515 130.623 284.213 128.188 284.213C126.828 284.213 125.485 284.061 124.16 283.756V280.185C125.145 280.399 126.246 280.507 127.463 280.507C130.525 280.507 132.709 278.788 134.016 275.351L135.654 271.161L123.784 241.566ZM176.313 271V251.959C176.313 249.56 175.767 247.77 174.675 246.588C173.583 245.407 171.873 244.816 169.546 244.816C166.466 244.816 164.211 245.648 162.778 247.313C161.346 248.979 160.63 251.727 160.63 255.558V271H156.172V241.566H159.797L160.522 245.595H160.737C161.65 244.145 162.931 243.026 164.578 242.238C166.225 241.432 168.06 241.029 170.083 241.029C173.628 241.029 176.296 241.889 178.086 243.607C179.876 245.308 180.771 248.039 180.771 251.798V271H176.313ZM208.057 271L207.17 266.811H206.956C205.487 268.655 204.019 269.908 202.551 270.57C201.101 271.215 199.284 271.537 197.1 271.537C194.181 271.537 191.89 270.785 190.225 269.281C188.577 267.777 187.754 265.638 187.754 262.863C187.754 256.919 192.507 253.804 202.014 253.517L207.009 253.356V251.53C207.009 249.22 206.508 247.519 205.505 246.427C204.521 245.317 202.936 244.762 200.752 244.762C198.299 244.762 195.524 245.514 192.427 247.018L191.057 243.607C192.507 242.82 194.092 242.202 195.811 241.754C197.547 241.307 199.284 241.083 201.021 241.083C204.53 241.083 207.126 241.862 208.809 243.419C210.509 244.977 211.36 247.475 211.36 250.912V271H208.057ZM197.986 267.858C200.761 267.858 202.936 267.097 204.512 265.575C206.105 264.053 206.902 261.923 206.902 259.184V256.525L202.444 256.713C198.899 256.838 196.339 257.393 194.763 258.378C193.206 259.345 192.427 260.858 192.427 262.917C192.427 264.528 192.91 265.754 193.877 266.596C194.862 267.437 196.231 267.858 197.986 267.858ZM258.088 271V251.852C258.088 249.507 257.587 247.752 256.584 246.588C255.582 245.407 254.024 244.816 251.912 244.816C249.137 244.816 247.087 245.613 245.762 247.206C244.437 248.799 243.774 251.252 243.774 254.564V271H239.316V251.852C239.316 249.507 238.815 247.752 237.812 246.588C236.81 245.407 235.243 244.816 233.113 244.816C230.32 244.816 228.27 245.657 226.963 247.34C225.674 249.005 225.029 251.745 225.029 255.558V271H220.571V241.566H224.197L224.922 245.595H225.137C225.978 244.162 227.16 243.043 228.682 242.238C230.221 241.432 231.94 241.029 233.838 241.029C238.439 241.029 241.447 242.694 242.861 246.024H243.076C243.953 244.485 245.225 243.267 246.89 242.372C248.555 241.477 250.452 241.029 252.583 241.029C255.913 241.029 258.402 241.889 260.049 243.607C261.714 245.308 262.546 248.039 262.546 251.798V271H258.088ZM276.216 271H271.758V241.566H276.216V271ZM271.382 233.59C271.382 232.57 271.632 231.827 272.134 231.361C272.635 230.878 273.262 230.636 274.014 230.636C274.73 230.636 275.347 230.878 275.867 231.361C276.386 231.845 276.646 232.588 276.646 233.59C276.646 234.593 276.386 235.345 275.867 235.846C275.347 236.33 274.73 236.571 274.014 236.571C273.262 236.571 272.635 236.33 272.134 235.846C271.632 235.345 271.382 234.593 271.382 233.59ZM297.432 271.537C293.171 271.537 289.867 270.23 287.522 267.616C285.194 264.984 284.031 261.269 284.031 256.471C284.031 251.548 285.212 247.743 287.576 245.058C289.957 242.372 293.341 241.029 297.727 241.029C299.141 241.029 300.556 241.181 301.97 241.486C303.385 241.79 304.495 242.148 305.3 242.56L303.931 246.347C302.946 245.953 301.872 245.631 300.708 245.38C299.544 245.111 298.515 244.977 297.62 244.977C291.64 244.977 288.65 248.791 288.65 256.417C288.65 260.034 289.375 262.809 290.825 264.743C292.293 266.676 294.46 267.643 297.324 267.643C299.777 267.643 302.292 267.115 304.871 266.059V270.006C302.901 271.027 300.422 271.537 297.432 271.537ZM329.98 271L329.094 266.811H328.879C327.411 268.655 325.943 269.908 324.475 270.57C323.025 271.215 321.208 271.537 319.023 271.537C316.105 271.537 313.813 270.785 312.148 269.281C310.501 267.777 309.678 265.638 309.678 262.863C309.678 256.919 314.431 253.804 323.938 253.517L328.933 253.356V251.53C328.933 249.22 328.432 247.519 327.429 246.427C326.444 245.317 324.86 244.762 322.676 244.762C320.223 244.762 317.448 245.514 314.351 247.018L312.981 243.607C314.431 242.82 316.016 242.202 317.734 241.754C319.471 241.307 321.208 241.083 322.944 241.083C326.453 241.083 329.049 241.862 330.732 243.419C332.433 244.977 333.284 247.475 333.284 250.912V271H329.98ZM319.91 267.858C322.685 267.858 324.86 267.097 326.436 265.575C328.029 264.053 328.826 261.923 328.826 259.184V256.525L324.368 256.713C320.823 256.838 318.263 257.393 316.687 258.378C315.129 259.345 314.351 260.858 314.351 262.917C314.351 264.528 314.834 265.754 315.801 266.596C316.785 267.437 318.155 267.858 319.91 267.858ZM346.953 271H342.495V229.213H346.953V271ZM360.864 271H356.406V229.213H360.864V271ZM365.645 241.566H370.425L376.87 258.351C378.285 262.182 379.162 264.949 379.502 266.649H379.717C379.95 265.736 380.433 264.179 381.167 261.977C381.919 259.757 384.354 252.953 388.472 241.566H393.252L380.603 275.082C379.35 278.394 377.882 280.74 376.199 282.118C374.534 283.515 372.484 284.213 370.049 284.213C368.688 284.213 367.345 284.061 366.021 283.756V280.185C367.005 280.399 368.106 280.507 369.324 280.507C372.385 280.507 374.569 278.788 375.876 275.351L377.515 271.161L365.645 241.566ZM430.42 271L429.534 266.811H429.319C427.851 268.655 426.383 269.908 424.915 270.57C423.464 271.215 421.647 271.537 419.463 271.537C416.545 271.537 414.253 270.785 412.588 269.281C410.941 267.777 410.117 265.638 410.117 262.863C410.117 256.919 414.871 253.804 424.377 253.517L429.373 253.356V251.53C429.373 249.22 428.871 247.519 427.869 246.427C426.884 245.317 425.299 244.762 423.115 244.762C420.662 244.762 417.887 245.514 414.79 247.018L413.42 243.607C414.871 242.82 416.455 242.202 418.174 241.754C419.91 241.307 421.647 241.083 423.384 241.083C426.893 241.083 429.489 241.862 431.172 243.419C432.873 244.977 433.723 247.475 433.723 250.912V271H430.42ZM420.349 267.858C423.124 267.858 425.299 267.097 426.875 265.575C428.468 264.053 429.265 261.923 429.265 259.184V256.525L424.807 256.713C421.262 256.838 418.702 257.393 417.126 258.378C415.569 259.345 414.79 260.858 414.79 262.917C414.79 264.528 415.273 265.754 416.24 266.596C417.225 267.437 418.595 267.858 420.349 267.858ZM461.921 262.97C461.921 265.709 460.901 267.822 458.86 269.308C456.819 270.794 453.954 271.537 450.266 271.537C446.363 271.537 443.319 270.919 441.135 269.684V265.548C442.55 266.264 444.062 266.828 445.674 267.24C447.303 267.652 448.87 267.858 450.374 267.858C452.701 267.858 454.491 267.491 455.745 266.757C456.998 266.005 457.625 264.868 457.625 263.346C457.625 262.2 457.123 261.225 456.121 260.419C455.136 259.595 453.202 258.629 450.32 257.519C447.581 256.498 445.629 255.612 444.465 254.86C443.319 254.09 442.46 253.222 441.887 252.255C441.332 251.288 441.055 250.133 441.055 248.791C441.055 246.391 442.03 244.503 443.982 243.124C445.933 241.728 448.61 241.029 452.012 241.029C455.181 241.029 458.278 241.674 461.304 242.963L459.719 246.588C456.765 245.371 454.089 244.762 451.689 244.762C449.577 244.762 447.983 245.093 446.909 245.756C445.835 246.418 445.298 247.331 445.298 248.495C445.298 249.283 445.495 249.954 445.889 250.509C446.3 251.064 446.954 251.592 447.849 252.094C448.744 252.595 450.463 253.32 453.005 254.269C456.497 255.54 458.851 256.82 460.068 258.109C461.304 259.398 461.921 261.019 461.921 262.97ZM492.993 267.858C493.781 267.858 494.542 267.804 495.276 267.697C496.01 267.571 496.592 267.446 497.021 267.321V270.731C496.538 270.964 495.822 271.152 494.873 271.295C493.942 271.457 493.101 271.537 492.349 271.537C486.655 271.537 483.809 268.538 483.809 262.541V245.031H479.592V242.882L483.809 241.029L485.688 234.745H488.267V241.566H496.807V245.031H488.267V262.353C488.267 264.125 488.687 265.486 489.529 266.435C490.37 267.383 491.525 267.858 492.993 267.858ZM523.071 271V251.959C523.071 249.56 522.525 247.77 521.433 246.588C520.341 245.407 518.631 244.816 516.304 244.816C513.206 244.816 510.942 245.657 509.509 247.34C508.095 249.023 507.388 251.78 507.388 255.612V271H502.93V229.213H507.388V241.862C507.388 243.384 507.316 244.646 507.173 245.648H507.441C508.319 244.234 509.563 243.124 511.174 242.318C512.804 241.495 514.657 241.083 516.733 241.083C520.332 241.083 523.027 241.942 524.817 243.661C526.625 245.362 527.529 248.074 527.529 251.798V271H523.071ZM549.148 271.537C544.797 271.537 541.36 270.212 538.835 267.562C536.329 264.913 535.076 261.234 535.076 256.525C535.076 251.78 536.239 248.012 538.567 245.219C540.912 242.426 544.054 241.029 547.993 241.029C551.681 241.029 554.6 242.247 556.748 244.682C558.896 247.099 559.971 250.294 559.971 254.269V257.089H539.695C539.784 260.544 540.653 263.167 542.3 264.958C543.965 266.748 546.301 267.643 549.309 267.643C552.478 267.643 555.611 266.981 558.708 265.656V269.63C557.133 270.311 555.638 270.794 554.224 271.081C552.827 271.385 551.135 271.537 549.148 271.537ZM547.939 244.762C545.576 244.762 543.687 245.532 542.273 247.072C540.876 248.611 540.053 250.742 539.802 253.463H555.19C555.19 250.653 554.564 248.504 553.311 247.018C552.057 245.514 550.267 244.762 547.939 244.762ZM562.925 241.566H567.705L574.15 258.351C575.565 262.182 576.442 264.949 576.782 266.649H576.997C577.23 265.736 577.713 264.179 578.447 261.977C579.199 259.757 581.634 252.953 585.752 241.566H590.532L577.883 275.082C576.63 278.394 575.162 280.74 573.479 282.118C571.814 283.515 569.764 284.213 567.329 284.213C565.968 284.213 564.626 284.061 563.301 283.756V280.185C564.285 280.399 565.387 280.507 566.604 280.507C569.666 280.507 571.85 278.788 573.157 275.351L574.795 271.161L562.925 241.566ZM647.117 271V251.852C647.117 249.507 646.615 247.752 645.613 246.588C644.61 245.407 643.053 244.816 640.94 244.816C638.165 244.816 636.115 245.613 634.79 247.206C633.465 248.799 632.803 251.252 632.803 254.564V271H628.345V251.852C628.345 249.507 627.843 247.752 626.841 246.588C625.838 245.407 624.272 244.816 622.141 244.816C619.348 244.816 617.298 245.657 615.991 247.34C614.702 249.005 614.058 251.745 614.058 255.558V271H609.6V241.566H613.225L613.95 245.595H614.165C615.007 244.162 616.188 243.043 617.71 242.238C619.25 241.432 620.968 241.029 622.866 241.029C627.467 241.029 630.475 242.694 631.89 246.024H632.104C632.982 244.485 634.253 243.267 635.918 242.372C637.583 241.477 639.481 241.029 641.611 241.029C644.941 241.029 647.43 241.889 649.077 243.607C650.742 245.308 651.575 248.039 651.575 251.798V271H647.117ZM686.191 256.256C686.191 261.055 684.983 264.805 682.566 267.509C680.149 270.194 676.81 271.537 672.549 271.537C669.917 271.537 667.581 270.919 665.54 269.684C663.499 268.449 661.923 266.676 660.813 264.367C659.703 262.057 659.148 259.354 659.148 256.256C659.148 251.458 660.347 247.725 662.747 245.058C665.146 242.372 668.476 241.029 672.737 241.029C676.855 241.029 680.122 242.399 682.539 245.138C684.974 247.877 686.191 251.583 686.191 256.256ZM663.767 256.256C663.767 260.016 664.519 262.881 666.023 264.85C667.527 266.819 669.738 267.804 672.656 267.804C675.575 267.804 677.786 266.828 679.29 264.877C680.811 262.908 681.572 260.034 681.572 256.256C681.572 252.514 680.811 249.677 679.29 247.743C677.786 245.792 675.557 244.816 672.603 244.816C669.684 244.816 667.482 245.774 665.996 247.689C664.51 249.605 663.767 252.461 663.767 256.256ZM700.479 271L689.307 241.566H694.087L700.425 259.022C701.857 263.104 702.699 265.754 702.949 266.972H703.164C703.361 266.023 703.979 264.062 705.017 261.09C706.073 258.1 708.428 251.592 712.08 241.566H716.86L705.688 271H700.479ZM734.021 271.537C729.67 271.537 726.233 270.212 723.708 267.562C721.202 264.913 719.949 261.234 719.949 256.525C719.949 251.78 721.112 248.012 723.44 245.219C725.785 242.426 728.927 241.029 732.866 241.029C736.554 241.029 739.473 242.247 741.621 244.682C743.77 247.099 744.844 250.294 744.844 254.269V257.089H724.568C724.657 260.544 725.526 263.167 727.173 264.958C728.838 266.748 731.174 267.643 734.182 267.643C737.351 267.643 740.484 266.981 743.582 265.656V269.63C742.006 270.311 740.511 270.794 739.097 271.081C737.7 271.385 736.008 271.537 734.021 271.537ZM732.812 244.762C730.449 244.762 728.56 245.532 727.146 247.072C725.75 248.611 724.926 250.742 724.675 253.463H740.063C740.063 250.653 739.437 248.504 738.184 247.018C736.93 245.514 735.14 244.762 732.812 244.762ZM755.505 260.177V258.727C755.505 256.632 755.828 254.914 756.472 253.571C757.117 252.21 758.316 250.778 760.071 249.274C762.506 247.215 764.036 245.666 764.663 244.628C765.308 243.59 765.63 242.336 765.63 240.868C765.63 239.042 765.039 237.637 763.857 236.652C762.694 235.649 761.011 235.148 758.809 235.148C757.394 235.148 756.016 235.318 754.673 235.658C753.33 235.98 751.79 236.58 750.054 237.458L748.469 233.832C751.853 232.06 755.389 231.173 759.077 231.173C762.497 231.173 765.155 232.015 767.053 233.698C768.951 235.381 769.9 237.753 769.9 240.814C769.9 242.121 769.721 243.276 769.363 244.279C769.023 245.264 768.512 246.203 767.832 247.099C767.152 247.976 765.684 249.399 763.428 251.369C761.619 252.908 760.42 254.188 759.829 255.209C759.256 256.229 758.97 257.59 758.97 259.291V260.177H755.505ZM754.189 268.153C754.189 265.718 755.264 264.501 757.412 264.501C758.451 264.501 759.247 264.814 759.802 265.441C760.375 266.068 760.662 266.972 760.662 268.153C760.662 269.299 760.375 270.194 759.802 270.839C759.229 271.465 758.433 271.779 757.412 271.779C756.481 271.779 755.711 271.501 755.103 270.946C754.494 270.373 754.189 269.442 754.189 268.153Z" fill="#013970"/>
</svg>
